<svg width="24" height="18" viewBox="0 0 24 18" fill="none" xmlns="http://www.w3.org/2000/svg">
<path d="M14.1663 5.50629C14.1663 5.34379 14.2252 5.1766 14.3429 5.00471C14.4606 4.83282 14.591 4.72015 14.734 4.66671C15.2576 4.48615 15.7812 4.35074 16.3048 4.26046C16.8285 4.17018 17.3795 4.12504 17.958 4.12504C18.3191 4.12504 18.6759 4.14779 19.0283 4.19329C19.3808 4.23879 19.7282 4.29729 20.0705 4.36879C20.233 4.4049 20.3731 4.49518 20.4908 4.63962C20.6086 4.78407 20.6671 4.94657 20.6663 5.12712C20.6663 5.43407 20.567 5.65976 20.3684 5.80421C20.1698 5.94865 19.917 5.98476 19.6101 5.91254C19.3573 5.85837 19.0912 5.81757 18.8117 5.79012C18.5322 5.76268 18.2476 5.74932 17.958 5.75004C17.4886 5.75004 17.0281 5.79518 16.5768 5.88546C16.1254 5.97574 15.692 6.0931 15.2768 6.23754C14.9518 6.36393 14.6856 6.3549 14.4783 6.21046C14.2711 6.06601 14.1671 5.83129 14.1663 5.50629ZM14.1663 11.4646C14.1663 11.3021 14.2252 11.1349 14.3429 10.963C14.4606 10.7912 14.5914 10.6785 14.7351 10.625C15.2587 10.4445 15.7823 10.3091 16.3059 10.2188C16.8295 10.1285 17.3802 10.0834 17.958 10.0834C18.3191 10.0834 18.6759 10.1061 19.0283 10.1516C19.3808 10.1971 19.7282 10.2556 20.0705 10.3271C20.233 10.3632 20.3731 10.4535 20.4908 10.598C20.6086 10.7424 20.6671 10.9049 20.6663 11.0855C20.6663 11.3924 20.567 11.6181 20.3684 11.7625C20.1698 11.907 19.917 11.9431 19.6101 11.8709C19.3573 11.8167 19.0912 11.7759 18.8117 11.7485C18.5322 11.721 18.2476 11.7077 17.958 11.7084C17.4886 11.7084 17.0281 11.7492 16.5768 11.8308C16.1254 11.9124 15.692 12.0251 15.2768 12.1688C14.9518 12.2952 14.6853 12.2905 14.4773 12.1547C14.2693 12.0189 14.1656 11.7893 14.1663 11.4657V11.4646ZM14.1663 8.48546C14.1663 8.32296 14.2252 8.15576 14.3429 7.98387C14.4606 7.81199 14.5914 7.69932 14.7351 7.64587C15.2587 7.46532 15.7823 7.3299 16.3059 7.23962C16.8295 7.14935 17.3802 7.10421 17.958 7.10421C18.3191 7.10421 18.6759 7.12696 19.0283 7.17246C19.3808 7.21796 19.7282 7.27646 20.0705 7.34796C20.233 7.38407 20.3731 7.47435 20.4908 7.61879C20.6086 7.76324 20.6671 7.92574 20.6663 8.10629C20.6663 8.41324 20.567 8.63893 20.3684 8.78337C20.1698 8.92782 19.917 8.96393 19.6101 8.89171C19.3573 8.83754 19.0912 8.79673 18.8117 8.76929C18.5322 8.74185 18.2476 8.72849 17.958 8.72921C17.4886 8.72921 17.0281 8.77435 16.5768 8.86462C16.1254 8.9549 15.692 9.07226 15.2768 9.21671C14.9518 9.3431 14.6856 9.33407 14.4783 9.18962C14.2711 9.04518 14.1671 8.81046 14.1663 8.48546ZM6.04134 13.3334C6.88995 13.3334 7.71618 13.4283 8.52001 13.6183C9.32384 13.8082 10.1226 14.0924 10.9163 14.4709V3.80004C10.1761 3.36671 9.39065 3.04171 8.56009 2.82504C7.72954 2.60837 6.88995 2.50004 6.04134 2.50004C5.39134 2.50004 4.74567 2.56324 4.10434 2.68962C3.46301 2.81601 2.84479 3.0056 2.24967 3.25837V13.9834C2.88162 13.7667 3.50923 13.6042 4.13251 13.4959C4.75579 13.3875 5.39206 13.3334 6.04134 13.3334ZM13.083 14.4709C13.8775 14.0917 14.6762 13.8072 15.4793 13.6172C16.2825 13.4273 17.1087 13.3327 17.958 13.3334C18.608 13.3334 19.2446 13.3875 19.8679 13.4959C20.4912 13.6042 21.1185 13.7667 21.7497 13.9834V3.25837C21.1538 3.0056 20.5353 2.81601 19.8939 2.68962C19.2526 2.56324 18.6073 2.50004 17.958 2.50004C17.1094 2.50004 16.2698 2.60837 15.4393 2.82504C14.6087 3.04171 13.8233 3.36671 13.083 3.80004V14.4709ZM11.9997 17.098C11.7469 17.098 11.5075 17.0662 11.2814 17.0026C11.0554 16.9391 10.8434 16.8535 10.6455 16.7459C9.94134 16.3306 9.20106 16.0193 8.42467 15.812C7.64829 15.6048 6.85384 15.5008 6.04134 15.5C5.28301 15.5 4.53804 15.5993 3.80642 15.798C3.07481 15.9966 2.37534 16.2764 1.70801 16.6375C1.32884 16.8362 0.963397 16.8271 0.611675 16.6105C0.259952 16.3938 0.08373 16.0778 0.0830078 15.6625V2.60837C0.0830078 2.40976 0.132841 2.22018 0.232508 2.03962C0.332174 1.85907 0.480952 1.72365 0.678841 1.63337C1.5094 1.20004 2.37606 0.875041 3.27884 0.658374C4.18162 0.441708 5.10245 0.333374 6.04134 0.333374C7.08856 0.333374 8.1134 0.468791 9.11584 0.739624C10.1183 1.01046 11.0796 1.41671 11.9997 1.95837C12.9205 1.41671 13.8821 1.01046 14.8846 0.739624C15.887 0.468791 16.9115 0.333374 17.958 0.333374C18.8969 0.333374 19.8177 0.441708 20.7205 0.658374C21.6233 0.875041 22.49 1.20004 23.3205 1.63337C23.5191 1.72365 23.6683 1.85907 23.7679 2.03962C23.8676 2.22018 23.9171 2.40976 23.9163 2.60837V15.6625C23.9163 16.0778 23.7405 16.3938 23.3888 16.6105C23.037 16.8271 22.6712 16.8362 22.2913 16.6375C21.6233 16.2764 20.9238 15.9966 20.1929 15.798C19.462 15.5993 18.7171 15.5 17.958 15.5C17.1455 15.5 16.3511 15.604 15.5747 15.812C14.7983 16.02 14.058 16.3313 13.3538 16.7459C13.1552 16.8542 12.9429 16.9402 12.7168 17.0037C12.4908 17.0673 12.2517 17.0987 11.9997 17.098Z" fill="white"/>
</svg>
