<svg width="27" height="25" viewBox="0 0 27 25" fill="none" xmlns="http://www.w3.org/2000/svg">
<path d="M0.375 2.25C0.375 1.35117 1.10117 0.625 2 0.625H6.0625C10.0996 0.625 13.375 3.90039 13.375 7.9375C13.375 10.9234 11.5875 13.4879 9.02305 14.6254L11.6332 21.1457C11.9684 21.9785 11.5621 22.923 10.7293 23.2582C9.89648 23.5934 8.95195 23.1871 8.6168 22.3543L5.77305 15.25H3.625V21.75C3.625 22.6488 2.89883 23.375 2 23.375C1.10117 23.375 0.375 22.6488 0.375 21.75V2.25ZM3.625 12H6.0625C8.30703 12 10.125 10.182 10.125 7.9375C10.125 5.69297 8.30703 3.875 6.0625 3.875H3.625V12ZM16.625 7.125H20.6875C23.8309 7.125 26.375 9.66914 26.375 12.8125C26.375 15.9559 23.8309 18.5 20.6875 18.5H18.25V23.375C18.25 24.2738 17.5238 25 16.625 25C15.7262 25 15 24.2738 15 23.375V8.75C15 7.85117 15.7262 7.125 16.625 7.125ZM20.6875 15.25C22.0332 15.25 23.125 14.1582 23.125 12.8125C23.125 11.4668 22.0332 10.375 20.6875 10.375H18.25V15.25H20.6875Z" fill="white"/>
</svg>
