<svg width="20" height="22" viewBox="0 0 20 22" fill="none" xmlns="http://www.w3.org/2000/svg">
<path d="M2.41667 21.8333C1.82084 21.8333 1.31059 21.621 0.885918 21.1963C0.461252 20.7716 0.24928 20.2617 0.250002 19.6666V4.49996C0.250002 3.90413 0.462335 3.39388 0.887002 2.96921C1.31167 2.54455 1.82156 2.33257 2.41667 2.3333H3.5V1.24996C3.5 0.943019 3.604 0.685546 3.812 0.477546C4.02 0.269546 4.27711 0.165908 4.58334 0.16663C4.89028 0.16663 5.14775 0.27063 5.35575 0.47863C5.56375 0.68663 5.66739 0.943741 5.66667 1.24996V2.3333H14.3333V1.24996C14.3333 0.943019 14.4373 0.685546 14.6453 0.477546C14.8533 0.269546 15.1104 0.165908 15.4167 0.16663C15.7236 0.16663 15.9811 0.27063 16.1891 0.47863C16.3971 0.68663 16.5007 0.943741 16.5 1.24996V2.3333H17.5833C18.1792 2.3333 18.6894 2.54563 19.1141 2.9703C19.5388 3.39496 19.7507 3.90485 19.75 4.49996V19.6666C19.75 20.2625 19.5377 20.7727 19.113 21.1974C18.6883 21.622 18.1784 21.834 17.5833 21.8333H2.41667ZM2.41667 19.6666H17.5833V8.8333H2.41667V19.6666ZM2.41667 6.66663H17.5833V4.49996H2.41667V6.66663ZM9.53959 17.6083L8.64584 15.6041L6.64167 14.7104C6.44306 14.6201 6.34375 14.4666 6.34375 14.25C6.34375 14.0333 6.44306 13.8798 6.64167 13.7895L8.64584 12.8958L9.53959 10.8916C9.62986 10.693 9.78334 10.5937 10 10.5937C10.2167 10.5937 10.3701 10.693 10.4604 10.8916L11.3542 12.8958L13.3583 13.7895C13.5569 13.8798 13.6563 14.0333 13.6563 14.25C13.6563 14.4666 13.5569 14.6201 13.3583 14.7104L11.3542 15.6041L10.4604 17.6083C10.3701 17.8069 10.2167 17.9062 10 17.9062C9.78334 17.9062 9.62986 17.8069 9.53959 17.6083Z" fill="white"/>
</svg>
