<svg width="11" height="13" viewBox="0 0 11 13" fill="none" xmlns="http://www.w3.org/2000/svg">
<path d="M9.86883 0.769578C10.3858 0.48818 11 0.867008 11 1.43404V11.8113C11 12.3783 10.3858 12.7571 9.86883 12.4757C9.174 12.0981 7.117 10.9979 5.88561 10.5132C5.12204 10.2084 4.32778 9.98523 3.51633 9.84752L3.04394 12.1877C3.02821 12.2656 2.99713 12.3397 2.95247 12.4058C2.90781 12.4719 2.85045 12.5286 2.78366 12.5727C2.71687 12.6168 2.64196 12.6475 2.5632 12.6629C2.48445 12.6783 2.40339 12.6783 2.32467 12.6627C2.24594 12.6471 2.17108 12.6164 2.10437 12.5721C2.03765 12.5279 1.98038 12.4711 1.93584 12.405C1.89129 12.3388 1.86034 12.2646 1.84474 12.1866C1.82915 12.1087 1.82922 12.0284 1.84494 11.9504L2.299 9.70228C2.13435 9.69007 1.96954 9.68018 1.80461 9.67263C0.825 9.62785 0 8.84417 0 7.83296V5.41233C0 4.40112 0.825 3.61744 1.80461 3.57266C2.02156 3.56237 2.23483 3.54906 2.44444 3.53151V9.04327H2.46522C2.51886 8.95128 2.596 8.87489 2.6889 8.82178C2.7818 8.76868 2.88718 8.74072 2.99444 8.74072C3.10171 8.74072 3.20709 8.76868 3.29999 8.82178C3.39288 8.87489 3.47003 8.95128 3.52367 9.04327H3.66667V3.37175C4.42576 3.23213 5.16888 3.01785 5.885 2.7321C7.117 2.24737 9.174 1.14659 9.86883 0.769578Z" fill="#868E96"/>
</svg>
