<svg width="14" height="15" viewBox="0 0 14 15" fill="none" xmlns="http://www.w3.org/2000/svg">
<path d="M9.04372 9.07444C9.96624 9.07444 10.851 9.44319 11.5033 10.0996C12.1556 10.7559 12.5221 11.6462 12.5221 12.5744V13.2744C12.5221 13.6457 12.3755 14.0018 12.1146 14.2644C11.8536 14.5269 11.4997 14.6744 11.1307 14.6744H1.39134C1.02234 14.6744 0.668442 14.5269 0.407515 14.2644C0.146587 14.0018 0 13.6457 0 13.2744V12.5744C0 11.6462 0.366468 10.7559 1.01879 10.0996C1.6711 9.44319 2.55584 9.07444 3.47835 9.07444H9.04372ZM12.8101 5.63114C12.935 5.50426 13.1034 5.43022 13.2807 5.42416C13.4581 5.4181 13.6311 5.4805 13.7643 5.59856C13.8974 5.71663 13.9807 5.88145 13.997 6.05928C14.0134 6.2371 13.9616 6.41449 13.8522 6.55514L13.7938 6.62164L11.8264 8.60124C11.7066 8.72176 11.5472 8.79416 11.3782 8.80486C11.2091 8.81556 11.042 8.76381 10.9081 8.65934L10.8427 8.60124L9.85905 7.61144C9.73296 7.48576 9.65937 7.31634 9.65335 7.13785C9.64733 6.95937 9.70934 6.78532 9.82668 6.65133C9.94401 6.51734 10.1078 6.43355 10.2845 6.4171C10.4613 6.40064 10.6376 6.45278 10.7773 6.56284L10.8427 6.62164L11.3346 7.11654L12.8101 5.63114ZM6.26104 0.674438C7.18356 0.674438 8.06829 1.04319 8.72061 1.69956C9.37292 2.35594 9.73939 3.24618 9.73939 4.17444C9.73939 5.1027 9.37292 5.99293 8.72061 6.64931C8.06829 7.30569 7.18356 7.67444 6.26104 7.67444C5.33852 7.67444 4.45379 7.30569 3.80147 6.64931C3.14915 5.99293 2.78268 5.1027 2.78268 4.17444C2.78268 3.24618 3.14915 2.35594 3.80147 1.69956C4.45379 1.04319 5.33852 0.674438 6.26104 0.674438Z" fill="#868E96"/>
</svg>
