<svg width="14" height="13" viewBox="0 0 14 13" fill="none" xmlns="http://www.w3.org/2000/svg">
<path fill-rule="evenodd" clip-rule="evenodd" d="M7.33259 0.674439C7.66898 0.674332 7.99297 0.801376 8.23963 1.0301C8.48628 1.25883 8.63737 1.57234 8.66259 1.90777L8.66593 2.00777V11.3411H9.33259V5.00777C9.33257 4.92975 9.35991 4.8542 9.40985 4.79427C9.4598 4.73433 9.52919 4.69382 9.60593 4.67977L9.66593 4.67444H10.6659C11.0023 4.67433 11.3263 4.80138 11.573 5.0301C11.8196 5.25883 11.9707 5.57234 11.9959 5.90777L11.9993 6.00777V11.3411H12.6659C12.8358 11.3413 12.9993 11.4064 13.1228 11.523C13.2464 11.6397 13.3208 11.7991 13.3307 11.9687C13.3407 12.1383 13.2855 12.3054 13.1764 12.4357C13.0674 12.566 12.9127 12.6497 12.7439 12.6698L12.6659 12.6744H0.665928C0.496008 12.6743 0.332573 12.6092 0.209016 12.4925C0.0854585 12.3759 0.0111048 12.2165 0.00114669 12.0468C-0.00881139 11.8772 0.0463778 11.7102 0.155438 11.5799C0.264498 11.4496 0.419197 11.3658 0.587928 11.3458L0.665928 11.3411H1.33259V2.00777C1.33249 1.67139 1.45953 1.34739 1.68826 1.10074C1.91699 0.854086 2.23049 0.703001 2.56593 0.677772L2.66593 0.674439H7.33259ZM5.99926 8.67444H3.99926V10.0078H5.99926V8.67444ZM5.99926 6.00777H3.99926V7.34111H5.99926V6.00777ZM5.99926 3.34111H3.99926V4.67444H5.99926V3.34111Z" fill="#868E96"/>
</svg>
