<svg width="21" height="18" viewBox="0 0 21 18" fill="none" xmlns="http://www.w3.org/2000/svg">
<path d="M18.9375 3.3125H2.6875C2.47201 3.3125 2.26535 3.2269 2.11298 3.07452C1.9606 2.92215 1.875 2.71549 1.875 2.5C1.875 2.28451 1.9606 2.07785 2.11298 1.92548C2.26535 1.7731 2.47201 1.6875 2.6875 1.6875H16.5C16.7155 1.6875 16.9222 1.6019 17.0745 1.44952C17.2269 1.29715 17.3125 1.09049 17.3125 0.875C17.3125 0.659512 17.2269 0.452849 17.0745 0.300476C16.9222 0.148103 16.7155 0.0625 16.5 0.0625H2.6875C2.04186 0.0651735 1.42342 0.322839 0.966881 0.779381C0.510339 1.23592 0.252673 1.85436 0.25 2.5V15.5C0.252673 16.1456 0.510339 16.7641 0.966881 17.2206C1.42342 17.6772 2.04186 17.9348 2.6875 17.9375H18.9375C19.3685 17.9375 19.7818 17.7663 20.0865 17.4615C20.3913 17.1568 20.5625 16.7435 20.5625 16.3125V4.9375C20.5625 4.50652 20.3913 4.0932 20.0865 3.78845C19.7818 3.48371 19.3685 3.3125 18.9375 3.3125ZM18.9375 16.3125H2.6875C2.47201 16.3125 2.26535 16.2269 2.11298 16.0745C1.9606 15.9222 1.875 15.7155 1.875 15.5V4.79531C2.13558 4.8893 2.41049 4.93741 2.6875 4.9375H18.9375V16.3125ZM14.0625 10.625C14.0625 10.384 14.134 10.1483 14.2679 9.9479C14.4018 9.74748 14.5922 9.59127 14.8149 9.49902C15.0376 9.40678 15.2826 9.38264 15.519 9.42967C15.7554 9.47669 15.9726 9.59277 16.143 9.76321C16.3135 9.93366 16.4296 10.1508 16.4766 10.3872C16.5236 10.6236 16.4995 10.8687 16.4072 11.0914C16.315 11.3141 16.1588 11.5044 15.9584 11.6384C15.7579 11.7723 15.5223 11.8438 15.2812 11.8438C14.958 11.8438 14.648 11.7153 14.4195 11.4868C14.1909 11.2582 14.0625 10.9482 14.0625 10.625Z" fill="white"/>
</svg>
