<svg width="13" height="18" viewBox="0 0 13 18" fill="none" xmlns="http://www.w3.org/2000/svg">
<path d="M0.952865 10.4083C1.16953 10.1916 1.43134 10.0876 1.73828 10.0963C2.04523 10.1049 2.30703 10.218 2.5237 10.4353L5.58411 13.4958L5.58411 1.41659C5.58411 1.10964 5.68811 0.852173 5.89611 0.644173C6.10411 0.436173 6.36123 0.332533 6.66745 0.333256C6.97439 0.333256 7.23186 0.437256 7.43987 0.645256C7.64786 0.853256 7.7515 1.11037 7.75078 1.41659L7.75078 13.4958L10.8383 10.4083C11.0549 10.1916 11.3124 10.0833 11.6107 10.0833C11.909 10.0833 12.1661 10.1916 12.382 10.4083C12.5987 10.6249 12.707 10.8824 12.707 11.1807C12.707 11.479 12.5987 11.7361 12.382 11.952L7.42578 16.9083C7.31745 17.0166 7.20009 17.0935 7.0737 17.139C6.94731 17.1845 6.81189 17.2069 6.66745 17.2062C6.523 17.2062 6.38759 17.1834 6.2612 17.1379C6.13481 17.0924 6.01745 17.0159 5.90911 16.9083L0.925782 11.9249C0.727171 11.7263 0.627864 11.4782 0.627864 11.1807C0.627864 10.8831 0.736198 10.6256 0.952865 10.4083Z" fill="white"/>
</svg>
