<svg width="13" height="18" viewBox="0 0 13 18" fill="none" xmlns="http://www.w3.org/2000/svg">
<path d="M12.5471 7.59174C12.3305 7.80841 12.0687 7.91241 11.7617 7.90374C11.4548 7.89508 11.193 7.78205 10.9763 7.56466L7.91589 4.50424L7.91589 16.5834C7.91589 16.8904 7.81189 17.1478 7.60389 17.3558C7.39589 17.5638 7.13877 17.6675 6.83255 17.6667C6.52561 17.6667 6.26814 17.5627 6.06013 17.3547C5.85214 17.1467 5.7485 16.8896 5.74922 16.5834L5.74922 4.50424L2.66172 7.59174C2.44505 7.80841 2.18758 7.91674 1.8893 7.91674C1.59102 7.91674 1.33391 7.80841 1.11797 7.59174C0.901302 7.37508 0.792969 7.11761 0.792969 6.81933C0.792969 6.52105 0.901302 6.26394 1.11797 6.04799L6.07422 1.09174C6.18255 0.98341 6.29991 0.906492 6.4263 0.860992C6.55269 0.815493 6.68811 0.793104 6.83255 0.793825C6.977 0.793825 7.11241 0.816578 7.2388 0.862078C7.36519 0.907578 7.48255 0.984133 7.59089 1.09174L12.5742 6.07508C12.7728 6.27369 12.8721 6.52177 12.8721 6.81933C12.8721 7.11688 12.7638 7.37435 12.5471 7.59174Z" fill="white"/>
</svg>
