<svg width="261" height="243" viewBox="0 0 261 243" fill="none" xmlns="http://www.w3.org/2000/svg">
<path d="M189.724 169.332L204.227 136.815L226.306 126.894L260.731 142.118L238.893 191.074L189.724 169.332Z" fill="#F4F4F4"/>
<path opacity="0.05" d="M243.044 163.783L207.845 148.119C207.502 147.967 207.1 148.12 206.947 148.461L206.947 148.462C206.794 148.803 206.947 149.204 207.29 149.356L242.489 165.02C242.832 165.172 243.234 165.019 243.387 164.678L243.387 164.677C243.54 164.336 243.387 163.936 243.044 163.783Z" fill="#292A2E"/>
<path opacity="0.05" d="M240.086 170.813L204.888 155.15C204.545 154.997 204.143 155.15 203.99 155.492L203.99 155.492C203.836 155.833 203.99 156.234 204.333 156.386L239.531 172.05C239.874 172.203 240.276 172.049 240.43 171.708L240.43 171.708C240.583 171.366 240.429 170.966 240.086 170.813Z" fill="#292A2E"/>
<path opacity="0.05" d="M222.383 171.406L201.868 162.341C201.703 162.267 201.516 162.262 201.347 162.326C201.179 162.39 201.043 162.519 200.969 162.682C200.932 162.764 200.912 162.851 200.91 162.94C200.908 163.029 200.923 163.118 200.955 163.201C200.986 163.284 201.035 163.36 201.096 163.424C201.157 163.489 201.231 163.541 201.313 163.577L221.828 172.643C221.993 172.716 222.18 172.721 222.348 172.657C222.517 172.593 222.653 172.464 222.726 172.3C222.8 172.136 222.805 171.95 222.741 171.782C222.676 171.615 222.548 171.479 222.383 171.406Z" fill="#292A2E"/>
<path opacity="0.4" d="M226.306 126.894L219.173 143.407L204.227 136.815L226.306 126.894Z" fill="white"/>
<path d="M14.2921 89.559L6.24283 54.8947L17.893 33.7478L54.5926 25.2998L66.7091 77.4917L14.2921 89.559Z" fill="#F4F4F4"/>
<path opacity="0.05" d="M53.5444 53.2001L15.9612 61.7598C15.5951 61.8432 15.3662 62.2063 15.4499 62.5709L15.45 62.5711C15.5337 62.9357 15.8984 63.1636 16.2646 63.0802L53.8477 54.5205C54.2138 54.4372 54.4428 54.074 54.359 53.7095L54.359 53.7092C54.2752 53.3446 53.9105 53.1167 53.5444 53.2001Z" fill="#292A2E"/>
<path opacity="0.05" d="M55.4271 60.5881L17.8439 69.1478C17.4778 69.2312 17.2489 69.5944 17.3326 69.9589L17.3327 69.9592C17.4164 70.3238 17.7811 70.5517 18.1472 70.4683L55.7304 61.9086C56.0965 61.8252 56.3254 61.4621 56.2417 61.0975L56.2416 61.0972C56.1579 60.7327 55.7932 60.5047 55.4271 60.5881Z" fill="#292A2E"/>
<path opacity="0.05" d="M41.6395 71.6619L19.773 76.7029C19.5971 76.7429 19.4443 76.8508 19.3483 77.0029C19.2523 77.155 19.2209 77.3389 19.261 77.514C19.2809 77.6008 19.3177 77.6828 19.3694 77.7554C19.4211 77.828 19.4867 77.8898 19.5624 77.9371C19.638 77.9845 19.7224 78.0165 19.8105 78.0313C19.8986 78.0462 19.9888 78.0437 20.0759 78.0238L41.9424 72.9828C42.1183 72.9427 42.2711 72.8348 42.3671 72.6826C42.4631 72.5305 42.4945 72.3466 42.4544 72.1714C42.4141 71.9962 42.3056 71.8442 42.1528 71.7487C42 71.6531 41.8154 71.6219 41.6395 71.6619Z" fill="#292A2E"/>
<path opacity="0.4" d="M17.893 33.7478L22.1659 51.2128L6.24283 54.8947L17.893 33.7478Z" fill="white"/>
<path d="M189.035 195.822H41.9822C39.9974 195.822 38.0939 195.037 36.6904 193.64C35.287 192.242 34.4985 190.347 34.4984 188.371L39.6181 23.0826H201.355L196.519 188.371C196.519 189.349 196.326 190.318 195.95 191.222C195.573 192.126 195.022 192.948 194.327 193.64C193.632 194.332 192.807 194.881 191.899 195.255C190.991 195.63 190.018 195.822 189.035 195.822Z" fill="#292A2E"/>
<path opacity="0.9" d="M189.035 195.822H41.9822C39.9974 195.822 38.0939 195.037 36.6904 193.64C35.287 192.242 34.4985 190.347 34.4984 188.371L39.6181 23.0826H201.355L196.519 188.371C196.519 189.349 196.326 190.318 195.95 191.222C195.573 192.126 195.022 192.948 194.327 193.64C193.632 194.332 192.807 194.881 191.899 195.255C190.991 195.63 190.018 195.822 189.035 195.822Z" fill="white"/>
<path d="M189.035 196.105H41.9822C39.9226 196.103 37.948 195.287 36.4916 193.837C35.0352 192.387 34.216 190.421 34.2137 188.37L39.3333 22.7994H201.639L196.803 188.37C196.801 190.421 195.982 192.387 194.525 193.837C193.069 195.287 191.094 196.103 189.035 196.105ZM39.9019 23.3658L34.7822 188.37C34.7844 190.271 35.5437 192.093 36.8935 193.437C38.2433 194.781 40.0734 195.537 41.9822 195.539H189.035C190.944 195.537 192.774 194.781 194.123 193.437C195.473 192.093 196.232 190.271 196.234 188.37L201.07 23.3658H39.9019Z" fill="#292A2E"/>
<path d="M194.439 6.69354H47.3863C45.3267 6.69579 43.352 7.51147 41.8956 8.96161C40.4392 10.4117 39.62 12.3779 39.6178 14.4287L39.3334 23.3658H201.639L202.208 14.4287C202.205 12.3779 201.386 10.4117 199.93 8.96161C198.473 7.51147 196.499 6.69579 194.439 6.69354Z" fill="#0C0C0C"/>
<path d="M197.283 6.69354H48.524C46.4644 6.69579 44.4897 7.51147 43.0333 8.96161C41.5769 10.4117 40.7577 12.3779 40.7555 14.4287V23.3658H205.052V14.4287C205.05 12.3779 204.23 10.4117 202.774 8.96161C201.318 7.51147 199.343 6.69579 197.283 6.69354Z" fill="#292A2E"/>
<path d="M41.0396 23.0812H204.767V191.203C204.767 193.179 203.979 195.074 202.575 196.472C201.172 197.869 199.268 198.654 197.283 198.654H48.524C46.5392 198.654 44.6357 197.869 43.2322 196.472C41.8287 195.074 41.0402 193.179 41.0402 191.203V23.0812H41.0396Z" fill="white"/>
<path d="M197.283 198.937H48.524C46.4644 198.935 44.4898 198.119 43.0334 196.669C41.5771 195.219 40.7578 193.253 40.7555 191.202V22.7994H205.052V191.202C205.05 193.253 204.23 195.219 202.774 196.669C201.318 198.119 199.343 198.935 197.283 198.937ZM41.3241 23.3658V191.202C41.3262 193.103 42.0855 194.925 43.4353 196.269C44.7851 197.613 46.6152 198.369 48.524 198.371H197.283C199.192 198.369 201.022 197.613 202.372 196.269C203.721 194.925 204.481 193.103 204.483 191.202V23.3658H41.3241Z" fill="#292A2E"/>
<path d="M70.0418 57.9958H53.6989C52.788 57.9949 51.9147 57.6342 51.2706 56.9928C50.6264 56.3515 50.2641 55.482 50.263 54.575V38.3021C50.2641 37.3951 50.6264 36.5255 51.2706 35.8842C51.9147 35.2429 52.788 34.8822 53.6989 34.8812H70.0418C70.9526 34.8823 71.8259 35.243 72.47 35.8843C73.114 36.5256 73.4763 37.3951 73.4774 38.3021V54.575C73.4763 55.482 73.114 56.3514 72.47 56.9927C71.8259 57.6341 70.9526 57.9948 70.0418 57.9958ZM53.6989 35.4476C52.9388 35.4485 52.2101 35.7495 51.6726 36.2846C51.1351 36.8197 50.8328 37.5452 50.8319 38.3021V54.575C50.8328 55.3318 51.1351 56.0574 51.6726 56.5925C52.2101 57.1276 52.9388 57.4286 53.6989 57.4294H70.0418C70.8018 57.4285 71.5305 57.1275 72.0679 56.5924C72.6053 56.0573 72.9076 55.3318 72.9085 54.575V38.3021C72.9076 37.5453 72.6053 36.8198 72.0679 36.2847C71.5305 35.7496 70.8018 35.4485 70.0418 35.4476H53.6989Z" fill="#292A2E"/>
<path d="M70.0418 90.2353H53.6989C52.788 90.2343 51.9147 89.8736 51.2706 89.2323C50.6264 88.5909 50.2641 87.7214 50.263 86.8144V70.5418C50.2638 69.6345 50.626 68.7647 51.2701 68.1231C51.9143 67.4815 52.7878 67.1206 53.6989 67.1195H70.0418C70.9527 67.1206 71.826 67.4813 72.4701 68.1227C73.1141 68.7641 73.4764 69.6336 73.4774 70.5406V86.8133C73.4766 87.7204 73.1145 88.5902 72.4704 89.2318C71.8263 89.8733 70.9528 90.2342 70.0418 90.2353ZM53.6989 67.6859C52.9388 67.6868 52.2101 67.9879 51.6726 68.523C51.1351 69.0582 50.8328 69.7838 50.8319 70.5406V86.8133C50.8328 87.5701 51.1351 88.2957 51.6726 88.8308C52.2101 89.3659 52.9388 89.6669 53.6989 89.6677H70.0418C70.8018 89.6669 71.5305 89.3659 72.068 88.8308C72.6054 88.2956 72.9077 87.5701 72.9085 86.8133V70.5418C72.908 69.7847 72.6058 69.0589 72.0684 68.5235C71.5309 67.988 70.8021 67.6868 70.0418 67.6859H53.6989Z" fill="#292A2E"/>
<path d="M70.0418 122.475H53.6989C52.788 122.474 51.9147 122.113 51.2706 121.472C50.6264 120.83 50.2641 119.961 50.263 119.054V102.781C50.2641 101.874 50.6264 101.005 51.2706 100.363C51.9147 99.7221 52.788 99.3614 53.6989 99.3604H70.0418C70.9526 99.3615 71.8259 99.7222 72.47 100.364C73.114 101.005 73.4763 101.874 73.4774 102.781V119.054C73.4763 119.961 73.114 120.83 72.47 121.472C71.8259 122.113 70.9526 122.474 70.0418 122.475ZM53.6989 99.9268C52.9388 99.9276 52.2101 100.229 51.6726 100.764C51.1351 101.299 50.8328 102.024 50.8319 102.781V119.054C50.8328 119.811 51.1351 120.536 51.6726 121.071C52.2101 121.607 52.9388 121.908 53.6989 121.908H70.0418C70.8018 121.908 71.5305 121.607 72.068 121.071C72.6054 120.536 72.9077 119.811 72.9085 119.054V102.781C72.9077 102.024 72.6054 101.299 72.068 100.764C71.5305 100.229 70.8018 99.9276 70.0418 99.9268H53.6989Z" fill="#292A2E"/>
<path d="M70.0418 154.271H53.6989C52.788 154.27 51.9147 153.91 51.2706 153.268C50.6264 152.627 50.2641 151.757 50.263 150.851V134.579C50.2641 133.672 50.6264 132.802 51.2705 132.161C51.9147 131.52 52.788 131.159 53.6989 131.158H70.0418C70.9527 131.159 71.826 131.52 72.4701 132.161C73.1141 132.802 73.4764 133.672 73.4774 134.579V150.852C73.476 151.758 73.1136 152.628 72.4696 153.269C71.8255 153.91 70.9524 154.27 70.0418 154.271ZM53.6989 131.723C52.9388 131.724 52.21 132.025 51.6725 132.56C51.135 133.095 50.8327 133.821 50.8319 134.578V150.851C50.8328 151.607 51.1351 152.333 51.6726 152.868C52.2101 153.403 52.9388 153.704 53.6989 153.705H70.0418C70.8018 153.704 71.5305 153.403 72.0679 152.868C72.6053 152.333 72.9076 151.607 72.9085 150.851V134.579C72.9078 133.822 72.6055 133.096 72.0681 132.561C71.5306 132.026 70.8019 131.725 70.0418 131.724L53.6989 131.723Z" fill="#292A2E"/>
<path d="M70.0418 186.068H53.6989C52.788 186.067 51.9147 185.706 51.2705 185.065C50.6264 184.423 50.2641 183.554 50.263 182.647V166.374C50.2641 165.467 50.6264 164.597 51.2705 163.956C51.9147 163.315 52.788 162.954 53.6989 162.953H70.0418C70.9527 162.954 71.826 163.315 72.4701 163.956C73.1141 164.598 73.4764 165.467 73.4774 166.374V182.647C73.4764 183.554 73.1141 184.423 72.4701 185.065C71.826 185.706 70.9527 186.067 70.0418 186.068ZM53.6989 163.519C52.9388 163.52 52.2101 163.821 51.6726 164.356C51.1351 164.892 50.8328 165.617 50.8319 166.374V182.647C50.8328 183.404 51.1351 184.129 51.6726 184.664C52.2101 185.199 52.9388 185.501 53.6989 185.501H70.0418C70.8019 185.501 71.5306 185.199 72.068 184.664C72.6054 184.129 72.9077 183.404 72.9085 182.647V166.374C72.9077 165.617 72.6054 164.892 72.068 164.356C71.5306 163.821 70.8019 163.52 70.0418 163.519H53.6989Z" fill="#292A2E"/>
<path d="M58.9625 52.9488C58.6685 52.9492 58.3859 52.8357 58.1744 52.6325L53.4108 48.0729C53.3014 47.9702 53.2136 47.8469 53.1524 47.7103C53.0911 47.5736 53.0577 47.4261 53.0541 47.2765C53.0504 47.1269 53.0765 46.978 53.131 46.8385C53.1854 46.699 53.2671 46.5716 53.3712 46.4637C53.4754 46.3558 53.6 46.2696 53.7379 46.2099C53.8757 46.1502 54.0241 46.1184 54.1744 46.1161C54.3247 46.1139 54.474 46.1413 54.6135 46.1969C54.7531 46.2524 54.8803 46.3349 54.9876 46.4397L58.9432 50.2252L68.8606 40.2638C68.9653 40.1564 69.0904 40.0707 69.2287 40.0117C69.3669 39.9527 69.5155 39.9216 69.6659 39.9202C69.8163 39.9187 69.9654 39.947 70.1048 40.0033C70.2441 40.0596 70.3709 40.1429 70.4777 40.2483C70.5845 40.3537 70.6693 40.4791 70.7271 40.6174C70.7849 40.7556 70.8146 40.9039 70.8145 41.0536C70.8144 41.2034 70.7845 41.3516 70.7265 41.4898C70.6686 41.6279 70.5836 41.7533 70.4767 41.8585L59.7726 52.6132C59.6667 52.7199 59.5405 52.8045 59.4014 52.8621C59.2623 52.9197 59.1131 52.9492 58.9625 52.9488Z" fill="#367CFF"/>
<path d="M58.9625 85.188C58.6686 85.1882 58.386 85.0748 58.1744 84.8717L53.4108 80.3121C53.1932 80.1038 53.0677 79.8181 53.0617 79.5177C53.0557 79.2173 53.1698 78.9269 53.3789 78.7102C53.588 78.4936 53.875 78.3686 54.1767 78.3626C54.4784 78.3567 54.7701 78.4703 54.9877 78.6785L58.9432 82.4641L68.8606 72.5032C69.0737 72.2934 69.3614 72.1758 69.6611 72.176C69.9608 72.1762 70.2484 72.2942 70.4613 72.5042C70.6742 72.7143 70.7952 72.9995 70.7981 73.2979C70.801 73.5964 70.6855 73.8839 70.4767 74.098L59.7726 84.8527C59.6666 84.9593 59.5405 85.0438 59.4014 85.1014C59.2623 85.159 59.1131 85.1884 58.9625 85.188Z" fill="#367CFF"/>
<path d="M58.9625 117.428C58.6686 117.428 58.386 117.315 58.1744 117.112L53.4108 112.552C53.1932 112.344 53.0677 112.058 53.0617 111.758C53.0557 111.457 53.1698 111.167 53.3789 110.95C53.588 110.734 53.875 110.609 54.1767 110.603C54.4784 110.597 54.7701 110.71 54.9877 110.919L58.9432 114.704L68.8606 104.743C69.0737 104.533 69.3614 104.415 69.6611 104.416C69.9608 104.416 70.2484 104.534 70.4613 104.744C70.6742 104.954 70.7952 105.239 70.7981 105.537C70.801 105.836 70.6855 106.123 70.4767 106.337L59.7726 117.092C59.6667 117.199 59.5405 117.283 59.4014 117.341C59.2624 117.399 59.1131 117.428 58.9625 117.428Z" fill="#367CFF"/>
<path opacity="0.5" d="M192.48 41.4H82.4098C81.9714 41.4 81.616 41.7539 81.616 42.1904C81.616 42.627 81.9714 42.9809 82.4098 42.9809H192.48C192.918 42.9809 193.274 42.627 193.274 42.1904C193.274 41.7539 192.918 41.4 192.48 41.4Z" fill="#262626"/>
<path opacity="0.5" d="M146.971 49.8962H82.4098C81.9714 49.8962 81.616 50.2501 81.616 50.6866C81.616 51.1231 81.9714 51.477 82.4098 51.477H146.971C147.41 51.477 147.765 51.1231 147.765 50.6866C147.765 50.2501 147.41 49.8962 146.971 49.8962Z" fill="#262626"/>
<path opacity="0.5" d="M192.48 73.6395H82.4098C81.9714 73.6395 81.616 73.9934 81.616 74.4299C81.616 74.8665 81.9714 75.2204 82.4098 75.2204H192.48C192.918 75.2204 193.274 74.8665 193.274 74.4299C193.274 73.9934 192.918 73.6395 192.48 73.6395Z" fill="#262626"/>
<path opacity="0.5" d="M146.971 82.1357H82.4098C81.9714 82.1357 81.616 82.4896 81.616 82.9261C81.616 83.3626 81.9714 83.7165 82.4098 83.7165H146.971C147.41 83.7165 147.765 83.3626 147.765 82.9261C147.765 82.4896 147.41 82.1357 146.971 82.1357Z" fill="#262626"/>
<path opacity="0.5" d="M192.48 105.879H82.4098C81.9714 105.879 81.616 106.233 81.616 106.669C81.616 107.106 81.9714 107.46 82.4098 107.46H192.48C192.918 107.46 193.274 107.106 193.274 106.669C193.274 106.233 192.918 105.879 192.48 105.879Z" fill="#262626"/>
<path opacity="0.5" d="M146.971 114.375H82.4098C81.9714 114.375 81.616 114.729 81.616 115.166C81.616 115.602 81.9714 115.956 82.4098 115.956H146.971C147.41 115.956 147.765 115.602 147.765 115.166C147.765 114.729 147.41 114.375 146.971 114.375Z" fill="#262626"/>
<path opacity="0.5" d="M192.48 137.676H82.4098C81.9714 137.676 81.616 138.029 81.616 138.466C81.616 138.903 81.9714 139.256 82.4098 139.256H192.48C192.918 139.256 193.274 138.903 193.274 138.466C193.274 138.029 192.918 137.676 192.48 137.676Z" fill="#262626"/>
<path opacity="0.5" d="M146.971 146.172H82.4098C81.9714 146.172 81.616 146.526 81.616 146.962C81.616 147.399 81.9714 147.752 82.4098 147.752H146.971C147.41 147.752 147.765 147.399 147.765 146.962C147.765 146.526 147.41 146.172 146.971 146.172Z" fill="#262626"/>
<path opacity="0.5" d="M192.48 169.472H82.4098C81.9714 169.472 81.616 169.826 81.616 170.262C81.616 170.699 81.9714 171.053 82.4098 171.053H192.48C192.918 171.053 193.274 170.699 193.274 170.262C193.274 169.826 192.918 169.472 192.48 169.472Z" fill="#262626"/>
<path opacity="0.5" d="M146.971 177.968H82.4098C81.9714 177.968 81.616 178.322 81.616 178.758C81.616 179.195 81.9714 179.549 82.4098 179.549H146.971C147.41 179.549 147.765 179.195 147.765 178.758C147.765 178.322 147.41 177.968 146.971 177.968Z" fill="#262626"/>
<path d="M60.7134 1.68883e-07C58.9312 0.00202398 57.2225 0.707885 55.9622 1.96273C54.7019 3.21758 53.993 4.91893 53.991 6.69355H54.5599C54.5597 5.51774 54.8994 4.36672 55.5383 3.37786C56.1772 2.38901 57.0883 1.60407 58.163 1.11674C59.2377 0.62941 60.4305 0.460264 61.5991 0.629491C62.7677 0.798717 63.8627 1.29917 64.7534 2.07112C65.6442 2.84307 66.293 3.85391 66.6226 4.98301C66.9521 6.11211 66.9484 7.31178 66.6119 8.43883C66.2754 9.56589 65.6203 10.5727 64.7248 11.3392C63.8293 12.1057 62.7312 12.5994 61.5616 12.7615C61.4631 12.5593 61.2951 12.3988 61.0881 12.3092C60.8811 12.2196 60.6487 12.2067 60.4329 12.2728C60.2172 12.339 60.0324 12.4799 59.9119 12.67C59.7914 12.8601 59.7433 13.0868 59.7761 13.3092C59.809 13.5316 59.9207 13.7349 60.091 13.8824C60.2614 14.0299 60.4791 14.1118 60.7049 14.1133C60.9306 14.1148 61.1494 14.0358 61.3218 13.8906C61.4941 13.7454 61.6085 13.5436 61.6444 13.3217C63.3303 13.0873 64.8641 12.2248 65.9362 10.9083C67.0082 9.59175 67.5388 7.91924 67.4206 6.2284C67.3024 4.53756 66.5444 2.95433 65.2995 1.79832C64.0547 0.642307 62.4157 -0.000380359 60.7134 1.68883e-07Z" fill="#F4F4F4"/>
<path d="M191.816 6.69355C191.816 4.91831 191.107 3.21578 189.847 1.96049C188.586 0.705211 186.876 0 185.093 0C183.31 0 181.601 0.705211 180.34 1.96049C179.079 3.21578 178.371 4.91831 178.371 6.69355H178.94C178.94 5.51774 179.279 4.36672 179.918 3.37786C180.557 2.389 181.468 1.60407 182.543 1.11674C183.618 0.62941 184.81 0.460264 185.979 0.629491C187.148 0.798717 188.243 1.29917 189.133 2.07112C190.024 2.84307 190.673 3.85391 191.002 4.98301C191.332 6.11211 191.328 7.31178 190.992 8.43883C190.655 9.56589 190 10.5727 189.105 11.3392C188.209 12.1057 187.111 12.5994 185.941 12.7615C185.843 12.5593 185.675 12.3988 185.468 12.3092C185.261 12.2196 185.029 12.2067 184.813 12.2728C184.597 12.339 184.412 12.4799 184.292 12.67C184.171 12.8601 184.123 13.0868 184.156 13.3092C184.189 13.5316 184.301 13.7349 184.471 13.8824C184.641 14.0299 184.859 14.1118 185.085 14.1133C185.31 14.1148 185.529 14.0358 185.702 13.8906C185.874 13.7454 185.988 13.5436 186.024 13.3217C187.629 13.0962 189.099 12.3017 190.163 11.0841C191.227 9.86648 191.814 8.3075 191.816 6.69355Z" fill="#F4F4F4"/>
<path d="M174.047 6.69357C174.036 4.92583 173.322 3.23441 172.063 1.98848C170.804 0.742552 169.1 0.0432739 167.325 0.0432739C165.549 0.0432739 163.846 0.742552 162.587 1.98848C161.327 3.23441 160.614 4.92583 160.602 6.69357H161.171C161.171 5.51767 161.51 4.36656 162.149 3.37761C162.788 2.38865 163.699 1.60364 164.774 1.11624C165.849 0.628849 167.042 0.459668 168.211 0.628891C169.379 0.798114 170.474 1.29859 171.365 2.0706C172.256 2.8426 172.905 3.85352 173.234 4.9827C173.564 6.11188 173.56 7.31163 173.224 8.43876C172.887 9.56589 172.232 10.5728 171.336 11.3393C170.441 12.1058 169.342 12.5995 168.173 12.7615C168.074 12.5593 167.906 12.3988 167.699 12.3092C167.492 12.2196 167.26 12.2067 167.044 12.2729C166.828 12.339 166.644 12.4799 166.523 12.67C166.403 12.8601 166.354 13.0868 166.387 13.3092C166.42 13.5316 166.532 13.7349 166.702 13.8824C166.873 14.0299 167.09 14.1118 167.316 14.1133C167.542 14.1148 167.761 14.0358 167.933 13.8906C168.105 13.7454 168.22 13.5436 168.256 13.3217C169.861 13.0963 171.33 12.3018 172.394 11.0842C173.458 9.86657 174.045 8.30756 174.047 6.69357Z" fill="#F4F4F4"/>
<path d="M156.279 6.69357C156.267 4.92583 155.554 3.23441 154.295 1.98848C153.035 0.742552 151.332 0.0432739 149.556 0.0432739C147.781 0.0432739 146.078 0.742552 144.818 1.98848C143.559 3.23441 142.845 4.92583 142.834 6.69357H143.403C143.402 5.51774 143.742 4.3667 144.381 3.37781C145.02 2.38891 145.931 1.60393 147.006 1.11653C148.08 0.629125 149.273 0.459894 150.442 0.629028C151.61 0.798163 152.705 1.29852 153.596 2.07039C154.487 2.84226 155.136 3.85304 155.466 4.98211C155.795 6.11118 155.792 7.31086 155.455 8.43798C155.119 9.5651 154.464 10.5721 153.569 11.3387C152.673 12.1053 151.575 12.5992 150.406 12.7615C150.307 12.5593 150.139 12.3988 149.932 12.3092C149.725 12.2196 149.493 12.2067 149.277 12.2729C149.061 12.339 148.877 12.4799 148.756 12.67C148.636 12.8601 148.587 13.0868 148.62 13.3092C148.653 13.5316 148.765 13.7349 148.935 13.8824C149.106 14.0299 149.323 14.1118 149.549 14.1133C149.775 14.1148 149.994 14.0358 150.166 13.8906C150.338 13.7454 150.453 13.5436 150.489 13.3217C152.093 13.096 153.563 12.3014 154.626 11.0838C155.69 9.86619 156.277 8.30735 156.279 6.69357Z" fill="#F4F4F4"/>
<path d="M138.51 6.69355C138.51 4.91831 137.802 3.21578 136.541 1.9605C135.281 0.705211 133.571 0 131.788 0C130.005 0 128.295 0.705211 127.034 1.9605C125.774 3.21578 125.065 4.91831 125.065 6.69355H125.634C125.634 5.51774 125.974 4.36672 126.613 3.37786C127.251 2.38901 128.163 1.60407 129.237 1.11674C130.312 0.62941 131.505 0.460264 132.673 0.629491C133.842 0.798717 134.937 1.29917 135.828 2.07112C136.719 2.84307 137.367 3.85391 137.697 4.98301C138.026 6.11211 138.023 7.31178 137.686 8.43884C137.35 9.5659 136.695 10.5727 135.799 11.3392C134.904 12.1057 133.806 12.5994 132.636 12.7615C132.538 12.5591 132.37 12.3985 132.163 12.3088C131.956 12.219 131.723 12.2059 131.507 12.272C131.291 12.3381 131.106 12.4789 130.986 12.669C130.865 12.8591 130.817 13.0859 130.85 13.3084C130.882 13.5309 130.994 13.7343 131.164 13.8819C131.335 14.0295 131.552 14.1116 131.778 14.1132C132.004 14.1148 132.223 14.0359 132.395 13.8907C132.568 13.7455 132.682 13.5437 132.718 13.3217C134.324 13.0963 135.793 12.3018 136.857 11.0842C137.921 9.86656 138.508 8.30755 138.51 6.69355Z" fill="#F4F4F4"/>
<path d="M120.742 6.69357C120.73 4.92583 120.017 3.23441 118.757 1.98848C117.498 0.742552 115.795 0.0432739 114.019 0.0432739C112.244 0.0432739 110.54 0.742552 109.281 1.98848C108.022 3.23441 107.308 4.92583 107.297 6.69357H107.865C107.865 5.51767 108.205 4.36656 108.844 3.37761C109.483 2.38865 110.394 1.60364 111.469 1.11624C112.543 0.628849 113.736 0.459668 114.905 0.628891C116.074 0.798114 117.169 1.29859 118.059 2.0706C118.95 2.8426 119.599 3.85352 119.929 4.9827C120.258 6.11188 120.255 7.31163 119.918 8.43876C119.581 9.56589 118.926 10.5728 118.031 11.3393C117.135 12.1058 116.037 12.5995 114.867 12.7615C114.769 12.5593 114.601 12.3988 114.394 12.3092C114.187 12.2196 113.954 12.2067 113.739 12.2729C113.523 12.339 113.338 12.4799 113.217 12.67C113.097 12.8601 113.049 13.0868 113.082 13.3092C113.115 13.5316 113.226 13.7349 113.397 13.8824C113.567 14.0299 113.785 14.1118 114.01 14.1133C114.236 14.1148 114.455 14.0358 114.627 13.8906C114.8 13.7454 114.914 13.5436 114.95 13.3217C116.555 13.0963 118.025 12.3018 119.089 11.0842C120.153 9.86657 120.74 8.30756 120.742 6.69357Z" fill="#F4F4F4"/>
<path d="M102.973 6.69355C102.973 4.91831 102.265 3.21578 101.004 1.9605C99.7434 0.705211 98.0335 0 96.2506 0C94.4677 0 92.7578 0.705211 91.4971 1.9605C90.2364 3.21578 89.5282 4.91831 89.5282 6.69355H90.097C90.0969 5.51774 90.4365 4.36672 91.0754 3.37786C91.7143 2.389 92.6255 1.60407 93.7002 1.11674C94.7748 0.629409 95.9677 0.460264 97.1363 0.62949C98.3048 0.798717 99.3998 1.29917 100.291 2.07112C101.181 2.84307 101.83 3.85391 102.16 4.98301C102.489 6.11211 102.486 7.31178 102.149 8.43884C101.813 9.5659 101.157 10.5727 100.262 11.3392C99.3665 12.1057 98.2684 12.5994 97.0988 12.7615C97.0003 12.5591 96.8324 12.3985 96.6254 12.3088C96.4183 12.219 96.1859 12.2059 95.97 12.272C95.7542 12.3381 95.5692 12.4789 95.4486 12.669C95.328 12.8591 95.2797 13.0859 95.3124 13.3084C95.3452 13.5309 95.4568 13.7343 95.6272 13.8819C95.7975 14.0295 96.0153 14.1116 96.2411 14.1132C96.4669 14.1148 96.6859 14.0359 96.8583 13.8907C97.0307 13.7455 97.1453 13.5437 97.1813 13.3217C98.7863 13.0963 100.256 12.3018 101.32 11.0842C102.384 9.86656 102.971 8.30755 102.973 6.69355Z" fill="#F4F4F4"/>
<path d="M85.2046 6.69357C85.193 4.92583 84.4797 3.23441 83.2202 1.98848C81.9607 0.742552 80.2574 0.0432739 78.482 0.0432739C76.7066 0.0432739 75.0033 0.742552 73.7438 1.98848C72.4843 3.23441 71.771 4.92583 71.7594 6.69357H72.3283C72.3281 5.51767 72.6677 4.36656 73.3066 3.37761C73.9455 2.38865 74.8567 1.60364 75.9315 1.11624C77.0062 0.628849 78.1991 0.459668 79.3678 0.628891C80.5364 0.798114 81.6315 1.29859 82.5223 2.0706C83.4131 2.8426 84.062 3.85352 84.3916 4.9827C84.7211 6.11188 84.7174 7.31163 84.3808 8.43876C84.0443 9.56589 83.3891 10.5728 82.4935 11.3393C81.5979 12.1058 80.4997 12.5995 79.33 12.7615C79.2315 12.5593 79.0635 12.3988 78.8565 12.3092C78.6495 12.2196 78.4171 12.2067 78.2014 12.2729C77.9856 12.339 77.8008 12.4799 77.6803 12.67C77.5599 12.8601 77.5117 13.0868 77.5446 13.3092C77.5774 13.5316 77.6891 13.7349 77.8595 13.8824C78.0298 14.0299 78.2476 14.1118 78.4733 14.1133C78.699 14.1148 78.9179 14.0358 79.0902 13.8906C79.2625 13.7454 79.377 13.5436 79.4128 13.3217C81.0179 13.0963 82.4874 12.3018 83.5514 11.0842C84.6154 9.86657 85.2024 8.30756 85.2046 6.69357Z" fill="#F4F4F4"/>
<g opacity="0.6">
<path d="M60.7134 1.68883e-07C58.9312 0.00202398 57.2225 0.707885 55.9622 1.96273C54.7019 3.21758 53.993 4.91893 53.991 6.69355H54.5599C54.5597 5.51774 54.8994 4.36672 55.5383 3.37786C56.1772 2.38901 57.0883 1.60407 58.163 1.11674C59.2377 0.62941 60.4305 0.460264 61.5991 0.629491C62.7677 0.798717 63.8627 1.29917 64.7534 2.07112C65.6442 2.84307 66.293 3.85391 66.6226 4.98301C66.9521 6.11211 66.9484 7.31178 66.6119 8.43883C66.2754 9.56589 65.6203 10.5727 64.7248 11.3392C63.8293 12.1057 62.7312 12.5994 61.5616 12.7615C61.4631 12.5593 61.2951 12.3988 61.0881 12.3092C60.8811 12.2196 60.6487 12.2067 60.4329 12.2728C60.2172 12.339 60.0324 12.4799 59.9119 12.67C59.7914 12.8601 59.7433 13.0868 59.7761 13.3092C59.809 13.5316 59.9207 13.7349 60.091 13.8824C60.2614 14.0299 60.4791 14.1118 60.7049 14.1133C60.9306 14.1148 61.1494 14.0358 61.3218 13.8906C61.4941 13.7454 61.6085 13.5436 61.6444 13.3217C63.3303 13.0873 64.8641 12.2248 65.9362 10.9083C67.0082 9.59175 67.5388 7.91924 67.4206 6.2284C67.3024 4.53756 66.5444 2.95433 65.2995 1.79832C64.0547 0.642307 62.4157 -0.000380359 60.7134 1.68883e-07Z" fill="#292A2E"/>
<path d="M191.816 6.69355C191.816 4.91831 191.107 3.21578 189.847 1.96049C188.586 0.705211 186.876 0 185.093 0C183.31 0 181.601 0.705211 180.34 1.96049C179.079 3.21578 178.371 4.91831 178.371 6.69355H178.94C178.94 5.51774 179.279 4.36672 179.918 3.37786C180.557 2.389 181.468 1.60407 182.543 1.11674C183.618 0.62941 184.81 0.460264 185.979 0.629491C187.148 0.798717 188.243 1.29917 189.133 2.07112C190.024 2.84307 190.673 3.85391 191.002 4.98301C191.332 6.11211 191.328 7.31178 190.992 8.43883C190.655 9.56589 190 10.5727 189.105 11.3392C188.209 12.1057 187.111 12.5994 185.941 12.7615C185.843 12.5593 185.675 12.3988 185.468 12.3092C185.261 12.2196 185.029 12.2067 184.813 12.2728C184.597 12.339 184.412 12.4799 184.292 12.67C184.171 12.8601 184.123 13.0868 184.156 13.3092C184.189 13.5316 184.301 13.7349 184.471 13.8824C184.641 14.0299 184.859 14.1118 185.085 14.1133C185.31 14.1148 185.529 14.0358 185.702 13.8906C185.874 13.7454 185.988 13.5436 186.024 13.3217C187.629 13.0962 189.099 12.3017 190.163 11.0841C191.227 9.86648 191.814 8.3075 191.816 6.69355Z" fill="#292A2E"/>
<path d="M174.047 6.69357C174.036 4.92583 173.322 3.23441 172.063 1.98848C170.804 0.742552 169.1 0.0432739 167.325 0.0432739C165.549 0.0432739 163.846 0.742552 162.587 1.98848C161.327 3.23441 160.614 4.92583 160.602 6.69357H161.171C161.171 5.51767 161.51 4.36656 162.149 3.37761C162.788 2.38865 163.699 1.60364 164.774 1.11624C165.849 0.628849 167.042 0.459668 168.211 0.628891C169.379 0.798114 170.474 1.29859 171.365 2.0706C172.256 2.8426 172.905 3.85352 173.234 4.9827C173.564 6.11188 173.56 7.31163 173.224 8.43876C172.887 9.56589 172.232 10.5728 171.336 11.3393C170.441 12.1058 169.342 12.5995 168.173 12.7615C168.074 12.5593 167.906 12.3988 167.699 12.3092C167.492 12.2196 167.26 12.2067 167.044 12.2729C166.828 12.339 166.644 12.4799 166.523 12.67C166.403 12.8601 166.354 13.0868 166.387 13.3092C166.42 13.5316 166.532 13.7349 166.702 13.8824C166.873 14.0299 167.09 14.1118 167.316 14.1133C167.542 14.1148 167.761 14.0358 167.933 13.8906C168.105 13.7454 168.22 13.5436 168.256 13.3217C169.861 13.0963 171.33 12.3018 172.394 11.0842C173.458 9.86657 174.045 8.30756 174.047 6.69357Z" fill="#292A2E"/>
<path d="M156.279 6.69357C156.267 4.92583 155.554 3.23441 154.295 1.98848C153.035 0.742552 151.332 0.0432739 149.556 0.0432739C147.781 0.0432739 146.078 0.742552 144.818 1.98848C143.559 3.23441 142.845 4.92583 142.834 6.69357H143.403C143.402 5.51774 143.742 4.3667 144.381 3.37781C145.02 2.38891 145.931 1.60393 147.006 1.11653C148.08 0.629125 149.273 0.459894 150.442 0.629028C151.61 0.798163 152.705 1.29852 153.596 2.07039C154.487 2.84226 155.136 3.85304 155.466 4.98211C155.795 6.11118 155.792 7.31086 155.455 8.43798C155.119 9.5651 154.464 10.5721 153.569 11.3387C152.673 12.1053 151.575 12.5992 150.406 12.7615C150.307 12.5593 150.139 12.3988 149.932 12.3092C149.725 12.2196 149.493 12.2067 149.277 12.2729C149.061 12.339 148.877 12.4799 148.756 12.67C148.636 12.8601 148.587 13.0868 148.62 13.3092C148.653 13.5316 148.765 13.7349 148.935 13.8824C149.106 14.0299 149.323 14.1118 149.549 14.1133C149.775 14.1148 149.994 14.0358 150.166 13.8906C150.338 13.7454 150.453 13.5436 150.489 13.3217C152.093 13.096 153.563 12.3014 154.626 11.0838C155.69 9.86619 156.277 8.30735 156.279 6.69357Z" fill="#292A2E"/>
<path d="M138.51 6.69355C138.51 4.91831 137.802 3.21578 136.541 1.9605C135.281 0.705211 133.571 0 131.788 0C130.005 0 128.295 0.705211 127.034 1.9605C125.774 3.21578 125.065 4.91831 125.065 6.69355H125.634C125.634 5.51774 125.974 4.36672 126.613 3.37786C127.251 2.38901 128.163 1.60407 129.237 1.11674C130.312 0.62941 131.505 0.460264 132.673 0.629491C133.842 0.798717 134.937 1.29917 135.828 2.07112C136.719 2.84307 137.367 3.85391 137.697 4.98301C138.026 6.11211 138.023 7.31178 137.686 8.43884C137.35 9.5659 136.695 10.5727 135.799 11.3392C134.904 12.1057 133.806 12.5994 132.636 12.7615C132.538 12.5591 132.37 12.3985 132.163 12.3088C131.956 12.219 131.723 12.2059 131.507 12.272C131.291 12.3381 131.106 12.4789 130.986 12.669C130.865 12.8591 130.817 13.0859 130.85 13.3084C130.882 13.5309 130.994 13.7343 131.164 13.8819C131.335 14.0295 131.552 14.1116 131.778 14.1132C132.004 14.1148 132.223 14.0359 132.395 13.8907C132.568 13.7455 132.682 13.5437 132.718 13.3217C134.324 13.0963 135.793 12.3018 136.857 11.0842C137.921 9.86656 138.508 8.30755 138.51 6.69355Z" fill="#292A2E"/>
<path d="M120.742 6.69357C120.73 4.92583 120.017 3.23441 118.757 1.98848C117.498 0.742552 115.795 0.0432739 114.019 0.0432739C112.244 0.0432739 110.54 0.742552 109.281 1.98848C108.022 3.23441 107.308 4.92583 107.297 6.69357H107.865C107.865 5.51767 108.205 4.36656 108.844 3.37761C109.483 2.38865 110.394 1.60364 111.469 1.11624C112.543 0.628849 113.736 0.459668 114.905 0.628891C116.074 0.798114 117.169 1.29859 118.059 2.0706C118.95 2.8426 119.599 3.85352 119.929 4.9827C120.258 6.11188 120.255 7.31163 119.918 8.43876C119.581 9.56589 118.926 10.5728 118.031 11.3393C117.135 12.1058 116.037 12.5995 114.867 12.7615C114.769 12.5593 114.601 12.3988 114.394 12.3092C114.187 12.2196 113.954 12.2067 113.739 12.2729C113.523 12.339 113.338 12.4799 113.217 12.67C113.097 12.8601 113.049 13.0868 113.082 13.3092C113.115 13.5316 113.226 13.7349 113.397 13.8824C113.567 14.0299 113.785 14.1118 114.01 14.1133C114.236 14.1148 114.455 14.0358 114.627 13.8906C114.8 13.7454 114.914 13.5436 114.95 13.3217C116.555 13.0963 118.025 12.3018 119.089 11.0842C120.153 9.86657 120.74 8.30756 120.742 6.69357Z" fill="#292A2E"/>
<path d="M102.973 6.69355C102.973 4.91831 102.265 3.21578 101.004 1.9605C99.7434 0.705211 98.0335 0 96.2506 0C94.4677 0 92.7578 0.705211 91.4971 1.9605C90.2364 3.21578 89.5282 4.91831 89.5282 6.69355H90.097C90.0969 5.51774 90.4365 4.36672 91.0754 3.37786C91.7143 2.389 92.6255 1.60407 93.7002 1.11674C94.7748 0.629409 95.9677 0.460264 97.1363 0.62949C98.3048 0.798717 99.3998 1.29917 100.291 2.07112C101.181 2.84307 101.83 3.85391 102.16 4.98301C102.489 6.11211 102.486 7.31178 102.149 8.43884C101.813 9.5659 101.157 10.5727 100.262 11.3392C99.3665 12.1057 98.2684 12.5994 97.0988 12.7615C97.0003 12.5591 96.8324 12.3985 96.6254 12.3088C96.4183 12.219 96.1859 12.2059 95.97 12.272C95.7542 12.3381 95.5692 12.4789 95.4486 12.669C95.328 12.8591 95.2797 13.0859 95.3124 13.3084C95.3452 13.5309 95.4568 13.7343 95.6272 13.8819C95.7975 14.0295 96.0153 14.1116 96.2411 14.1132C96.4669 14.1148 96.6859 14.0359 96.8583 13.8907C97.0307 13.7455 97.1453 13.5437 97.1813 13.3217C98.7863 13.0963 100.256 12.3018 101.32 11.0842C102.384 9.86656 102.971 8.30755 102.973 6.69355Z" fill="#292A2E"/>
<path d="M85.2046 6.69357C85.193 4.92583 84.4797 3.23441 83.2202 1.98848C81.9607 0.742552 80.2574 0.0432739 78.482 0.0432739C76.7066 0.0432739 75.0033 0.742552 73.7438 1.98848C72.4843 3.23441 71.771 4.92583 71.7594 6.69357H72.3283C72.3281 5.51767 72.6677 4.36656 73.3066 3.37761C73.9455 2.38865 74.8567 1.60364 75.9315 1.11624C77.0062 0.628849 78.1991 0.459668 79.3678 0.628891C80.5364 0.798114 81.6315 1.29859 82.5223 2.0706C83.4131 2.8426 84.062 3.85352 84.3916 4.9827C84.7211 6.11188 84.7174 7.31163 84.3808 8.43876C84.0443 9.56589 83.3891 10.5728 82.4935 11.3393C81.5979 12.1058 80.4997 12.5995 79.33 12.7615C79.2315 12.5593 79.0635 12.3988 78.8565 12.3092C78.6495 12.2196 78.4171 12.2067 78.2014 12.2729C77.9856 12.339 77.8008 12.4799 77.6803 12.67C77.5599 12.8601 77.5117 13.0868 77.5446 13.3092C77.5774 13.5316 77.6891 13.7349 77.8595 13.8824C78.0298 14.0299 78.2476 14.1118 78.4733 14.1133C78.699 14.1148 78.9179 14.0358 79.0902 13.8906C79.2625 13.7454 79.377 13.5436 79.4128 13.3217C81.0179 13.0963 82.4874 12.3018 83.5514 11.0842C84.6154 9.86657 85.2024 8.30756 85.2046 6.69357Z" fill="#292A2E"/>
</g>
<path d="M24.2909 205.267C24.2535 205.267 24.2165 205.26 24.182 205.245C24.1474 205.231 24.1161 205.21 24.0898 205.184C23.689 204.785 23.0357 197.464 21.2762 175.667C20.5563 166.749 19.8763 158.325 19.3799 153.205C19.3447 152.839 19.2022 152.797 19.1555 152.783C18.476 152.579 16.4102 154.201 15.2569 155.621C15.2334 155.65 15.2044 155.674 15.1716 155.692C15.1388 155.71 15.1027 155.721 15.0656 155.725C15.0284 155.729 14.9908 155.726 14.955 155.715C14.9192 155.704 14.8858 155.687 14.8567 155.664C14.8276 155.64 14.8035 155.611 14.7856 155.579C14.7678 155.546 14.7566 155.51 14.7526 155.473C14.7487 155.436 14.7521 155.399 14.7627 155.363C14.7733 155.327 14.7908 155.294 14.8143 155.265C15.5772 154.326 18.0631 151.864 19.3191 152.24C19.5722 152.316 19.8865 152.536 19.9448 153.151C20.4414 158.275 21.1218 166.701 21.8419 175.622C22.9111 188.868 24.1222 203.874 24.5204 204.819C24.5508 204.861 24.569 204.911 24.5729 204.962C24.5769 205.014 24.5664 205.066 24.5427 205.112C24.519 205.159 24.483 205.198 24.4386 205.225C24.3941 205.252 24.343 205.267 24.2909 205.267Z" fill="#494949"/>
<path d="M18.6495 162.599C23.3692 158.832 24.9335 152.968 22.1435 149.503C19.3534 146.037 13.2655 146.281 8.54582 150.048C3.82609 153.815 2.26179 159.678 5.05184 163.144C7.84189 166.61 13.9298 166.366 18.6495 162.599Z" fill="#0CBC8B"/>
<path opacity="0.2" d="M18.6495 162.599C23.3692 158.832 24.9335 152.968 22.1435 149.503C19.3534 146.037 13.2655 146.281 8.54582 150.048C3.82609 153.815 2.26179 159.678 5.05184 163.144C7.84189 166.61 13.9298 166.366 18.6495 162.599Z" fill="white"/>
<path d="M6.37481 164.025C6.34165 164.025 6.3095 164.014 6.28407 163.992C6.25537 163.968 6.2373 163.934 6.23378 163.897C6.23027 163.86 6.24159 163.823 6.2653 163.794L19.7161 147.643C19.7281 147.629 19.7427 147.617 19.7592 147.608C19.7758 147.6 19.7939 147.594 19.8125 147.593C19.8311 147.591 19.8498 147.593 19.8677 147.598C19.8855 147.604 19.9021 147.613 19.9165 147.625C19.9309 147.637 19.9428 147.651 19.9515 147.668C19.9602 147.684 19.9656 147.702 19.9673 147.721C19.9691 147.739 19.9671 147.758 19.9616 147.776C19.9561 147.793 19.9471 147.81 19.9351 147.824L6.48573 163.974C6.47221 163.99 6.45524 164.003 6.43605 164.012C6.41686 164.021 6.39594 164.025 6.37481 164.025Z" fill="white"/>
<path d="M27.2244 201.803C27.1791 201.803 27.1343 201.792 27.094 201.772C27.0537 201.751 27.0189 201.721 26.9926 201.684C26.9664 201.647 26.9493 201.605 26.9429 201.56C26.9365 201.515 26.941 201.47 26.9559 201.427L32.0085 186.959C32.1573 186.534 32.4108 186.153 32.7458 185.85C33.0808 185.548 33.4866 185.334 33.9261 185.229C34.3655 185.123 34.8246 185.129 35.2612 185.246C35.6978 185.363 36.098 185.587 36.4251 185.897L39.0964 188.438C39.151 188.49 39.1826 188.561 39.1844 188.636C39.1861 188.712 39.1578 188.784 39.1057 188.839C39.0535 188.893 38.9819 188.924 38.9064 188.926C38.831 188.928 38.7579 188.9 38.7033 188.848L36.0323 186.307C35.774 186.062 35.4581 185.885 35.1134 185.793C34.7687 185.7 34.4063 185.696 34.0594 185.779C33.7124 185.862 33.392 186.031 33.1276 186.27C32.8631 186.508 32.6629 186.809 32.5455 187.145L27.4932 201.614C27.4737 201.669 27.4374 201.717 27.3892 201.751C27.3411 201.785 27.2835 201.803 27.2244 201.803Z" fill="#494949"/>
<path d="M46.5585 196.448C50.0562 193.691 49.8484 187.628 46.0942 182.905C42.34 178.183 36.4612 176.589 32.9634 179.346C29.4656 182.103 29.6735 188.166 33.4277 192.888C37.1819 197.611 43.0607 199.205 46.5585 196.448Z" fill="#0CBC8B"/>
<path d="M21.9955 204.343C21.9316 204.343 21.8696 204.322 21.8194 204.282C21.7693 204.243 21.7339 204.188 21.7191 204.126L13.24 168.826C13.182 168.585 13.0585 168.365 12.8831 168.19C12.7077 168.015 12.4872 167.891 12.2458 167.832C12.0044 167.774 11.7515 167.783 11.5148 167.858C11.2781 167.933 11.0669 168.072 10.9043 168.259L8.29043 171.267C8.2661 171.295 8.23634 171.319 8.20286 171.336C8.16939 171.353 8.13286 171.363 8.09538 171.366C8.05791 171.369 8.02024 171.364 7.98455 171.352C7.94885 171.341 7.91584 171.322 7.88743 171.298C7.85902 171.273 7.83576 171.243 7.819 171.21C7.80225 171.176 7.79232 171.14 7.78981 171.102C7.78729 171.065 7.79223 171.028 7.80434 170.992C7.81646 170.957 7.8355 170.924 7.86037 170.896L10.474 167.889C10.7051 167.623 11.0054 167.425 11.3419 167.318C11.6784 167.211 12.038 167.199 12.3812 167.282C12.7243 167.366 13.0377 167.542 13.2869 167.791C13.5361 168.04 13.7114 168.353 13.7935 168.695L22.2714 203.994C22.289 204.067 22.2766 204.144 22.2372 204.208C22.1977 204.272 22.1343 204.318 22.061 204.335C22.0395 204.34 22.0176 204.343 21.9955 204.343Z" fill="#494949"/>
<path d="M18.8671 179.108C19.8978 173.174 17.17 167.749 12.7743 166.992C8.3787 166.235 3.97975 170.433 2.94904 176.368C1.91832 182.302 4.64614 187.727 9.04179 188.484C13.4374 189.241 17.8364 185.043 18.8671 179.108Z" fill="#0CBC8B"/>
<path d="M24.2909 205.267C24.2792 205.267 24.2675 205.266 24.2559 205.265C24.2188 205.26 24.1829 205.249 24.1504 205.23C24.1179 205.212 24.0893 205.187 24.0663 205.158C24.0433 205.129 24.0263 205.095 24.0163 205.059C24.0063 205.024 24.0036 204.986 24.0081 204.949L29.4228 161.176C29.4818 160.7 29.6778 160.25 29.9874 159.881C30.2969 159.513 30.7067 159.241 31.1676 159.099C31.6285 158.957 32.1209 158.95 32.5854 159.08C33.05 159.21 33.4671 159.47 33.7865 159.83L39.975 166.809C39.9997 166.837 40.0187 166.87 40.0308 166.905C40.043 166.94 40.048 166.977 40.0457 167.014C40.0434 167.052 40.0337 167.088 40.0173 167.121C40.0009 167.155 39.978 167.185 39.95 167.209C39.922 167.234 39.8894 167.253 39.854 167.265C39.8187 167.277 39.7813 167.282 39.744 167.28C39.7067 167.277 39.6702 167.268 39.6367 167.251C39.6031 167.235 39.5731 167.212 39.5484 167.184L33.3598 160.205C33.113 159.927 32.7907 159.726 32.4316 159.625C32.0726 159.525 31.6921 159.53 31.3359 159.64C30.9796 159.75 30.6629 159.96 30.4237 160.245C30.1844 160.529 30.0329 160.877 29.9874 161.246L24.573 205.017C24.5649 205.086 24.5316 205.149 24.4796 205.195C24.4276 205.241 24.3605 205.267 24.2909 205.267Z" fill="#494949"/>
<path d="M46.3222 170.688C48.4814 166.801 45.9409 161.287 40.6478 158.372C35.3548 155.456 29.3135 156.244 27.1543 160.131C24.9951 164.017 27.5356 169.531 32.8286 172.447C38.1217 175.362 44.163 174.574 46.3222 170.688Z" fill="#0CBC8B"/>
<path opacity="0.2" d="M46.5585 196.448C50.0562 193.691 49.8484 187.628 46.0942 182.905C42.34 178.183 36.4612 176.589 32.9634 179.346C29.4656 182.103 29.6735 188.166 33.4277 192.888C37.1819 197.611 43.0607 199.205 46.5585 196.448Z" fill="white"/>
<path opacity="0.5" d="M18.8671 179.108C19.8978 173.174 17.17 167.749 12.7743 166.992C8.3787 166.235 3.97975 170.433 2.94904 176.368C1.91832 182.302 4.64614 187.727 9.04179 188.484C13.4374 189.241 17.8364 185.043 18.8671 179.108Z" fill="white"/>
<path opacity="0.5" d="M46.3222 170.688C48.4814 166.801 45.9409 161.287 40.6478 158.372C35.3548 155.456 29.3135 156.244 27.1543 160.131C24.9951 164.017 27.5356 169.531 32.8286 172.447C38.1217 175.362 44.163 174.574 46.3222 170.688Z" fill="white"/>
<path d="M31.2161 242.406H17.3653L15.0703 198.281H33.5111L31.2161 242.406Z" fill="#292A2E"/>
<path opacity="0.3" d="M31.2161 242.406H17.3653L15.0703 198.281H33.5111L31.2161 242.406Z" fill="white"/>
<path d="M46.5595 196.589C46.5381 196.589 46.5169 196.584 46.4976 196.574C46.4783 196.565 46.4613 196.552 46.448 196.535L32.8524 179.433C32.8408 179.419 32.8322 179.402 32.8271 179.384C32.822 179.366 32.8205 179.347 32.8226 179.329C32.8248 179.311 32.8306 179.293 32.8396 179.276C32.8487 179.26 32.861 179.246 32.8756 179.234C32.8902 179.223 32.907 179.214 32.925 179.209C32.943 179.204 32.9617 179.202 32.9803 179.205C32.9989 179.207 33.0168 179.213 33.0331 179.222C33.0494 179.231 33.0638 179.243 33.0754 179.257L46.671 196.359C46.6877 196.38 46.6981 196.405 46.701 196.431C46.704 196.458 46.6993 196.485 46.6877 196.509C46.6761 196.533 46.6578 196.553 46.6352 196.567C46.6125 196.581 46.5863 196.589 46.5595 196.589Z" fill="white"/>
<path d="M45.4181 172.058C45.3873 172.058 45.3574 172.048 45.3328 172.03L27.9369 159.382C27.9218 159.371 27.9091 159.358 27.8993 159.342C27.8896 159.326 27.8831 159.308 27.8803 159.29C27.8774 159.271 27.8782 159.253 27.8826 159.235C27.887 159.216 27.8949 159.199 27.9059 159.184C27.9169 159.169 27.9308 159.157 27.9468 159.147C27.9627 159.137 27.9804 159.131 27.9989 159.128C28.0174 159.125 28.0362 159.126 28.0544 159.13C28.0725 159.135 28.0896 159.143 28.1047 159.154L45.502 171.802C45.5258 171.82 45.5434 171.845 45.5523 171.873C45.5613 171.901 45.5611 171.932 45.5518 171.96C45.5426 171.988 45.5247 172.012 45.5007 172.03C45.4767 172.047 45.4478 172.057 45.4181 172.057V172.058Z" fill="white"/>
<path d="M8.3345 188.3C8.32212 188.3 8.30979 188.298 8.29781 188.295C8.26138 188.285 8.23031 188.261 8.21143 188.229C8.19254 188.196 8.1874 188.158 8.19713 188.121L13.7352 167.461C13.7457 167.425 13.7697 167.396 13.802 167.378C13.8343 167.36 13.8723 167.355 13.9081 167.364C13.9439 167.374 13.9745 167.397 13.9936 167.428C14.0126 167.46 14.0185 167.498 14.01 167.534L8.4733 188.195C8.46516 188.225 8.4471 188.252 8.42197 188.271C8.39684 188.29 8.36607 188.3 8.3345 188.3Z" fill="white"/>
<path d="M242.314 84.0586L243.114 83.4027C243.365 83.1877 243.525 82.8858 243.562 82.5578C243.599 82.2299 243.509 81.9003 243.311 81.6358C243.204 81.5028 243.071 81.3929 242.92 81.3128C242.768 81.2327 242.603 81.1842 242.432 81.17C242.261 81.1559 242.09 81.1765 241.928 81.2307C241.765 81.2848 241.616 81.3713 241.488 81.4848L231.997 89.8742L234.621 92.971C235.436 93.9328 236.52 94.6303 237.736 94.9742C238.952 95.318 240.243 95.2926 241.444 94.9011L246.881 93.1183C247.165 93.0311 247.411 92.8488 247.575 92.6022C247.74 92.3555 247.815 92.0597 247.786 91.7649C247.711 91.184 242.314 84.0586 242.314 84.0586Z" fill="#E98862"/>
<path d="M236.641 84.1234L210.459 92.2016L194.492 65.2708L180.851 73.2127L200.979 105.602L201.107 105.764C202.162 107.067 203.6 108.011 205.219 108.462C206.838 108.914 208.558 108.852 210.14 108.284L241.349 97.0282L236.641 84.1234Z" fill="#367CFF"/>
<path d="M252.62 225.844L230.791 226.866L222.371 84.1554L244.201 83.1342L252.62 225.844Z" fill="#367CFF"/>
<path opacity="0.5" d="M252.62 225.844L230.791 226.866L222.371 84.1554L244.201 83.1342L252.62 225.844Z" fill="white"/>
<path d="M243.459 67.409L221.629 68.4306L222.371 84.1538L244.201 83.1321L243.459 67.409Z" fill="#262626"/>
<path d="M252.621 225.844C252.621 225.844 249.626 231.023 246.926 235.653C244.785 239.326 242.831 242.654 242.705 242.778C242.575 242.907 240.135 239.677 237.497 236.095C234.29 231.742 230.79 226.866 230.79 226.866L252.621 225.844Z" fill="#367CFF"/>
<path opacity="0.9" d="M252.621 225.844C252.621 225.844 249.626 231.023 246.926 235.653C244.785 239.326 242.831 242.654 242.705 242.778C242.575 242.907 240.135 239.677 237.497 236.095C234.29 231.742 230.79 226.866 230.79 226.866L252.621 225.844Z" fill="white"/>
<path d="M246.926 235.655C244.785 239.327 242.831 242.656 242.705 242.78C242.575 242.909 240.135 239.678 237.497 236.096L246.926 235.655Z" fill="#262626"/>
<path d="M245.821 226.121L237.017 83.4987L238.013 83.4489L246.817 226.071L245.821 226.121Z" fill="white"/>
<path d="M237.281 226.524L228.477 83.9017L229.473 83.8519L238.277 226.474L237.281 226.524Z" fill="white"/>
<path d="M240.918 90.7131C240.917 90.4391 241.007 90.1725 241.173 89.9539C241.339 89.7352 241.572 89.5765 241.836 89.5018C241.827 89.4817 241.79 89.4395 241.826 89.4254L240.789 89.2424C240.482 89.1951 240.203 89.0389 240.003 88.8026C239.803 88.5663 239.696 88.2659 239.701 87.9569C239.716 87.652 239.844 87.3635 240.061 87.1473C240.277 86.9312 240.567 86.8028 240.873 86.787C240.866 86.7771 240.868 86.7632 240.864 86.7513L240.437 86.676C240.149 86.6303 239.885 86.4866 239.69 86.2692C239.495 86.0519 239.382 85.7743 239.369 85.4834C239.365 85.3009 239.402 85.1197 239.477 84.9529C239.551 84.7861 239.662 84.6379 239.801 84.519C239.941 84.4001 240.104 84.3134 240.281 84.2651C240.458 84.2169 240.644 84.2084 240.824 84.2402L241.808 84.4135C241.808 84.4081 241.804 84.4041 241.804 84.3988C241.805 84.3934 241.812 84.388 241.815 84.3818C241.556 84.2736 241.342 84.0811 241.208 83.8358C241.073 83.5906 241.027 83.3071 241.075 83.032C241.155 82.3138 242.007 82.0465 242.643 82.1586L244.618 82.6684C244.923 82.7469 245.203 82.8991 245.435 83.1116C245.666 83.324 245.841 83.5901 245.945 83.8862C246.839 86.4492 249.013 93.1982 246.984 92.8402L241.988 91.9589C241.696 91.8991 241.432 91.7441 241.238 91.5186C241.045 91.293 240.932 91.0096 240.918 90.7131Z" fill="#E98862"/>
<path d="M157.898 38.8257C157.898 38.8257 154.954 36.2887 154.546 30.8736C154.231 26.6821 157.898 29.6275 157.898 29.6275C157.898 29.6275 157.7 26.6062 159.87 27.0503C162.04 27.4944 163.056 30.7212 163.056 30.7212" fill="#0C0C0C"/>
<path d="M171.172 28.1565C171.172 28.1565 181.966 30.0424 177.049 44.449H174.121" fill="#0C0C0C"/>
<path d="M178.881 225.243C178.881 225.243 182.335 231.051 177.916 235.444C173.498 239.837 177.803 242.644 177.803 242.644L195.627 226.914L187.735 218.047L178.881 225.243Z" fill="#367CFF"/>
<path d="M148.552 110.746C148.552 110.746 146.545 168.37 146.8 171.182C147.765 181.82 179.207 230.024 179.207 230.024L190.915 220.071L175.964 189.917L166.512 168.903C166.512 168.903 168.139 150.831 172.525 134.049C174.769 125.435 176.119 116.616 176.555 107.728L148.552 110.746Z" fill="#262626"/>
<path d="M178.304 230.345C178.304 230.345 177.02 236.972 170.787 237.343C164.555 237.714 165.907 242.656 165.907 242.656H189.725V230.808L178.304 230.345Z" fill="#367CFF"/>
<path d="M191.339 109.437C191.339 109.437 191.264 107.444 191.28 111.964C191.339 128.823 190.775 234.575 190.775 234.575L175.124 234.445L165.643 108.751L191.339 109.437Z" fill="#262626"/>
<path d="M168.858 151.598L167.574 132.055C167.574 132.055 166.256 140.179 166.256 147.182C166.256 150.606 166.964 164.158 166.964 164.158L168.858 151.598Z" fill="#0A0A0A"/>
<path d="M170.945 178.759L174.201 222.202L171.153 217.321L168.038 172.297L170.945 178.759Z" fill="#0A0A0A"/>
<path d="M159.016 59.4266C159.064 59.4203 159.596 68.2034 169.843 67.4379C176.937 66.9086 179.467 59.4141 179.63 59.4141C178.865 59.2524 177.919 59.0066 177.544 58.9225C176.725 58.7332 175.983 58.3003 175.418 57.6812C174.852 57.0621 174.489 56.2863 174.378 55.4569C174.17 54.2108 174.522 47.8426 174.414 46.5829L163.524 49.0032C163.676 51.6634 164.741 57.8307 161.009 58.9225C160.387 59.1029 159.718 59.2688 159.016 59.4266Z" fill="#E98862"/>
<path opacity="0.52" d="M163.371 56.4019C163.542 55.8545 163.652 55.2902 163.699 54.7191C163.819 53.4157 163.795 52.1032 163.628 50.8049C165.841 50.5074 167.926 49.5978 169.646 48.1793C169.849 48.923 170.96 52.1725 170.653 52.8785C170.071 54.2144 167.336 56.4019 163.371 56.4019Z" fill="#0C0C0C"/>
<path d="M165.304 54.2799C169.617 54.183 174.928 51.8287 175.392 46.04L175.811 40.8169C176.275 35.0282 173.597 30.093 168.124 29.6586C162.65 29.2236 158.182 33.5912 157.718 39.3799L157.533 41.6923C157.483 42.4873 157.488 43.2847 157.547 44.0791C157.689 46.1799 157.911 49.375 159.186 51.6104C160.389 53.7208 162.549 54.3416 165.304 54.2799Z" fill="#E98862"/>
<path opacity="0.52" d="M163.672 48.8528C162.784 48.8337 161.914 48.6072 161.131 48.1915C161.114 48.1836 161.099 48.1725 161.087 48.1587C161.075 48.145 161.065 48.1289 161.059 48.1115C161.053 48.094 161.051 48.0756 161.052 48.0572C161.053 48.0388 161.058 48.0208 161.067 48.0044C161.075 47.9879 161.087 47.9733 161.101 47.9614C161.115 47.9495 161.131 47.9406 161.149 47.9351C161.167 47.9296 161.185 47.9278 161.204 47.9296C161.222 47.9314 161.24 47.9369 161.256 47.9457C162.946 48.8004 164.534 48.7979 165.846 47.9378C165.872 47.9195 165.9 47.9027 165.928 47.8874C165.961 47.8713 165.999 47.8689 166.034 47.8808C166.069 47.8927 166.097 47.9179 166.114 47.9508C166.13 47.9837 166.132 48.0216 166.12 48.0563C166.108 48.0909 166.083 48.1194 166.05 48.1355C166.039 48.1411 166.021 48.1527 165.998 48.1683C165.308 48.6219 164.498 48.8602 163.672 48.8528Z" fill="#0C0C0C"/>
<path opacity="0.52" d="M163.625 50.1592C163.465 50.1583 163.306 50.1438 163.148 50.1159C163.112 50.1096 163.08 50.0893 163.059 50.0594C163.037 50.0294 163.029 49.9924 163.035 49.9563C163.042 49.9203 163.062 49.8882 163.092 49.8671C163.122 49.8461 163.159 49.8377 163.196 49.844C164.146 50.0094 164.633 49.603 164.653 49.5855C164.681 49.5613 164.717 49.5492 164.753 49.5516C164.79 49.554 164.824 49.5708 164.849 49.5983C164.873 49.6259 164.885 49.6618 164.883 49.6984C164.88 49.7349 164.863 49.7689 164.836 49.793C164.487 50.0509 164.059 50.1803 163.625 50.1592Z" fill="#0C0C0C"/>
<path d="M159.342 42.0803C159.715 42.0803 160.018 41.7787 160.018 41.4068C160.018 41.0349 159.715 40.7333 159.342 40.7333C158.968 40.7333 158.666 41.0349 158.666 41.4068C158.666 41.7787 158.968 42.0803 159.342 42.0803Z" fill="#0C0C0C"/>
<path d="M165.61 42.1227C165.984 42.1227 166.286 41.8212 166.286 41.4493C166.286 41.0773 165.984 40.7758 165.61 40.7758C165.237 40.7758 164.934 41.0773 164.934 41.4493C164.934 41.8212 165.237 42.1227 165.61 42.1227Z" fill="#0C0C0C"/>
<path d="M174.911 47.7766C176.574 47.9086 178.065 46.2439 178.198 44.5874C178.331 42.931 177.055 41.9106 175.392 41.7783L174.446 42.8205L173.481 47.6633L174.911 47.7766Z" fill="#E98862"/>
<path d="M146.284 78.7629C146.607 82.5386 148.177 106.095 148.487 110.746H191.257C191.499 106.551 192.584 88.2095 193.5 80.007C194.375 72.1798 196.091 67.9779 194.833 65.6638C192.777 61.8819 187.161 59.9796 183.332 59.4633C180.993 59.1484 177.476 58.9224 177.476 58.9224C177.476 58.9224 177.179 64.9207 170.078 65.2546C160.411 65.7077 161.057 58.9224 161.009 58.9224C157.499 58.9224 150.857 59.7584 148.308 61.4843C142.577 65.3651 145.599 70.7615 146.284 78.7629Z" fill="#367CFF"/>
<path d="M173.434 45.0013C173.434 45.0013 173.423 36.766 170.959 36.0931C169.319 35.645 165.129 37.7243 161.442 36.766C159.829 36.3465 158.251 36.6459 158.041 37.4037C157.958 37.7039 157.235 33.2633 160.017 30.1154C162.232 27.6094 168.948 27.308 171.924 28.3769C180.16 31.3361 175.709 42.1616 175.709 42.1616L175.144 44.963L173.434 45.0013Z" fill="#0C0C0C"/>
<g opacity="0.52">
<path d="M162.795 46.8497H162.785C162.249 46.8087 161.354 46.6798 161.384 46.2805C161.411 45.9497 162.597 42.4476 162.732 42.0494C162.738 42.0325 162.747 42.0168 162.759 42.0033C162.771 41.9898 162.785 41.9788 162.801 41.9709C162.817 41.9629 162.835 41.9582 162.853 41.957C162.871 41.9558 162.889 41.9582 162.906 41.9639C162.923 41.9696 162.939 41.9786 162.952 41.9904C162.966 42.0022 162.977 42.0165 162.985 42.0326C162.993 42.0486 162.997 42.066 162.999 42.0839C163 42.1018 162.997 42.1197 162.992 42.1366C162.465 43.6878 161.675 46.0769 161.658 46.3015C161.703 46.4 162.251 46.5351 162.806 46.5779C162.841 46.581 162.873 46.5974 162.896 46.6236C162.919 46.6499 162.932 46.684 162.93 46.7189C162.929 46.7539 162.914 46.787 162.889 46.8114C162.864 46.8359 162.831 46.8498 162.795 46.8503V46.8497Z" fill="#0C0C0C"/>
</g>
<path d="M161.242 39.3394C161.031 39.2512 160.81 39.1917 160.583 39.1624C160.347 39.13 160.109 39.13 159.874 39.1624C159.637 39.1919 159.407 39.2569 159.19 39.3553C158.968 39.4544 158.761 39.5808 158.571 39.7314L158.556 39.7427C158.507 39.7788 158.446 39.7946 158.385 39.7869C158.325 39.7793 158.27 39.7487 158.231 39.7016C158.193 39.6545 158.174 39.5945 158.179 39.534C158.184 39.4735 158.212 39.4172 158.257 39.3768C158.468 39.1823 158.702 39.0151 158.954 38.8789C159.21 38.7395 159.485 38.6392 159.771 38.5813C160.355 38.459 160.961 38.4965 161.525 38.6898C161.569 38.7052 161.61 38.7292 161.644 38.7603C161.679 38.7914 161.708 38.829 161.728 38.871C161.748 38.913 161.76 38.9586 161.762 39.0051C161.765 39.0516 161.758 39.0981 161.742 39.142C161.727 39.186 161.703 39.2264 161.672 39.2611C161.64 39.2957 161.603 39.3239 161.56 39.344C161.518 39.3642 161.473 39.3758 161.426 39.3783C161.379 39.3808 161.332 39.3742 161.288 39.3587C161.28 39.3556 161.271 39.3525 161.263 39.3488L161.242 39.3394Z" fill="#0C0C0C"/>
<path d="M165.213 38.7458C165.497 38.6465 165.794 38.5882 166.094 38.5725C166.387 38.5544 166.68 38.5762 166.966 38.6374C167.252 38.6954 167.527 38.7957 167.783 38.935C168.036 39.0713 168.27 39.2388 168.48 39.4335C168.526 39.4735 168.555 39.5299 168.561 39.5908C168.566 39.6517 168.548 39.7124 168.509 39.7599C168.471 39.8075 168.415 39.8382 168.354 39.8456C168.293 39.853 168.231 39.8365 168.182 39.7996L168.167 39.7878C167.977 39.6371 167.769 39.5108 167.548 39.4117C167.331 39.3133 167.101 39.2482 166.865 39.2185C166.63 39.1861 166.392 39.1861 166.156 39.2185C165.929 39.2478 165.707 39.3073 165.496 39.3955L165.476 39.4043C165.434 39.4231 165.388 39.4334 165.341 39.4345C165.294 39.4356 165.248 39.4275 165.204 39.4107C165.16 39.394 165.12 39.3688 165.087 39.3366C165.053 39.3045 165.026 39.2661 165.007 39.2235C164.988 39.1809 164.977 39.135 164.976 39.0885C164.975 39.0419 164.983 38.9956 165 38.9522C165.017 38.9087 165.042 38.869 165.075 38.8353C165.107 38.8016 165.146 38.7746 165.188 38.7558C165.196 38.7524 165.204 38.7487 165.213 38.7458Z" fill="#0C0C0C"/>
<path d="M165.791 30.5394C166.292 28.7586 165.712 27.0405 164.497 26.702C163.282 26.3634 161.892 27.5325 161.391 29.3133C160.891 31.0942 161.47 32.8123 162.685 33.1508C163.9 33.4894 165.29 32.3203 165.791 30.5394Z" fill="#0C0C0C"/>
<path d="M144.618 116.9C144.795 116.839 144.955 116.741 145.089 116.611C145.223 116.482 145.326 116.324 145.391 116.15C145.456 115.976 145.481 115.789 145.465 115.604C145.449 115.419 145.392 115.24 145.298 115.079L146.123 116.484C146.285 116.773 146.55 116.989 146.865 117.09C147.181 117.191 147.523 117.169 147.823 117.029C147.975 116.951 148.11 116.843 148.218 116.712C148.327 116.58 148.408 116.428 148.456 116.265C148.504 116.101 148.518 115.929 148.497 115.76C148.476 115.591 148.421 115.428 148.335 115.281L148.707 115.917C148.853 116.175 149.084 116.375 149.361 116.484C149.637 116.592 149.943 116.602 150.227 116.512C150.403 116.451 150.564 116.353 150.698 116.223C150.831 116.093 150.934 115.936 150.999 115.762C151.065 115.588 151.09 115.401 151.074 115.216C151.058 115.031 151.001 114.852 150.907 114.691L150.253 113.577C150.421 113.865 150.697 114.073 151.021 114.158C151.344 114.242 151.687 114.196 151.976 114.028C152.637 113.7 152.593 112.796 152.262 112.231L151.032 109.951L151.845 110.591C152.109 110.791 152.439 110.883 152.768 110.85C153.098 110.816 153.403 110.659 153.621 110.411C153.729 110.279 153.809 110.126 153.856 109.962C153.903 109.798 153.915 109.627 153.893 109.458C153.871 109.289 153.815 109.126 153.728 108.979C153.64 108.833 153.524 108.705 153.386 108.605L145.995 103.964L140.663 104.338C139.89 105.334 139.434 106.536 139.352 107.792C139.27 109.048 139.567 110.299 140.204 111.386L143.099 116.303C143.244 116.562 143.475 116.762 143.752 116.871C144.029 116.98 144.335 116.99 144.618 116.9Z" fill="#E98862"/>
<path d="M149.421 112.184C149.417 112.157 149.424 112.129 149.439 112.106C149.454 112.083 149.477 112.067 149.504 112.058C149.53 112.05 149.558 112.052 149.584 112.062C149.609 112.073 149.63 112.092 149.643 112.117L150.457 113.661C150.464 113.675 150.469 113.69 150.47 113.705C150.472 113.72 150.47 113.736 150.465 113.751C150.461 113.765 150.453 113.779 150.443 113.791C150.433 113.803 150.421 113.813 150.407 113.82C150.394 113.827 150.379 113.832 150.363 113.833C150.348 113.834 150.332 113.833 150.317 113.828C150.302 113.824 150.289 113.816 150.277 113.806C150.265 113.796 150.255 113.784 150.248 113.77L149.433 112.226C149.427 112.213 149.422 112.199 149.421 112.184Z" fill="#E98862"/>
<path d="M147.227 113.334C147.225 113.307 147.231 113.28 147.246 113.257C147.261 113.234 147.284 113.217 147.31 113.209C147.336 113.201 147.365 113.202 147.39 113.213C147.415 113.223 147.436 113.242 147.449 113.266L148.583 115.376C148.591 115.389 148.595 115.404 148.597 115.42C148.598 115.435 148.597 115.451 148.592 115.465C148.588 115.48 148.58 115.494 148.57 115.506C148.561 115.518 148.548 115.528 148.535 115.535C148.521 115.543 148.506 115.547 148.49 115.549C148.475 115.55 148.459 115.549 148.445 115.544C148.43 115.54 148.416 115.532 148.404 115.523C148.392 115.513 148.382 115.501 148.374 115.487L147.241 113.377C147.234 113.364 147.229 113.349 147.227 113.334Z" fill="#E98862"/>
<path d="M144.845 114.566C144.842 114.539 144.849 114.511 144.864 114.488C144.879 114.465 144.902 114.448 144.929 114.44C144.955 114.432 144.984 114.434 145.009 114.445C145.035 114.456 145.056 114.475 145.068 114.5L145.58 115.509C145.594 115.537 145.597 115.569 145.587 115.599C145.577 115.629 145.556 115.653 145.528 115.668C145.5 115.682 145.467 115.684 145.438 115.674C145.408 115.665 145.383 115.643 145.369 115.616L144.857 114.606C144.851 114.594 144.846 114.58 144.845 114.566Z" fill="#E98862"/>
<path opacity="0.2" d="M149.421 112.184C149.417 112.157 149.424 112.129 149.439 112.106C149.454 112.083 149.477 112.067 149.504 112.058C149.53 112.05 149.558 112.052 149.584 112.062C149.609 112.073 149.63 112.092 149.643 112.117L150.457 113.661C150.464 113.675 150.469 113.69 150.47 113.705C150.472 113.72 150.47 113.736 150.465 113.751C150.461 113.765 150.453 113.779 150.443 113.791C150.433 113.803 150.421 113.813 150.407 113.82C150.394 113.827 150.379 113.832 150.363 113.833C150.348 113.834 150.332 113.833 150.317 113.828C150.302 113.824 150.289 113.816 150.277 113.806C150.265 113.796 150.255 113.784 150.248 113.77L149.433 112.226C149.427 112.213 149.422 112.199 149.421 112.184Z" fill="#0C0C0C"/>
<path opacity="0.2" d="M147.227 113.334C147.225 113.307 147.231 113.28 147.246 113.257C147.261 113.234 147.284 113.217 147.31 113.209C147.336 113.201 147.365 113.202 147.39 113.213C147.415 113.223 147.436 113.242 147.449 113.266L148.583 115.376C148.591 115.389 148.595 115.404 148.597 115.42C148.598 115.435 148.597 115.451 148.592 115.465C148.588 115.48 148.58 115.494 148.57 115.506C148.561 115.518 148.548 115.528 148.535 115.535C148.521 115.543 148.506 115.547 148.49 115.549C148.475 115.55 148.459 115.549 148.445 115.544C148.43 115.54 148.416 115.532 148.404 115.523C148.392 115.513 148.382 115.501 148.374 115.487L147.241 113.377C147.234 113.364 147.229 113.349 147.227 113.334Z" fill="#0C0C0C"/>
<path opacity="0.2" d="M144.845 114.566C144.842 114.539 144.849 114.511 144.864 114.488C144.879 114.465 144.902 114.448 144.929 114.44C144.955 114.432 144.984 114.434 145.009 114.445C145.035 114.456 145.056 114.475 145.068 114.5L145.58 115.509C145.594 115.537 145.597 115.569 145.587 115.599C145.577 115.629 145.556 115.653 145.528 115.668C145.5 115.682 145.467 115.684 145.438 115.674C145.408 115.665 145.383 115.643 145.369 115.616L144.857 114.606C144.851 114.594 144.846 114.58 144.845 114.566Z" fill="#0C0C0C"/>
<path d="M155.877 76.0249C155.877 76.0249 152.444 60.0003 148.55 61.3348C145.459 62.3934 122.244 81.4424 121.539 82.1331C119.987 83.6541 119.106 85.7266 119.089 87.8947C119.071 90.0629 119.92 92.149 121.447 93.6944L139.517 114.281L149.945 104.547L136.232 89.7924L155.877 76.0249Z" fill="#367CFF"/>
<path d="M146.521 82.9654C146.493 82.9653 146.466 82.9548 146.446 82.936C146.426 82.9172 146.413 82.8915 146.411 82.864L145.952 76.5285C145.951 76.5141 145.953 76.4998 145.957 76.4861C145.962 76.4725 145.969 76.4598 145.978 76.449C145.988 76.4381 145.999 76.4291 146.012 76.4227C146.025 76.4162 146.039 76.4123 146.053 76.4112C146.068 76.4099 146.082 76.4115 146.096 76.4159C146.11 76.4203 146.123 76.4274 146.134 76.4368C146.145 76.4462 146.154 76.4577 146.16 76.4706C146.167 76.4835 146.171 76.4976 146.172 76.512L146.63 82.8476C146.631 82.8619 146.63 82.8764 146.625 82.89C146.621 82.9037 146.614 82.9163 146.604 82.9272C146.595 82.9381 146.583 82.947 146.57 82.9535C146.557 82.96 146.543 82.9638 146.529 82.9649L146.521 82.9654Z" fill="#0C0C0C"/>
<path d="M192.531 92.6261H192.523C192.495 92.6247 192.467 92.612 192.448 92.5908C192.428 92.5696 192.418 92.5416 192.419 92.5128L193.178 77.3393C193.181 77.3106 193.194 77.284 193.215 77.2647C193.237 77.2455 193.265 77.2351 193.294 77.2356C193.308 77.2363 193.322 77.2398 193.335 77.246C193.348 77.2521 193.36 77.2608 193.37 77.2714C193.379 77.2821 193.387 77.2945 193.392 77.3081C193.397 77.3216 193.399 77.336 193.398 77.3503L192.639 92.523C192.637 92.5505 192.625 92.5764 192.605 92.5955C192.585 92.6146 192.559 92.6255 192.531 92.6261Z" fill="#0C0C0C"/>
<path d="M253.949 243H8.92384C8.86553 243 8.80961 242.977 8.76838 242.936C8.72714 242.895 8.70398 242.839 8.70398 242.781C8.70398 242.723 8.72714 242.667 8.76838 242.626C8.80961 242.585 8.86553 242.562 8.92384 242.562H253.949C254.007 242.562 254.063 242.585 254.104 242.626C254.145 242.667 254.169 242.723 254.169 242.781C254.169 242.839 254.145 242.895 254.104 242.936C254.063 242.977 254.007 243 253.949 243Z" fill="#3F3F3F"/>
</svg>
