<svg width="258" height="304" viewBox="0 0 258 304" fill="none" xmlns="http://www.w3.org/2000/svg">
<path d="M245.191 0.386047H40.7571C33.978 0.386047 28.4825 5.89569 28.4825 12.6922V173.982C28.4825 180.779 33.978 186.288 40.7571 186.288H245.191C251.97 186.288 257.465 180.779 257.465 173.982V12.6922C257.465 5.89569 251.97 0.386047 245.191 0.386047Z" fill="white"/>
<path d="M245.191 186.675H40.7571C37.4005 186.671 34.1823 185.333 31.8088 182.953C29.4353 180.574 28.1003 177.347 28.0967 173.982V12.6929C28.1003 9.32765 29.4353 6.10128 31.8088 3.72169C34.1823 1.34209 37.4005 0.00363978 40.7571 0L245.191 0C248.547 0.00373292 251.765 1.34222 254.139 3.72179C256.512 6.10136 257.847 9.32768 257.851 12.6929V173.982C257.847 177.348 256.512 180.574 254.139 182.953C251.765 185.333 248.547 186.671 245.191 186.675ZM40.7571 0.772504C37.6048 0.776144 34.5827 2.03322 32.3538 4.26795C30.1249 6.50268 28.8711 9.53257 28.8676 12.6929V173.982C28.8712 177.143 30.125 180.172 32.3539 182.407C34.5829 184.642 37.6049 185.899 40.7571 185.902H245.191C248.343 185.899 251.365 184.642 253.594 182.407C255.823 180.173 257.077 177.143 257.08 173.982V12.6929C257.077 9.53254 255.823 6.5026 253.594 4.26785C251.365 2.0331 248.343 0.776051 245.191 0.772504H40.7571Z" fill="#292A2E"/>
<path opacity="0.2" d="M239.519 33.8062H226.966C224.321 33.8062 222.176 35.9565 222.176 38.609V51.1937C222.176 53.8462 224.321 55.9965 226.966 55.9965H239.519C242.165 55.9965 244.309 53.8462 244.309 51.1937V38.609C244.309 35.9565 242.165 33.8062 239.519 33.8062Z" fill="#367CFF"/>
<path opacity="0.2" d="M239.908 61.8353H227.452C224.78 61.8353 222.614 64.0072 222.614 66.6864V79.1745C222.614 81.8537 224.78 84.0256 227.452 84.0256H239.908C242.581 84.0256 244.747 81.8537 244.747 79.1745V66.6864C244.747 64.0072 242.581 61.8353 239.908 61.8353Z" fill="#367CFF"/>
<path opacity="0.2" d="M239.908 93.0527H227.452C224.78 93.0527 222.614 95.2247 222.614 97.9039V110.392C222.614 113.071 224.78 115.243 227.452 115.243H239.908C242.581 115.243 244.747 113.071 244.747 110.392V97.9039C244.747 95.2247 242.581 93.0527 239.908 93.0527Z" fill="#367CFF"/>
<path opacity="0.2" d="M239.471 122.673H227.015C224.342 122.673 222.176 124.845 222.176 127.524V140.012C222.176 142.691 224.342 144.863 227.015 144.863H239.471C242.143 144.863 244.309 142.691 244.309 140.012V127.524C244.309 124.845 242.143 122.673 239.471 122.673Z" fill="#367CFF"/>
<g opacity="0.15">
<path d="M149.264 33.8062H136.712C134.066 33.8062 131.921 35.9565 131.921 38.609V51.1937C131.921 53.8462 134.066 55.9965 136.712 55.9965H149.264C151.91 55.9965 154.055 53.8462 154.055 51.1937V38.609C154.055 35.9565 151.91 33.8062 149.264 33.8062Z" fill="#367CFF"/>
<path d="M119.179 33.8062H106.627C103.981 33.8062 101.836 35.9565 101.836 38.609V51.1937C101.836 53.8462 103.981 55.9965 106.627 55.9965H119.179C121.825 55.9965 123.97 53.8462 123.97 51.1937V38.609C123.97 35.9565 121.825 33.8062 119.179 33.8062Z" fill="#367CFF"/>
<path d="M89.532 33.8062H76.9796C74.3338 33.8062 72.189 35.9565 72.189 38.609V51.1937C72.189 53.8462 74.3338 55.9965 76.9796 55.9965H89.532C92.1777 55.9965 94.3226 53.8462 94.3226 51.1937V38.609C94.3226 35.9565 92.1777 33.8062 89.532 33.8062Z" fill="#367CFF"/>
<path d="M59.447 33.8062H46.8946C44.2488 33.8062 42.104 35.9565 42.104 38.609V51.1937C42.104 53.8462 44.2488 55.9965 46.8946 55.9965H59.447C62.0928 55.9965 64.2376 53.8462 64.2376 51.1937V38.609C64.2376 35.9565 62.0928 33.8062 59.447 33.8062Z" fill="#367CFF"/>
<path d="M179.349 33.8062H166.796C164.151 33.8062 162.006 35.9565 162.006 38.609V51.1937C162.006 53.8462 164.151 55.9965 166.796 55.9965H179.349C181.995 55.9965 184.139 53.8462 184.139 51.1937V38.609C184.139 35.9565 181.995 33.8062 179.349 33.8062Z" fill="#367CFF"/>
<path d="M209.434 33.8062H196.881C194.236 33.8062 192.091 35.9565 192.091 38.609V51.1937C192.091 53.8462 194.236 55.9965 196.881 55.9965H209.434C212.08 55.9965 214.224 53.8462 214.224 51.1937V38.609C214.224 35.9565 212.08 33.8062 209.434 33.8062Z" fill="#367CFF"/>
<path d="M149.653 61.8353H137.197C134.525 61.8353 132.359 64.0072 132.359 66.6864V79.1745C132.359 81.8537 134.525 84.0256 137.197 84.0256H149.653C152.326 84.0256 154.492 81.8537 154.492 79.1745V66.6864C154.492 64.0072 152.326 61.8353 149.653 61.8353Z" fill="#367CFF"/>
<path d="M179.738 61.8353H167.282C164.61 61.8353 162.444 64.0072 162.444 66.6864V79.1745C162.444 81.8537 164.61 84.0256 167.282 84.0256H179.738C182.411 84.0256 184.577 81.8537 184.577 79.1745V66.6864C184.577 64.0072 182.411 61.8353 179.738 61.8353Z" fill="#367CFF"/>
<path d="M209.823 61.8353H197.367C194.695 61.8353 192.529 64.0072 192.529 66.6864V79.1745C192.529 81.8537 194.695 84.0256 197.367 84.0256H209.823C212.496 84.0256 214.662 81.8537 214.662 79.1745V66.6864C214.662 64.0072 212.496 61.8353 209.823 61.8353Z" fill="#367CFF"/>
<path d="M59.3988 61.8353H46.9427C44.2704 61.8353 42.104 64.0072 42.104 66.6864V79.1745C42.104 81.8537 44.2704 84.0256 46.9427 84.0256H59.3988C62.0712 84.0256 64.2376 81.8537 64.2376 79.1745V66.6864C64.2376 64.0072 62.0712 61.8353 59.3988 61.8353Z" fill="#367CFF"/>
<path d="M89.4838 61.8353H77.0277C74.3554 61.8353 72.189 64.0072 72.189 66.6864V79.1745C72.189 81.8537 74.3554 84.0256 77.0277 84.0256H89.4838C92.1562 84.0256 94.3226 81.8537 94.3226 79.1745V66.6864C94.3226 64.0072 92.1562 61.8353 89.4838 61.8353Z" fill="#367CFF"/>
<path d="M119.568 61.8353H107.112C104.44 61.8353 102.274 64.0072 102.274 66.6864V79.1745C102.274 81.8537 104.44 84.0256 107.112 84.0256H119.568C122.241 84.0256 124.407 81.8537 124.407 79.1745V66.6864C124.407 64.0072 122.241 61.8353 119.568 61.8353Z" fill="#367CFF"/>
<path d="M149.653 93.0527H137.197C134.525 93.0527 132.359 95.2247 132.359 97.9039V110.392C132.359 113.071 134.525 115.243 137.197 115.243H149.653C152.326 115.243 154.492 113.071 154.492 110.392V97.9039C154.492 95.2247 152.326 93.0527 149.653 93.0527Z" fill="#367CFF"/>
<path d="M179.738 93.0527H167.282C164.61 93.0527 162.444 95.2247 162.444 97.9039V110.392C162.444 113.071 164.61 115.243 167.282 115.243H179.738C182.411 115.243 184.577 113.071 184.577 110.392V97.9039C184.577 95.2247 182.411 93.0527 179.738 93.0527Z" fill="#367CFF"/>
<path d="M209.823 93.0527H197.367C194.695 93.0527 192.529 95.2247 192.529 97.9039V110.392C192.529 113.071 194.695 115.243 197.367 115.243H209.823C212.496 115.243 214.662 113.071 214.662 110.392V97.9039C214.662 95.2247 212.496 93.0527 209.823 93.0527Z" fill="#367CFF"/>
<path d="M59.3988 93.0527H46.9427C44.2704 93.0527 42.104 95.2247 42.104 97.9039V110.392C42.104 113.071 44.2704 115.243 46.9427 115.243H59.3988C62.0712 115.243 64.2376 113.071 64.2376 110.392V97.9039C64.2376 95.2247 62.0712 93.0527 59.3988 93.0527Z" fill="#367CFF"/>
<path d="M89.4838 93.0527H77.0277C74.3554 93.0527 72.189 95.2247 72.189 97.9039V110.392C72.189 113.071 74.3554 115.243 77.0277 115.243H89.4838C92.1562 115.243 94.3226 113.071 94.3226 110.392V97.9039C94.3226 95.2247 92.1562 93.0527 89.4838 93.0527Z" fill="#367CFF"/>
<path d="M119.568 93.0527H107.112C104.44 93.0527 102.274 95.2247 102.274 97.9039V110.392C102.274 113.071 104.44 115.243 107.112 115.243H119.568C122.241 115.243 124.407 113.071 124.407 110.392V97.9039C124.407 95.2247 122.241 93.0527 119.568 93.0527Z" fill="#367CFF"/>
<path d="M149.653 123.112H137.197C134.525 123.112 132.359 125.284 132.359 127.963V140.451C132.359 143.13 134.525 145.302 137.197 145.302H149.653C152.326 145.302 154.492 143.13 154.492 140.451V127.963C154.492 125.284 152.326 123.112 149.653 123.112Z" fill="#367CFF"/>
<path d="M179.301 122.673H166.845C164.172 122.673 162.006 124.845 162.006 127.524V140.012C162.006 142.691 164.172 144.863 166.845 144.863H179.301C181.973 144.863 184.139 142.691 184.139 140.012V127.524C184.139 124.845 181.973 122.673 179.301 122.673Z" fill="#367CFF"/>
<path d="M209.386 122.673H196.93C194.257 122.673 192.091 124.845 192.091 127.524V140.012C192.091 142.691 194.257 144.863 196.93 144.863H209.386C212.058 144.863 214.224 142.691 214.224 140.012V127.524C214.224 124.845 212.058 122.673 209.386 122.673Z" fill="#367CFF"/>
<path d="M59.3988 123.112H46.9427C44.2704 123.112 42.104 125.284 42.104 127.963V140.451C42.104 143.13 44.2704 145.302 46.9427 145.302H59.3988C62.0712 145.302 64.2376 143.13 64.2376 140.451V127.963C64.2376 125.284 62.0712 123.112 59.3988 123.112Z" fill="#367CFF"/>
<path d="M89.4838 123.112H77.0277C74.3554 123.112 72.189 125.284 72.189 127.963V140.451C72.189 143.13 74.3554 145.302 77.0277 145.302H89.4838C92.1562 145.302 94.3226 143.13 94.3226 140.451V127.963C94.3226 125.284 92.1562 123.112 89.4838 123.112Z" fill="#367CFF"/>
<path d="M119.568 123.112H107.112C104.44 123.112 102.274 125.284 102.274 127.963V140.451C102.274 143.13 104.44 145.302 107.112 145.302H119.568C122.241 145.302 124.407 143.13 124.407 140.451V127.963C124.407 125.284 122.241 123.112 119.568 123.112Z" fill="#367CFF"/>
<path d="M149.216 150.338H136.76C134.088 150.338 131.921 152.51 131.921 155.189V167.678C131.921 170.357 134.088 172.529 136.76 172.529H149.216C151.888 172.529 154.055 170.357 154.055 167.678V155.189C154.055 152.51 151.888 150.338 149.216 150.338Z" fill="#367CFF"/>
<path d="M58.961 150.338H46.5049C43.8325 150.338 41.6662 152.51 41.6662 155.189V167.678C41.6662 170.357 43.8325 172.529 46.5049 172.529H58.961C61.6333 172.529 63.7997 170.357 63.7997 167.678V155.189C63.7997 152.51 61.6333 150.338 58.961 150.338Z" fill="#367CFF"/>
<path d="M89.046 150.338H76.5899C73.9175 150.338 71.7512 152.51 71.7512 155.189V167.678C71.7512 170.357 73.9175 172.529 76.5899 172.529H89.046C91.7183 172.529 93.8847 170.357 93.8847 167.678V155.189C93.8847 152.51 91.7183 150.338 89.046 150.338Z" fill="#367CFF"/>
<path d="M119.131 150.338H106.675C104.003 150.338 101.836 152.51 101.836 155.189V167.678C101.836 170.357 104.003 172.529 106.675 172.529H119.131C121.803 172.529 123.97 170.357 123.97 167.678V155.189C123.97 152.51 121.803 150.338 119.131 150.338Z" fill="#367CFF"/>
</g>
<path d="M257.465 12.6929V20.5826H28.4835V12.6929C28.4831 11.0767 28.8002 9.47623 29.4168 7.9829C30.0334 6.48958 30.9374 5.13266 32.0771 3.98966C33.2169 2.84665 34.5701 1.93995 36.0594 1.32134C37.5487 0.702735 39.145 0.384338 40.7571 0.384338H245.191C246.803 0.384524 248.399 0.703042 249.889 1.32171C251.378 1.94037 252.731 2.84707 253.871 3.99003C255.011 5.13298 255.915 6.48982 256.531 7.98307C257.148 9.47631 257.465 11.0767 257.465 12.6929Z" fill="#292A2E"/>
<path d="M118.852 152.793H106.954C105.48 152.793 104.285 153.991 104.285 155.469V167.398C104.285 168.876 105.48 170.074 106.954 170.074H118.852C120.326 170.074 121.521 168.876 121.521 167.398V155.469C121.521 153.991 120.326 152.793 118.852 152.793Z" fill="white"/>
<path d="M58.0952 116.331L43.4063 113.666C42.9899 113.591 42.6206 113.352 42.3795 113.004C42.1384 112.655 42.0452 112.225 42.1206 111.808L44.392 99.2236L48.9132 96.2055L61.3215 98.4571C61.7378 98.5326 62.1071 98.7708 62.3482 99.1194C62.5894 99.4679 62.6825 99.8982 62.6072 100.316L59.9489 115.042C59.9116 115.249 59.8341 115.446 59.7208 115.623C59.6075 115.799 59.4605 115.952 59.2884 116.072C59.1162 116.191 58.9223 116.276 58.7175 116.32C58.5128 116.365 58.3013 116.369 58.0952 116.331Z" fill="#367CFF"/>
<path opacity="0.29" d="M48.9132 96.2055L44.392 99.2236L48.2531 99.9912L48.9132 96.2055Z" fill="#FFFFFA"/>
<g opacity="0.88">
<path d="M59.2434 107.745C59.2286 107.745 59.2137 107.744 59.1991 107.741L45.4541 105.193C45.3961 105.182 45.3446 105.149 45.3112 105.1C45.2777 105.051 45.2649 104.991 45.2756 104.933C45.2864 104.875 45.3197 104.823 45.3684 104.789C45.417 104.756 45.4769 104.743 45.535 104.754L59.28 107.302C59.334 107.312 59.3824 107.342 59.4159 107.386C59.4493 107.43 59.4653 107.484 59.461 107.539C59.4566 107.594 59.4321 107.646 59.3922 107.684C59.3523 107.722 59.2998 107.743 59.2448 107.745H59.2434Z" fill="white"/>
<path d="M58.7507 110.635C58.7358 110.635 58.7208 110.634 58.7061 110.632L44.9614 108.083C44.9317 108.079 44.9032 108.069 44.8776 108.053C44.8519 108.037 44.8297 108.017 44.8122 107.992C44.7947 107.968 44.7823 107.94 44.7758 107.911C44.7692 107.881 44.7687 107.851 44.7741 107.821C44.7796 107.792 44.7909 107.764 44.8075 107.739C44.824 107.714 44.8455 107.692 44.8705 107.675C44.8956 107.659 44.9237 107.648 44.9532 107.642C44.9827 107.637 45.013 107.637 45.0423 107.644L58.7869 110.192C58.8414 110.202 58.8902 110.232 58.924 110.276C58.9578 110.32 58.974 110.375 58.9696 110.43C58.9653 110.485 58.9405 110.537 58.9002 110.575C58.86 110.613 58.807 110.634 58.7518 110.635H58.7507Z" fill="white"/>
<path d="M50.6864 111.811C50.6715 111.811 50.6567 111.81 50.6421 111.808L44.5454 110.677C44.5157 110.673 44.4872 110.663 44.4615 110.647C44.4359 110.631 44.4136 110.611 44.3962 110.586C44.3787 110.562 44.3663 110.534 44.3597 110.505C44.3532 110.475 44.3526 110.445 44.3581 110.415C44.3635 110.386 44.3749 110.358 44.3914 110.333C44.408 110.307 44.4295 110.286 44.4545 110.269C44.4795 110.253 44.5077 110.241 44.5372 110.236C44.5667 110.231 44.597 110.231 44.6263 110.238L50.723 111.369C50.777 111.379 50.8254 111.409 50.8588 111.452C50.8922 111.496 50.9083 111.551 50.9039 111.606C50.8996 111.661 50.8751 111.712 50.8352 111.75C50.7952 111.788 50.7428 111.81 50.6878 111.811H50.6864Z" fill="white"/>
</g>
<path d="M59.3088 105.396C59.2544 105.396 59.2002 105.391 59.1467 105.381L56.1725 104.837C56.0552 104.816 55.9433 104.772 55.8432 104.707C55.743 104.642 55.6567 104.558 55.5891 104.459C55.5215 104.361 55.474 104.25 55.4494 104.133C55.4247 104.016 55.4233 103.895 55.4453 103.778L55.945 100.611C55.9883 100.377 56.1219 100.168 56.317 100.031C56.5122 99.8942 56.7532 99.8396 56.9881 99.8791L59.9714 100.39C60.0897 100.41 60.2029 100.454 60.3043 100.518C60.4057 100.583 60.4934 100.666 60.5621 100.765C60.6308 100.864 60.6793 100.975 60.7047 101.093C60.7301 101.21 60.7318 101.332 60.7099 101.45L60.201 104.651C60.1621 104.86 60.0517 105.049 59.8888 105.185C59.7259 105.321 59.5208 105.395 59.3088 105.396ZM56.8365 100.219C56.7074 100.219 56.5824 100.264 56.483 100.347C56.3835 100.429 56.3158 100.544 56.2914 100.671L55.7917 103.837C55.7776 103.91 55.7779 103.984 55.7927 104.056C55.8074 104.128 55.8363 104.196 55.8776 104.257C55.9189 104.318 55.9719 104.37 56.0334 104.41C56.0949 104.45 56.1637 104.478 56.2358 104.491L59.21 105.034C59.3538 105.06 59.5018 105.028 59.6221 104.945C59.7424 104.862 59.8254 104.735 59.8532 104.591L60.3628 101.387C60.3763 101.315 60.3754 101.241 60.36 101.169C60.3446 101.097 60.3151 101.028 60.2731 100.968C60.2311 100.907 60.1776 100.856 60.1156 100.816C60.0536 100.777 59.9844 100.75 59.9119 100.738L56.9287 100.226C56.8982 100.221 56.8674 100.219 56.8365 100.219Z" fill="white"/>
<path d="M109.365 167.137C109.334 167.137 109.303 167.137 109.271 167.133C109.128 167.12 108.989 167.077 108.864 167.007C108.738 166.937 108.628 166.842 108.541 166.727L105.416 162.607C105.25 162.388 105.178 162.112 105.215 161.839C105.252 161.566 105.395 161.32 105.614 161.153C105.832 160.986 106.108 160.914 106.38 160.951C106.652 160.988 106.898 161.132 107.064 161.351L109.503 164.568L118.865 156C118.966 155.908 119.083 155.837 119.211 155.791C119.339 155.744 119.474 155.724 119.61 155.73C119.746 155.736 119.879 155.769 120.002 155.827C120.125 155.885 120.236 155.966 120.327 156.067C120.419 156.168 120.49 156.285 120.536 156.414C120.582 156.542 120.603 156.678 120.597 156.814C120.591 156.95 120.558 157.084 120.5 157.207C120.442 157.33 120.361 157.441 120.261 157.533L110.062 166.865C109.872 167.04 109.623 167.137 109.365 167.137Z" fill="#367CFF"/>
<path d="M245.462 48.2553L233.08 56.6146C232.907 56.7322 232.711 56.8143 232.506 56.8562C232.3 56.8981 232.089 56.8989 231.883 56.8587C231.677 56.8184 231.481 56.7379 231.307 56.6216C231.132 56.5054 230.982 56.3558 230.865 56.1813L223.74 45.5743L224.881 40.2503L235.342 33.1884C235.515 33.071 235.711 32.989 235.916 32.9472C236.122 32.9054 236.333 32.9046 236.539 32.9448C236.745 32.9851 236.941 33.0656 237.115 33.1817C237.29 33.2979 237.44 33.4474 237.557 33.6218L245.895 46.0351C246.012 46.2093 246.094 46.405 246.135 46.6109C246.177 46.8168 246.178 47.0289 246.137 47.2351C246.097 47.4413 246.017 47.6375 245.901 47.8125C245.785 47.9876 245.636 48.138 245.462 48.2553Z" fill="#0CBC8B"/>
<path opacity="0.29" d="M224.882 40.2499L223.741 45.5743L227.042 43.4249L224.882 40.2499Z" fill="#FFFFFA"/>
<g opacity="0.88">
<path d="M240.313 41.2982C240.302 41.3088 240.29 41.3184 240.278 41.3267L228.654 49.1096C228.605 49.1389 228.547 49.1481 228.491 49.1355C228.435 49.1228 228.386 49.0891 228.355 49.0414C228.323 48.9937 228.311 48.9356 228.321 48.8792C228.331 48.8228 228.362 48.7724 228.408 48.7383L240.032 40.9555C240.078 40.9251 240.133 40.9129 240.188 40.9211C240.242 40.9294 240.291 40.9575 240.326 41C240.361 41.0425 240.379 41.0965 240.377 41.1516C240.374 41.2066 240.352 41.2588 240.313 41.2982H240.313Z" fill="white"/>
<path d="M241.97 43.7144C241.959 43.7251 241.948 43.7347 241.935 43.743L230.311 51.5258C230.262 51.5551 230.203 51.5644 230.148 51.5517C230.092 51.539 230.043 51.5053 230.012 51.4576C229.98 51.4099 229.968 51.3519 229.978 51.2955C229.988 51.2391 230.019 51.1886 230.065 51.1546L241.689 43.3717C241.735 43.3414 241.79 43.3292 241.844 43.3374C241.899 43.3456 241.948 43.3737 241.983 43.4163C242.018 43.4588 242.036 43.5128 242.034 43.5678C242.031 43.6229 242.009 43.6751 241.97 43.7144Z" fill="white"/>
<path d="M237.008 50.1952C236.998 50.2059 236.986 50.2154 236.973 50.2238L231.819 53.6759C231.795 53.6938 231.767 53.7067 231.738 53.7136C231.709 53.7205 231.678 53.7214 231.648 53.7162C231.619 53.711 231.59 53.6997 231.565 53.6832C231.54 53.6666 231.518 53.6451 231.502 53.6199C231.485 53.5947 231.473 53.5664 231.468 53.5367C231.463 53.5069 231.463 53.4764 231.47 53.4469C231.477 53.4174 231.489 53.3896 231.507 53.3651C231.525 53.3407 231.547 53.3201 231.573 53.3046L236.729 49.8525C236.775 49.8222 236.83 49.81 236.885 49.8182C236.939 49.8264 236.988 49.8545 237.023 49.897C237.058 49.9396 237.076 49.9936 237.074 50.0486C237.072 50.1037 237.049 50.1559 237.01 50.1952H237.008Z" fill="white"/>
</g>
<path d="M248.298 304H19.56C19.4948 304 19.4321 303.974 19.386 303.928C19.3398 303.881 19.3139 303.819 19.3139 303.753C19.3139 303.688 19.3398 303.625 19.386 303.579C19.4321 303.532 19.4948 303.506 19.56 303.506H248.298C248.363 303.506 248.426 303.532 248.472 303.579C248.518 303.625 248.544 303.688 248.544 303.753C248.544 303.819 248.518 303.881 248.472 303.928C248.426 303.974 248.363 304 248.298 304Z" fill="#292A2E"/>
<path d="M206.624 288.426C206.624 288.426 205.036 296.677 197.33 297.138C189.623 297.599 191.295 303.752 191.295 303.752H220.744V289.002L206.624 288.426Z" fill="#367CFF"/>
<path d="M215.708 137.898C215.708 137.898 215.615 135.418 215.635 141.045C215.708 162.034 216.774 186.008 217.662 200.037C219.088 222.589 222.043 293.692 222.043 293.692L201.285 293.529L183.936 137.046L215.708 137.898Z" fill="#262626"/>
<path d="M193.442 162.925C193.442 162.925 192.64 178.157 192.492 181.732C192.148 190.002 191.84 198.618 191.84 208.326L188.978 182.823C188.978 182.823 191.21 174.847 193.442 162.925Z" fill="#0A0A0A"/>
<path d="M168.658 288.426C168.658 288.426 167.07 296.677 159.364 297.138C151.657 297.599 153.329 303.752 153.329 303.752H182.778V289.002L168.658 288.426Z" fill="#367CFF"/>
<path d="M162.803 139.528C162.803 139.528 160.738 211.968 160.989 215.474L163.965 293.148L185.107 293.5L186.769 211.936C186.769 211.936 187.022 189.436 192.445 168.543C195.219 157.82 196.889 146.84 197.428 135.775L162.803 139.528Z" fill="#262626"/>
<path d="M215.918 137.896L215.981 137.9C215.981 137.9 215.935 136.676 215.918 137.896Z" fill="#333333"/>
<path d="M175.741 76.1888C175.804 76.1807 176.5 87.7619 189.92 86.7521C199.21 86.0544 202.524 76.1722 202.735 76.1722C201.734 75.9607 200.047 75.6487 199.602 75.4107C198.139 74.6227 196.056 73.8025 195.584 70.9544C195.313 69.3128 195.774 60.9147 195.632 59.2537L181.645 62.4449C181.844 65.9527 183.238 74.0846 178.35 75.5256C177.537 75.7618 176.661 75.9811 175.741 76.1888Z" fill="#E98862"/>
<path d="M182.038 67.9158C187.67 68.3516 194.9 65.9558 196.261 58.4212L197.489 51.6227C198.85 44.0884 196.006 37.2639 188.931 35.9791C181.855 34.6939 175.461 39.8416 174.101 47.3759L173.557 50.3855C173.389 51.4222 173.29 52.4692 173.264 53.5193C173.173 56.2941 173.045 60.5145 174.414 63.6144C175.707 66.5411 178.44 67.6377 182.038 67.9158Z" fill="#E98862"/>
<path d="M194.668 35.593C192.432 34.8939 190.113 34.4983 187.773 34.4168C187.696 34.007 187.522 33.6218 187.264 33.294C187.007 32.9662 186.675 32.7055 186.296 32.534C185.059 32.0496 183.547 32.8298 182.542 34.3339C182.017 33.4345 181.196 32.7463 180.221 32.3874C177.45 31.5228 177.313 35.5123 177.313 35.5123C177.313 35.5123 172.921 31.1671 172.784 36.7089C172.618 43.4143 173.846 45.3824 174.743 45.876C176.514 46.8566 177.832 46.6905 178.533 48.1325C180.656 52.5003 178.575 64.8033 181.03 66.3437C184.793 68.7035 192.498 68.785 195 68.6059C195.963 68.5353 196.864 67.418 197.269 66.5404C198.578 63.706 201.497 57.2806 202.31 54.6232C203.812 49.7213 203.699 38.5494 194.668 35.593Z" fill="#0C0C0C"/>
<path d="M179.352 61.9502C181.524 61.714 183.033 59.192 182.798 57.0141C182.563 54.8362 180.671 53.8264 178.498 54.063L177.537 55.6443L177.485 62.154L179.352 61.9502Z" fill="#E98862"/>
<path d="M160.079 99.7098C160.478 104.41 162.42 133.737 162.803 139.527H215.686C215.985 134.305 217.326 111.47 218.459 101.258C219.541 91.5137 221.662 86.6351 220.107 83.7541C217.566 79.0458 210.622 76.3253 205.887 75.6825C202.995 75.2901 198.646 75.0087 198.646 75.0087H178.284C176.35 75.0087 165.074 75.9212 162.581 77.8456C158.223 81.2124 159.233 89.7494 160.079 99.7098Z" fill="#367CFF"/>
<path d="M159.349 93.8217C159.304 93.8218 159.261 93.8046 159.228 93.7736C159.196 93.7427 159.176 93.7003 159.173 93.6553L158.747 86.1912C158.744 86.1445 158.76 86.0987 158.791 86.0638C158.822 86.0289 158.866 86.0077 158.912 86.005C158.959 86.0029 159.004 86.019 159.039 86.05C159.073 86.0809 159.095 86.1243 159.098 86.1707L159.524 93.6352C159.526 93.6583 159.522 93.6815 159.515 93.7034C159.507 93.7253 159.495 93.7454 159.48 93.7627C159.465 93.78 159.446 93.7941 159.425 93.8041C159.404 93.8142 159.382 93.8201 159.359 93.8214L159.349 93.8217Z" fill="#0C0C0C"/>
<path d="M227.119 139.221C228.674 139.221 230.207 138.844 231.585 138.122C232.964 137.401 234.149 136.356 235.038 135.076C235.928 133.797 236.496 132.321 236.694 130.775C236.892 129.228 236.714 127.656 236.176 126.193C235.63 124.708 222.822 90.7038 220.384 84.4032L202.329 91.7369C203.701 95.2793 208.668 108.707 212.658 119.524L206.028 118.802L203.941 138.047L226.075 139.164C226.421 139.202 226.77 139.221 227.119 139.221Z" fill="#367CFF"/>
<path d="M216.815 101.457L215.516 139.524L215.867 139.536L217.167 101.469L216.815 101.457Z" fill="#0C0C0C"/>
<path d="M121.431 60.8554L105.421 67.9352C105.074 68.0885 104.681 68.0973 104.328 67.96C103.974 67.8226 103.69 67.5501 103.537 67.2026L97.6071 53.7231L99.9214 48.062L113.217 42.1828C113.388 42.1069 113.573 42.0656 113.761 42.0613C113.948 42.0571 114.135 42.0899 114.31 42.1579C114.485 42.226 114.645 42.3279 114.78 42.4579C114.916 42.5878 115.025 42.7433 115.1 42.9154L122.162 58.967C122.315 59.3146 122.324 59.7088 122.187 60.0629C122.049 60.4171 121.778 60.7021 121.431 60.8554Z" fill="#0CBC8B"/>
<path opacity="0.29" d="M99.9209 48.0627L97.6065 53.7238L101.682 52.0028L99.9209 48.0627Z" fill="#FFFFFA"/>
<g opacity="0.88">
<path d="M115.561 49.5584C115.548 49.5681 115.533 49.5764 115.517 49.5831L101.125 55.8816C101.065 55.9022 101 55.8997 100.942 55.8744C100.885 55.8491 100.839 55.803 100.813 55.7452C100.788 55.6874 100.786 55.6221 100.806 55.5625C100.827 55.5028 100.869 55.4531 100.924 55.4232L115.317 49.1247C115.374 49.1003 115.438 49.0978 115.496 49.1177C115.555 49.1376 115.604 49.1784 115.634 49.2324C115.664 49.2864 115.674 49.3496 115.66 49.4101C115.647 49.4705 115.612 49.5238 115.561 49.5598V49.5584Z" fill="white"/>
<path d="M116.778 52.2877C116.765 52.2974 116.75 52.3057 116.735 52.3124L102.342 58.6109C102.282 58.6326 102.216 58.6308 102.158 58.6057C102.099 58.5806 102.053 58.5341 102.027 58.4758C102.002 58.4174 101.999 58.3515 102.02 58.2915C102.042 58.2315 102.085 58.1818 102.141 58.1525L116.534 51.854C116.591 51.8287 116.655 51.8255 116.714 51.8451C116.774 51.8647 116.823 51.9058 116.854 51.9602C116.884 52.0146 116.893 52.0785 116.879 52.1393C116.866 52.2001 116.829 52.2536 116.778 52.2891V52.2877Z" fill="white"/>
<path d="M118.133 55.2878C118.12 55.2976 118.105 55.3058 118.09 55.3125L103.697 61.611C103.637 61.6328 103.571 61.6309 103.513 61.6058C103.454 61.5807 103.408 61.5343 103.382 61.4759C103.357 61.4176 103.354 61.3517 103.375 61.2916C103.397 61.2316 103.44 61.1819 103.496 61.1527L117.889 54.8542C117.946 54.8288 118.01 54.8256 118.069 54.8452C118.129 54.8649 118.178 54.9059 118.209 54.9603C118.239 55.0147 118.248 55.0786 118.235 55.1394C118.221 55.2003 118.184 55.2537 118.133 55.2893V55.2878Z" fill="white"/>
<path d="M111.366 61.4696C111.352 61.4792 111.337 61.4875 111.322 61.4943L104.938 64.2878C104.878 64.3085 104.813 64.3059 104.755 64.2806C104.698 64.2554 104.652 64.2092 104.626 64.1514C104.601 64.0936 104.598 64.0284 104.619 63.9687C104.639 63.9091 104.682 63.8593 104.737 63.8295L111.122 61.036C111.178 61.0116 111.242 61.0091 111.301 61.029C111.359 61.0489 111.408 61.0897 111.438 61.1437C111.469 61.1976 111.478 61.2609 111.465 61.3213C111.451 61.3818 111.416 61.4351 111.366 61.471V61.4696Z" fill="white"/>
</g>
<path d="M108.198 59.6253C108.125 59.431 108.013 59.2537 107.87 59.1042C107.726 58.9547 107.553 58.836 107.363 58.7556C107.172 58.6751 106.967 58.6345 106.759 58.6361C106.552 58.6378 106.348 58.6818 106.158 58.7653C105.797 58.9399 105.516 59.2452 105.371 59.6197C105.225 59.9943 105.227 60.41 105.376 60.7832L105.883 62.8881C105.99 63.3333 105.931 63.8025 105.717 64.2071C105.503 64.6117 105.149 64.9237 104.721 65.0843C104.301 65.2418 103.839 65.2432 103.419 65.0882C102.999 64.9333 102.648 64.6322 102.43 64.2399C102.43 64.2399 99.2724 57.5525 99.2127 57.2803C98.6946 57.7869 97.7912 59.0333 97.6058 59.9729C97.5992 59.9779 98.5202 67.4829 99.0351 68.0118L104.377 76.2727C106.561 78.5162 113.892 74.7834 113.892 74.7834L108.198 59.6253Z" fill="#E98862"/>
<path d="M130.149 121.308C128.36 121.308 126.602 120.844 125.044 119.962C123.487 119.079 122.184 117.808 121.261 116.271L98.2638 77.9704L116.041 67.2424L133.522 96.3603L162.582 77.8498L174.894 94.4L135.764 119.655C134.089 120.735 132.14 121.309 130.149 121.308Z" fill="#367CFF"/>
<path d="M160.374 103.936C160.335 103.936 160.296 103.923 160.265 103.899C160.234 103.874 160.213 103.84 160.203 103.802C160.194 103.763 160.198 103.723 160.214 103.687C160.23 103.651 160.258 103.622 160.293 103.603L165.314 101.006C165.356 100.984 165.404 100.98 165.449 100.994C165.493 101.008 165.53 101.04 165.551 101.081C165.573 101.123 165.577 101.171 165.563 101.216C165.549 101.26 165.517 101.298 165.476 101.319L160.455 103.916C160.43 103.929 160.402 103.936 160.374 103.936Z" fill="#0C0C0C"/>
<path d="M175.48 76.1087L177.973 72.2018C178.083 72.0306 178.233 71.8897 178.411 71.7921C178.588 71.6945 178.788 71.6433 178.99 71.6433H197.781C197.951 71.6433 198.118 71.679 198.273 71.748C198.427 71.8171 198.566 71.918 198.679 72.0442L202.329 76.1087H175.48Z" fill="#367CFF"/>
<path d="M30.3364 232.591L29.7291 232.657L37.2263 301.345L37.8336 301.279L30.3364 232.591Z" fill="#292A2E"/>
<path d="M49.7543 262.578L46.066 299.159L46.6738 299.221L50.3621 262.639L49.7543 262.578Z" fill="#292A2E"/>
<path d="M56.0969 294.737H28.7293V303.642H56.0969V294.737Z" fill="#292A2E"/>
<path opacity="0.2" d="M56.0969 294.737H28.7293V303.642H56.0969V294.737Z" fill="white"/>
<path d="M72.5956 278.342C77.78 271.434 75.3086 260.799 67.0754 254.588C58.8423 248.378 47.9652 248.943 42.7807 255.851C37.5963 262.759 40.0677 273.394 48.3009 279.605C56.534 285.815 67.4111 285.25 72.5956 278.342Z" fill="#0CBC8B"/>
<path opacity="0.2" d="M72.5956 278.342C77.78 271.434 75.3086 260.799 67.0754 254.588C58.8423 248.378 47.9652 248.943 42.7807 255.851C37.5963 262.759 40.0677 273.394 48.3009 279.605C56.534 285.815 67.4111 285.25 72.5956 278.342Z" fill="white"/>
<path opacity="0.5" d="M72.5945 278.343C72.2463 278.809 71.8664 279.25 71.4575 279.663C65.7505 283.319 57.3267 282.744 50.6441 277.702C42.4117 271.492 39.9408 260.858 45.126 253.949C45.4746 253.485 45.8535 253.043 46.2601 252.629C51.97 248.971 60.3909 249.549 67.0763 254.588C75.3084 260.8 77.7793 271.435 72.5945 278.343Z" fill="white"/>
<path d="M34.4012 252.132C42.5572 245.82 44.774 234.995 39.3524 227.954C33.9308 220.912 22.924 220.321 14.7679 226.633C6.61181 232.945 4.39506 243.77 9.81663 250.811C15.2382 257.853 26.2451 258.444 34.4012 252.132Z" fill="#0CBC8B"/>
<path opacity="0.2" d="M31.8199 250.321C25.5034 255.213 17.476 255.958 11.6571 252.774C10.9837 252.179 10.3686 251.522 9.82032 250.809C4.39604 243.77 6.61267 232.943 14.7684 226.633C21.0849 221.744 29.1123 220.996 34.9284 224.177C35.6032 224.772 36.2191 225.431 36.7677 226.145C42.1905 233.184 39.9739 244.011 31.8199 250.321Z" fill="white"/>
</svg>
