<svg width="382" height="261" viewBox="0 0 382 261" fill="none" xmlns="http://www.w3.org/2000/svg">
<path d="M319.786 0.230652H247.079V94.8667H319.786V0.230652Z" fill="#F4F4F4"/>
<path d="M319.786 94.8669H322.144V0.230812H319.786V94.8669Z" fill="#F4F4F4"/>
<path opacity="0.05" d="M319.786 94.8669H322.144V0.230812H319.786V94.8669Z" fill="#292A2E"/>
<path opacity="0.05" d="M306.541 17.4698H260.323V77.6278H306.541V17.4698Z" fill="#292A2E"/>
<path opacity="0.03" d="M306.541 17.4698H304.132V77.6278H306.541V17.4698Z" fill="#292A2E"/>
<path d="M379.247 118.14H319.785V178.148H379.247V118.14Z" fill="#F4F4F4"/>
<path opacity="0.05" d="M368.416 129.07H330.617V167.216H368.416V129.07Z" fill="#292A2E"/>
<path d="M379.247 178.147H381.606V118.139H379.247V178.147Z" fill="#F4F4F4"/>
<path opacity="0.05" d="M379.247 178.147H381.606V118.139H379.247V178.147Z" fill="#292A2E"/>
<path opacity="0.03" d="M368.415 129.07H366.007V167.216H368.415V129.07Z" fill="#292A2E"/>
<path d="M208.435 0H31.0413V177.393H208.435V0Z" fill="#F4F4F4"/>
<path d="M210.468 0H208.435V177.393H210.468V0Z" fill="#F4F4F4"/>
<path opacity="0.05" d="M210.468 0H208.435V177.393H210.468V0Z" fill="#292A2E"/>
<path opacity="0.05" d="M165.46 122.238V75.8268H127.442V102.791H68.552V150.535H43.5229V177.393H68.552H73.3738H199.901V122.238H165.46Z" fill="#292A2E"/>
<path opacity="0.34" d="M160.008 80.8663H132.323V85.9055H160.008V80.8663Z" fill="#FFFFFA"/>
<path opacity="0.34" d="M160.008 91.3091H132.323V96.3482H160.008V91.3091Z" fill="#FFFFFA"/>
<path opacity="0.34" d="M160.008 101.751H132.323V106.79H160.008V101.751Z" fill="#FFFFFA"/>
<path opacity="0.34" d="M194.992 127.129H189.889V132.168H194.992V127.129Z" fill="#FFFFFA"/>
<path opacity="0.34" d="M194.992 137.572H189.889V142.611H194.992V137.572Z" fill="#FFFFFA"/>
<path opacity="0.34" d="M194.992 148.015H189.889V153.054H194.992V148.015Z" fill="#FFFFFA"/>
<path opacity="0.34" d="M185.552 127.129H180.449V132.168H185.552V127.129Z" fill="#FFFFFA"/>
<path opacity="0.34" d="M185.552 137.572H180.449V142.611H185.552V137.572Z" fill="#FFFFFA"/>
<path opacity="0.34" d="M185.552 148.015H180.449V153.054H185.552V148.015Z" fill="#FFFFFA"/>
<path opacity="0.34" d="M176.367 127.13H171.264V132.169H176.367V127.13Z" fill="#FFFFFA"/>
<path opacity="0.34" d="M176.367 137.572H171.264V142.611H176.367V137.572Z" fill="#FFFFFA"/>
<path opacity="0.34" d="M176.367 148.015H171.264V153.054H176.367V148.015Z" fill="#FFFFFA"/>
<path d="M208.435 87.7018H172.74V0H169.788V87.7018H73.3738V0H70.4218V87.7018H31.0413V90.6534H70.4218V177.393H73.3738V90.6534H169.788V177.393H172.74V90.6534H208.435V87.7018Z" fill="white"/>
<path d="M215.501 177.179H23.9745V183.078H215.501V177.179Z" fill="#F4F4F4"/>
<path opacity="0.1" d="M215.501 177.179H23.9745V183.078H215.501V177.179Z" fill="#292A2E"/>
<path opacity="0.1" d="M218.267 177.179H215.502V183.078H218.267V177.179Z" fill="#292A2E"/>
<path opacity="0.1" d="M218.267 177.179H215.502V183.078H218.267V177.179Z" fill="#292A2E"/>
<path d="M210.468 3.16626H31.0413V7.55233H210.468V3.16626Z" fill="white"/>
<path d="M210.468 11.3594H31.0413V15.7455H210.468V11.3594Z" fill="white"/>
<path d="M210.468 19.5516H31.0413V23.9377H210.468V19.5516Z" fill="white"/>
<path d="M210.468 27.7439H31.0413V32.13H210.468V27.7439Z" fill="white"/>
<path d="M210.468 35.9366H31.0413V40.3227H210.468V35.9366Z" fill="white"/>
<path d="M191.41 0H188.722V45.2705H191.41V0Z" fill="white"/>
<path d="M190.294 51.7711C192.334 51.7711 193.988 50.1172 193.988 48.077C193.988 46.0368 192.334 44.3829 190.294 44.3829C188.254 44.3829 186.6 46.0368 186.6 48.077C186.6 50.1172 188.254 51.7711 190.294 51.7711Z" fill="white"/>
<path d="M161.106 212.525C160.619 212.525 160.133 212.481 159.653 212.395C158.338 212.159 157.093 211.627 156.013 210.838C154.934 210.05 154.048 209.027 153.422 207.845C152.819 206.651 152.503 205.332 152.5 203.994C152.496 202.656 152.806 201.336 153.403 200.139C154.051 198.679 155.008 197.377 156.208 196.323C153.266 195.654 150.246 195.393 147.233 195.547C146.608 195.593 145.99 195.39 145.515 194.981C145.04 194.572 144.746 193.991 144.7 193.365C144.653 192.74 144.857 192.122 145.266 191.647C145.675 191.172 146.256 190.879 146.881 190.832C147.309 190.8 156.319 190.176 162.711 193.831C167.625 193.535 172.311 195.845 172.55 195.967C173.11 196.248 173.536 196.74 173.733 197.335C173.931 197.93 173.884 198.579 173.603 199.14C173.464 199.417 173.271 199.664 173.036 199.868C172.802 200.071 172.529 200.226 172.235 200.323C171.64 200.521 170.991 200.474 170.43 200.193C169.617 199.806 168.774 199.485 167.909 199.233C168.579 200.67 168.961 202.224 169.034 203.808C169.143 205.059 168.963 206.318 168.507 207.488C168.051 208.658 167.332 209.707 166.405 210.554C164.936 211.832 163.053 212.533 161.106 212.525ZM161.59 198.757C161.391 198.806 161.197 198.864 161.005 198.931C160.262 199.201 159.583 199.624 159.013 200.173C158.443 200.722 157.995 201.384 157.698 202.117C157.097 203.42 157.07 204.612 157.615 205.659C157.912 206.196 158.323 206.662 158.82 207.022C159.316 207.381 159.886 207.627 160.489 207.742C160.978 207.837 161.482 207.821 161.964 207.695C162.446 207.569 162.893 207.337 163.274 207.016C163.663 206.638 163.959 206.176 164.139 205.665C164.319 205.154 164.379 204.608 164.313 204.07C164.289 203.111 164.064 202.169 163.653 201.303C163.243 200.437 162.656 199.666 161.93 199.04C161.819 198.944 161.706 198.849 161.59 198.757Z" fill="#367CFF"/>
<g opacity="0.6">
<path d="M161.106 212.525C160.619 212.525 160.133 212.481 159.653 212.395C158.338 212.159 157.093 211.627 156.013 210.838C154.934 210.05 154.048 209.027 153.422 207.845C152.819 206.651 152.503 205.332 152.5 203.994C152.496 202.656 152.806 201.336 153.403 200.139C154.051 198.679 155.008 197.377 156.208 196.323C153.266 195.654 150.246 195.393 147.233 195.547C146.608 195.593 145.99 195.39 145.515 194.981C145.04 194.572 144.746 193.991 144.7 193.365C144.653 192.74 144.857 192.122 145.266 191.647C145.675 191.172 146.256 190.879 146.881 190.832C147.309 190.8 156.319 190.176 162.711 193.831C167.625 193.535 172.311 195.845 172.55 195.967C173.11 196.248 173.536 196.74 173.733 197.335C173.931 197.93 173.884 198.579 173.603 199.14C173.464 199.417 173.271 199.664 173.036 199.868C172.802 200.071 172.529 200.226 172.235 200.323C171.64 200.521 170.991 200.474 170.43 200.193C169.617 199.806 168.774 199.485 167.909 199.233C168.579 200.67 168.961 202.224 169.034 203.808C169.143 205.059 168.963 206.318 168.507 207.488C168.051 208.658 167.332 209.707 166.405 210.554C164.936 211.832 163.053 212.533 161.106 212.525ZM161.59 198.757C161.391 198.806 161.197 198.864 161.005 198.931C160.262 199.201 159.583 199.624 159.013 200.173C158.443 200.722 157.995 201.384 157.698 202.117C157.097 203.42 157.07 204.612 157.615 205.659C157.912 206.196 158.323 206.662 158.82 207.022C159.316 207.381 159.886 207.627 160.489 207.742C160.978 207.837 161.482 207.821 161.964 207.695C162.446 207.569 162.893 207.337 163.274 207.016C163.663 206.638 163.959 206.176 164.139 205.665C164.319 205.154 164.379 204.608 164.313 204.07C164.289 203.111 164.064 202.169 163.653 201.303C163.243 200.437 162.656 199.666 161.93 199.04C161.819 198.944 161.706 198.849 161.59 198.757Z" fill="white"/>
</g>
<g opacity="0.5">
<path d="M155.55 203.492C155.153 203.492 154.763 203.392 154.416 203.201C154.068 203.01 153.774 202.736 153.56 202.402C153.347 202.068 153.22 201.685 153.193 201.29C153.166 200.894 153.238 200.498 153.404 200.138C153.963 198.824 154.789 197.641 155.831 196.664C156.873 195.687 158.107 194.938 159.454 194.465C165.33 192.403 172.259 195.823 172.551 195.969C173.112 196.25 173.538 196.742 173.735 197.337C173.933 197.932 173.886 198.581 173.605 199.141C173.323 199.702 172.831 200.128 172.236 200.325C171.641 200.523 170.992 200.476 170.432 200.195C168.933 199.45 164.302 197.767 161.005 198.93C160.262 199.199 159.583 199.622 159.013 200.171C158.443 200.72 157.995 201.382 157.698 202.115C157.509 202.526 157.206 202.874 156.825 203.118C156.445 203.363 156.002 203.492 155.55 203.492Z" fill="white"/>
</g>
<path d="M60.0564 168.921C60.0564 168.921 45.4637 158.102 40.2718 162.357C35.5723 166.208 41.0148 181.578 41.0148 181.578C41.0148 181.578 53.5593 182.71 60.0564 168.921Z" fill="#367CFF"/>
<g opacity="0.2">
<path d="M60.0564 168.921C60.0564 168.921 45.4637 158.102 40.2718 162.357C35.5723 166.208 41.0148 181.578 41.0148 181.578C41.0148 181.578 53.5593 182.71 60.0564 168.921Z" fill="white"/>
</g>
<path d="M154.896 204.15C154.896 176.886 132.469 154.784 97.1963 154.784C65.5169 154.784 39.1719 172.3 34.1444 195.684H26.7853V227.293H40.576C44.6421 233.25 50.3395 238.344 57.061 242.547V256.972C57.0606 257.44 57.1524 257.903 57.331 258.335C57.5096 258.767 57.7717 259.159 58.1021 259.49C58.4325 259.82 58.8248 260.083 59.2566 260.262C59.6885 260.441 60.1513 260.533 60.6188 260.533H65.3974C65.5071 260.533 65.6148 260.525 65.7226 260.516C65.8299 260.525 65.9376 260.533 66.0477 260.533H70.8264C71.2938 260.533 71.7567 260.441 72.1885 260.262C72.6204 260.083 73.0127 259.82 73.3431 259.49C73.6735 259.159 73.9355 258.767 74.1142 258.335C74.2928 257.903 74.3845 257.44 74.3842 256.972V250.271C81.7928 252.441 89.475 253.534 97.1949 253.517C102.049 253.531 106.893 253.083 111.662 252.178V256.973C111.661 257.441 111.753 257.904 111.932 258.336C112.11 258.768 112.372 259.16 112.703 259.491C113.033 259.822 113.426 260.084 113.858 260.263C114.289 260.442 114.752 260.534 115.22 260.534H119.999C120.108 260.534 120.216 260.526 120.324 260.517C120.431 260.526 120.539 260.534 120.649 260.534H125.427C125.895 260.534 126.358 260.442 126.79 260.263C127.221 260.084 127.614 259.821 127.944 259.491C128.275 259.16 128.537 258.768 128.715 258.336C128.894 257.904 128.986 257.441 128.985 256.973V246.176C145.375 237.481 154.896 221.911 154.896 204.15Z" fill="#367CFF"/>
<path opacity="0.5" d="M154.896 204.15C154.896 176.886 132.469 154.784 97.1963 154.784C65.5169 154.784 39.1719 172.3 34.1444 195.684H26.7853V227.293H40.576C44.6421 233.25 50.3395 238.344 57.061 242.547V256.972C57.0606 257.44 57.1524 257.903 57.331 258.335C57.5096 258.767 57.7717 259.159 58.1021 259.49C58.4325 259.82 58.8248 260.083 59.2566 260.262C59.6885 260.441 60.1513 260.533 60.6188 260.533H65.3974C65.5071 260.533 65.6148 260.525 65.7226 260.516C65.8299 260.525 65.9376 260.533 66.0477 260.533H70.8264C71.2938 260.533 71.7567 260.441 72.1885 260.262C72.6204 260.083 73.0127 259.82 73.3431 259.49C73.6735 259.159 73.9355 258.767 74.1142 258.335C74.2928 257.903 74.3845 257.44 74.3842 256.972V250.271C81.7928 252.441 89.475 253.534 97.1949 253.517C102.049 253.531 106.893 253.083 111.662 252.178V256.973C111.661 257.441 111.753 257.904 111.932 258.336C112.11 258.768 112.372 259.16 112.703 259.491C113.033 259.822 113.426 260.084 113.858 260.263C114.289 260.442 114.752 260.534 115.22 260.534H119.999C120.108 260.534 120.216 260.526 120.324 260.517C120.431 260.526 120.539 260.534 120.649 260.534H125.427C125.895 260.534 126.358 260.442 126.79 260.263C127.221 260.084 127.614 259.821 127.944 259.491C128.275 259.16 128.537 258.768 128.715 258.336C128.894 257.904 128.986 257.441 128.985 256.973V246.176C145.375 237.481 154.896 221.911 154.896 204.15Z" fill="white"/>
<path d="M45.0765 188.063C46.2284 188.063 47.1622 187.129 47.1622 185.977C47.1622 184.825 46.2284 183.891 45.0765 183.891C43.9245 183.891 42.9907 184.825 42.9907 185.977C42.9907 187.129 43.9245 188.063 45.0765 188.063Z" fill="#262626"/>
<path d="M55.5458 174.063C55.0258 173.562 54.6993 172.893 54.6237 172.175C54.5482 171.457 54.7286 170.735 55.1331 170.137C57.9098 166.057 64.2688 157.682 68.6487 159.395C72.6572 160.963 73.6186 171.003 73.8491 175.528C73.901 176.172 73.7329 176.814 73.3724 177.349C73.0119 177.885 72.4802 178.282 71.8645 178.475C68.6487 179.349 62.116 180.012 55.5458 174.063Z" fill="#367CFF"/>
<g opacity="0.2">
<path d="M55.5458 174.063C55.0258 173.562 54.6993 172.893 54.6237 172.175C54.5482 171.457 54.7286 170.735 55.1331 170.137C57.9098 166.057 64.2688 157.682 68.6487 159.395C72.6572 160.963 73.6186 171.003 73.8491 175.528C73.901 176.172 73.7329 176.814 73.3724 177.349C73.0119 177.885 72.4802 178.282 71.8645 178.475C68.6487 179.349 62.116 180.012 55.5458 174.063Z" fill="white"/>
</g>
<path d="M112.596 158.953H81.189C79.9318 158.953 78.9126 159.972 78.9126 161.229V161.229C78.9126 162.487 79.9318 163.506 81.189 163.506H112.596C113.853 163.506 114.873 162.487 114.873 161.229V161.229C114.873 159.972 113.853 158.953 112.596 158.953Z" fill="#262626"/>
<path opacity="0.2" d="M114.677 162.151C114.498 162.555 114.207 162.897 113.837 163.138C113.467 163.378 113.036 163.506 112.595 163.505H81.1876C80.7466 163.506 80.3151 163.378 79.9457 163.137C79.5763 162.896 79.2851 162.553 79.1074 162.149C79.2193 161.891 79.3798 161.656 79.5801 161.458C79.7902 161.246 80.0406 161.077 80.3166 160.962C80.5926 160.848 80.8887 160.789 81.1876 160.79H112.595C113.037 160.79 113.469 160.919 113.839 161.16C114.209 161.402 114.5 161.747 114.677 162.151Z" fill="white"/>
<path d="M26.7853 227.293C30.6916 227.293 33.8582 220.217 33.8582 211.488C33.8582 202.759 30.6916 195.683 26.7853 195.683C22.8791 195.683 19.7124 202.759 19.7124 211.488C19.7124 220.217 22.8791 227.293 26.7853 227.293Z" fill="#367CFF"/>
<g opacity="0.7">
<path d="M26.7853 227.293C30.6916 227.293 33.8582 220.217 33.8582 211.488C33.8582 202.759 30.6916 195.683 26.7853 195.683C22.8791 195.683 19.7124 202.759 19.7124 211.488C19.7124 220.217 22.8791 227.293 26.7853 227.293Z" fill="white"/>
</g>
<path d="M373.453 261H0.468498C0.344244 261 0.22508 260.951 0.13722 260.863C0.0493594 260.775 0 260.656 0 260.531C0 260.407 0.0493594 260.288 0.13722 260.2C0.22508 260.112 0.344244 260.063 0.468498 260.063H373.453C373.577 260.063 373.697 260.112 373.784 260.2C373.872 260.288 373.922 260.407 373.922 260.531C373.922 260.656 373.872 260.775 373.784 260.863C373.697 260.951 373.577 261 373.453 261Z" fill="#292A2E"/>
<path d="M314.667 65.4065C314.667 65.4065 317.611 80.2434 321.685 85.2352C333.413 99.6064 338.509 116.827 329.997 127.277C321.485 137.728 259.582 145.911 252.144 125.389C245.881 108.112 254.106 105.096 254.259 90.1516C254.328 83.3893 255.083 69.1306 255.083 69.1306" fill="#0A0A0A"/>
<path d="M264.891 117.184C264.999 117.17 266.195 137.015 289.25 135.285C305.211 134.09 310.902 117.154 311.269 117.154C309.549 116.789 306.651 116.257 305.886 115.849C303.373 114.499 300.264 113.094 299.453 108.213C298.985 105.402 299.779 91.0085 299.535 88.161L275.035 93.6293C275.377 99.6401 277.774 113.576 269.376 116.042C267.976 116.453 266.471 116.828 264.891 117.184Z" fill="#E98862"/>
<path opacity="0.5" d="M274.69 110.35C275.073 109.113 275.32 107.838 275.427 106.547C275.696 103.602 275.642 100.636 275.266 97.7031C280.246 97.031 284.936 94.9758 288.806 91.7709C289.261 93.451 291.763 100.792 291.07 102.389C289.762 105.407 283.608 110.35 274.69 110.35Z" fill="#0C0C0C"/>
<path d="M278.946 105.623C288.644 105.304 300.54 99.8604 301.448 86.7701L302.268 74.9597C303.175 61.8699 297.036 50.782 284.712 49.9274C272.387 49.0729 262.439 59.0453 261.531 72.1342L261.168 77.3631C260.82 82.3854 261.641 106.193 278.946 105.623Z" fill="#E98862"/>
<path d="M264.597 78.3742C265.437 78.3742 266.118 77.693 266.118 76.8526C266.118 76.0122 265.437 75.3309 264.597 75.3309C263.756 75.3309 263.075 76.0122 263.075 76.8526C263.075 77.693 263.756 78.3742 264.597 78.3742Z" fill="#0C0C0C"/>
<path d="M280.215 78.3742C281.055 78.3742 281.737 77.693 281.737 76.8526C281.737 76.0122 281.055 75.3309 280.215 75.3309C279.375 75.3309 278.693 76.0122 278.693 76.8526C278.693 77.693 279.375 78.3742 280.215 78.3742Z" fill="#0C0C0C"/>
<path opacity="0.5" d="M273.032 88.3229C273.024 88.3233 273.016 88.3233 273.009 88.3229C272.509 88.285 272.012 88.2193 271.519 88.1261C270.784 87.9818 269.81 87.7143 269.856 87.0598C269.907 86.3139 272.508 78.4085 272.807 77.5095C272.819 77.4691 272.838 77.4315 272.865 77.3989C272.891 77.3663 272.924 77.3394 272.961 77.3198C272.998 77.3002 273.039 77.2883 273.081 77.2848C273.123 77.2813 273.165 77.2862 273.205 77.2994C273.245 77.3126 273.281 77.3336 273.313 77.3613C273.344 77.3891 273.37 77.4229 273.388 77.4607C273.406 77.4986 273.417 77.5397 273.419 77.5816C273.421 77.6236 273.414 77.6655 273.399 77.7048C272.289 81.0719 270.515 86.6011 270.48 87.1029C270.587 87.3212 271.815 87.6145 273.054 87.7007C273.134 87.7068 273.209 87.7435 273.262 87.8033C273.316 87.863 273.345 87.9412 273.342 88.0214C273.34 88.1017 273.306 88.1779 273.249 88.2342C273.192 88.2905 273.115 88.3226 273.035 88.3238L273.032 88.3229Z" fill="#0C0C0C"/>
<path opacity="0.5" d="M275.472 93.6388C273.475 93.6165 271.512 93.1251 269.74 92.2043C269.703 92.1861 269.671 92.1609 269.644 92.1301C269.617 92.0993 269.596 92.0635 269.583 92.0248C269.57 91.986 269.565 91.945 269.567 91.9042C269.57 91.8634 269.581 91.8235 269.599 91.7868C269.617 91.7502 269.642 91.7174 269.673 91.6905C269.704 91.6636 269.74 91.643 269.779 91.6299C269.817 91.6168 269.858 91.6114 269.899 91.6142C269.94 91.6169 269.98 91.6277 270.017 91.6458C273.839 93.5376 277.409 93.4945 280.342 91.5207C280.401 91.4787 280.462 91.4401 280.525 91.405C280.599 91.3677 280.685 91.3614 280.764 91.3873C280.842 91.4132 280.907 91.4693 280.945 91.5432C280.982 91.6172 280.988 91.7029 280.962 91.7815C280.937 91.8601 280.88 91.9253 280.807 91.9625C280.783 91.9756 280.745 92.0019 280.692 92.038C279.15 93.0793 277.332 93.6368 275.472 93.6388Z" fill="#0C0C0C"/>
<path d="M312.388 77.8444L301.347 77.1416C292.771 74.7992 288.619 60.9237 288.619 60.9237C288.619 60.9237 279.825 71.7891 255.083 69.1294C255.083 69.1294 255.937 34.9619 292.683 40.5187C304.532 42.3102 314.137 52.9002 314.94 68.4772C315.502 79.3937 312.388 77.8444 312.388 77.8444Z" fill="#0A0A0A"/>
<path d="M300.406 90.7056C304.151 90.9657 307.465 87.169 307.725 83.4238C307.986 79.6786 305.092 77.4022 301.347 77.1426L299.243 79.5184L297.186 90.4812L300.406 90.7056Z" fill="#E98862"/>
<path d="M269.445 71.9147C268.447 71.3874 267.328 71.1339 266.201 71.1801C265.634 71.1992 265.074 71.3038 264.538 71.4902C263.998 71.6749 263.484 71.9268 263.006 72.2398L262.991 72.2492C262.965 72.266 262.935 72.2775 262.904 72.283C262.873 72.2885 262.842 72.2878 262.811 72.2811C262.781 72.2743 262.752 72.2616 262.726 72.2437C262.7 72.2258 262.678 72.203 262.662 72.1766C262.645 72.1502 262.633 72.1207 262.628 72.0899C262.622 72.059 262.623 72.0274 262.63 71.9968C262.636 71.9663 262.649 71.9373 262.667 71.9116C262.685 71.886 262.708 71.8641 262.734 71.8472C263.237 71.492 263.783 71.2015 264.358 70.9824C264.937 70.7593 265.547 70.6244 266.166 70.5823C267.42 70.4895 268.676 70.7348 269.802 71.2925C269.844 71.3137 269.882 71.343 269.912 71.3787C269.943 71.4143 269.966 71.4557 269.981 71.5004C269.996 71.5451 270.001 71.5922 269.998 71.6391C269.994 71.686 269.982 71.7317 269.96 71.7736C269.939 71.8156 269.91 71.853 269.874 71.8836C269.839 71.9143 269.797 71.9376 269.752 71.9522C269.708 71.9669 269.661 71.9726 269.614 71.9691C269.567 71.9655 269.521 71.9528 269.479 71.9315L269.47 71.9268L269.445 71.9147Z" fill="#0C0C0C"/>
<path d="M279.459 71.9921C280.65 71.5898 281.927 71.5146 283.157 71.7743C283.765 71.8987 284.351 72.1138 284.896 72.4124C285.437 72.7064 285.938 73.0673 286.389 73.4867C286.435 73.5281 286.463 73.5859 286.468 73.6477C286.472 73.7096 286.452 73.7707 286.412 73.818C286.372 73.8653 286.315 73.8952 286.253 73.9013C286.192 73.9074 286.13 73.8893 286.081 73.8507L286.067 73.839C285.636 73.4645 285.16 73.1457 284.649 72.8898C284.144 72.6333 283.602 72.4546 283.043 72.3599C281.932 72.1635 280.789 72.2652 279.73 72.6546L279.705 72.6644C279.661 72.6813 279.614 72.6894 279.567 72.6882C279.52 72.687 279.474 72.6766 279.431 72.6575C279.388 72.6385 279.349 72.6111 279.317 72.577C279.284 72.543 279.259 72.5029 279.242 72.459C279.225 72.4151 279.217 72.3684 279.218 72.3214C279.219 72.2744 279.23 72.2281 279.249 72.1851C279.268 72.1422 279.295 72.1034 279.329 72.071C279.363 72.0386 279.404 72.0133 279.447 71.9964L279.459 71.9921Z" fill="#0C0C0C"/>
<path opacity="0.52" d="M275.398 96.596C275.037 96.5974 274.676 96.5683 274.32 96.5088C274.28 96.5022 274.241 96.4877 274.206 96.4661C274.172 96.4446 274.141 96.4164 274.118 96.3831C274.094 96.3499 274.077 96.3123 274.067 96.2724C274.058 96.2326 274.056 96.1913 274.063 96.1509C274.07 96.1105 274.084 96.0718 274.106 96.037C274.127 96.0022 274.156 95.972 274.189 95.9482C274.222 95.9243 274.26 95.9072 274.299 95.8978C274.339 95.8885 274.381 95.8871 274.421 95.8937C276.564 96.2446 277.648 95.3151 277.694 95.2753C277.724 95.248 277.76 95.227 277.799 95.2134C277.837 95.1999 277.878 95.1941 277.919 95.1964C277.96 95.1987 278 95.209 278.037 95.2268C278.074 95.2445 278.107 95.2693 278.134 95.2999C278.161 95.3304 278.182 95.366 278.196 95.4046C278.209 95.4432 278.215 95.4842 278.213 95.525C278.211 95.5659 278.2 95.6059 278.183 95.6428C278.165 95.6797 278.14 95.7127 278.109 95.74C277.332 96.3299 276.373 96.6323 275.398 96.596Z" fill="#0C0C0C"/>
<path d="M288.725 59.4059C288.725 59.4059 286.757 73.4828 301.343 76.8504" stroke="#0C0C0C" stroke-width="0.5" stroke-miterlimit="10"/>
<path opacity="0.1" d="M282.859 88.1159C284.46 88.0989 285.748 87.1334 285.735 85.9592C285.723 84.7851 284.415 83.8471 282.814 83.8641C281.214 83.8811 279.926 84.8466 279.938 86.0208C279.951 87.1949 281.259 88.1329 282.859 88.1159Z" fill="#0C0C0C"/>
<path opacity="0.1" d="M265.603 85.6606C265.612 86.8318 264.324 87.7984 262.723 87.8157C262.447 87.8186 262.171 87.7927 261.899 87.7384C261.647 86.3713 261.47 85.0478 261.351 83.8166C261.775 83.65 262.226 83.5642 262.681 83.5636C264.279 83.5458 265.591 84.4837 265.603 85.6606Z" fill="#0C0C0C"/>
<path d="M341.998 235.098L346.17 260.532H242.117L246.007 234.944L341.998 235.098Z" fill="#262626"/>
<path d="M289.779 130.354C305.751 129.601 306.423 116.044 306.423 116.044C306.423 116.044 314.337 116.555 319.598 117.267C328.211 118.432 333.893 121.353 338.415 125.875C342.621 130.081 345.182 134.632 342.472 163.687C340.509 184.726 341.998 235.099 341.998 235.099L246.008 234.945C246.008 234.945 237.05 170.347 236.245 160.876C234.707 142.797 237.984 127.514 241.737 123.761C249.454 116.044 262.739 116.044 269.374 116.045C269.48 116.045 268.028 131.379 289.779 130.354Z" fill="#367CFF"/>
<path d="M127.681 106.412C127.387 106.232 127.06 106.113 126.718 106.064C126.377 106.014 126.029 106.034 125.696 106.124C125.362 106.213 125.051 106.369 124.78 106.583C124.509 106.797 124.285 107.063 124.121 107.367C123.823 107.965 123.763 108.653 123.954 109.294C124.145 109.934 124.571 110.478 125.148 110.815L128.07 112.608L116.25 111.184C114.938 111.002 113.214 111.618 113.107 113.104C113.028 113.673 113.145 114.251 113.438 114.745C113.731 115.238 114.183 115.618 114.719 115.822C114.714 115.834 114.71 115.847 114.708 115.861C114.707 115.871 114.707 115.881 114.708 115.891L112.685 115.609C112.313 115.558 111.934 115.59 111.575 115.703C111.216 115.816 110.887 116.007 110.612 116.263C110.336 116.518 110.12 116.831 109.98 117.18C109.84 117.529 109.779 117.905 109.801 118.28C109.85 118.878 110.104 119.44 110.52 119.872C110.935 120.304 111.488 120.579 112.083 120.651L112.944 120.77C112.952 120.797 112.965 120.823 112.982 120.845C112.388 120.899 111.832 121.16 111.411 121.583C110.99 122.006 110.732 122.563 110.681 123.158C110.649 123.825 110.87 124.48 111.302 124.99C111.734 125.5 112.343 125.827 113.006 125.905L115.121 126.197C115.088 126.215 115.06 126.239 115.038 126.27C115.016 126.3 115.002 126.335 114.997 126.372C114.992 126.416 115.001 126.46 115.022 126.5C114.514 126.691 114.081 127.04 113.786 127.495C113.491 127.95 113.35 128.488 113.382 129.03C113.431 129.627 113.685 130.19 114.1 130.622C114.516 131.054 115.068 131.329 115.664 131.401L133.699 133.894C136.222 134.243 138.791 133.831 141.078 132.71C143.366 131.589 145.266 129.81 146.535 127.602L150.623 120.493L127.681 106.412Z" fill="#E98862"/>
<g opacity="0.2">
<path d="M126.412 117.289C126.403 117.349 126.37 117.404 126.322 117.441C126.273 117.478 126.212 117.495 126.151 117.487L114.912 116.118C114.881 116.115 114.85 116.106 114.823 116.091C114.795 116.076 114.77 116.056 114.75 116.032C114.731 116.007 114.716 115.979 114.707 115.949C114.698 115.919 114.696 115.887 114.7 115.856C114.704 115.825 114.714 115.794 114.729 115.767C114.745 115.74 114.766 115.716 114.791 115.697C114.816 115.678 114.845 115.664 114.876 115.657C114.906 115.649 114.938 115.648 114.969 115.653L126.208 117.022C126.27 117.03 126.326 117.062 126.364 117.111C126.402 117.159 126.42 117.222 126.412 117.283L126.412 117.289Z" fill="#0C0C0C"/>
</g>
<g opacity="0.2">
<path d="M125.944 122.263C125.935 122.323 125.903 122.378 125.855 122.415C125.806 122.452 125.745 122.469 125.684 122.462L113.142 120.933C113.081 120.925 113.025 120.894 112.986 120.845C112.948 120.796 112.931 120.734 112.939 120.672C112.948 120.611 112.98 120.556 113.029 120.519C113.077 120.481 113.138 120.462 113.199 120.468L125.742 121.997C125.773 122 125.802 122.01 125.829 122.025C125.856 122.04 125.879 122.06 125.898 122.085C125.917 122.109 125.931 122.137 125.94 122.166C125.948 122.196 125.95 122.227 125.946 122.258L125.944 122.263Z" fill="#0C0C0C"/>
</g>
<g opacity="0.2">
<path d="M125.469 127.652C125.46 127.712 125.428 127.767 125.379 127.804C125.331 127.842 125.27 127.858 125.209 127.851L115.204 126.633C115.142 126.625 115.086 126.594 115.047 126.545C115.009 126.496 114.992 126.434 114.999 126.372C115.007 126.31 115.039 126.254 115.088 126.216C115.137 126.177 115.199 126.16 115.26 126.168L125.266 127.386C125.296 127.389 125.326 127.399 125.352 127.414C125.379 127.429 125.403 127.45 125.422 127.474C125.441 127.498 125.455 127.526 125.463 127.555C125.471 127.585 125.474 127.616 125.47 127.647L125.469 127.652Z" fill="#0C0C0C"/>
</g>
<path d="M98.2662 143.818C114.689 143.818 128.002 130.505 128.002 114.082C128.002 97.6599 114.689 84.3468 98.2662 84.3468C81.8437 84.3468 68.5306 97.6599 68.5306 114.082C68.5306 130.505 81.8437 143.818 98.2662 143.818Z" fill="#0CBC8B"/>
<g opacity="0.1">
<path d="M98.2662 137.656C111.285 137.656 121.839 127.102 121.839 114.083C121.839 101.064 111.285 90.5102 98.2662 90.5102C85.2472 90.5102 74.6932 101.064 74.6932 114.083C74.6932 127.102 85.2472 137.656 98.2662 137.656Z" fill="#292A2E"/>
</g>
<path d="M96.6906 125.394L96.5665 121.339C98.7595 121.449 100.401 121.145 101.736 120.225C103.336 119.122 103.583 117.973 102.697 116.689C100.696 113.784 93.2804 118.972 89.7667 113.878C87.5095 110.602 88.3406 106.953 91.918 104.488C92.9242 103.772 94.0739 103.285 95.2875 103.059C96.5011 102.833 97.7493 102.874 98.9455 103.179L98.5079 106.989C96.8387 106.763 95.6299 106.871 94.4507 107.683C93.0921 108.62 92.7332 109.675 93.6074 110.943C95.4627 113.635 102.753 108.265 106.472 113.66C108.707 116.902 108.177 120.726 104.045 123.574C101.872 125.001 99.2778 125.643 96.6906 125.394ZM88.4451 102.801L91.1994 100.903L94.0015 104.969L91.2472 106.867L88.4451 102.801ZM102.007 122.478L104.76 120.58L107.835 125.042L105.081 126.939L102.007 122.478Z" fill="white"/>
<path d="M129.12 113.306L125.148 110.815C124.572 110.478 124.145 109.934 123.954 109.294C123.764 108.653 123.823 107.965 124.121 107.367C124.285 107.063 124.51 106.797 124.78 106.583C125.051 106.369 125.363 106.213 125.696 106.124C126.029 106.034 126.377 106.014 126.718 106.064C127.06 106.113 127.387 106.232 127.681 106.412" fill="#E98862"/>
<path d="M280.529 176.607L268.174 166.368C267.908 166.148 267.601 165.984 267.27 165.887C266.939 165.79 266.592 165.761 266.249 165.802C265.907 165.843 265.576 165.954 265.278 166.127C264.98 166.301 264.72 166.533 264.514 166.81C264.135 167.36 263.978 168.034 264.077 168.695C264.175 169.356 264.521 169.955 265.044 170.37L267.684 172.558L280.11 178.994L280.529 176.607Z" fill="#E98862"/>
<path d="M267.684 172.557L256.184 169.478C254.911 169.113 253.116 169.478 252.802 170.934C252.644 171.485 252.678 172.074 252.898 172.604C253.117 173.134 253.511 173.574 254.013 173.852C254.006 173.863 254.001 173.875 253.997 173.887C253.997 173.897 253.997 173.907 253.997 173.917L252.034 173.354C251.673 173.251 251.293 173.229 250.921 173.29C250.55 173.351 250.197 173.494 249.888 173.708C249.579 173.922 249.321 174.202 249.133 174.528C248.945 174.854 248.832 175.217 248.802 175.592C248.765 176.191 248.937 176.783 249.287 177.27C249.638 177.757 250.146 178.107 250.725 178.262L251.561 178.502C251.565 178.529 251.574 178.555 251.587 178.579C250.991 178.549 250.404 178.73 249.927 179.09C249.451 179.449 249.117 179.966 248.984 180.547C248.858 181.203 248.985 181.882 249.34 182.447C249.695 183.012 250.252 183.422 250.897 183.592L252.95 184.181C252.915 184.193 252.883 184.213 252.857 184.24C252.832 184.267 252.813 184.3 252.802 184.336C252.792 184.379 252.794 184.424 252.809 184.466C252.28 184.584 251.803 184.868 251.447 185.277C251.091 185.686 250.875 186.197 250.831 186.737C250.795 187.336 250.966 187.929 251.317 188.416C251.667 188.902 252.175 189.253 252.755 189.408L270.256 194.424C272.705 195.125 275.307 195.08 277.729 194.293C280.152 193.506 282.284 192.014 283.853 190.007L288.904 183.546L267.684 172.557Z" fill="#E98862"/>
<g opacity="0.2">
<path d="M265.381 176.958C265.363 177.017 265.324 177.067 265.27 177.097C265.217 177.126 265.154 177.134 265.095 177.118L254.16 174.175C254.129 174.168 254.101 174.154 254.075 174.136C254.05 174.117 254.028 174.094 254.012 174.067C253.996 174.04 253.986 174.01 253.981 173.979C253.977 173.948 253.979 173.916 253.987 173.886C253.995 173.855 254.009 173.827 254.029 173.802C254.048 173.777 254.072 173.757 254.1 173.742C254.127 173.726 254.158 173.717 254.189 173.714C254.22 173.71 254.252 173.713 254.282 173.723L265.215 176.666C265.244 176.674 265.272 176.688 265.297 176.706C265.321 176.725 265.342 176.748 265.357 176.775C265.372 176.802 265.382 176.831 265.386 176.862C265.39 176.892 265.388 176.923 265.38 176.953L265.381 176.958Z" fill="#0C0C0C"/>
</g>
<g opacity="0.2">
<path d="M264.215 181.816C264.198 181.874 264.159 181.924 264.105 181.953C264.052 181.983 263.989 181.991 263.93 181.975L251.729 178.691C251.699 178.683 251.671 178.669 251.647 178.65C251.622 178.631 251.602 178.608 251.586 178.581C251.571 178.555 251.561 178.525 251.557 178.495C251.553 178.464 251.555 178.433 251.563 178.403C251.581 178.345 251.621 178.295 251.674 178.264C251.728 178.234 251.791 178.224 251.851 178.238L264.052 181.523C264.082 181.531 264.109 181.544 264.134 181.563C264.158 181.582 264.179 181.605 264.194 181.632C264.209 181.659 264.219 181.688 264.223 181.719C264.227 181.749 264.225 181.78 264.217 181.81L264.215 181.816Z" fill="#0C0C0C"/>
</g>
<g opacity="0.2">
<path d="M262.984 187.084C262.967 187.143 262.927 187.193 262.874 187.223C262.82 187.253 262.757 187.261 262.698 187.245L252.966 184.624C252.936 184.616 252.908 184.603 252.884 184.584C252.859 184.565 252.839 184.542 252.823 184.515C252.792 184.461 252.784 184.397 252.8 184.337C252.816 184.277 252.856 184.226 252.91 184.195C252.964 184.164 253.027 184.156 253.087 184.172L262.82 186.792C262.85 186.8 262.878 186.814 262.902 186.833C262.926 186.851 262.947 186.875 262.962 186.901C262.978 186.928 262.988 186.957 262.992 186.988C262.995 187.019 262.993 187.05 262.985 187.079L262.984 187.084Z" fill="#0C0C0C"/>
</g>
<path d="M271.592 198.966L351.079 221.911C354.281 222.761 357.658 222.688 360.82 221.701C363.982 220.715 366.801 218.854 368.951 216.334C371.101 213.814 372.495 210.738 372.972 207.46C373.449 204.182 372.99 200.835 371.647 197.807L344.547 133.248C340.611 124.379 325.916 115.277 317.046 119.212C308.176 123.148 308.492 138.627 312.427 147.496L328.722 181.446L279.164 169.988L271.592 198.966Z" fill="#367CFF"/>
<path d="M341.649 219.422C341.627 219.422 341.605 219.419 341.584 219.414L271.527 199.191C271.468 199.174 271.418 199.135 271.388 199.082C271.358 199.028 271.349 198.966 271.365 198.906L278.937 169.928C278.953 169.869 278.991 169.818 279.043 169.786C279.096 169.755 279.159 169.745 279.218 169.759L328.304 181.107L312.22 147.597C312.197 147.542 312.196 147.479 312.217 147.423C312.238 147.367 312.28 147.321 312.335 147.295C312.389 147.269 312.451 147.265 312.508 147.283C312.565 147.302 312.613 147.341 312.642 147.394L328.937 181.344C328.956 181.384 328.963 181.428 328.958 181.472C328.953 181.516 328.936 181.557 328.908 181.592C328.881 181.626 328.844 181.651 328.803 181.666C328.761 181.68 328.717 181.683 328.674 181.674L279.333 170.267L271.876 198.804L341.714 218.963C341.768 218.979 341.815 219.014 341.845 219.061C341.876 219.109 341.888 219.165 341.88 219.221C341.873 219.277 341.845 219.328 341.802 219.365C341.76 219.402 341.705 219.422 341.649 219.422Z" fill="#0C0C0C"/>
<path d="M336.908 183.46C336.891 183.46 336.874 183.459 336.858 183.455L328.676 181.675C328.645 181.669 328.617 181.656 328.591 181.639C328.565 181.621 328.544 181.599 328.527 181.573C328.51 181.547 328.498 181.518 328.493 181.488C328.487 181.457 328.488 181.426 328.494 181.396C328.501 181.365 328.514 181.337 328.531 181.311C328.549 181.286 328.572 181.264 328.598 181.248C328.624 181.231 328.653 181.22 328.684 181.215C328.714 181.209 328.745 181.21 328.775 181.217L336.958 182.997C337.014 183.01 337.064 183.043 337.097 183.09C337.131 183.136 337.146 183.194 337.14 183.251C337.134 183.308 337.107 183.361 337.064 183.4C337.021 183.439 336.966 183.46 336.908 183.46Z" fill="#0C0C0C"/>
<path d="M235.353 150.268L234.309 136.757" stroke="#0C0C0C" stroke-linecap="round" stroke-linejoin="round"/>
<path d="M194.961 205.878C192.595 205.881 190.253 205.405 188.077 204.479C185.9 203.554 183.933 202.197 182.295 200.49L123.264 139.121L148.587 114.762L195.969 164.022L242.385 123.194L265.591 149.575L206.561 201.502C203.357 204.326 199.232 205.883 194.961 205.878Z" fill="#367CFF"/>
<path d="M236.074 158.483L235.609 158.541L237.555 173.979L238.019 173.921L236.074 158.483Z" fill="#0C0C0C"/>
</svg>
