<svg width="12" height="13" viewBox="0 0 12 13" fill="none" xmlns="http://www.w3.org/2000/svg">
<path fill-rule="evenodd" clip-rule="evenodd" d="M4 7.34111C4.35362 7.34111 4.69276 7.48158 4.94281 7.73163C5.19286 7.98168 5.33333 8.32082 5.33333 8.67444V11.3411C5.33333 11.6947 5.19286 12.0339 4.94281 12.2839C4.69276 12.534 4.35362 12.6744 4 12.6744H1.33333C0.979711 12.6744 0.640573 12.534 0.390524 12.2839C0.140476 12.0339 0 11.6947 0 11.3411V8.67444C0 8.32082 0.140476 7.98168 0.390524 7.73163C0.640573 7.48158 0.979711 7.34111 1.33333 7.34111H4ZM10.6667 7.34111C11.0203 7.34111 11.3594 7.48158 11.6095 7.73163C11.8595 7.98168 12 8.32082 12 8.67444V11.3411C12 11.6947 11.8595 12.0339 11.6095 12.2839C11.3594 12.534 11.0203 12.6744 10.6667 12.6744H8C7.64638 12.6744 7.30724 12.534 7.05719 12.2839C6.80714 12.0339 6.66667 11.6947 6.66667 11.3411V8.67444C6.66667 8.32082 6.80714 7.98168 7.05719 7.73163C7.30724 7.48158 7.64638 7.34111 8 7.34111H10.6667ZM4 0.674438C4.35362 0.674438 4.69276 0.814914 4.94281 1.06496C5.19286 1.31501 5.33333 1.65415 5.33333 2.00777V4.67444C5.33333 5.02806 5.19286 5.3672 4.94281 5.61725C4.69276 5.8673 4.35362 6.00777 4 6.00777H1.33333C0.979711 6.00777 0.640573 5.8673 0.390524 5.61725C0.140476 5.3672 0 5.02806 0 4.67444V2.00777C0 1.65415 0.140476 1.31501 0.390524 1.06496C0.640573 0.814914 0.979711 0.674438 1.33333 0.674438H4ZM10.6667 0.674438C11.0203 0.674438 11.3594 0.814914 11.6095 1.06496C11.8595 1.31501 12 1.65415 12 2.00777V4.67444C12 5.02806 11.8595 5.3672 11.6095 5.61725C11.3594 5.8673 11.0203 6.00777 10.6667 6.00777H8C7.64638 6.00777 7.30724 5.8673 7.05719 5.61725C6.80714 5.3672 6.66667 5.02806 6.66667 4.67444V2.00777C6.66667 1.65415 6.80714 1.31501 7.05719 1.06496C7.30724 0.814914 7.64638 0.674438 8 0.674438H10.6667Z" fill="#5484E1"/>
</svg>
