<svg width="494" height="351" viewBox="0 0 494 351" fill="none" xmlns="http://www.w3.org/2000/svg">
<path d="M69.8776 313.683C163.053 362.356 314.109 362.356 407.274 313.683C500.439 265.01 500.45 186.09 407.274 137.417C314.098 88.7444 163.042 88.7444 69.8776 137.417C-23.287 186.09 -23.2981 265.01 69.8776 313.683Z" fill="#FAFAFA"/>
<path d="M293.515 247.785C271.597 260.428 271.597 280.945 293.515 293.6C315.432 306.254 350.95 306.254 372.868 293.6C394.786 280.945 394.775 260.428 372.868 247.785C350.961 235.141 315.421 235.13 293.515 247.785Z" fill="#EBEBEB"/>
<path d="M62.749 66.4152L121.463 48.1559L76.2934 79.448L62.749 66.4152Z" fill="#5484E1"/>
<path d="M121.463 48.1558L58.223 58.5865L44.6787 45.5426L121.463 48.1558Z" fill="#5484E1"/>
<path d="M58.2236 58.5866V74.2326L62.7495 66.4152L121.464 48.1559L58.2236 58.5866Z" fill="#455A64"/>
<path d="M58.2236 74.2326L67.2643 70.7631L62.7495 66.4152L58.2236 74.2326Z" fill="#5484E1"/>
<path d="M62.749 66.4152L67.2638 70.7631L65.8182 71.308L62.749 66.4152Z" fill="#455A64"/>
<path d="M48.4931 71.8752C48.3062 71.8787 48.1235 71.8193 47.9743 71.7064C47.8252 71.5936 47.7183 71.4339 47.6709 71.253C47.6234 71.0722 47.6381 70.8806 47.7126 70.7091C47.7871 70.5376 47.9171 70.396 48.0817 70.3073C49.0825 69.7513 50.0945 69.1953 51.0953 68.7616C51.1945 68.7079 51.3036 68.6749 51.416 68.6646C51.5283 68.6543 51.6416 68.6669 51.749 68.7017C51.8563 68.7364 51.9555 68.7926 52.0405 68.8668C52.1255 68.941 52.1946 69.0317 52.2435 69.1333C52.2925 69.235 52.3203 69.3455 52.3253 69.4583C52.3303 69.571 52.3123 69.6835 52.2726 69.7891C52.2328 69.8947 52.172 69.9912 52.0939 70.0726C52.0158 70.154 51.9219 70.2187 51.8181 70.2628C50.8506 70.7299 49.8609 71.2303 48.8935 71.7752C48.7697 71.8394 48.6326 71.8737 48.4931 71.8752Z" fill="#E0E0E0"/>
<path d="M38.2293 161.681C38.0589 161.683 37.892 161.633 37.7512 161.537C35.9426 160.262 34.2293 158.857 32.6248 157.333C32.5231 157.267 32.437 157.18 32.3725 157.077C32.3081 156.975 32.2668 156.859 32.2515 156.739C32.2362 156.619 32.2473 156.497 32.2841 156.381C32.3208 156.266 32.3823 156.159 32.4643 156.07C32.5462 155.981 32.6467 155.91 32.7586 155.864C32.8706 155.817 32.9913 155.796 33.1124 155.801C33.2336 155.805 33.3522 155.837 33.46 155.892C33.5678 155.947 33.6623 156.026 33.7368 156.121C35.2844 157.59 36.9384 158.943 38.6853 160.169C38.8292 160.272 38.9367 160.418 38.9921 160.586C39.0475 160.754 39.048 160.936 38.9936 161.104C38.9391 161.273 38.8324 161.419 38.689 161.523C38.5457 161.627 38.373 161.682 38.196 161.681H38.2293ZM29.5111 153.586C29.388 153.587 29.2662 153.561 29.1545 153.509C29.0429 153.457 28.9444 153.381 28.8662 153.286C27.4649 151.576 26.1902 149.766 25.052 147.87C24.9369 147.68 24.9022 147.452 24.9554 147.236C25.0085 147.02 25.1453 146.834 25.3355 146.719C25.5257 146.604 25.7539 146.569 25.9697 146.623C26.1856 146.676 26.3714 146.813 26.4865 147.003C27.5829 148.831 28.8092 150.577 30.1561 152.229C30.295 152.399 30.3612 152.617 30.3404 152.836C30.3196 153.055 30.2134 153.256 30.0449 153.397C29.8959 153.523 29.7061 153.59 29.5111 153.586ZM23.2505 143.467C23.0889 143.468 22.9304 143.423 22.7942 143.336C22.658 143.249 22.55 143.124 22.4832 142.977C21.5745 140.964 20.7945 138.895 20.148 136.783C20.1005 136.578 20.1327 136.362 20.2379 136.179C20.3432 135.997 20.5138 135.861 20.7153 135.799C20.9169 135.737 21.1344 135.753 21.3242 135.845C21.514 135.937 21.6619 136.098 21.7382 136.294C22.3529 138.337 23.0957 140.339 23.9622 142.288C24.0088 142.388 24.0351 142.496 24.0396 142.606C24.0441 142.716 24.0268 142.826 23.9885 142.93C23.9502 143.033 23.8918 143.128 23.8167 143.209C23.7416 143.289 23.6512 143.354 23.5507 143.4C23.4561 143.442 23.354 143.465 23.2505 143.467ZM19.6364 132.113C19.4436 132.111 19.2573 132.043 19.1092 131.919C18.9612 131.795 18.8607 131.624 18.8247 131.435C18.4002 129.274 18.0994 127.091 17.9239 124.896C17.9062 124.675 17.9771 124.456 18.121 124.287C18.2649 124.118 18.47 124.013 18.6912 123.995C18.9124 123.978 19.1316 124.048 19.3005 124.192C19.4694 124.336 19.5743 124.541 19.592 124.763C19.7555 126.894 20.0452 129.015 20.4593 131.112C20.4819 131.22 20.4828 131.33 20.4619 131.438C20.441 131.546 20.3987 131.649 20.3375 131.74C20.2764 131.831 20.1976 131.909 20.1059 131.969C20.0141 132.029 19.9112 132.071 19.8032 132.091L19.6364 132.113ZM18.58 120.237C18.4701 120.237 18.3612 120.215 18.2599 120.172C18.1586 120.129 18.0669 120.067 17.9901 119.988C17.9134 119.909 17.8533 119.816 17.8133 119.713C17.7733 119.611 17.7542 119.501 17.7571 119.392C17.7831 117.191 17.9316 114.993 18.2019 112.808C18.2032 112.691 18.2292 112.575 18.2782 112.469C18.3272 112.362 18.3981 112.267 18.4863 112.19C18.5745 112.113 18.678 112.055 18.7901 112.02C18.9021 111.986 19.0202 111.975 19.1366 111.99C19.253 112.004 19.3651 112.042 19.4656 112.103C19.5661 112.163 19.6527 112.244 19.7198 112.34C19.7869 112.436 19.833 112.546 19.8551 112.661C19.8771 112.776 19.8746 112.894 19.8477 113.009C19.5906 115.134 19.4496 117.273 19.4252 119.414C19.4237 119.523 19.4007 119.631 19.3574 119.732C19.3142 119.833 19.2515 119.924 19.173 120C19.0946 120.077 19.0018 120.137 18.9 120.177C18.7983 120.218 18.6896 120.238 18.58 120.237ZM19.9367 108.394C19.8741 108.404 19.8102 108.404 19.7476 108.394C19.5328 108.346 19.3455 108.215 19.2268 108.029C19.108 107.844 19.0674 107.619 19.1138 107.404C19.6011 105.25 20.225 103.129 20.982 101.054C21.0188 100.946 21.0776 100.847 21.1545 100.762C21.2314 100.677 21.325 100.609 21.4293 100.563C21.5336 100.516 21.6464 100.491 21.7607 100.489C21.8751 100.488 21.9885 100.51 22.094 100.554C22.2013 100.592 22.2998 100.652 22.3835 100.729C22.4672 100.806 22.5345 100.899 22.5812 101.003C22.6279 101.107 22.6532 101.219 22.6555 101.333C22.6577 101.447 22.637 101.56 22.5944 101.666C21.8648 103.672 21.2631 105.722 20.7929 107.804C20.738 107.985 20.6234 108.142 20.4679 108.249C20.3123 108.356 20.1251 108.407 19.9367 108.394ZM23.8955 97.1623C23.7672 97.1674 23.6402 97.1366 23.5285 97.0734C23.429 97.027 23.3398 96.9611 23.2661 96.8797C23.1924 96.7983 23.1358 96.703 23.0995 96.5994C23.0632 96.4958 23.0481 96.3859 23.0549 96.2764C23.0617 96.1668 23.0904 96.0597 23.1393 95.9614C24.1099 93.9796 25.2017 92.0596 26.4086 90.2122C26.5301 90.04 26.7124 89.9201 26.9187 89.8768C27.125 89.8335 27.3401 89.8699 27.5206 89.9787C27.6969 90.0968 27.8207 90.2784 27.8663 90.4856C27.9119 90.6928 27.8757 90.9096 27.7653 91.0907C26.5922 92.8751 25.5337 94.7322 24.596 96.6508C24.5385 96.7929 24.4424 96.916 24.3186 97.0064C24.1948 97.0967 24.0483 97.1508 23.8955 97.1623ZM30.2895 87.1542C30.1035 87.1561 29.9227 87.0932 29.778 86.9763C29.6913 86.908 29.619 86.8233 29.5653 86.7269C29.5116 86.6305 29.4776 86.5244 29.4652 86.4148C29.4528 86.3051 29.4622 86.1941 29.493 86.0882C29.5238 85.9822 29.5753 85.8835 29.6446 85.7976C31.0342 84.0808 32.5192 82.4436 34.0926 80.8936C34.249 80.7374 34.461 80.6496 34.682 80.6496C34.903 80.6496 35.115 80.7374 35.2714 80.8936C35.4275 81.0499 35.5153 81.2619 35.5153 81.4829C35.5153 81.7039 35.4275 81.9159 35.2714 82.0723C33.7559 83.5842 32.323 85.1767 30.979 86.8428C30.8929 86.938 30.7856 87.0117 30.6659 87.0581C30.5462 87.1044 30.4173 87.1221 30.2895 87.1097V87.1542ZM38.6519 78.6139C38.5306 78.6137 38.411 78.5866 38.3014 78.5347C38.1918 78.4828 38.0951 78.4073 38.018 78.3137C37.8772 78.1432 37.8088 77.9243 37.8275 77.7039C37.8462 77.4835 37.9505 77.2793 38.1181 77.1349C39.811 75.7272 41.5739 74.4059 43.4002 73.1762C43.5795 73.0662 43.7936 73.0281 43.9998 73.0693C44.206 73.1105 44.389 73.2281 44.5122 73.3986C44.6363 73.5833 44.6826 73.8095 44.641 74.0281C44.5993 74.2467 44.4731 74.4401 44.2898 74.5662C42.5081 75.7626 40.7895 77.0505 39.1412 78.4249C39.0015 78.5369 38.8306 78.6029 38.6519 78.6139Z" fill="#E0E0E0"/>
<path d="M45.8798 166.029C45.7604 166.03 45.6425 166.004 45.5351 165.952C44.5009 165.485 43.4778 164.984 42.4993 164.45C42.4036 164.4 42.3188 164.331 42.2497 164.248C42.1805 164.165 42.1285 164.069 42.0965 163.966C42.0645 163.863 42.0531 163.754 42.0631 163.646C42.073 163.539 42.1041 163.434 42.1545 163.338C42.2584 163.147 42.4327 163.004 42.6405 162.94C42.8482 162.875 43.0729 162.895 43.2666 162.994C44.2229 163.505 45.2126 163.994 46.2134 164.45C46.385 164.53 46.5244 164.666 46.6086 164.836C46.6928 165.005 46.7168 165.198 46.6767 165.383C46.6366 165.568 46.5348 165.734 46.3879 165.854C46.2411 165.973 46.058 166.039 45.8687 166.041L45.8798 166.029Z" fill="#E0E0E0"/>
<path d="M426.245 125.674L473.283 95.561L494 102.211L426.245 125.674Z" fill="#5484E1"/>
<path d="M426.245 125.674L466.9 91.7802L457.86 81.3495L426.245 125.674Z" fill="#5484E1"/>
<path d="M466.9 91.7802V99.6421L426.245 125.674L466.9 91.7802Z" fill="#455A64"/>
<path d="M476.074 88.4997C475.872 88.5004 475.678 88.425 475.529 88.2884C475.365 88.141 475.265 87.9352 475.25 87.7149C475.236 87.4946 475.308 87.2774 475.451 87.1097C476.9 85.4944 478.185 83.74 479.288 81.8721C479.4 81.6804 479.584 81.5411 479.798 81.4848C480.013 81.4285 480.242 81.4598 480.433 81.5719C480.625 81.6839 480.764 81.8676 480.821 82.0824C480.877 82.2972 480.846 82.5255 480.733 82.7172C479.569 84.6753 478.221 86.5184 476.708 88.2217C476.628 88.3107 476.531 88.3816 476.421 88.4296C476.312 88.4775 476.194 88.5014 476.074 88.4997ZM482.435 78.1357C482.335 78.1515 482.234 78.1515 482.135 78.1357C482.029 78.0955 481.933 78.0343 481.852 77.9559C481.771 77.8775 481.707 77.7835 481.663 77.6796C481.62 77.5756 481.598 77.464 481.598 77.3512C481.599 77.2385 481.623 77.1271 481.668 77.0237C482.453 74.9982 483.042 72.9016 483.425 70.7631C483.464 70.5448 483.589 70.3513 483.772 70.2252C483.954 70.099 484.179 70.0505 484.398 70.0903C484.616 70.1301 484.809 70.255 484.935 70.4375C485.062 70.6199 485.11 70.8451 485.07 71.0633C484.661 73.3042 484.039 75.501 483.213 77.6242C483.15 77.7781 483.042 77.9094 482.903 78.0007C482.764 78.092 482.601 78.1391 482.435 78.1357ZM484.815 66.2038C484.706 66.2024 484.598 66.1793 484.498 66.1359C484.398 66.0925 484.307 66.0297 484.232 65.951C484.156 65.8724 484.097 65.7795 484.058 65.6778C484.019 65.5762 484 65.4677 484.003 65.3587C484.003 65.0696 484.003 64.7804 484.003 64.4913C483.998 62.6034 483.849 60.7187 483.558 58.8534C483.526 58.6339 483.581 58.4107 483.712 58.2318C483.844 58.0529 484.04 57.9327 484.259 57.8971C484.478 57.8679 484.699 57.9245 484.878 58.0551C485.056 58.1856 485.177 58.38 485.215 58.5976C485.515 60.5479 485.668 62.5181 485.671 64.4913C485.671 64.7916 485.671 65.0918 485.671 65.392C485.662 65.6123 485.568 65.8204 485.408 65.9721C485.248 66.1237 485.035 66.2069 484.815 66.2038ZM483.135 54.1496C482.956 54.149 482.782 54.09 482.64 53.9817C482.498 53.8733 482.394 53.7214 482.346 53.5491C481.708 51.4626 480.909 49.4289 479.955 47.4664C479.906 47.3681 479.878 47.2609 479.871 47.1514C479.864 47.0418 479.879 46.9319 479.915 46.8283C479.952 46.7247 480.008 46.6294 480.082 46.548C480.156 46.4666 480.245 46.4007 480.344 46.3544C480.543 46.2588 480.772 46.246 480.981 46.319C481.189 46.392 481.36 46.5447 481.456 46.7436C482.451 48.7829 483.28 50.8988 483.936 53.0709C483.968 53.1753 483.98 53.2851 483.969 53.3939C483.959 53.5027 483.927 53.6083 483.875 53.7046C483.823 53.8009 483.753 53.8859 483.668 53.9547C483.583 54.0234 483.485 54.0746 483.38 54.1051C483.302 54.1359 483.219 54.151 483.135 54.1496ZM477.976 43.1073C477.835 43.1086 477.697 43.0734 477.574 43.0051C477.451 42.9369 477.348 42.838 477.275 42.7181C476.083 40.888 474.772 39.1384 473.35 37.4805C473.278 37.3973 473.223 37.3009 473.189 37.1965C473.154 37.0922 473.141 36.9822 473.149 36.8726C473.158 36.7631 473.187 36.6563 473.237 36.5583C473.287 36.4604 473.355 36.3732 473.439 36.3017C473.521 36.2303 473.616 36.1758 473.72 36.1416C473.823 36.1074 473.932 36.094 474.041 36.1023C474.15 36.1105 474.256 36.1403 474.353 36.1898C474.45 36.2393 474.536 36.3076 474.606 36.3907C476.082 38.1068 477.442 39.9197 478.676 41.8173C478.779 42.0005 478.811 42.2149 478.766 42.4199C478.72 42.6249 478.602 42.8062 478.432 42.9294C478.299 43.0272 478.14 43.0851 477.976 43.0961V43.1073ZM470.192 33.7552C469.979 33.7545 469.776 33.6707 469.624 33.5217C468.023 32.023 466.341 30.6124 464.587 29.2961C464.499 29.2303 464.426 29.148 464.37 29.0538C464.314 28.9595 464.277 28.8552 464.262 28.7468C464.246 28.6384 464.252 28.5279 464.28 28.4219C464.307 28.3158 464.354 28.2161 464.42 28.1284C464.486 28.0408 464.568 27.967 464.662 27.9112C464.757 27.8554 464.861 27.8187 464.969 27.8032C465.078 27.7877 465.188 27.7937 465.294 27.8209C465.4 27.8481 465.5 27.8959 465.588 27.9616C467.395 29.3126 469.125 30.7642 470.77 32.3096C470.893 32.4242 470.98 32.5736 471.017 32.7381C471.054 32.9026 471.04 33.0745 470.977 33.231C470.915 33.3876 470.806 33.5215 470.666 33.6151C470.525 33.7086 470.36 33.7575 470.192 33.7552ZM460.439 26.3492C460.281 26.3477 460.127 26.3015 459.994 26.2158C459.238 25.7487 458.449 25.2817 457.648 24.8257C456.536 24.203 455.424 23.5803 454.245 22.9909C454.138 22.9478 454.04 22.8827 453.959 22.7998C453.878 22.7168 453.815 22.618 453.775 22.5094C453.734 22.4008 453.716 22.285 453.723 22.1692C453.73 22.0535 453.76 21.9404 453.813 21.8372C453.866 21.7339 453.94 21.6428 454.03 21.5697C454.119 21.4966 454.224 21.443 454.336 21.4124C454.447 21.3818 454.564 21.3748 454.679 21.392C454.794 21.4091 454.903 21.45 455.001 21.5119C456.169 22.1124 457.337 22.7352 458.471 23.3801C459.294 23.8361 460.094 24.3142 460.873 24.8035C461.053 24.9182 461.181 25.0974 461.233 25.3042C461.285 25.511 461.255 25.7298 461.151 25.9155C461.079 26.0424 460.976 26.1489 460.851 26.2248C460.727 26.3007 460.585 26.3435 460.439 26.3492ZM360.747 25.7821C360.6 25.7805 360.456 25.7407 360.33 25.6666C360.203 25.5925 360.098 25.4867 360.024 25.3595C359.919 25.1717 359.891 24.9501 359.947 24.7422C360.004 24.5343 360.139 24.3567 360.325 24.2475C362.259 23.1355 364.25 22.0235 366.263 21.0894C366.46 20.993 366.688 20.9787 366.897 21.0495C367.105 21.1203 367.277 21.2705 367.375 21.4675C367.467 21.667 367.478 21.8948 367.406 22.1025C367.333 22.3101 367.182 22.4812 366.985 22.5795C365.006 23.5469 363.049 24.5811 361.147 25.682C361.023 25.7426 360.885 25.7694 360.747 25.7598V25.7821ZM449.597 20.7002C449.481 20.7009 449.367 20.6742 449.263 20.6223C447.262 19.7438 445.193 18.921 443.125 18.187C442.916 18.1118 442.745 17.9565 442.65 17.7553C442.555 17.554 442.544 17.3233 442.619 17.1139C442.694 16.9045 442.85 16.7336 443.051 16.6387C443.252 16.5438 443.483 16.5328 443.692 16.608C445.794 17.3641 447.896 18.1981 449.942 19.0989C450.12 19.1747 450.267 19.3104 450.356 19.4825C450.445 19.6546 450.472 19.8524 450.431 20.0419C450.39 20.2314 450.284 20.4008 450.132 20.5209C449.98 20.6411 449.791 20.7044 449.597 20.7002ZM371.7 20.3555C371.536 20.3566 371.375 20.3084 371.238 20.2173C371.102 20.1261 370.995 19.9961 370.933 19.8439C370.888 19.7419 370.863 19.6318 370.861 19.5202C370.858 19.4085 370.879 19.2975 370.92 19.1938C370.962 19.09 371.024 18.9957 371.102 18.9164C371.181 18.837 371.275 18.7743 371.378 18.7319C373.435 17.8645 375.548 17.0639 377.661 16.3411C377.767 16.2971 377.881 16.2755 377.996 16.2777C378.111 16.2799 378.224 16.3059 378.329 16.3539C378.433 16.4019 378.526 16.471 378.603 16.5568C378.679 16.6427 378.737 16.7434 378.773 16.8526C378.813 16.9598 378.832 17.074 378.827 17.1885C378.823 17.303 378.795 17.4154 378.747 17.5191C378.698 17.6228 378.629 17.7157 378.544 17.7922C378.458 17.8687 378.359 17.9274 378.25 17.9646C376.171 18.6763 374.08 19.4658 372.067 20.311C371.948 20.3442 371.823 20.3518 371.7 20.3332V20.3555ZM438.121 16.5079C438.044 16.5187 437.965 16.5187 437.888 16.5079C435.786 15.8963 433.629 15.3959 431.482 14.8732C431.375 14.8499 431.273 14.8056 431.183 14.7429C431.093 14.6803 431.016 14.6004 430.957 14.508C430.897 14.4156 430.857 14.3124 430.837 14.2043C430.818 14.0962 430.82 13.9853 430.843 13.878C430.866 13.7706 430.911 13.669 430.973 13.5787C431.036 13.4885 431.116 13.4115 431.208 13.3521C431.301 13.2928 431.404 13.2522 431.512 13.2327C431.62 13.2132 431.731 13.2152 431.838 13.2386C434.062 13.7167 436.22 14.2839 438.355 14.9066C438.547 14.9628 438.713 15.0866 438.822 15.2554C438.931 15.4241 438.975 15.6264 438.947 15.8252C438.918 16.0239 438.819 16.2058 438.667 16.3373C438.516 16.4688 438.322 16.5412 438.121 16.5412V16.5079ZM383.243 16.3411C383.061 16.3404 382.885 16.2803 382.74 16.1698C382.595 16.0594 382.491 15.9048 382.442 15.7295C382.412 15.6251 382.402 15.5156 382.414 15.4075C382.427 15.2994 382.46 15.1948 382.513 15.0996C382.565 15.0045 382.636 14.9208 382.722 14.8533C382.807 14.7858 382.905 14.7359 383.01 14.7064C385.156 14.1059 387.358 13.5944 389.548 13.1051C389.659 13.0697 389.776 13.0579 389.892 13.0706C390.008 13.0832 390.12 13.12 390.221 13.1785C390.322 13.237 390.409 13.316 390.477 13.4104C390.546 13.5048 390.593 13.6124 390.618 13.7264C390.642 13.8404 390.642 13.9582 390.618 14.0722C390.594 14.1862 390.546 14.2939 390.478 14.3883C390.409 14.4827 390.322 14.5618 390.221 14.6204C390.121 14.6791 390.009 14.7159 389.893 14.7287C387.736 15.1846 385.578 15.7184 383.466 16.3077L383.243 16.3411ZM426.2 13.8279H426.033C423.865 13.4832 421.652 13.2052 419.473 13.005C419.358 13.0038 419.244 12.9788 419.14 12.9317C419.035 12.8846 418.941 12.8163 418.864 12.7312C418.787 12.6461 418.728 12.546 418.691 12.4371C418.655 12.3283 418.641 12.213 418.651 12.0986C418.661 11.9841 418.694 11.873 418.749 11.7721C418.804 11.6713 418.879 11.5828 418.97 11.5124C419.061 11.4419 419.165 11.391 419.276 11.3627C419.388 11.3344 419.504 11.3295 419.617 11.3481C421.841 11.5483 424.065 11.8263 426.289 12.1821C426.506 12.2203 426.699 12.3416 426.828 12.5202C426.957 12.6989 427.011 12.9207 426.979 13.1385C426.94 13.3184 426.842 13.4804 426.701 13.5991C426.56 13.7178 426.384 13.7865 426.2 13.7946V13.8279ZM395.186 13.7501C394.988 13.75 394.797 13.6795 394.646 13.5511C394.495 13.4228 394.395 13.245 394.363 13.0495C394.331 12.8301 394.387 12.6068 394.518 12.4279C394.649 12.249 394.845 12.1288 395.064 12.0932C397.288 11.7596 399.512 11.4816 401.736 11.2925C401.845 11.283 401.956 11.2952 402.061 11.3284C402.165 11.3615 402.263 11.415 402.347 11.4857C402.431 11.5564 402.5 11.6431 402.551 11.7406C402.602 11.8382 402.633 11.9447 402.642 12.0543C402.652 12.1638 402.64 12.2741 402.606 12.3789C402.573 12.4837 402.52 12.581 402.449 12.6652C402.378 12.7493 402.292 12.8187 402.194 12.8694C402.097 12.9201 401.99 12.9511 401.881 12.9606C399.656 13.1496 397.488 13.4054 395.32 13.7501H395.186ZM414.035 12.6381C411.811 12.5602 409.587 12.5491 407.418 12.6381C407.309 12.6441 407.2 12.6279 407.097 12.5905C406.994 12.5531 406.899 12.4953 406.819 12.4205C406.739 12.3457 406.675 12.2554 406.631 12.1552C406.587 12.055 406.563 11.9469 406.562 11.8374C406.558 11.7275 406.575 11.6178 406.614 11.5148C406.653 11.4119 406.711 11.3177 406.787 11.2378C406.863 11.158 406.954 11.0942 407.054 11.0501C407.155 11.006 407.264 10.9826 407.374 10.9812C409.598 10.9033 411.822 10.9144 414.046 10.9812C414.155 10.9841 414.263 11.0085 414.363 11.0531C414.464 11.0977 414.554 11.1616 414.629 11.2411C414.705 11.3206 414.764 11.4142 414.803 11.5165C414.842 11.6188 414.861 11.7279 414.858 11.8374C414.841 12.046 414.748 12.2411 414.596 12.3849C414.444 12.5287 414.244 12.611 414.035 12.6158V12.6381Z" fill="#E0E0E0"/>
<path d="M409.843 141.932V140.153H409.409C408.749 138.948 407.747 137.965 406.529 137.328C404.044 136.067 401.297 135.41 398.511 135.41C395.725 135.41 392.978 136.067 390.494 137.328C389.276 137.965 388.274 138.948 387.613 140.153H387.18V141.876C387.18 143.578 388.292 145.29 390.516 146.591C393.002 147.846 395.748 148.5 398.533 148.5C401.318 148.5 404.065 147.846 406.551 146.591C408.753 145.335 409.854 143.622 409.843 141.932Z" fill="#37474F"/>
<path d="M398.511 146.703C404.769 146.703 409.843 143.77 409.843 140.153C409.843 136.535 404.769 133.603 398.511 133.603C392.253 133.603 387.18 136.535 387.18 140.153C387.18 143.77 392.253 146.703 398.511 146.703Z" fill="#455A64"/>
<path d="M395.598 85.6196V139.386C395.621 139.641 395.712 139.885 395.86 140.094C396.009 140.303 396.21 140.469 396.443 140.575C397.082 140.899 397.789 141.067 398.506 141.067C399.222 141.067 399.929 140.899 400.568 140.575C400.804 140.471 401.008 140.306 401.158 140.097C401.309 139.888 401.401 139.642 401.425 139.386V85.6196H395.598Z" fill="#37474F"/>
<path d="M411.578 45.3757C408.742 43.7411 406.162 43.6076 404.227 44.6863L368.209 65.5032L386.279 101.744L422.42 80.8379V64.9806C422.42 57.6079 417.56 48.8341 411.578 45.3757Z" fill="#455A64"/>
<path d="M386.279 85.8753V101.744L364.605 89.2225V73.3652C364.605 65.9925 369.454 62.8233 375.436 66.2816C379.273 68.5057 382.642 72.887 384.566 77.6909C385.642 80.2884 386.223 83.0643 386.279 85.8753Z" fill="#37474F"/>
<path d="M386.279 85.8753V101.744L364.605 89.2225L384.566 77.6909C385.642 80.2884 386.223 83.0643 386.279 85.8753Z" fill="#263238"/>
<path d="M382.665 91.3131C380.674 85.5528 374.202 78.0801 368.209 74.6328C362.215 71.1856 358.99 73.0427 360.981 78.8029L364.595 89.2336L386.279 101.755C386.279 101.755 384.667 97.0733 382.665 91.3131Z" fill="#455A64"/>
<path d="M397.577 86.4759L396.365 85.7753C396.105 85.6557 395.817 85.6071 395.532 85.6345C395.247 85.6618 394.974 85.7641 394.741 85.931C394.072 86.3693 393.514 86.959 393.114 87.6525C392.714 88.346 392.483 89.1238 392.44 89.9231C392.409 90.2094 392.456 90.4987 392.576 90.7607C392.695 91.0227 392.882 91.248 393.118 91.4132L394.23 92.0582L394.441 91.7135C394.672 91.6636 394.894 91.5773 395.097 91.4577C395.767 91.0218 396.324 90.4342 396.724 89.7425C397.124 89.0508 397.355 88.2745 397.399 87.4767C397.398 87.2778 397.372 87.0797 397.321 86.8873L397.577 86.4759Z" fill="#263238"/>
<path d="M395.898 86.6093C395.228 87.0452 394.671 87.6329 394.271 88.3246C393.871 89.0163 393.639 89.7925 393.596 90.5903C393.596 92.0582 394.63 92.6476 395.898 91.9136C396.568 91.4784 397.126 90.8909 397.526 90.1991C397.926 89.5072 398.157 88.7306 398.199 87.9326C398.233 86.4648 397.121 85.8754 395.898 86.6093Z" fill="#37474F"/>
<path d="M395.898 89.8897C395.81 89.8897 395.723 89.8724 395.642 89.8389C395.561 89.8053 395.488 89.7562 395.426 89.6942C395.364 89.6323 395.315 89.5587 395.281 89.4778C395.248 89.3968 395.23 89.3101 395.23 89.2224V66.2816C395.23 66.1046 395.301 65.9349 395.426 65.8098C395.551 65.6847 395.721 65.6144 395.898 65.6144C396.075 65.6144 396.244 65.6847 396.369 65.8098C396.495 65.9349 396.565 66.1046 396.565 66.2816V89.2224C396.565 89.3994 396.495 89.5691 396.369 89.6942C396.244 89.8194 396.075 89.8897 395.898 89.8897Z" fill="#263238"/>
<path d="M396.498 66.8821V72.8647L402.914 66.2816L396.498 66.8821Z" fill="#37474F"/>
<path d="M59.1576 265.332C58.6016 265.632 48.3933 268.524 44.6124 263.531C40.8316 258.538 47.1145 250.754 43.5671 247.885C40.0198 245.016 30.0784 247.885 27.6876 241.858C25.2967 235.83 32.3803 233.228 28.3993 227.146C25.8861 223.309 18.8582 221.196 19.1807 217.627C19.6477 212.411 29.2555 210.955 37.6401 216.593C46.0247 222.23 49.939 217.604 52.5967 217.226C55.2544 216.848 60.9924 217.682 60.8145 227.023C60.6366 236.364 59.1576 265.332 59.1576 265.332Z" fill="#5484E1"/>
<path d="M59.8362 252.088C59.7035 252.088 59.5752 252.041 59.4736 251.955C59.372 251.87 59.3036 251.752 59.2801 251.621C56.3555 233.829 35.7499 219.45 25.0301 216.359C24.9592 216.34 24.8929 216.307 24.8351 216.261C24.7774 216.216 24.7294 216.159 24.6941 216.095C24.6588 216.031 24.6368 215.96 24.6296 215.887C24.6224 215.813 24.63 215.74 24.652 215.67C24.6933 215.528 24.7891 215.409 24.9184 215.338C25.0477 215.267 25.1999 215.25 25.3415 215.292C36.2948 218.461 57.3786 233.239 60.381 251.443C60.4036 251.588 60.3684 251.735 60.283 251.854C60.1977 251.972 60.0691 252.052 59.9251 252.077L59.8362 252.088Z" fill="white"/>
<path d="M35.5273 237.198C35.405 237.199 35.2857 237.16 35.1879 237.087C35.0901 237.013 35.0193 236.91 34.9864 236.792C34.9534 236.674 34.9602 236.549 35.0058 236.435C35.0513 236.322 35.133 236.227 35.2381 236.164C35.5717 235.964 43.5115 231.327 51.3179 233.495C51.4653 233.534 51.5915 233.629 51.6687 233.76C51.7459 233.892 51.7677 234.048 51.7293 234.196C51.691 234.343 51.5956 234.47 51.4643 234.547C51.3329 234.624 51.1762 234.646 51.0288 234.607C43.6672 232.561 35.8831 237.109 35.8053 237.154C35.7188 237.195 35.6223 237.21 35.5273 237.198Z" fill="white"/>
<path d="M349.861 171.378C354.242 171.979 361.704 169.443 362.237 162.148C362.771 154.854 365.785 152.874 371.311 151.684C376.838 150.495 378.462 148.571 379.095 145.101C379.729 141.632 375.526 137.484 376.705 132.257C377.883 127.031 381.82 127.042 385.69 121.137C388.169 117.334 383.088 111.53 374.625 114.02C366.163 116.511 366.841 121.971 358.379 122.672C349.916 123.372 344.612 128.51 344.445 134.904C344.278 141.298 349.861 171.378 349.861 171.378Z" fill="#5484E1"/>
<path opacity="0.2" d="M349.861 171.378C354.242 171.979 361.704 169.443 362.237 162.148C362.771 154.854 365.785 152.874 371.311 151.684C376.838 150.495 378.462 148.571 379.095 145.101C379.729 141.632 375.526 137.484 376.705 132.257C377.883 127.031 381.82 127.042 385.69 121.137C388.169 117.334 383.088 111.53 374.625 114.02C366.163 116.511 366.841 121.971 358.379 122.672C349.916 123.372 344.612 128.51 344.445 134.904C344.278 141.298 349.861 171.378 349.861 171.378Z" fill="black"/>
<path d="M348.259 157.389H348.192C348.12 157.374 348.052 157.346 347.992 157.305C347.931 157.264 347.88 157.212 347.839 157.151C347.799 157.09 347.771 157.022 347.757 156.95C347.743 156.878 347.744 156.804 347.758 156.733C351.851 136.505 374.169 117.99 379.606 116.1C379.754 116.051 379.915 116.063 380.053 116.133C380.192 116.203 380.297 116.325 380.346 116.472C380.395 116.62 380.383 116.781 380.313 116.919C380.243 117.058 380.121 117.163 379.973 117.212C374.658 119.058 352.851 137.228 348.837 157.011C348.796 157.129 348.717 157.23 348.612 157.298C348.508 157.367 348.383 157.398 348.259 157.389Z" fill="white"/>
<path d="M54.4873 150.217C54.5416 149.214 54.8318 148.238 55.3341 147.369C55.8365 146.499 56.537 145.76 57.3785 145.212L205.176 59.8764C206.072 59.4266 207.06 59.1923 208.062 59.1923C209.064 59.1923 210.052 59.4266 210.948 59.8764L214.206 61.7669C215.049 62.3128 215.751 63.051 216.254 63.9209C216.757 64.7908 217.046 65.7676 217.097 66.7709V180.063C217.04 181.065 216.749 182.04 216.247 182.909C215.745 183.778 215.046 184.517 214.206 185.067L66.4081 270.392C65.5123 270.847 64.5217 271.084 63.5169 271.084C62.5121 271.084 61.5214 270.847 60.6256 270.392L57.3785 268.513C56.5382 267.963 55.8387 267.224 55.3365 266.355C54.8342 265.486 54.5434 264.511 54.4873 263.509V150.217Z" fill="#5484E1"/>
<path opacity="0.3" d="M54.4873 150.217C54.5416 149.214 54.8318 148.238 55.3341 147.369C55.8365 146.499 56.537 145.76 57.3785 145.212L205.176 59.8764C206.072 59.4266 207.06 59.1923 208.062 59.1923C209.064 59.1923 210.052 59.4266 210.948 59.8764L214.206 61.7669C215.049 62.3128 215.751 63.051 216.254 63.9209C216.757 64.7908 217.046 65.7676 217.097 66.7709V180.063C217.04 181.065 216.749 182.04 216.247 182.909C215.745 183.778 215.046 184.517 214.206 185.067L66.4081 270.392C65.5123 270.847 64.5217 271.084 63.5169 271.084C62.5121 271.084 61.5214 270.847 60.6256 270.392L57.3785 268.513C56.5382 267.963 55.8387 267.224 55.3365 266.355C54.8342 265.486 54.5434 264.511 54.4873 263.509V150.217Z" fill="black"/>
<path d="M68.0316 154.709L55.3324 147.37C54.8133 148.232 54.5224 149.211 54.4873 150.217V263.509C54.5434 264.511 54.8342 265.486 55.3365 266.355C55.8387 267.225 56.5382 267.964 57.3785 268.513L60.6256 270.392C61.5214 270.847 62.5121 271.084 63.5169 271.084C64.5217 271.084 65.5123 270.847 66.4081 270.392L68.0316 269.458V154.709Z" fill="#5484E1"/>
<path opacity="0.5" d="M68.0316 154.709L55.3324 147.37C54.8133 148.232 54.5224 149.211 54.4873 150.217V263.509C54.5434 264.511 54.8342 265.486 55.3365 266.355C55.8387 267.225 56.5382 267.964 57.3785 268.513L60.6256 270.392C61.5214 270.847 62.5121 271.084 63.5169 271.084C64.5217 271.084 65.5123 270.847 66.4081 270.392L68.0316 269.458V154.709Z" fill="black"/>
<path d="M217.098 66.7709V180.063C217.06 181.1 216.749 182.109 216.197 182.988C215.77 183.728 215.194 184.371 214.507 184.878L214.395 184.945L214.206 185.067L66.4086 270.392C66.1257 270.592 65.797 270.717 65.453 270.756C65.1089 270.794 64.7606 270.746 64.4403 270.614C64.1324 270.42 63.8836 270.146 63.7209 269.82C63.5582 269.495 63.4878 269.131 63.5173 268.768V155.432C63.4922 155.026 63.5658 154.621 63.7318 154.25C63.8978 153.879 64.1513 153.554 64.4706 153.302C64.7899 153.051 65.1653 152.88 65.5648 152.806C65.9643 152.731 66.376 152.755 66.7644 152.874L128.915 167.653L137.055 169.588C138.016 169.768 139.007 169.682 139.923 169.339C140.838 168.996 141.642 168.409 142.248 167.642L151.678 154.509L215.152 66.1371C216.219 64.647 217.098 64.925 217.098 66.7709Z" fill="#5484E1"/>
<path opacity="0.2" d="M217.098 66.7709V180.063C217.06 181.1 216.749 182.109 216.197 182.988C215.77 183.728 215.194 184.371 214.507 184.878L214.395 184.945L214.206 185.067L66.4086 270.392C66.1257 270.592 65.797 270.717 65.453 270.756C65.1089 270.794 64.7606 270.746 64.4403 270.614C64.1324 270.42 63.8836 270.146 63.7209 269.82C63.5582 269.495 63.4878 269.131 63.5173 268.768V155.432C63.4922 155.026 63.5658 154.621 63.7318 154.25C63.8978 153.879 64.1513 153.554 64.4706 153.302C64.7899 153.051 65.1653 152.88 65.5648 152.806C65.9643 152.731 66.376 152.755 66.7644 152.874L128.915 167.653L137.055 169.588C138.016 169.768 139.007 169.682 139.923 169.339C140.838 168.996 141.642 168.409 142.248 167.642L151.678 154.509L215.152 66.1371C216.219 64.647 217.098 64.925 217.098 66.7709Z" fill="black"/>
<path d="M214.206 185.067L214.395 184.945L214.507 184.878C215.194 184.371 215.77 183.728 216.197 182.988C216.743 182.123 217.054 181.13 217.098 180.107L151.678 154.531L195.491 195.898L214.206 185.067Z" fill="#5484E1"/>
<path opacity="0.6" d="M214.206 185.067L214.395 184.945L214.507 184.878C215.194 184.371 215.77 183.728 216.197 182.988C216.743 182.123 217.054 181.13 217.098 180.107L151.678 154.531L195.491 195.898L214.206 185.067Z" fill="black"/>
<path d="M63.5169 268.769C63.4745 269.138 63.5363 269.512 63.6955 269.848C63.8547 270.184 64.1049 270.469 64.4177 270.67C64.738 270.802 65.0863 270.85 65.4303 270.811C65.7744 270.772 66.1031 270.647 66.3859 270.448L117.294 240.968L128.915 167.575L63.5169 266.845V268.769Z" fill="#5484E1"/>
<path opacity="0.6" d="M63.5169 268.769C63.4745 269.138 63.5363 269.512 63.6955 269.848C63.8547 270.184 64.1049 270.469 64.4177 270.67C64.738 270.802 65.0863 270.85 65.4303 270.811C65.7744 270.772 66.1031 270.647 66.3859 270.448L117.294 240.968L128.915 167.575L63.5169 266.845V268.769Z" fill="black"/>
<path d="M216.196 182.988C215.769 183.728 215.194 184.371 214.506 184.878L214.395 184.945L66.4077 270.392C66.1249 270.592 65.7962 270.717 65.4521 270.756C65.108 270.794 64.7597 270.746 64.4395 270.614L135.219 157.623C136.642 155.359 138.832 153.684 141.389 152.904C143.946 152.124 146.698 152.291 149.142 153.375L216.196 182.988Z" fill="#5484E1"/>
<path opacity="0.2" d="M216.196 182.988C215.769 183.728 215.194 184.371 214.506 184.878L214.395 184.945L66.4077 270.392C66.1249 270.592 65.7962 270.717 65.4521 270.756C65.108 270.794 64.7597 270.746 64.4395 270.614L135.219 157.623C136.642 155.359 138.832 153.684 141.389 152.904C143.946 152.124 146.698 152.291 149.142 153.375L216.196 182.988Z" fill="black"/>
<path d="M63.5166 152.096L131.494 182.12C133.942 183.201 136.697 183.363 139.254 182.576C141.811 181.79 143.999 180.108 145.416 177.839L216.797 63.6017L63.5166 152.096Z" fill="#5484E1"/>
<path opacity="0.6" d="M63.5166 152.096L131.494 182.12C133.942 183.201 136.697 183.363 139.254 182.576C141.811 181.79 143.999 180.108 145.416 177.839L216.797 63.6017L63.5166 152.096Z" fill="black"/>
<path d="M63.5166 152.096L131.972 177.672C134.338 178.555 136.934 178.607 139.333 177.819C141.732 177.031 143.791 175.449 145.172 173.335L216.797 63.6017L63.5166 152.096Z" fill="#5484E1"/>
<path opacity="0.2" d="M63.5166 152.096L131.972 177.672C134.338 178.555 136.934 178.607 139.333 177.819C141.732 177.031 143.791 175.449 145.172 173.335L216.797 63.6017L63.5166 152.096Z" fill="black"/>
<path d="M79.7305 164.172C79.7821 163.169 80.0712 162.192 80.5738 161.322C81.0764 160.452 81.7783 159.714 82.6217 159.168L230.42 73.8323C231.315 73.3771 232.306 73.1399 233.311 73.1399C234.316 73.1399 235.306 73.3771 236.202 73.8323L239.46 75.7116C240.3 76.2607 240.998 76.9999 241.498 77.8693C241.999 78.7388 242.287 79.7139 242.34 80.7156V194.008C242.286 195.009 241.996 195.983 241.496 196.853C240.996 197.722 240.299 198.461 239.46 199.012L91.6513 284.337C90.7559 284.786 89.7677 285.021 88.7656 285.021C87.7635 285.021 86.7753 284.786 85.8799 284.337L82.6217 282.457C81.782 281.907 81.0829 281.168 80.5808 280.299C80.0786 279.43 79.7874 278.455 79.7305 277.453V164.172Z" fill="#455A64"/>
<path d="M79.7305 164.172C79.7821 163.169 80.0712 162.192 80.5738 161.322C81.0764 160.452 81.7783 159.714 82.6217 159.168L230.42 73.8323C231.315 73.3771 232.306 73.1399 233.311 73.1399C234.316 73.1399 235.306 73.3771 236.202 73.8323L239.46 75.7116C240.3 76.2607 240.998 76.9999 241.498 77.8693C241.999 78.7388 242.287 79.7139 242.34 80.7156V194.008C242.286 195.009 241.996 195.983 241.496 196.853C240.996 197.722 240.299 198.461 239.46 199.012L91.6513 284.337C90.7559 284.786 89.7677 285.021 88.7656 285.021C87.7635 285.021 86.7753 284.786 85.8799 284.337L82.6217 282.457C81.782 281.907 81.0829 281.168 80.5808 280.299C80.0786 279.43 79.7874 278.455 79.7305 277.453V164.172Z" fill="#455A64"/>
<path d="M93.2859 168.687L80.5756 161.359C80.0551 162.22 79.7641 163.2 79.7305 164.206V277.464C79.7874 278.467 80.0786 279.441 80.5808 280.31C81.0829 281.18 81.782 281.919 82.6217 282.469L85.8799 284.348C86.7753 284.798 87.7635 285.032 88.7656 285.032C89.7677 285.032 90.7559 284.798 91.6513 284.348L93.2859 283.403V168.687Z" fill="#263238"/>
<path d="M242.351 80.7156V194.008C242.314 195.045 242.003 196.054 241.451 196.932C241.024 197.672 240.448 198.316 239.76 198.823L239.649 198.889L239.46 199.012L91.6623 284.337C91.3794 284.536 91.0508 284.661 90.7067 284.7C90.3626 284.739 90.0143 284.691 89.694 284.559C89.3813 284.358 89.1311 284.073 88.9719 283.737C88.8127 283.401 88.7508 283.027 88.7933 282.657V169.377C88.7682 168.971 88.8418 168.565 89.0078 168.194C89.1738 167.823 89.4273 167.498 89.7466 167.247C90.0658 166.995 90.4413 166.825 90.8408 166.75C91.2403 166.676 91.6519 166.699 92.0404 166.819L154.191 181.598L162.331 183.532C163.292 183.712 164.283 183.626 165.199 183.283C166.114 182.94 166.918 182.354 167.524 181.586L176.943 168.454L240.417 80.0818C241.44 78.6139 242.351 78.8697 242.351 80.7156Z" fill="#37474F"/>
<path d="M239.46 199.012L239.649 198.889L239.76 198.823C240.448 198.316 241.024 197.672 241.451 196.932C241.991 196.069 242.297 195.08 242.34 194.063L176.932 168.487L220.734 209.832L239.46 199.012Z" fill="#263238"/>
<path d="M88.7703 282.669C88.7278 283.038 88.7897 283.412 88.9489 283.748C89.1081 284.084 89.3582 284.369 89.671 284.57C89.9913 284.702 90.3396 284.75 90.6837 284.711C91.0277 284.673 91.3564 284.547 91.6393 284.348L142.525 254.968L154.146 181.575L88.748 280.767L88.7703 282.669Z" fill="#263238"/>
<path d="M241.439 196.932C241.012 197.672 240.436 198.316 239.749 198.823L239.637 198.889L91.6616 284.337C91.3788 284.536 91.0501 284.661 90.706 284.7C90.362 284.739 90.0136 284.691 89.6934 284.559L160.462 171.578C161.881 169.311 164.07 167.632 166.627 166.847C169.184 166.063 171.938 166.227 174.384 167.308L241.439 196.932Z" fill="#37474F"/>
<path d="M88.7705 166.052L156.748 196.076C159.194 197.154 161.947 197.314 164.501 196.528C167.056 195.741 169.242 194.061 170.659 191.795L242.039 77.502L88.7705 166.052Z" fill="#263238"/>
<path d="M88.7705 166.052L157.215 191.628C159.582 192.514 162.18 192.567 164.582 191.779C166.983 190.991 169.044 189.408 170.426 187.291L242.039 77.502L88.7705 166.052Z" fill="#37474F"/>
<path d="M188.141 254.101V140.809C188.244 138.659 188.915 136.576 190.087 134.771L260.577 36.6131C261.864 34.8198 263.654 33.4498 265.722 32.6775C267.789 31.9052 270.04 31.7655 272.187 32.2762L338.474 48.0335C340.61 48.602 342.671 49.4233 344.612 50.4799L347.87 52.3592C348.708 52.9103 349.405 53.65 349.905 54.519C350.405 55.388 350.695 56.3622 350.751 57.3633V170.655C350.693 171.656 350.403 172.63 349.903 173.498C349.403 174.367 348.707 175.107 347.87 175.659L200.061 260.984C199.167 261.437 198.178 261.672 197.176 261.672C196.173 261.672 195.185 261.437 194.29 260.984L191.032 259.105C190.192 258.556 189.492 257.817 188.99 256.948C188.488 256.078 188.197 255.103 188.141 254.101Z" fill="#5484E1"/>
<path opacity="0.3" d="M188.141 254.101V140.809C188.244 138.659 188.915 136.576 190.087 134.771L260.577 36.6131C261.864 34.8198 263.654 33.4498 265.722 32.6775C267.789 31.9052 270.04 31.7655 272.187 32.2762L338.474 48.0335C340.61 48.602 342.671 49.4233 344.612 50.4799L347.87 52.3592C348.708 52.9103 349.405 53.65 349.905 54.519C350.405 55.388 350.695 56.3622 350.751 57.3633V170.655C350.693 171.656 350.403 172.63 349.903 173.498C349.403 174.367 348.707 175.107 347.87 175.659L200.061 260.984C199.167 261.437 198.178 261.672 197.176 261.672C196.173 261.672 195.185 261.437 194.29 260.984L191.032 259.105C190.192 258.556 189.492 257.817 188.99 256.948C188.488 256.078 188.197 255.103 188.141 254.101Z" fill="white"/>
<path d="M201.685 86.0532V230.615C201.685 232.45 202.986 233.206 204.576 232.283L343.344 152.218C344.186 151.671 344.887 150.932 345.39 150.063C345.892 149.193 346.182 148.217 346.235 147.214V2.65214C346.235 0.806193 344.945 0.0611433 343.344 0.984115L204.576 81.0492C203.734 81.597 203.034 82.3357 202.531 83.2052C202.029 84.0747 201.739 85.0505 201.685 86.0532Z" fill="#FAFAFA"/>
<path d="M203.286 233.251C202.927 233.253 202.574 233.161 202.263 232.984C201.882 232.73 201.578 232.378 201.382 231.965C201.186 231.551 201.106 231.093 201.151 230.637V86.0756C201.203 84.9737 201.519 83.9004 202.07 82.9449C202.621 81.9894 203.392 81.1794 204.32 80.5822L343.088 0.517135C343.45 0.222093 343.894 0.0442532 344.36 0.00723819C344.825 -0.0297768 345.291 0.0757847 345.695 0.309905C346.1 0.544025 346.423 0.895616 346.623 1.31797C346.823 1.74031 346.889 2.21343 346.813 2.67445V147.236C346.762 148.337 346.447 149.409 345.895 150.363C345.344 151.317 344.572 152.124 343.644 152.719L204.876 232.784C204.397 233.078 203.848 233.239 203.286 233.251ZM344.634 1.08426C344.275 1.10481 343.927 1.21574 343.622 1.40675L204.854 81.5274C204.098 82.0288 203.469 82.6983 203.016 83.4836C202.562 84.2688 202.297 85.1484 202.24 86.0533V230.615C202.174 230.876 202.194 231.151 202.299 231.399C202.403 231.648 202.585 231.855 202.818 231.989C203.051 232.124 203.322 232.179 203.589 232.146C203.856 232.113 204.105 231.993 204.298 231.805L343.066 151.74C343.822 151.239 344.452 150.57 344.905 149.785C345.359 148.999 345.624 148.119 345.679 147.214V2.65221C345.711 2.39142 345.675 2.12693 345.576 1.88372C345.477 1.64051 345.317 1.42661 345.112 1.26219C344.972 1.16068 344.806 1.09918 344.634 1.08426Z" fill="#E0E0E0"/>
<path d="M198.693 143.567L188.685 137.784C188.361 138.761 188.181 139.78 188.151 140.809V254.101C188.207 255.103 188.498 256.078 189.001 256.948C189.503 257.817 190.202 258.556 191.043 259.105L194.29 260.984C195.184 261.439 196.172 261.677 197.175 261.677C198.178 261.677 199.167 261.439 200.061 260.984L201.451 260.195L198.693 143.567Z" fill="#5484E1"/>
<g opacity="0.1">
<path d="M198.693 143.567L188.685 137.784C188.361 138.761 188.181 139.78 188.151 140.809V254.101C188.207 255.103 188.498 256.078 189.001 256.948C189.503 257.817 190.202 258.556 191.043 259.105L194.29 260.984C195.184 261.439 196.172 261.677 197.175 261.677C198.178 261.677 199.167 261.439 200.061 260.984L201.451 260.195L198.693 143.567Z" fill="black"/>
</g>
<path d="M350.762 57.3633V170.655C350.724 171.693 350.413 172.701 349.861 173.58C349.434 174.32 348.858 174.964 348.171 175.47L348.059 175.537L347.87 175.659L200.072 260.984C199.79 261.184 199.461 261.309 199.117 261.348C198.773 261.387 198.424 261.338 198.104 261.207C197.791 261.006 197.541 260.721 197.382 260.385C197.223 260.049 197.161 259.675 197.203 259.305V146.024C197.178 145.619 197.252 145.213 197.418 144.842C197.584 144.471 197.837 144.146 198.157 143.894C198.476 143.643 198.851 143.473 199.251 143.398C199.65 143.324 200.062 143.347 200.451 143.467L262.568 158.245L270.708 160.18C271.67 160.362 272.664 160.277 273.582 159.934C274.499 159.591 275.305 159.003 275.912 158.234L285.342 145.101L348.816 56.7295C349.883 55.2616 350.762 55.5174 350.762 57.3633Z" fill="#5484E1"/>
<path opacity="0.3" d="M350.762 57.3633V170.655C350.724 171.693 350.413 172.701 349.861 173.58C349.434 174.32 348.858 174.964 348.171 175.47L348.059 175.537L347.87 175.659L200.072 260.984C199.79 261.184 199.461 261.309 199.117 261.348C198.773 261.387 198.424 261.338 198.104 261.207C197.791 261.006 197.541 260.721 197.382 260.385C197.223 260.049 197.161 259.675 197.203 259.305V146.024C197.178 145.619 197.252 145.213 197.418 144.842C197.584 144.471 197.837 144.146 198.157 143.894C198.476 143.643 198.851 143.473 199.251 143.398C199.65 143.324 200.062 143.347 200.451 143.467L262.568 158.245L270.708 160.18C271.67 160.362 272.664 160.277 273.582 159.934C274.499 159.591 275.305 159.003 275.912 158.234L285.342 145.101L348.816 56.7295C349.883 55.2616 350.762 55.5174 350.762 57.3633Z" fill="white"/>
<path d="M347.87 175.659L348.059 175.537L348.171 175.47C348.858 174.963 349.434 174.32 349.861 173.58C350.401 172.713 350.708 171.72 350.75 170.7L285.342 145.123L329.144 186.479L347.87 175.659Z" fill="#5484E1"/>
<path d="M197.181 259.316C197.139 259.686 197.201 260.06 197.36 260.396C197.519 260.732 197.769 261.017 198.082 261.218C198.402 261.349 198.751 261.398 199.095 261.359C199.439 261.32 199.768 261.195 200.05 260.995L250.936 231.616L262.557 158.223L197.159 257.415L197.181 259.316Z" fill="#5484E1"/>
<path d="M349.86 173.58C349.433 174.32 348.858 174.964 348.17 175.47L348.059 175.537L200.072 260.984C199.789 261.184 199.46 261.309 199.116 261.348C198.772 261.387 198.424 261.338 198.104 261.207L268.872 148.226C270.291 145.962 272.478 144.284 275.032 143.5C277.587 142.715 280.338 142.877 282.783 143.956L349.86 173.58Z" fill="#5484E1"/>
<path opacity="0.3" d="M349.86 173.58C349.433 174.32 348.858 174.964 348.17 175.47L348.059 175.537L200.072 260.984C199.789 261.184 199.46 261.309 199.116 261.348C198.772 261.387 198.424 261.338 198.104 261.207L268.872 148.226C270.291 145.962 272.478 144.284 275.032 143.5C277.587 142.715 280.338 142.877 282.783 143.956L349.86 173.58Z" fill="white"/>
<path d="M262.79 119.347C261.493 119.548 260.166 119.43 258.924 119.004C257.683 118.578 256.563 117.856 255.662 116.901C253.972 115.021 253.127 112.119 253.127 108.216C253.13 103.812 254.074 99.4592 255.896 95.4498C257.766 91.324 260.348 87.5598 263.524 84.3296C266.939 80.7887 270.832 77.742 275.089 75.2778C279.263 72.8759 282.825 71.5452 285.776 71.2857C288.745 71.0188 290.98 71.7861 292.515 73.5653C294.049 75.3446 294.805 78.069 294.805 81.7164C294.87 85.3338 294.013 88.908 292.314 92.1026C290.818 94.9957 288.536 97.4084 285.731 99.0638C284.763 99.7518 283.576 100.06 282.395 99.9312C281.975 99.8481 281.588 99.6454 281.28 99.3475C280.972 99.0497 280.757 98.6693 280.66 98.2521C279.735 100.003 278.558 101.611 277.169 103.023C275.763 104.473 274.161 105.719 272.409 106.726C269.385 108.438 266.972 108.95 265.192 108.36C263.413 107.771 262.568 105.969 262.568 102.967C262.593 99.1939 263.756 95.5161 265.904 92.414C268.242 88.9749 271.349 86.1271 274.978 84.0961C276.493 83.1935 278.141 82.5332 279.86 82.139C281.138 81.7926 282.485 81.7926 283.763 82.139V93.8485C283.763 94.7937 283.93 95.372 284.252 95.5944C284.575 95.8168 285.109 95.7055 285.865 95.2719C287.273 94.3555 288.316 92.9744 288.812 91.3687C289.563 89.1997 289.921 86.9137 289.868 84.6188C289.868 81.6979 289.23 79.5739 287.955 78.2469C287.274 77.5807 286.443 77.0877 285.531 76.8091C284.62 76.5304 283.655 76.4744 282.718 76.6456C280.003 77.0604 277.402 78.0294 275.078 79.4924C270.162 82.2196 265.923 86.0206 262.679 90.6125C259.681 94.9218 258.088 100.053 258.12 105.302C258.12 108.497 258.776 110.829 260.088 112.297C260.768 113.032 261.62 113.587 262.567 113.913C263.514 114.239 264.526 114.325 265.515 114.165C268.282 113.773 270.935 112.799 273.299 111.307C274.93 110.364 276.475 109.277 277.914 108.06C279.254 106.954 280.472 105.709 281.55 104.346C281.662 104.202 281.793 104.075 281.939 103.968C282.039 103.912 282.139 103.968 282.228 104.101L283.452 106.325C283.496 106.413 283.53 106.507 283.552 106.603C283.513 106.851 283.391 107.078 283.207 107.248C281.863 108.864 280.374 110.353 278.759 111.696C277.058 113.123 275.239 114.403 273.321 115.522C270.127 117.539 266.535 118.844 262.79 119.347ZM277.247 98.4411C278.305 97.1918 278.923 95.6285 279.004 93.993V87.2098C277.416 87.3438 275.888 87.8712 274.555 88.7443C272.434 89.9376 270.627 91.6185 269.285 93.6483C268.025 95.5104 267.347 97.7052 267.339 99.9534C267.339 101.833 267.806 102.956 268.751 103.289C269.696 103.623 271.153 103.289 273.143 102.1C274.755 101.167 276.165 99.9237 277.291 98.4411H277.247Z" fill="#E0E0E0"/>
<path d="M121.163 130.489L110.321 124.207H110.244C106.541 122.116 101.436 122.427 95.7873 125.686C84.4337 132.235 75.2373 148.171 75.2373 161.27C75.2373 167.82 77.5281 172.39 81.2311 174.614L91.317 180.386L93.1407 177.35C95.2091 176.886 97.1959 176.114 99.0344 175.059C110.377 168.498 119.584 152.563 119.584 139.475C119.578 137.706 119.362 135.944 118.939 134.226L121.163 130.489Z" fill="#F28F8F"/>
<path d="M121.163 130.489L110.321 124.207H110.244C106.541 122.116 101.436 122.427 95.7873 125.686C84.4337 132.235 75.2373 148.171 75.2373 161.27C75.2373 167.82 77.5281 172.39 81.2311 174.614L91.317 180.386L93.1407 177.35C95.2091 176.886 97.1959 176.114 99.0344 175.059C110.377 168.498 119.584 152.563 119.584 139.475C119.578 137.706 119.362 135.944 118.939 134.226L121.163 130.489Z" fill="#5484E1"/>
<path opacity="0.4" d="M121.163 130.489L110.321 124.207H110.244C106.541 122.116 101.436 122.427 95.7873 125.686C84.4337 132.235 75.2373 148.171 75.2373 161.27C75.2373 167.82 77.5281 172.39 81.2311 174.614L91.317 180.386L93.1407 177.35C95.2091 176.886 97.1959 176.114 99.0344 175.059C110.377 168.498 119.584 152.563 119.584 139.475C119.578 137.706 119.362 135.944 118.939 134.226L121.163 130.489Z" fill="black"/>
<path d="M106.207 131.657C94.8536 138.218 85.6572 154.153 85.6572 167.241C85.6572 180.33 94.8536 185.656 106.207 179.107C117.561 172.557 126.757 156.622 126.757 143.522C126.757 130.423 117.561 125.107 106.207 131.657Z" fill="#5484E1"/>
<path d="M98.178 170.377C97.9667 170.377 97.8555 170.255 97.8555 170.066C97.8774 169.857 97.9377 169.653 98.0334 169.466L99.0676 167.141C99.136 166.914 99.2717 166.712 99.4568 166.563C99.6107 166.494 99.7771 166.456 99.9461 166.452C100.871 166.397 101.785 166.213 102.659 165.907C103.823 165.515 104.941 165.001 105.995 164.372C107.636 163.484 109.075 162.264 110.221 160.792C111.081 159.678 111.56 158.318 111.589 156.911C111.589 154.453 110.088 154.097 107.085 155.799L104.161 157.567C103.682 157.834 103.349 157.934 103.149 157.845C102.948 157.756 102.848 157.489 102.848 157.044V156.121C102.833 155.729 102.937 155.341 103.149 155.009C103.416 154.648 103.762 154.351 104.161 154.142L107.063 152.463C108.226 151.83 109.212 150.916 109.932 149.805C110.535 148.873 110.866 147.791 110.888 146.68C110.888 144.301 109.213 144.078 105.862 146.013C103.801 147.187 101.946 148.69 100.369 150.461C100.22 150.628 100.057 150.781 99.8793 150.917C99.8139 150.948 99.7399 150.956 99.6693 150.94C99.5987 150.924 99.5356 150.885 99.4901 150.828L98.5004 149.716C98.4452 149.665 98.401 149.603 98.3704 149.534C98.3398 149.465 98.3235 149.391 98.3225 149.316C98.3451 149.061 98.455 148.821 98.6339 148.637C99.619 147.405 100.738 146.287 101.97 145.301C103.405 144.132 104.933 143.083 106.54 142.166C107.991 141.263 109.592 140.626 111.266 140.286C111.793 140.158 112.342 140.146 112.874 140.252C113.406 140.357 113.909 140.578 114.347 140.898C114.742 141.279 115.046 141.743 115.239 142.257C115.431 142.77 115.506 143.32 115.459 143.867C115.434 145.091 115.161 146.298 114.658 147.414C114.121 148.703 113.369 149.891 112.434 150.928C112.914 150.767 113.427 150.731 113.925 150.822C114.423 150.914 114.889 151.13 115.281 151.451C115.623 151.85 115.883 152.313 116.046 152.813C116.208 153.313 116.269 153.84 116.226 154.364C116.141 156.83 115.277 159.204 113.757 161.148C111.892 163.649 109.51 165.72 106.774 167.219C102.86 169.51 99.9942 170.563 98.178 170.377Z" fill="white"/>
<path d="M331.367 291.109L331.579 290.92C331.734 290.786 331.901 290.653 332.046 290.508L332.546 290.019L333.047 289.541C333.339 289.266 333.618 288.977 333.881 288.673L337.839 291.631L340.475 293.6C339.515 294.64 338.734 295.831 338.162 297.125C338.162 297.125 337.372 298.404 334.692 297.759C331.379 296.991 330.856 292.121 331.367 291.109Z" fill="#FFA8A7"/>
<path d="M292.592 289.752C289.567 286.238 292.258 280.4 295.194 272.827C298.419 264.498 303.401 250.342 303.401 250.342L338.774 243.036C338.774 243.036 376.46 242.314 379.918 249.519C382.721 255.291 357.9 263.976 354.342 264.287L332.558 265.432L330.267 266.544L314.966 285.905L292.592 289.752Z" fill="#5484E1"/>
<path d="M357.767 255.424C355.02 258.218 352.461 261.19 350.105 264.32C343.733 273.216 333.647 289.374 333.647 289.374C333.647 289.374 335.215 294.489 340.03 294.267C340.03 294.267 373.168 263.319 375.882 260.462C379.985 256.125 383.277 248.975 376.182 248.385C369.087 247.796 360.525 252.444 357.767 255.424Z" fill="#5484E1"/>
<path d="M349.927 264.498C349.927 264.498 355.843 255.847 361.97 252.266C361.97 252.266 355.876 253.467 346.646 264.698L349.927 264.498Z" fill="#5484E1"/>
<path opacity="0.1" d="M349.927 264.498C349.927 264.498 355.843 255.847 361.97 252.266C361.97 252.266 355.876 253.467 346.646 264.698L349.927 264.498Z" fill="black"/>
<path d="M353.952 275.441L351.628 275.885L353.785 283.858C353.785 283.858 355.876 283.658 356.599 283.703C357.652 283.453 358.666 283.06 359.612 282.535L359.056 277.665L356.499 274.996L353.952 275.441Z" fill="#FFA8A7"/>
<path d="M372.3 277.32C373.41 277.767 374.415 278.438 375.253 279.292C376.091 280.145 376.744 281.162 377.171 282.279C377.666 283.448 378.071 284.652 378.383 285.882C378.75 287.172 378.572 289.363 376.938 289.719C376.406 289.781 375.868 289.684 375.392 289.441C372.111 288.173 368.909 286.705 365.55 285.638C362.673 284.572 359.659 283.917 356.599 283.692C357.294 282.621 357.642 281.361 357.594 280.085C357.547 278.809 357.106 277.579 356.332 276.564C355.673 275.955 354.842 275.566 353.952 275.452C354.797 275.073 355.587 274.584 356.399 274.128C357.91 273.071 359.762 272.615 361.592 272.849C362.993 273.15 364.06 274.262 365.25 275.073C367.519 276.552 369.709 276.452 372.3 277.32Z" fill="#263238"/>
<path d="M297.362 282.113C300.287 281.212 304.957 280.411 318.813 279.7C332.669 278.988 351.629 275.874 351.629 275.874C354.854 278.977 353.786 283.847 353.786 283.847C353.786 283.847 329.177 291.631 321.159 292.666C308.394 294.311 303.99 294.189 298.23 292.955C291.758 291.565 287.677 285.082 297.362 282.113Z" fill="#5484E1"/>
<path d="M348.003 216.115L358.412 240.99L350.961 245.572L336.639 221.319L348.003 216.115Z" fill="#F28F8F"/>
<path d="M326.475 192.673C332.168 192.74 338.429 194.808 340.586 199.268L349.482 217.616C349.482 217.616 344.456 224.977 336.472 224.455L326.475 192.673Z" fill="#E0E0E0"/>
<path d="M288.622 231.338C288.688 230.371 290.078 225.645 291.568 220.552L302.377 224.288L299.475 233.44L290.368 242.08C288.395 238.869 287.768 235.009 288.622 231.338Z" fill="#FFA8A7"/>
<path d="M314.832 193.018C308.049 194.653 298.808 196.777 296.128 204.138C293.448 211.5 289.611 224.499 289.611 224.499C291.101 227.079 299.275 229.214 302.11 227.724L303.445 223.276V250.32C308.749 256.092 334.915 254.613 338.818 243.014V206.173C338.818 200.28 335.549 193.196 326.508 192.673L314.832 193.018Z" fill="#FAFAFA"/>
<path d="M303.411 223.298L306.814 212.589L303.411 228.091V223.298Z" fill="#E0E0E0"/>
<path d="M312.252 162.871C311.648 162.793 311.034 162.852 310.456 163.045C309.879 163.237 309.352 163.558 308.916 163.983C307.481 165.451 307.804 168.164 308.916 174.392L313.364 174.892L312.252 162.871Z" fill="#263238"/>
<path d="M338.061 161.07C339.014 161.074 339.956 160.881 340.83 160.503C342.187 159.724 342.543 161.27 341.798 162.604C341.305 163.567 340.575 164.387 339.675 164.986C338.776 165.586 337.738 165.945 336.66 166.029C336.66 165.84 335.393 162.571 335.393 162.571L338.061 161.07Z" fill="#263238"/>
<path d="M314.331 174.959C313.675 175.348 312.73 174.092 311.918 173.235C311.6 172.871 311.194 172.594 310.739 172.43C310.284 172.267 309.794 172.222 309.317 172.3C308.839 172.378 308.39 172.576 308.01 172.876C307.631 173.176 307.334 173.567 307.148 174.014C305.802 176.849 308.86 180.619 310.651 181.865C311.153 182.298 311.779 182.561 312.441 182.617C313.102 182.673 313.763 182.519 314.331 182.176L314.798 193.018C315.591 194.756 316.803 196.269 318.324 197.424C319.846 198.579 321.63 199.338 323.517 199.635C329.877 200.491 328.565 195.242 326.475 192.673V188.703C328.067 189.043 329.704 189.126 331.323 188.948C332.146 188.726 334.125 186.335 335.404 183.655C336.839 180.652 339.229 175.315 337.105 166.274C334.815 156.577 324.395 156.266 318.201 160.191C312.007 164.117 314.331 174.959 314.331 174.959Z" fill="#FFA8A7"/>
<path d="M314.332 176.06C313.998 176.06 312.741 173.98 311.918 173.235C310.806 172.201 312.252 162.871 312.252 162.871C312.252 162.871 311.14 159.324 313.364 156.978C315.588 154.631 319.947 155.02 323.128 154.909C327.024 154.931 330.884 154.155 334.47 152.63C338.985 150.672 339.319 150.406 339.875 152.418C340.431 154.431 340.653 158.935 337.962 161.971L336.494 164.361C336.494 164.361 335.126 165.473 330.934 166.029C326.742 166.585 319.558 164.284 318.702 164.161C317.479 163.994 317.223 165.173 316.567 168.398C315.944 171.234 315.444 176.038 314.332 176.06Z" fill="#263238"/>
<path d="M312.263 163.594L308.282 161.459C308.413 161.194 308.596 160.958 308.819 160.765C309.042 160.572 309.301 160.425 309.582 160.332C309.862 160.24 310.158 160.205 310.452 160.228C310.747 160.252 311.033 160.334 311.296 160.469C311.826 160.768 312.222 161.258 312.402 161.839C312.581 162.42 312.532 163.048 312.263 163.594Z" fill="#263238"/>
<path d="M326.464 188.703C326.464 188.703 320.57 187.513 318.513 186.479C317.302 185.845 316.31 184.86 315.666 183.655C315.979 184.864 316.531 185.999 317.29 186.991C318.791 188.915 326.464 190.327 326.464 190.327V188.703Z" fill="#F28F8F"/>
<path d="M326.653 174.736C326.644 174.967 326.567 175.191 326.433 175.379C326.298 175.567 326.111 175.711 325.895 175.793C325.679 175.876 325.443 175.893 325.218 175.842C324.992 175.792 324.786 175.676 324.626 175.51C324.465 175.343 324.357 175.133 324.316 174.906C324.274 174.679 324.299 174.444 324.39 174.231C324.48 174.018 324.631 173.837 324.824 173.709C325.017 173.582 325.243 173.513 325.474 173.513C325.632 173.516 325.787 173.55 325.932 173.613C326.076 173.676 326.207 173.767 326.317 173.881C326.426 173.994 326.512 174.128 326.57 174.275C326.627 174.422 326.655 174.579 326.653 174.736Z" fill="#263238"/>
<path d="M325.407 170.288L322.872 171.678C322.696 171.331 322.659 170.929 322.769 170.556C322.878 170.182 323.126 169.864 323.461 169.666C323.629 169.574 323.813 169.518 324.003 169.5C324.194 169.482 324.385 169.502 324.567 169.561C324.749 169.619 324.917 169.713 325.062 169.838C325.206 169.963 325.324 170.117 325.407 170.288Z" fill="#263238"/>
<path d="M325.952 182.632L328.654 183.655C328.594 183.835 328.499 184.002 328.373 184.145C328.248 184.288 328.095 184.404 327.924 184.487C327.753 184.57 327.567 184.617 327.377 184.627C327.188 184.637 326.998 184.609 326.819 184.545C326.455 184.4 326.161 184.12 325.999 183.763C325.837 183.407 325.82 183.001 325.952 182.632Z" fill="#F28F8F"/>
<path d="M337.184 171.267L334.882 169.488C334.991 169.333 335.13 169.202 335.291 169.103C335.452 169.004 335.632 168.938 335.819 168.91C336.006 168.882 336.196 168.892 336.379 168.94C336.562 168.988 336.734 169.072 336.883 169.187C337.191 169.429 337.394 169.78 337.449 170.167C337.505 170.554 337.41 170.948 337.184 171.267Z" fill="#263238"/>
<path d="M336.472 174.403C336.463 174.634 336.387 174.857 336.252 175.045C336.117 175.233 335.93 175.377 335.714 175.46C335.498 175.542 335.263 175.559 335.037 175.509C334.811 175.458 334.606 175.343 334.445 175.176C334.285 175.01 334.177 174.8 334.135 174.573C334.093 174.345 334.119 174.11 334.209 173.898C334.299 173.685 334.45 173.503 334.643 173.376C334.836 173.248 335.062 173.18 335.293 173.18C335.451 173.183 335.606 173.217 335.751 173.28C335.896 173.343 336.026 173.434 336.136 173.547C336.245 173.661 336.331 173.795 336.389 173.942C336.447 174.088 336.475 174.245 336.472 174.403Z" fill="#263238"/>
<path d="M330.912 174.258L329.8 181.286L333.692 180.83L330.912 174.258Z" fill="#F28F8F"/>
<path d="M371.478 254.068L347.514 240.234C347.304 240.114 347.067 240.051 346.825 240.051C346.583 240.051 346.345 240.114 346.135 240.234L304.112 264.498L328.755 278.777L371.478 254.068Z" fill="#37474F"/>
<path d="M328.532 276.697L315.61 269.247L353.397 247.429L366.385 254.846L328.532 276.697Z" fill="#263238"/>
<path d="M322.183 255.969L322.427 256.102L328.755 259.761L340.019 253.256L340.253 253.122L333.681 249.33L322.183 255.969Z" fill="#263238"/>
<path d="M322.427 256.103L328.754 259.761L340.019 253.256L333.68 249.597L322.427 256.103Z" fill="#263238"/>
<path d="M304.112 264.498V265.066C304.109 265.467 304.21 265.862 304.405 266.213C304.6 266.564 304.882 266.858 305.224 267.067L327.554 279.955C327.905 280.159 328.304 280.267 328.71 280.267C329.116 280.267 329.515 280.159 329.867 279.955L370.277 256.603C370.619 256.393 370.901 256.098 371.095 255.748C371.29 255.397 371.391 255.002 371.389 254.601V254.034L328.755 278.777L304.112 264.498Z" fill="#263238"/>
<path d="M328.754 278.777V280.311C329.146 280.307 329.529 280.2 329.866 280L370.277 256.647C370.618 256.437 370.9 256.143 371.095 255.792C371.289 255.442 371.391 255.047 371.389 254.646V254.079L328.754 278.777Z" fill="#263238"/>
<path d="M329.41 279.077C329.792 279.223 330.202 279.282 330.61 279.249C331.018 279.216 331.414 279.093 331.768 278.888L372 255.658C372.349 255.458 372.649 255.182 372.878 254.851C373.107 254.52 373.259 254.142 373.324 253.745L377.772 227.49C377.783 227.339 377.783 227.186 377.772 227.035C377.77 226.304 377.478 225.604 376.96 225.089L335.148 249.23C334.891 249.379 334.67 249.583 334.501 249.827C334.331 250.071 334.218 250.35 334.17 250.643L329.41 279.077Z" fill="#263238"/>
<path d="M328.754 278.777L329.032 278.932C329.155 279.002 329.281 279.065 329.41 279.121L334.169 250.687C334.218 250.394 334.331 250.115 334.5 249.871C334.67 249.627 334.891 249.423 335.148 249.275L376.96 225.133C376.789 224.974 376.603 224.832 376.404 224.71L334.514 248.852C334.256 249.001 334.033 249.204 333.862 249.448C333.691 249.692 333.576 249.971 333.524 250.265L328.754 278.777Z" fill="#455A64"/>
<path d="M352.062 254.824C352.695 252.629 354.148 250.761 356.121 249.608C358.067 248.496 359.401 248.997 359.112 250.72C358.479 252.915 357.026 254.783 355.053 255.936C353.107 257.103 351.773 256.536 352.062 254.824Z" fill="#37474F"/>
<path d="M299.475 233.417C299.475 233.417 306.692 261.218 309.738 263.208C312.785 265.199 318.457 266.656 321.17 267.656C323.883 268.657 325.118 270.025 324.651 270.403C324.184 270.781 320.269 271.193 318.913 271.671C317.556 272.149 319.313 274.34 322.315 276.664C325.318 278.988 327.875 278.777 327.542 280.322C327.208 281.868 320.514 283.414 314.865 280.1C309.216 276.786 307.503 272.316 304.134 268.524C300.765 264.732 293.069 248.975 290.367 242.08C290.367 242.08 290.623 229.27 294.815 230.081C299.008 230.893 299.475 233.417 299.475 233.417Z" fill="#FFA8A7"/>
<path d="M333.813 289.752C334.325 290.986 336.093 294.389 340.03 294.2L349.704 285.148L333.813 289.752Z" fill="#5484E1"/>
<path opacity="0.1" d="M333.813 289.752C334.325 290.986 336.093 294.389 340.03 294.2L349.704 285.148L333.813 289.752Z" fill="black"/>
<path d="M336.738 305.676C336.645 302.764 337.125 299.863 338.151 297.136C337.685 297.461 337.148 297.669 336.584 297.743C336.021 297.816 335.448 297.753 334.915 297.558C331.679 296.591 330.867 292.076 331.378 291.098C330.911 291.509 330.422 291.898 329.944 292.299C328.41 293.328 327.319 294.896 326.886 296.691C326.663 298.103 327.32 299.493 327.642 300.895C328.265 303.563 327.642 306.343 327.542 309.079C327.565 310.273 327.832 311.449 328.327 312.536C328.823 313.622 329.536 314.595 330.422 315.395C331.334 316.285 332.315 317.099 333.358 317.83C333.737 318.257 334.239 318.555 334.795 318.684C335.351 318.813 335.934 318.766 336.462 318.55C336.99 318.334 337.438 317.96 337.745 317.478C338.051 316.997 338.201 316.432 338.173 315.862C337.75 312.393 336.939 309.29 336.738 305.676Z" fill="#263238"/>
<path d="M340.408 293.622C340.108 294.189 339.841 294.734 339.607 295.279C339.885 294.745 340.152 294.189 340.408 293.622Z" fill="#37474F"/>
</svg>
