<svg width="509" height="488" viewBox="0 0 509 488" fill="none" xmlns="http://www.w3.org/2000/svg">
<path opacity="0.03" d="M79.8997 488C26.6789 488 -11.9422 436.757 3.39077 385.793C12.0617 356.971 29.288 328.85 62.0473 311.794C151.694 265.118 143.797 277.917 186.053 199.483C228.31 121.049 342.838 102.442 402.849 157.692C487.727 235.835 430.634 298.088 484.347 351.801C484.906 352.361 485.458 352.923 486.003 353.489C534.536 403.881 498.015 488 428.054 488H79.8997Z" fill="#292A2E"/>
<path d="M307.083 211.395V169.589H107.29V211.395C107.292 233.255 114.463 254.512 127.702 271.908C140.942 289.303 159.52 301.877 180.59 307.703C183.683 308.571 186.407 310.427 188.348 312.987C190.288 315.547 191.338 318.671 191.338 321.883C191.338 325.095 190.288 328.22 188.348 330.78C186.407 333.34 183.683 335.195 180.59 336.063C159.52 341.889 140.941 354.464 127.701 371.86C114.461 389.256 107.291 410.514 107.29 432.375V474.182H307.083V432.375C307.081 410.514 299.911 389.257 286.671 371.862C273.431 354.467 254.853 341.892 233.783 336.067C230.69 335.199 227.965 333.343 226.025 330.783C224.084 328.223 223.033 325.099 223.033 321.886C223.033 318.674 224.084 315.549 226.025 312.989C227.965 310.429 230.69 308.574 233.783 307.706C254.853 301.88 273.432 289.306 286.671 271.911C299.911 254.515 307.081 233.258 307.083 211.398" fill="#5484E1"/>
<path opacity="0.8" d="M307.083 211.395V169.589H107.29V211.395C107.292 233.255 114.463 254.512 127.702 271.908C140.942 289.303 159.52 301.877 180.59 307.703C183.683 308.571 186.407 310.427 188.348 312.987C190.288 315.547 191.338 318.671 191.338 321.883C191.338 325.095 190.288 328.22 188.348 330.78C186.407 333.34 183.683 335.195 180.59 336.063C159.52 341.889 140.941 354.464 127.701 371.86C114.461 389.256 107.291 410.514 107.29 432.375V474.182H307.083V432.375C307.081 410.514 299.911 389.257 286.671 371.862C273.431 354.467 254.853 341.892 233.783 336.067C230.69 335.199 227.965 333.343 226.025 330.783C224.084 328.223 223.033 325.099 223.033 321.886C223.033 318.674 224.084 315.549 226.025 312.989C227.965 310.429 230.69 308.574 233.783 307.706C254.853 301.88 273.431 289.306 286.671 271.911C299.911 254.515 307.081 233.258 307.083 211.398" fill="white"/>
<path d="M307.714 474.813H106.659V432.375C106.694 410.384 113.922 389.008 127.241 371.509C140.559 354.01 159.238 341.348 180.425 335.457C183.385 334.626 185.992 332.85 187.849 330.4C189.706 327.95 190.711 324.959 190.711 321.885C190.711 318.811 189.706 315.821 187.849 313.37C185.992 310.92 183.385 309.144 180.425 308.313C159.238 302.421 140.56 289.76 127.241 272.261C113.922 254.762 106.694 233.386 106.659 211.395V168.958H307.714V211.395C307.68 233.386 300.452 254.762 287.133 272.261C273.815 289.76 255.138 302.421 233.951 308.313C230.991 309.144 228.384 310.92 226.527 313.37C224.67 315.821 223.665 318.811 223.665 321.885C223.665 324.959 224.67 327.95 226.527 330.4C228.384 332.85 230.991 334.626 233.951 335.457C255.138 341.349 273.815 354.011 287.133 371.51C300.452 389.009 307.68 410.385 307.714 432.375V474.813ZM107.924 473.551H306.452V432.375C306.418 410.661 299.281 389.554 286.13 372.274C272.979 354.995 254.536 342.492 233.616 336.674C230.389 335.77 227.547 333.835 225.522 331.165C223.497 328.495 222.401 325.236 222.401 321.885C222.401 318.534 223.497 315.275 225.522 312.605C227.547 309.935 230.389 308.001 233.616 307.096C254.536 301.278 272.979 288.776 286.13 271.496C299.281 254.217 306.418 233.11 306.452 211.395V170.22H107.921V211.395C107.956 233.11 115.093 254.217 128.245 271.496C141.396 288.776 159.839 301.278 180.76 307.096C183.987 308.001 186.828 309.936 188.853 312.606C190.877 315.276 191.973 318.534 191.973 321.885C191.973 325.236 190.877 328.494 188.853 331.164C186.828 333.834 183.987 335.769 180.76 336.674C159.839 342.491 141.396 354.994 128.244 372.273C115.093 389.553 107.955 410.66 107.921 432.375L107.924 473.551Z" fill="#292A2E"/>
<path d="M318.69 161.979C318.691 163.967 317.912 165.877 316.522 167.299C315.131 168.721 313.239 169.542 311.251 169.585C311.193 169.589 311.139 169.589 311.08 169.589H103.632C103.573 169.589 103.519 169.589 103.461 169.585C101.458 169.54 99.5538 168.707 98.1612 167.267C96.7685 165.827 96.0001 163.896 96.0226 161.893C96.0451 159.889 96.8568 157.976 98.2814 156.567C99.7061 155.159 101.629 154.369 103.632 154.369H311.077C312.077 154.369 313.067 154.566 313.99 154.948C314.914 155.33 315.753 155.891 316.46 156.597C317.167 157.304 317.728 158.143 318.11 159.066C318.493 159.99 318.69 160.979 318.69 161.979Z" fill="#292A2E"/>
<path d="M210.717 404.052V313.695C210.64 310.262 211.692 306.899 213.711 304.122C215.731 301.345 218.606 299.308 221.895 298.324C257.246 288.596 290.134 256.884 291.751 220.458C291.837 218.505 290.121 217.218 288.165 217.218H126.206C124.249 217.218 122.535 218.505 122.621 220.458C124.237 256.884 157.125 288.596 192.476 298.324C197.479 299.708 203.657 305.838 203.657 313.921V404.058C203.657 410.559 201.209 416.079 196.613 420.674C192.818 424.47 135.672 474.18 135.672 474.18H278.701C278.701 474.18 221.027 423.903 217.851 420.725C213.254 416.132 210.717 410.551 210.717 404.052Z" fill="#FAFAFA"/>
<path d="M318.744 479.802C318.745 481.791 317.966 483.701 316.576 485.122C315.185 486.544 313.293 487.364 311.305 487.407C311.247 487.411 311.192 487.411 311.134 487.411H103.687C103.628 487.411 103.574 487.411 103.516 487.407C101.513 487.363 99.6089 486.53 98.2163 485.09C96.8237 483.65 96.0552 481.719 96.0776 479.715C96.1001 477.712 96.9116 475.799 98.3361 474.39C99.7607 472.982 101.683 472.192 103.687 472.192H311.134C313.153 472.192 315.088 472.994 316.515 474.421C317.942 475.848 318.744 477.784 318.744 479.802Z" fill="#292A2E"/>
<path d="M370.239 486.951C419.22 486.951 458.928 447.244 458.928 398.263C458.928 349.281 419.22 309.574 370.239 309.574C321.257 309.574 281.55 349.281 281.55 398.263C281.55 447.244 321.257 486.951 370.239 486.951Z" fill="white"/>
<path d="M396.111 483.564C349.074 497.827 299.202 471.169 284.937 424.134C270.671 377.098 297.331 327.226 344.367 312.963C391.403 298.699 441.277 325.355 455.54 372.39C469.803 419.426 443.146 469.298 396.111 483.564ZM344.628 313.822C298.068 327.943 271.676 377.312 285.798 423.872C299.92 470.433 349.288 496.824 395.85 482.703C442.411 468.581 468.801 419.212 454.68 372.652C440.558 326.091 391.189 299.7 344.628 313.822Z" fill="#292A2E"/>
<path opacity="0.45" d="M370.239 476.345C413.363 476.345 448.322 441.386 448.322 398.262C448.322 355.138 413.363 320.179 370.239 320.179C327.115 320.179 292.156 355.138 292.156 398.262C292.156 441.386 327.115 476.345 370.239 476.345Z" fill="#5484E1"/>
<path d="M370.239 402.957C372.832 402.957 374.934 400.855 374.934 398.262C374.934 395.669 372.832 393.567 370.239 393.567C367.646 393.567 365.544 395.669 365.544 398.262C365.544 400.855 367.646 402.957 370.239 402.957Z" fill="#292A2E"/>
<path d="M428.117 429.57C428.06 429.587 428.001 429.593 427.942 429.587C427.883 429.581 427.826 429.564 427.774 429.536L370.027 398.659C369.955 398.621 369.895 398.563 369.853 398.494C369.811 398.424 369.789 398.344 369.789 398.262L369.769 352.738C369.769 352.618 369.817 352.504 369.901 352.419C369.986 352.335 370.1 352.288 370.219 352.288C370.339 352.288 370.453 352.335 370.538 352.419C370.622 352.504 370.669 352.618 370.669 352.738L370.689 397.993L428.198 428.743C428.277 428.785 428.341 428.849 428.383 428.928C428.425 429.006 428.443 429.095 428.434 429.184C428.425 429.272 428.39 429.356 428.334 429.425C428.277 429.494 428.202 429.544 428.117 429.57Z" fill="#292A2E"/>
<path d="M135.097 270.954C135.097 270.954 133.254 280.507 124.309 281.04C115.363 281.573 117.303 288.699 117.303 288.699H151.488V271.619L135.097 270.954Z" fill="#5484E1"/>
<path d="M154.601 242.215C154.601 242.215 157.165 251.601 149.373 256.027C141.581 260.453 146.47 265.993 146.47 265.993L177.142 250.903L169.603 235.577L154.601 242.215Z" fill="#5484E1"/>
<path d="M151.356 248.421L128.243 161.213C126.489 151.579 129.127 147.403 133.196 143.346C140.342 136.219 169.95 121.049 169.95 121.049L205.47 120.953C214.889 120.953 224.151 130.24 224.151 139.658C224.151 149.076 214.576 157.064 205.155 157.064L161.413 161.432L173.27 241.282L151.356 248.421Z" fill="#262626"/>
<path d="M173.27 241.279L168.602 209.843L144.954 224.269L151.356 248.421L173.27 241.279Z" fill="#0C0C0C"/>
<path d="M178.631 138.697C178.631 138.697 163.698 142.025 148.91 156.813C139.944 165.779 140.679 182.005 142.024 213.212L156.712 191.517L172.822 162.463L178.631 138.697Z" fill="#0C0C0C"/>
<path d="M230.331 120.942L206.209 120.828L206.199 121.144H198.895C198.895 121.144 180.599 137.981 165.867 148.59C155.152 156.307 148.616 163.664 148.05 171.682C146.671 191.228 131.12 274.592 131.12 274.592L154.524 278.136L175.061 178.51C175.061 178.51 207.177 163.706 214.605 158.553C221.6 153.702 226.541 151.826 228.855 146.532C232.853 137.389 230.331 120.942 230.331 120.942Z" fill="#262626"/>
<path d="M203.268 127.019L164.135 127.537L186.087 140.648L204.356 131.216C204.796 130.979 205.145 130.602 205.345 130.144C205.546 129.686 205.586 129.174 205.461 128.69C205.336 128.206 205.051 127.778 204.654 127.475C204.256 127.172 203.768 127.011 203.268 127.019Z" fill="#292A2E"/>
<path opacity="0.2" d="M203.268 127.019L164.135 127.537L186.087 140.648L204.356 131.216C204.796 130.979 205.145 130.602 205.345 130.144C205.546 129.686 205.586 129.174 205.461 128.69C205.336 128.206 205.051 127.778 204.654 127.475C204.256 127.172 203.768 127.011 203.268 127.019Z" fill="white"/>
<path d="M164.359 56.813L153.291 92.678L131.12 121.706L144.072 136.572L170.448 107.133C171.663 106.172 172.614 104.918 173.21 103.488L173.621 102.494L188.854 65.6328L164.359 56.813Z" fill="#5484E1"/>
<path d="M181.41 18.7413C181.41 18.7413 176.95 15.3749 175.845 7.6261C174.989 1.62608 180.524 5.51312 180.524 5.51312C180.524 5.51312 179.95 1.18746 183.1 1.61661C186.251 2.04577 188.017 6.59044 188.017 6.59044" fill="#0C0C0C"/>
<path d="M199.393 2.1228C199.393 2.1228 215.032 3.79968 209.378 24.9913L207.994 25.0841L205.185 25.2734" fill="#0C0C0C"/>
<path d="M184.029 47.1235C184.098 47.1146 184.861 59.7754 199.569 58.6729C209.752 57.9099 213.382 47.1071 213.616 47.1071C212.517 46.8735 211.161 46.5195 210.621 46.3977C209.446 46.125 208.382 45.501 207.57 44.6087C206.759 43.7163 206.238 42.598 206.077 41.4024C205.78 39.6081 206.285 30.4273 206.129 28.6116L190.5 32.0998C190.718 35.9344 192.247 44.8243 186.889 46.3977C185.998 46.6571 185.038 46.8963 184.029 47.1235Z" fill="#E98862"/>
<path opacity="0.52" d="M190.282 42.7636C190.527 41.9745 190.684 41.161 190.752 40.3376C190.924 38.4587 190.89 36.5667 190.65 34.6954C193.827 34.266 196.819 32.954 199.288 30.9087C199.578 31.9816 201.174 36.6638 200.733 37.6825C199.896 39.6105 195.971 42.7636 190.282 42.7636Z" fill="#0C0C0C"/>
<path d="M193.506 40.2575C199.673 39.7047 207.053 35.8088 207.159 27.4389L207.255 19.8864C207.362 11.5165 203.052 4.67648 195.171 4.57487C187.29 4.47326 181.313 11.1852 181.207 19.5569L181.164 22.9018C181.171 24.0502 181.255 25.1969 181.417 26.3339C181.821 29.3411 182.447 33.9148 184.489 37.0079C186.414 39.9256 189.567 40.611 193.506 40.2575Z" fill="#E98862"/>
<path opacity="0.52" d="M190.645 32.6072C189.373 32.6649 188.105 32.4225 186.943 31.8997C186.897 31.8777 186.861 31.8385 186.843 31.7905C186.825 31.7425 186.826 31.6894 186.846 31.6421C186.866 31.5949 186.904 31.5573 186.951 31.5372C186.998 31.5171 187.051 31.5161 187.099 31.5343C189.602 32.6015 191.875 32.445 193.671 31.0824C193.707 31.0537 193.745 31.0269 193.784 31.0022C193.83 30.976 193.884 30.969 193.935 30.9827C193.986 30.9965 194.029 31.03 194.056 31.0758C194.082 31.1216 194.089 31.1759 194.075 31.2268C194.061 31.2778 194.028 31.3212 193.982 31.3475C193.968 31.3563 193.944 31.3746 193.911 31.3992C192.967 32.1181 191.83 32.5387 190.645 32.6072Z" fill="#0C0C0C"/>
<path opacity="0.52" d="M190.705 34.4928C190.475 34.5068 190.244 34.5013 190.016 34.4764C189.963 34.4709 189.915 34.4448 189.882 34.4038C189.849 34.3627 189.833 34.3102 189.838 34.2577C189.844 34.2053 189.87 34.1571 189.911 34.1239C189.952 34.0907 190.005 34.0752 190.057 34.0807C190.418 34.147 190.788 34.1357 191.144 34.0474C191.499 33.9592 191.832 33.796 192.12 33.5689C192.157 33.5316 192.207 33.5106 192.26 33.5105C192.313 33.5104 192.364 33.5313 192.401 33.5686C192.438 33.6058 192.459 33.6564 192.459 33.7091C192.459 33.7618 192.438 33.8124 192.401 33.8497C191.927 34.2537 191.328 34.481 190.705 34.4928Z" fill="#0C0C0C"/>
<path d="M183.809 24.508C184.345 24.508 184.78 24.0734 184.78 23.5373C184.78 23.0012 184.345 22.5667 183.809 22.5667C183.273 22.5667 182.839 23.0012 182.839 23.5373C182.839 24.0734 183.273 24.508 183.809 24.508Z" fill="#0C0C0C"/>
<path d="M193.294 23.9127C193.83 23.9127 194.264 23.4782 194.264 22.9421C194.264 22.406 193.83 21.9714 193.294 21.9714C192.757 21.9714 192.323 22.406 192.323 22.9421C192.323 23.4782 192.757 23.9127 193.294 23.9127Z" fill="#0C0C0C"/>
<path d="M206.637 29.9821C209.032 30.013 211.006 27.4753 211.037 25.0802C211.067 22.6852 209.143 21.3403 206.745 21.3093L205.492 22.9016L204.577 29.9594L206.637 29.9821Z" fill="#E98862"/>
<path d="M204.255 26.1344C204.255 26.1344 203.446 14.2908 199.855 13.5594C197.463 13.0722 191.663 16.4625 186.29 15.4401C183.94 14.992 181.708 15.5739 181.482 16.684C181.391 17.1258 179.927 10.8064 183.608 6.01186C186.538 2.19487 196.128 1.11692 200.491 2.36906C212.572 5.83452 207.241 21.8289 207.241 21.8289L206.703 25.9122L204.255 26.1344Z" fill="#0C0C0C"/>
<g opacity="0.52">
<path d="M189.198 29.8117H189.182C188.411 29.8041 187.117 29.7051 187.122 29.1276C187.128 28.6492 188.489 23.498 188.644 22.9124C188.661 22.8666 188.695 22.8289 188.738 22.8065C188.782 22.7841 188.832 22.7787 188.879 22.7913C188.926 22.8039 188.967 22.8336 188.994 22.8746C189.02 22.9157 189.031 22.9651 189.023 23.0133C188.418 25.2948 187.517 28.8063 187.513 29.1314C188.039 29.3611 188.612 29.4597 189.184 29.4185C189.236 29.417 189.287 29.4363 189.325 29.472C189.363 29.5077 189.385 29.5571 189.386 29.6091C189.388 29.6612 189.369 29.7117 189.333 29.7496C189.297 29.7874 189.248 29.8096 189.196 29.8111L189.198 29.8117Z" fill="#0C0C0C"/>
</g>
<path d="M186.564 18.2737C185.753 18.0507 184.897 18.0507 184.086 18.2737C183.688 18.3809 183.307 18.5473 182.958 18.7673C182.613 18.9831 182.297 19.2413 182.017 19.536C181.965 19.5885 181.935 19.659 181.934 19.7329C181.933 19.8067 181.96 19.8781 182.01 19.9322C182.061 19.9864 182.13 20.019 182.204 20.0234C182.277 20.0277 182.35 20.0035 182.406 19.9557L182.423 19.9405C182.682 19.7002 182.971 19.4934 183.281 19.3252C183.587 19.1582 183.915 19.0382 184.257 18.9692C184.928 18.8288 185.625 18.8678 186.276 19.0822L186.304 19.0917C186.411 19.1297 186.53 19.1234 186.633 19.0742C186.735 19.025 186.815 18.937 186.853 18.8294C186.891 18.7219 186.884 18.6037 186.835 18.5007C186.786 18.3978 186.698 18.3187 186.59 18.2807L186.564 18.2737Z" fill="#0C0C0C"/>
<path d="M192.308 18.761C192.925 18.4615 193.611 18.3308 194.295 18.3824C194.642 18.4048 194.984 18.4799 195.309 18.6051C195.64 18.7304 195.953 18.8966 196.241 19.0999L196.26 19.1119C196.322 19.1523 196.397 19.1671 196.47 19.1533C196.543 19.1394 196.607 19.098 196.65 19.0376C196.693 18.9773 196.71 18.9027 196.699 18.8296C196.688 18.7565 196.649 18.6905 196.59 18.6455C196.273 18.3904 195.926 18.1765 195.555 18.0087C195.18 17.8372 194.781 17.723 194.371 17.6698C193.538 17.5564 192.689 17.6703 191.915 17.9993C191.811 18.0446 191.728 18.1297 191.686 18.2357C191.644 18.3418 191.646 18.4601 191.692 18.5648C191.737 18.6694 191.822 18.7517 191.928 18.7936C192.034 18.8355 192.153 18.8335 192.257 18.7882L192.281 18.7768L192.308 18.761Z" fill="#0C0C0C"/>
<path d="M191.915 6.06603C192.461 3.45662 191.465 1.04101 189.693 0.670615C187.92 0.300222 186.041 2.11531 185.495 4.72472C184.95 7.33413 185.945 9.74973 187.718 10.1201C189.491 10.4905 191.37 8.67544 191.915 6.06603Z" fill="#0C0C0C"/>
<path d="M165.756 74.9473C166.219 80.3894 169.504 114.345 169.949 121.049H230.305C230.652 115.003 232.209 88.5643 233.523 76.7403C234.779 65.4578 236.539 60.3231 235.093 56.8172C232.543 50.6323 224.427 47.8718 218.929 47.1277C215.573 46.6733 210.525 46.3477 210.525 46.3477C210.525 46.3477 210.098 54.9939 199.906 55.4749C186.032 56.13 186.958 46.3477 186.89 46.3477C184.642 46.3477 172.407 47.9816 169.348 49.9759C167.604 51.0365 166.166 52.5329 165.176 54.3178C164.186 56.1028 163.677 58.1147 163.701 60.1558C163.642 64.2158 165.23 68.7744 165.756 74.9473Z" fill="#5484E1"/>
<path d="M168.816 107.669C168.773 107.669 168.732 107.652 168.7 107.623C168.669 107.594 168.649 107.554 168.645 107.512L166.359 81.3588C166.356 81.3361 166.358 81.3131 166.365 81.2912C166.372 81.2694 166.382 81.249 166.397 81.2314C166.411 81.2137 166.429 81.1992 166.45 81.1886C166.47 81.1779 166.492 81.1714 166.515 81.1695C166.537 81.1667 166.561 81.1686 166.583 81.175C166.605 81.1815 166.625 81.1923 166.643 81.207C166.661 81.2216 166.675 81.2397 166.686 81.2602C166.696 81.2807 166.702 81.303 166.704 81.326L168.991 107.479C168.993 107.501 168.991 107.524 168.984 107.546C168.977 107.567 168.966 107.587 168.952 107.604C168.937 107.622 168.919 107.636 168.899 107.646C168.879 107.657 168.857 107.663 168.835 107.665L168.816 107.669Z" fill="#0C0C0C"/>
<path d="M173.193 122.86L181.48 116.136L180.086 116.531C179.633 116.649 179.152 116.591 178.74 116.369C178.329 116.146 178.017 115.775 177.868 115.332C177.799 115.1 177.778 114.857 177.806 114.617C177.835 114.377 177.912 114.145 178.032 113.936C178.153 113.727 178.315 113.544 178.509 113.4C178.702 113.255 178.923 113.151 179.158 113.095L196.568 108.86L198.066 114.407C198.531 116.129 198.471 117.951 197.893 119.638C197.316 121.326 196.248 122.803 194.826 123.88L188.375 128.748C188.044 129.008 187.635 129.145 187.215 129.137C186.795 129.129 186.391 128.976 186.07 128.705C185.787 128.453 185.591 128.117 185.511 127.746C185.432 127.376 185.473 126.989 185.629 126.643C185.608 126.638 185.59 126.628 185.573 126.615C185.557 126.602 185.544 126.585 185.534 126.567C185.524 126.548 185.518 126.528 185.517 126.507C185.515 126.486 185.518 126.465 185.525 126.445L184.336 127.346C183.969 127.636 183.505 127.775 183.039 127.737C182.573 127.698 182.139 127.484 181.824 127.137C181.554 126.817 181.405 126.413 181.404 125.995C181.403 125.576 181.549 125.171 181.817 124.85C181.799 124.847 181.781 124.84 181.764 124.831L181.276 125.201C180.946 125.461 180.536 125.598 180.116 125.59C179.696 125.582 179.292 125.429 178.972 125.157C178.627 124.852 178.414 124.425 178.377 123.966C178.34 123.507 178.482 123.052 178.774 122.696C178.768 122.685 178.762 122.675 178.757 122.663L175.306 125.463C175.135 125.602 174.938 125.706 174.727 125.769C174.516 125.831 174.295 125.852 174.075 125.829C173.856 125.806 173.644 125.741 173.45 125.636C173.256 125.531 173.085 125.389 172.946 125.218C172.808 125.047 172.704 124.85 172.641 124.639C172.578 124.427 172.558 124.206 172.58 123.987C172.603 123.768 172.669 123.555 172.774 123.362C172.879 123.168 173.021 122.997 173.192 122.858L173.193 122.86Z" fill="#E98862"/>
<path opacity="0.2" d="M178.969 122.765C178.987 122.758 179.004 122.748 179.019 122.736L182.339 119.978C182.372 119.949 182.393 119.908 182.396 119.865C182.4 119.822 182.386 119.778 182.358 119.745C182.33 119.711 182.29 119.69 182.247 119.685C182.204 119.681 182.16 119.693 182.126 119.72L178.805 122.479C178.775 122.504 178.755 122.539 178.748 122.577C178.741 122.616 178.748 122.656 178.767 122.69C178.787 122.724 178.817 122.75 178.854 122.764C178.891 122.778 178.932 122.778 178.969 122.765Z" fill="#0A0A0A"/>
<path opacity="0.2" d="M181.895 124.848C181.913 124.842 181.929 124.832 181.944 124.82L184.571 122.675C184.603 122.646 184.623 122.606 184.626 122.563C184.629 122.52 184.616 122.478 184.589 122.444C184.562 122.411 184.523 122.389 184.48 122.384C184.437 122.379 184.394 122.39 184.359 122.416L181.733 124.562C181.703 124.587 181.682 124.622 181.675 124.66C181.668 124.699 181.675 124.739 181.694 124.773C181.713 124.807 181.744 124.833 181.781 124.847C181.817 124.861 181.858 124.861 181.895 124.848Z" fill="#0A0A0A"/>
<path opacity="0.2" d="M185.738 126.648C185.757 126.641 185.775 126.631 185.79 126.618L187.007 125.574C187.024 125.56 187.037 125.542 187.047 125.523C187.057 125.503 187.063 125.482 187.064 125.46C187.066 125.438 187.063 125.416 187.056 125.396C187.049 125.375 187.039 125.356 187.024 125.339C187.01 125.322 186.993 125.309 186.973 125.299C186.953 125.289 186.932 125.283 186.91 125.282C186.889 125.28 186.867 125.283 186.846 125.29C186.825 125.297 186.806 125.307 186.789 125.322L185.572 126.365C185.543 126.39 185.523 126.425 185.517 126.464C185.511 126.502 185.518 126.542 185.537 126.575C185.557 126.609 185.588 126.635 185.624 126.648C185.661 126.662 185.701 126.661 185.738 126.648Z" fill="#0A0A0A"/>
<path d="M246.438 106.392L246.375 106.109L235.36 57.3872L213.566 62.3137L222.164 100.347L187.718 108.809L191.957 128.248L237.858 119.492C237.963 119.471 238.11 119.44 238.218 119.416C239.613 119.101 240.933 118.514 242.101 117.689C243.269 116.864 244.263 115.817 245.026 114.607C245.79 113.398 246.307 112.05 246.549 110.64C246.792 109.23 246.754 107.787 246.438 106.392Z" fill="#5484E1"/>
<path d="M187.55 108.845C187.541 108.801 187.549 108.756 187.572 108.718C187.596 108.681 187.633 108.654 187.676 108.643L221.966 100.222L216.39 75.5956C216.38 75.5512 216.388 75.5046 216.413 75.4661C216.437 75.4275 216.476 75.4003 216.52 75.3902C216.565 75.3802 216.611 75.3882 216.65 75.4125C216.688 75.4368 216.716 75.4755 216.726 75.5199L222.339 100.31C222.349 100.354 222.341 100.4 222.318 100.439C222.294 100.477 222.256 100.504 222.213 100.515L187.92 108.937C187.92 108.937 188.149 109.939 188.214 110.275C188.218 110.319 188.204 110.361 188.177 110.395C188.15 110.428 188.11 110.45 188.067 110.455C188.024 110.46 187.981 110.448 187.946 110.422C187.912 110.396 187.889 110.357 187.882 110.315C187.803 109.946 187.55 108.845 187.55 108.845Z" fill="#0C0C0C"/>
<path d="M188.893 135.984L175.65 95.2773C175.417 94.5619 174.964 93.9385 174.355 93.4964C173.747 93.0542 173.014 92.816 172.262 92.8159H118.309C117.746 92.8158 117.192 92.9489 116.691 93.2042C116.19 93.4595 115.756 93.8298 115.425 94.2849C115.095 94.74 114.877 95.2668 114.789 95.8223C114.701 96.3779 114.746 96.9463 114.92 97.4811L128.164 138.188C128.396 138.904 128.849 139.527 129.458 139.969C130.067 140.412 130.8 140.65 131.552 140.649H185.506C186.068 140.649 186.622 140.516 187.123 140.261C187.624 140.005 188.058 139.635 188.388 139.18C188.718 138.725 188.936 138.198 189.024 137.643C189.112 137.087 189.067 136.519 188.893 135.984Z" fill="#292A2E"/>
<path opacity="0.2" d="M188.893 135.984L175.65 95.2773C175.417 94.5619 174.964 93.9385 174.355 93.4964C173.747 93.0542 173.014 92.816 172.262 92.8159H118.309C117.746 92.8158 117.192 92.9489 116.691 93.2042C116.19 93.4595 115.756 93.8298 115.425 94.2849C115.095 94.74 114.877 95.2668 114.789 95.8223C114.701 96.3779 114.746 96.9463 114.92 97.4811L128.164 138.188C128.396 138.904 128.849 139.527 129.458 139.969C130.067 140.412 130.8 140.65 131.552 140.649H185.506C186.068 140.649 186.622 140.516 187.123 140.261C187.624 140.005 188.058 139.635 188.388 139.18C188.718 138.725 188.936 138.198 189.024 137.643C189.112 137.087 189.067 136.519 188.893 135.984Z" fill="white"/>
<path d="M150.353 122.391C153.478 122.391 156.012 119.857 156.012 116.732C156.012 113.607 153.478 111.074 150.353 111.074C147.228 111.074 144.694 113.607 144.694 116.732C144.694 119.857 147.228 122.391 150.353 122.391Z" fill="white"/>
</svg>
