<svg width="28" height="28" viewBox="0 0 28 28" fill="none" xmlns="http://www.w3.org/2000/svg">
<path d="M8.39984 0.87915H19.5998C23.8665 0.87915 27.3332 4.34582 27.3332 8.61248V19.8125C27.3332 21.8635 26.5184 23.8305 25.0681 25.2808C23.6178 26.7311 21.6508 27.5458 19.5998 27.5458H8.39984C4.13317 27.5458 0.666504 24.0791 0.666504 19.8125V8.61248C0.666504 6.56148 1.48126 4.59447 2.93154 3.14419C4.38183 1.69391 6.34883 0.87915 8.39984 0.87915ZM8.13317 3.54582C6.86013 3.54582 5.63923 4.05153 4.73906 4.9517C3.83888 5.85188 3.33317 7.07278 3.33317 8.34582V20.0791C3.33317 22.7325 5.47984 24.8791 8.13317 24.8791H19.8665C21.1395 24.8791 22.3604 24.3734 23.2606 23.4733C24.1608 22.5731 24.6665 21.3522 24.6665 20.0791V8.34582C24.6665 5.69248 22.5198 3.54582 19.8665 3.54582H8.13317ZM20.9998 5.54582C21.4419 5.54582 21.8658 5.72141 22.1783 6.03397C22.4909 6.34653 22.6665 6.77046 22.6665 7.21248C22.6665 7.65451 22.4909 8.07843 22.1783 8.39099C21.8658 8.70356 21.4419 8.87915 20.9998 8.87915C20.5578 8.87915 20.1339 8.70356 19.8213 8.39099C19.5088 8.07843 19.3332 7.65451 19.3332 7.21248C19.3332 6.77046 19.5088 6.34653 19.8213 6.03397C20.1339 5.72141 20.5578 5.54582 20.9998 5.54582ZM13.9998 7.54582C15.7679 7.54582 17.4636 8.2482 18.7139 9.49844C19.9641 10.7487 20.6665 12.4444 20.6665 14.2125C20.6665 15.9806 19.9641 17.6763 18.7139 18.9265C17.4636 20.1768 15.7679 20.8791 13.9998 20.8791C12.2317 20.8791 10.536 20.1768 9.28579 18.9265C8.03555 17.6763 7.33317 15.9806 7.33317 14.2125C7.33317 12.4444 8.03555 10.7487 9.28579 9.49844C10.536 8.2482 12.2317 7.54582 13.9998 7.54582ZM13.9998 10.2125C12.939 10.2125 11.9216 10.6339 11.1714 11.3841C10.4213 12.1342 9.99984 13.1516 9.99984 14.2125C9.99984 15.2733 10.4213 16.2908 11.1714 17.0409C11.9216 17.7911 12.939 18.2125 13.9998 18.2125C15.0607 18.2125 16.0781 17.7911 16.8283 17.0409C17.5784 16.2908 17.9998 15.2733 17.9998 14.2125C17.9998 13.1516 17.5784 12.1342 16.8283 11.3841C16.0781 10.6339 15.0607 10.2125 13.9998 10.2125Z" fill="white"/>
</svg>
