<svg width="119" height="38" viewBox="0 0 119 38" fill="none" xmlns="http://www.w3.org/2000/svg">
<path d="M49.0312 34.9763C52.1535 34.9763 55.006 33.6476 56.6656 31.421L57.1143 30.8151V34.6441H63.3152V8.83716H57.1143V23.073C57.1143 27.3036 54.8199 29.8332 50.979 29.8332C47.138 29.8332 44.8875 27.3036 44.8875 23.073V8.83716H38.7412V24.0257C38.7412 30.7895 42.6843 34.9763 49.0312 34.9763Z" fill="white"/>
<path d="M81.6009 35.0822C87.3751 35.0822 91.9237 31.954 93.5578 26.8911H86.8827C85.7884 29.001 83.9646 30.0741 81.4587 30.0741C77.811 30.0741 75.2212 27.5956 74.8929 23.7629L74.8711 23.4928H94.1597C94.2656 22.7248 94.3156 21.9501 94.3092 21.1749C94.3092 13.5387 89.2026 8.39917 81.6009 8.39917C73.857 8.39917 68.6519 13.7577 68.6519 21.737C68.6519 29.7164 73.857 35.0822 81.6009 35.0822ZM74.944 19.2403C75.4656 15.6193 77.946 13.3708 81.4112 13.3708C85.1537 13.3708 87.8347 15.7981 87.9295 19.2695V19.525H74.9039L74.944 19.2403Z" fill="white"/>
<path d="M105.799 0H99.6528V34.6551H105.799V0Z" fill="white"/>
<path d="M119 0H112.854V34.6551H119V0Z" fill="white"/>
<path d="M33.0111 4.39136C31.7563 4.39136 30.4797 4.88048 29.2103 5.83319L20.3612 15.4624L18.5373 13.9805C17.533 13.2062 16.296 12.7957 15.0283 12.816C13.1111 12.8662 11.2689 13.5721 9.80859 14.8164L17.1038 20.591C18.0169 21.3232 19.1475 21.7303 20.3174 21.7481C21.4109 21.7459 22.4686 21.3582 23.3048 20.653L36.8302 6.0011C35.6009 4.91698 34.317 4.39136 33.0111 4.39136Z" fill="white"/>
<path d="M33.445 18.2293C33.4487 16.5831 33.2241 14.9444 32.7775 13.36L27.0508 19.5653C26.5364 25.5955 22.5277 29.5559 16.7462 29.5559C10.5197 29.5559 6.33592 25.0041 6.33592 18.2403C6.32979 17.1215 6.45218 16.0058 6.70068 14.915L6.64232 14.8712L6.72257 14.8091C7.87886 9.98352 11.5557 7.0159 16.7389 7.0159C19.1348 6.96188 21.4724 7.75845 23.3375 9.26443L27.2258 5.04478C24.2268 2.72798 20.5347 1.49084 16.7462 1.53328C7.20041 1.53328 0 8.71689 0 18.2403C0 27.7637 7.20041 34.9765 16.7462 34.9765C18.1662 34.9766 19.5809 34.8037 20.9592 34.4618H21.0285L21.0942 34.4801L31.8364 37.8638L28.0466 30.8226L28.1888 30.6912C31.5775 27.5629 33.445 23.1352 33.445 18.2293Z" fill="white"/>
</svg>
