<svg width="1552" height="1156" viewBox="0 0 1552 1156" fill="none" xmlns="http://www.w3.org/2000/svg">
<path d="M1551.03 1015.61H0V1016.39H1551.03V1015.61Z" fill="#E6E6E6"/>
<path d="M387.199 1062.55H284.459V1063.32H387.199V1062.55Z" fill="#E6E6E6"/>
<path d="M251.949 1062.55H192.421V1063.32H251.949V1062.55Z" fill="#E6E6E6"/>
<path d="M653.138 1073.96H593.61V1074.74H653.138V1073.96Z" fill="#E6E6E6"/>
<path d="M963.53 1091.27H829.552V1092.05H963.53V1091.27Z" fill="#E6E6E6"/>
<path d="M801.944 1091.27H782.308V1092.05H801.944V1091.27Z" fill="#E6E6E6"/>
<path d="M1406.32 1073.96H1115.72V1074.74H1406.32V1073.96Z" fill="#E6E6E6"/>
<path d="M735.188 877.262H136.211C131.519 877.254 127.022 875.384 123.707 872.063C120.392 868.742 118.53 864.242 118.53 859.549V17.5576C118.571 12.8922 120.45 8.43133 123.761 5.14389C127.072 1.85645 131.546 0.0079921 136.211 0H735.188C739.885 0 744.391 1.86616 747.713 5.18795C751.034 8.50973 752.901 13.015 752.901 17.7127V859.549C752.901 864.247 751.034 868.752 747.713 872.074C744.391 875.396 739.885 877.262 735.188 877.262ZM136.211 0.620414C131.725 0.628631 127.425 2.41671 124.255 5.59216C121.085 8.76762 119.305 13.071 119.305 17.5576V859.549C119.305 864.036 121.085 868.339 124.255 871.515C127.425 874.69 131.725 876.478 136.211 876.486H735.188C739.677 876.478 743.981 874.691 747.155 871.517C750.33 868.342 752.117 864.039 752.125 859.549V17.5576C752.117 13.0681 750.33 8.76484 747.155 5.59027C743.981 2.4157 739.677 0.628614 735.188 0.620414H136.211Z" fill="#E6E6E6"/>
<path d="M1406.19 877.262H807.187C802.491 877.254 797.991 875.385 794.671 872.065C791.351 868.745 789.482 864.244 789.474 859.549V17.5576C789.523 12.8894 791.41 8.42853 794.725 5.14195C798.041 1.85537 802.518 0.00790494 807.187 0H1406.19C1410.85 0.0161446 1415.32 1.86821 1418.62 5.15478C1421.93 8.44134 1423.8 12.8976 1423.84 17.5576V859.549C1423.84 864.236 1421.99 868.732 1418.68 872.052C1415.37 875.372 1410.88 877.246 1406.19 877.262ZM807.187 0.620414C802.697 0.628614 798.394 2.4157 795.219 5.59027C792.045 8.76484 790.258 13.0681 790.249 17.5576V859.549C790.258 864.039 792.045 868.342 795.219 871.517C798.394 874.691 802.697 876.478 807.187 876.486H1406.19C1410.68 876.478 1414.99 874.691 1418.16 871.517C1421.34 868.342 1423.12 864.039 1423.13 859.549V17.5576C1423.12 13.0681 1421.34 8.76484 1418.16 5.59027C1414.99 2.4157 1410.68 0.628614 1406.19 0.620414H807.187Z" fill="#E6E6E6"/>
<path d="M829.49 750.636H761.276V1021.23H829.49V750.636Z" fill="#E0E0E0"/>
<path d="M816.524 1021.23H829.49V984.376H802.937L816.524 1021.23Z" fill="#FAFAFA"/>
<path d="M530.576 750.636H462.362V1021.23H530.576V750.636Z" fill="#E0E0E0"/>
<path d="M829.49 750.636H519.284V998.615H829.49V750.636Z" fill="#FAFAFA"/>
<path d="M818.23 762.827V828.436H530.452V762.827H818.137M819.347 761.617H529.335V829.614H819.44V761.617H819.347Z" fill="#E0E0E0"/>
<path d="M532.22 1021.23H519.284V984.376H545.807L532.22 1021.23Z" fill="#FAFAFA"/>
<path d="M667.532 795.616C667.532 796.972 667.934 798.297 668.687 799.425C669.441 800.552 670.511 801.431 671.764 801.949C673.017 802.468 674.395 802.604 675.725 802.34C677.055 802.075 678.276 801.422 679.235 800.463C680.194 799.505 680.847 798.283 681.111 796.953C681.376 795.623 681.24 794.245 680.721 792.992C680.202 791.74 679.324 790.669 678.196 789.916C677.069 789.162 675.743 788.76 674.388 788.76C672.569 788.76 670.826 789.483 669.54 790.768C668.254 792.054 667.532 793.798 667.532 795.616Z" fill="#E6E6E6"/>
<path d="M818.23 841.806V907.414H530.452V841.806H818.137M819.347 840.627H529.335V908.624H819.44V840.658L819.347 840.627Z" fill="#E0E0E0"/>
<path d="M667.532 874.78C667.532 876.136 667.934 877.462 668.687 878.589C669.441 879.716 670.511 880.595 671.764 881.114C673.017 881.633 674.395 881.769 675.725 881.504C677.055 881.24 678.276 880.587 679.235 879.628C680.194 878.669 680.847 877.448 681.111 876.118C681.376 874.788 681.24 873.409 680.721 872.157C680.202 870.904 679.324 869.833 678.196 869.08C677.069 868.327 675.743 867.925 674.388 867.925C672.569 867.925 670.826 868.647 669.54 869.933C668.254 871.218 667.532 872.962 667.532 874.78Z" fill="#E6E6E6"/>
<path d="M818.23 920.815V986.455H530.452V920.815H818.137M819.347 919.605H529.335V987.633H819.44V919.605H819.347Z" fill="#E0E0E0"/>
<path d="M667.532 953.635C667.538 954.989 667.945 956.312 668.702 957.435C669.459 958.558 670.532 959.432 671.785 959.946C673.039 960.46 674.416 960.592 675.744 960.324C677.072 960.056 678.29 959.4 679.246 958.44C680.202 957.48 680.851 956.259 681.113 954.93C681.375 953.601 681.238 952.224 680.718 950.973C680.198 949.722 679.32 948.653 678.193 947.901C677.066 947.149 675.742 946.748 674.387 946.748C673.485 946.748 672.591 946.926 671.757 947.273C670.923 947.619 670.166 948.127 669.529 948.767C668.892 949.407 668.388 950.166 668.045 951.002C667.702 951.837 667.528 952.732 667.532 953.635Z" fill="#E6E6E6"/>
<path d="M488.915 593.486H420.701V1021.26H488.915V593.486Z" fill="#E0E0E0"/>
<path d="M475.949 1021.23H488.915V984.376H462.393L475.949 1021.23Z" fill="#FAFAFA"/>
<path d="M233.988 593.486H165.774V1021.26H233.988V593.486Z" fill="#E0E0E0"/>
<path d="M488.915 593.486H222.666V998.646H488.915V593.486Z" fill="#FAFAFA"/>
<path d="M477.438 604.901V696.629H234.143V604.901H477.438ZM478.865 603.505H232.654V697.963H478.803V603.536L478.865 603.505Z" fill="#E0E0E0"/>
<path d="M477.438 707.828V951.122H361.545V707.828H477.438ZM478.865 706.401H360.149V952.549H478.865V706.401Z" fill="#E0E0E0"/>
<path d="M350.036 707.828V951.122H234.143V707.828H350.036ZM351.432 706.401H232.654V952.549H351.37V706.401H351.432Z" fill="#E0E0E0"/>
<path d="M235.632 1021.23H222.666V984.376H249.219L235.632 1021.23Z" fill="#FAFAFA"/>
<path d="M348.92 650.812C348.913 652.175 349.312 653.51 350.065 654.646C350.818 655.783 351.891 656.67 353.149 657.196C354.407 657.722 355.793 657.863 357.13 657.601C358.468 657.339 359.698 656.685 360.665 655.723C361.631 654.762 362.29 653.535 362.558 652.198C362.826 650.861 362.692 649.475 362.171 648.215C361.651 646.955 360.768 645.877 359.635 645.119C358.502 644.361 357.169 643.956 355.806 643.956C353.985 643.956 352.238 644.678 350.947 645.962C349.657 647.247 348.928 648.991 348.92 650.812Z" fill="#E6E6E6"/>
<path d="M373.488 823.689C373.488 825.053 373.893 826.385 374.651 827.519C375.409 828.652 376.486 829.534 377.746 830.055C379.006 830.575 380.393 830.709 381.729 830.441C383.066 830.173 384.293 829.514 385.255 828.548C386.217 827.582 386.87 826.352 387.132 825.014C387.395 823.676 387.254 822.29 386.728 821.032C386.202 819.775 385.314 818.701 384.178 817.948C383.041 817.195 381.707 816.797 380.343 816.803C379.441 816.803 378.547 816.981 377.713 817.328C376.879 817.674 376.122 818.182 375.485 818.822C374.848 819.462 374.343 820.221 374.001 821.056C373.658 821.892 373.484 822.786 373.488 823.689Z" fill="#E6E6E6"/>
<path d="M324.382 823.69C324.388 825.044 324.796 826.366 325.553 827.49C326.31 828.613 327.382 829.487 328.636 830.001C329.889 830.515 331.266 830.647 332.594 830.379C333.922 830.111 335.14 829.455 336.096 828.495C337.052 827.535 337.702 826.314 337.964 824.985C338.226 823.656 338.088 822.279 337.568 821.028C337.049 819.777 336.17 818.708 335.043 817.956C333.916 817.204 332.592 816.803 331.238 816.803C330.335 816.803 329.441 816.981 328.607 817.328C327.773 817.674 327.016 818.182 326.379 818.822C325.742 819.462 325.238 820.221 324.895 821.057C324.552 821.892 324.378 822.787 324.382 823.69Z" fill="#E6E6E6"/>
<path d="M316.627 474.212H287.871C290.521 488.161 292.19 502.279 292.865 516.462C292.865 531.972 270.965 593.486 302.172 593.486C333.378 593.486 311.478 532.127 311.478 516.462C312.204 502.275 313.925 488.157 316.627 474.212Z" fill="#E0E0E0"/>
<path d="M207.218 537.121V555.734C207.25 565.711 211.228 575.271 218.284 582.326C225.339 589.382 234.899 593.36 244.877 593.393H263.489C273.467 593.36 283.026 589.382 290.082 582.326C297.137 575.271 301.115 565.711 301.148 555.734V537.121H207.218Z" fill="#F5F5F5"/>
<path d="M606.98 711.178C606.98 732.892 631.269 750.636 660.956 750.636H687.757C717.444 750.636 741.733 732.892 741.733 711.178H606.98Z" fill="#E0E0E0"/>
<path d="M1317.16 679.351C1300.91 692.627 1278.45 716.917 1257.92 751.101C1244.2 773.87 1235.95 797.632 1232.32 829.211C1232.32 793.537 1232.54 755.227 1232.66 719.057C1236.79 709.751 1246.22 688.285 1252.98 671.347C1275.54 614.797 1284 600.869 1304.26 552.104C1331.34 486.961 1359.07 409.844 1351.13 416.017C1334.94 428.58 1272.9 544.752 1266.2 561.379C1247.93 605.752 1236.64 652.683 1232.73 700.507C1232.73 666.384 1232.98 635.363 1233.1 611.292C1233.53 532.778 1234.87 507.435 1235.52 499.617C1238.03 495.647 1240.98 491.025 1242.72 488.543C1257.3 467.449 1262.91 449.519 1276.62 418.064C1296.1 373.55 1312.85 294.478 1307.95 298.449C1287.54 315.076 1271.47 350.75 1250.32 396.257C1229.16 441.764 1235.21 467.914 1231.02 506.752C1230.15 514.383 1229.47 543.17 1228.97 583.032C1223.51 540.534 1213.21 512.553 1194.45 487.116C1171.37 455.816 1149.03 434.691 1132.65 423.648C1116.28 412.605 1160.95 489.474 1182.29 522.914C1201.3 552.818 1218.83 579.154 1228.82 605.118C1228.29 659.187 1228.04 727.619 1228.04 791.242C1223.14 762.269 1215.14 731.031 1204.47 706.866C1191.62 677.831 1171.9 633.285 1156.17 618.178C1152.41 614.549 1172.61 701.189 1185.58 724.206C1198.54 747.224 1208.07 768.969 1216.22 782.029C1218.12 785.131 1224.44 796.826 1228.04 803.588C1228.04 881.357 1228.48 949.974 1229.16 973.333H1232.51C1232.29 967.315 1232.23 927.732 1232.32 875.37C1240.42 846.955 1258.91 814.507 1274.17 784.914C1290.8 752.869 1333.42 666.167 1317.16 679.351Z" fill="#E0E0E0"/>
<path d="M1279.41 1021.23H1182.19L1174.84 925.933H1286.76L1279.41 1021.23Z" fill="#F0F0F0"/>
<path d="M1293.99 937.039H1167.58L1163.99 904.87H1297.62L1293.99 937.039Z" fill="#F5F5F5"/>
<path d="M385.462 63.5922H211.591V254.524H385.462V63.5922Z" fill="#E0E0E0"/>
<path d="M404.291 63.5922H224.682V254.524H404.291V63.5922Z" fill="#F5F5F5"/>
<path d="M389.246 239.479V78.6371L239.727 78.6371V239.479H389.246Z" fill="white"/>
<path d="M352.983 200.455V117.599H275.959V200.455H352.983Z" fill="#F5F5F5"/>
<path d="M1272 85.8339H1110.47V263.21H1272V85.8339Z" fill="#E0E0E0"/>
<path d="M1289.49 85.8339H1122.67V263.21H1289.49V85.8339Z" fill="#F5F5F5"/>
<path d="M1275.54 249.219V99.8242L1136.66 99.8242V249.219H1275.54Z" fill="white"/>
<path d="M1206.08 217.858C1230.01 217.858 1249.42 198.455 1249.42 174.522C1249.42 150.588 1230.01 131.186 1206.08 131.186C1182.15 131.186 1162.74 150.588 1162.74 174.522C1162.74 198.455 1182.15 217.858 1206.08 217.858Z" fill="#F5F5F5"/>
<path d="M566.095 177.438H437.111V319.078H566.095V177.438Z" fill="#E0E0E0"/>
<path d="M580.054 177.438H446.82V319.078H580.054V177.438Z" fill="#F5F5F5"/>
<path d="M568.886 307.91V188.605H457.988V307.91H568.886Z" fill="white"/>
<path d="M513.453 218.075L483.115 270.624H543.791L513.453 218.075Z" fill="#F5F5F5"/>
<path d="M775.515 1155.7C1107.69 1155.7 1376.97 1139.98 1376.97 1120.59C1376.97 1101.19 1107.69 1085.47 775.515 1085.47C443.338 1085.47 174.057 1101.19 174.057 1120.59C174.057 1139.98 443.338 1155.7 775.515 1155.7Z" fill="#F5F5F5"/>
<path d="M1083.39 336.356L1052.62 323.948C1052.62 323.948 1012.02 397.994 1000.38 401.748C984.562 406.835 951.805 420.98 932.386 423.462C929.749 426.564 925.437 436.211 925.84 439.717C951.929 448.433 1009.25 436.863 1021.54 427.743C1049.49 407.052 1083.39 336.356 1083.39 336.356Z" fill="#E58A7B"/>
<path d="M1092.86 319.512C1098.59 340.699 1067.51 383.321 1067.51 383.321L1026.78 360.49C1026.78 360.49 1034.41 342.964 1043.72 325.127C1058.64 296.309 1086.31 295.347 1092.86 319.512Z" fill="#407BFF"/>
<path opacity="0.2" d="M1092.86 319.512C1098.59 340.699 1067.51 383.321 1067.51 383.321L1026.78 360.49C1026.78 360.49 1034.41 342.964 1043.72 325.127C1058.64 296.309 1086.31 295.347 1092.86 319.512Z" fill="black"/>
<path opacity="0.2" d="M1042.94 369.61L1058.98 378.606L1061.8 329.376C1052.47 336.542 1045.89 358.133 1042.94 369.61Z" fill="black"/>
<path d="M1066.05 303.567C1066.05 303.567 1034.35 374.108 1052.84 505.449H1177.76C1179.74 486.279 1173.17 392.72 1196.96 302.389C1183.26 299.71 1169.39 297.938 1155.45 297.084C1137.78 296.06 1120.06 296.06 1102.38 297.084C1090.12 298.328 1077.98 300.496 1066.05 303.567Z" fill="#407BFF"/>
<path opacity="0.2" d="M1066.05 303.567C1066.05 303.567 1034.35 374.108 1052.84 505.449H1177.76C1179.74 486.279 1173.17 392.72 1196.96 302.389C1183.26 299.71 1169.39 297.938 1155.45 297.084C1137.78 296.06 1120.06 296.06 1102.38 297.084C1090.12 298.328 1077.98 300.496 1066.05 303.567Z" fill="black"/>
<g style="mix-blend-mode:multiply">
<path d="M1037.08 1123.38C1036.89 1126.73 1084.26 1129.43 1142.86 1129.43C1201.46 1129.43 1249.17 1126.73 1249.35 1123.38C1249.54 1120.03 1202.2 1117.36 1143.57 1117.36C1084.94 1117.36 1037.3 1120.06 1037.08 1123.38Z" fill="#E8ECF1"/>
</g>
<path d="M1120.47 1035.35L1098.31 1043.93L1117.39 1093.23L1139.55 1084.65L1120.47 1035.35Z" fill="#E58A7B"/>
<path d="M1219.26 1099.52H1195.91L1187.34 1045.46H1210.7L1219.26 1099.52Z" fill="#E58A7B"/>
<path d="M1194.29 1096.83H1220.54C1220.99 1096.83 1221.43 1096.99 1221.78 1097.29C1222.12 1097.58 1222.35 1097.99 1222.43 1098.44L1225.81 1119.19C1225.88 1119.71 1225.84 1120.24 1225.69 1120.75C1225.54 1121.25 1225.28 1121.71 1224.93 1122.11C1224.58 1122.5 1224.15 1122.82 1223.67 1123.03C1223.19 1123.24 1222.67 1123.35 1222.15 1123.35C1213 1123.19 1208.59 1122.63 1197.05 1122.63C1189.95 1122.63 1175.34 1123.38 1165.47 1123.38C1155.61 1123.38 1154.96 1113.7 1159.02 1112.8C1177.26 1108.86 1184.33 1103.5 1190.41 1098.28C1191.49 1097.34 1192.87 1096.82 1194.29 1096.83Z" fill="#263238"/>
<path d="M1116.74 1088.82L1141.56 1081.56C1142 1081.44 1142.47 1081.47 1142.9 1081.65C1143.32 1081.83 1143.67 1082.15 1143.88 1082.56L1153.19 1101.17C1153.41 1101.64 1153.52 1102.15 1153.51 1102.67C1153.51 1103.19 1153.39 1103.71 1153.17 1104.18C1152.95 1104.64 1152.63 1105.06 1152.23 1105.39C1151.83 1105.73 1151.37 1105.97 1150.86 1106.1C1141.84 1108.58 1135.79 1110.1 1124.5 1113.39C1116.71 1115.66 1108.77 1119.35 1101.08 1121.8C1095.74 1123.5 1083.21 1123.57 1076.72 1123.57C1067.14 1123.57 1065 1113.45 1069.12 1112.99C1079.52 1111.84 1080.91 1112.37 1086.65 1109.48C1096.04 1105.38 1104.55 1099.5 1111.72 1092.17C1113.07 1090.63 1114.8 1089.48 1116.74 1088.82Z" fill="#263238"/>
<path d="M936.294 423.338L910.609 412.574L900.031 441.051C910.559 442.654 921.269 442.654 931.796 441.051L936.294 423.338Z" fill="#E58A7B"/>
<path d="M891.501 411.829L890.818 430.752L900.031 440.989L910.609 412.512L891.501 411.829Z" fill="#E58A7B"/>
<path d="M1123.5 1039.54L1101.28 1048.12L1111.12 1073.61L1133.35 1065.03L1123.5 1039.54Z" fill="#CF6F64"/>
<path d="M1210.7 1045.46H1187.34L1191.78 1073.34H1215.14L1210.7 1045.46Z" fill="#CF6F64"/>
<path opacity="0.2" d="M1048.87 469.931C1049.33 475.546 1049.86 481.284 1050.54 487.178L1143.42 457.026C1157.92 452.728 1170.53 443.613 1179.15 431.186C1179.53 422.904 1179.99 414.187 1180.71 405.098C1181.02 400.693 1181.39 396.164 1181.79 391.573C1182.19 386.982 1182.75 381.894 1183.34 376.993L1048.87 469.931Z" fill="black"/>
<path d="M1079.21 368.183L1076.1 367.811C1077.93 352.301 1089.5 340.079 1101.7 340.389V343.491C1091.02 343.274 1080.85 354.286 1079.21 368.183Z" fill="white"/>
<path d="M1095.74 396.815H1095.21V393.713C1105.88 394.116 1115.9 382.98 1117.55 369.114L1120.65 369.486C1119.01 384.655 1107.81 396.815 1095.74 396.815Z" fill="white"/>
<path d="M1153.72 237.307C1149.34 254.4 1144.19 285.7 1155.45 297.084C1155.45 297.084 1147.58 314.425 1115.84 314.425C1086.84 314.425 1102.38 297.084 1102.38 297.084C1121.67 292.555 1122.01 278.472 1119.47 265.133L1153.72 237.307Z" fill="#E58A7B"/>
<path d="M1139.76 248.661L1119.5 265.133C1120.13 268.198 1120.49 271.312 1120.59 274.439C1126.51 280.333 1138.39 265.412 1139.6 257.781C1140.22 254.777 1140.27 251.684 1139.76 248.661Z" fill="#CF6F64"/>
<path d="M1084.67 237.09C1086.08 239.533 1087.97 241.659 1090.24 243.335C1092.51 245.011 1095.1 246.201 1097.85 246.831C1105.29 248.475 1109.02 241.619 1106.97 234.733C1105.14 228.529 1099.03 220.184 1091.46 221.611C1089.84 221.945 1088.32 222.663 1087.03 223.704C1085.75 224.745 1084.73 226.079 1084.06 227.595C1083.4 229.111 1083.1 230.764 1083.21 232.416C1083.31 234.068 1083.81 235.671 1084.67 237.09Z" fill="#CF6F64"/>
<path d="M1096.98 182.401C1085.38 187.706 1081.28 233.802 1095.86 240.627C1110.44 247.451 1118.94 172.319 1096.98 182.401Z" fill="#263238"/>
<path d="M1157.25 211.591C1154.46 234.733 1154.15 248.351 1141.74 260.201C1137.9 264.133 1133.04 266.926 1127.71 268.272C1122.38 269.618 1116.78 269.464 1111.53 267.827C1106.27 266.19 1101.58 263.134 1097.96 258.997C1094.33 254.859 1091.92 249.801 1090.99 244.38C1087.24 223.596 1092.42 189.257 1115.62 180.043C1120.5 177.893 1125.86 177.086 1131.15 177.705C1136.45 178.325 1141.48 180.349 1145.72 183.567C1149.97 186.785 1153.28 191.081 1155.31 196.008C1157.33 200.936 1158.01 206.316 1157.25 211.591Z" fill="#E58A7B"/>
<path d="M1119.13 194.375C1136.31 190.001 1148.94 187.023 1144.41 201.324C1138.42 220.432 1131.23 238.92 1140.87 239.758C1146.77 240.285 1172.83 229.242 1169.51 218.044C1166.62 208.303 1178.81 205.635 1180.98 200.703C1189.02 182.835 1166.03 185.193 1170.13 174.336C1174.22 163.478 1151.51 145.983 1139.11 154.7C1118.91 168.783 1084.26 168.566 1102.47 145.393C1115.53 128.859 1092.23 132.241 1092.23 132.241C1092.23 132.241 1106.32 140.585 1082.62 153.49C1057.55 167.263 1080.54 204.271 1119.13 194.375Z" fill="#263238"/>
<path d="M1166.37 237.09C1162.98 241.999 1157.88 245.471 1152.07 246.831C1144.41 248.475 1141.46 241.619 1144.35 234.733C1146.92 228.529 1154 220.184 1161.32 221.611C1168.64 223.038 1170.31 231.01 1166.37 237.09Z" fill="#E58A7B"/>
<path d="M1052.84 505.449C1052.84 505.449 1031.87 693.124 1030.22 764.347C1028.55 838.424 1101.29 1069.56 1101.29 1069.56L1138.52 1054.05C1138.52 1054.05 1095.09 842.86 1101.29 770.117C1107.87 690.797 1135.04 505.573 1135.04 505.573L1052.84 505.449Z" fill="#407BFF"/>
<path opacity="0.2" d="M1104.95 556.974C1088.23 591.656 1099.49 660.242 1108.55 700.879C1111.99 672.185 1116.09 641.04 1119.97 612.222C1119.59 567.925 1116.15 533.709 1104.95 556.974Z" fill="black"/>
<path d="M1136.87 1041.76C1137.06 1041.76 1141.28 1053.61 1141.28 1053.61L1098.35 1071.67L1091.58 1059.07L1136.87 1041.76Z" fill="#407BFF"/>
<path d="M1097.17 505.449C1097.17 505.449 1113.2 683.942 1123.81 750.791C1135.48 824.031 1181.2 1067.95 1181.2 1067.95H1223.98C1223.98 1067.95 1198.36 829.956 1193.52 757.43C1188.24 678.761 1177.76 505.449 1177.76 505.449H1097.17Z" fill="#407BFF"/>
<path d="M1224.63 1056.81C1224.82 1056.81 1226.06 1068.75 1226.06 1068.75H1179.03L1175.68 1055.04L1224.63 1056.81Z" fill="#407BFF"/>
<path opacity="0.2" d="M1208.25 1042.66C1208.15 1042.66 1208.06 1042.63 1207.99 1042.57C1207.91 1042.51 1207.86 1042.42 1207.85 1042.32C1207.6 1040.15 1184.49 825.179 1180.15 760.035C1175.43 689.37 1165.94 532.623 1165.85 531.041C1165.84 530.99 1165.85 530.938 1165.87 530.889C1165.88 530.841 1165.91 530.796 1165.94 530.758C1165.98 530.72 1166.02 530.69 1166.07 530.669C1166.12 530.648 1166.17 530.638 1166.22 530.638C1166.32 530.638 1166.42 530.676 1166.49 530.745C1166.57 530.814 1166.61 530.909 1166.62 531.01C1166.62 532.592 1176.21 689.215 1180.92 760.004C1185.27 825.147 1208.38 1039.97 1208.59 1042.29C1208.6 1042.34 1208.6 1042.4 1208.59 1042.45C1208.57 1042.5 1208.55 1042.54 1208.52 1042.58C1208.49 1042.63 1208.45 1042.66 1208.4 1042.68C1208.35 1042.71 1208.3 1042.72 1208.25 1042.73V1042.66Z" fill="black"/>
<path d="M1121.77 218.044C1121.77 219.936 1120.59 221.456 1119.35 221.456C1118.11 221.456 1117.21 219.936 1117.33 218.044C1117.45 216.151 1118.51 214.631 1119.75 214.631C1120.99 214.631 1121.89 216.182 1121.77 218.044Z" fill="#263238"/>
<path d="M1100.49 218.044C1100.49 219.936 1099.28 221.456 1098.07 221.456C1096.86 221.456 1095.93 219.936 1096.02 218.044C1096.11 216.151 1097.23 214.631 1098.47 214.631C1099.71 214.631 1100.61 216.182 1100.49 218.044Z" fill="#263238"/>
<path d="M1107.19 219.005C1104.6 224.783 1101.26 230.196 1097.26 235.105C1100.36 238.207 1106.16 236.78 1106.16 236.78L1107.19 219.005Z" fill="#DF5753"/>
<path d="M1107.74 244.69C1107.67 244.69 1107.6 244.676 1107.54 244.647C1107.47 244.619 1107.41 244.577 1107.36 244.525C1107.31 244.473 1107.27 244.411 1107.25 244.343C1107.22 244.276 1107.21 244.204 1107.22 244.132C1107.23 243.981 1107.29 243.839 1107.4 243.735C1107.51 243.631 1107.66 243.573 1107.81 243.574C1110.18 243.59 1112.53 243.075 1114.67 242.065C1116.82 241.056 1118.71 239.579 1120.22 237.742C1120.32 237.648 1120.46 237.596 1120.6 237.596C1120.75 237.596 1120.88 237.648 1120.99 237.742C1121.09 237.846 1121.15 237.985 1121.15 238.129C1121.15 238.274 1121.09 238.413 1120.99 238.517C1119.38 240.47 1117.36 242.038 1115.07 243.106C1112.78 244.174 1110.27 244.715 1107.74 244.69Z" fill="#263238"/>
<path d="M1125.55 212.336C1125.4 212.412 1125.24 212.452 1125.07 212.452C1124.9 212.452 1124.74 212.412 1124.59 212.336C1123.43 211.586 1122.11 211.119 1120.73 210.974C1119.36 210.828 1117.97 211.008 1116.68 211.498C1116.55 211.561 1116.42 211.598 1116.28 211.607C1116.13 211.617 1115.99 211.597 1115.86 211.551C1115.73 211.505 1115.61 211.432 1115.5 211.338C1115.4 211.244 1115.31 211.13 1115.25 211.002C1115.14 210.726 1115.13 210.416 1115.24 210.138C1115.35 209.86 1115.57 209.635 1115.84 209.513C1117.46 208.851 1119.22 208.589 1120.97 208.751C1122.71 208.913 1124.39 209.494 1125.86 210.444C1125.98 210.524 1126.08 210.628 1126.16 210.749C1126.24 210.869 1126.29 211.004 1126.32 211.145C1126.34 211.287 1126.34 211.432 1126.31 211.572C1126.28 211.713 1126.22 211.846 1126.14 211.964C1125.98 212.141 1125.78 212.271 1125.55 212.336Z" fill="#263238"/>
<path d="M1092.27 206.132C1092.1 206.092 1091.95 206.006 1091.83 205.884C1091.73 205.783 1091.65 205.662 1091.59 205.529C1091.53 205.396 1091.51 205.253 1091.51 205.108C1091.51 204.964 1091.53 204.821 1091.59 204.687C1091.65 204.554 1091.73 204.434 1091.83 204.333C1093.02 202.999 1094.5 201.958 1096.16 201.291C1097.82 200.624 1099.6 200.348 1101.39 200.486C1101.53 200.508 1101.67 200.559 1101.79 200.636C1101.91 200.713 1102.01 200.814 1102.1 200.934C1102.18 201.053 1102.23 201.188 1102.26 201.329C1102.29 201.471 1102.29 201.617 1102.25 201.758C1102.19 202.045 1102.02 202.298 1101.78 202.47C1101.54 202.641 1101.24 202.719 1100.95 202.688C1099.54 202.6 1098.13 202.833 1096.82 203.37C1095.52 203.908 1094.35 204.735 1093.41 205.791C1093.27 205.948 1093.09 206.062 1092.89 206.123C1092.69 206.183 1092.47 206.186 1092.27 206.132Z" fill="#263238"/>
<path d="M1208.97 332.913L1176.7 324.32C1176.7 324.32 1145.06 402.213 1133.86 407.269C1118.66 414.218 1080.17 438.29 1063.79 449.674C1062.89 453.552 1063.6 463.82 1065.65 466.643C1093.57 461.555 1147.02 440.989 1158.18 430.535C1183.65 406.68 1208.97 332.913 1208.97 332.913Z" fill="#E58A7B"/>
<path d="M1186.44 1100.92C1184.87 1101.04 1183.3 1100.62 1182.01 1099.71C1181.61 1099.35 1181.31 1098.89 1181.14 1098.38C1180.97 1097.87 1180.94 1097.32 1181.05 1096.79C1181.07 1096.46 1181.17 1096.15 1181.36 1095.87C1181.55 1095.6 1181.8 1095.38 1182.1 1095.24C1184.71 1093.91 1192 1098.53 1192.83 1099.06C1192.93 1099.12 1193 1099.2 1193.04 1099.3C1193.08 1099.4 1193.08 1099.51 1193.05 1099.62C1193.02 1099.73 1192.97 1099.83 1192.9 1099.91C1192.82 1099.99 1192.72 1100.05 1192.62 1100.08C1190.59 1100.58 1188.53 1100.86 1186.44 1100.92ZM1183.34 1096.08C1183.11 1096.03 1182.86 1096.03 1182.63 1096.08C1182.51 1096.14 1182.41 1096.24 1182.34 1096.35C1182.28 1096.47 1182.25 1096.6 1182.26 1096.73C1182.17 1097.09 1182.19 1097.47 1182.3 1097.82C1182.41 1098.18 1182.61 1098.5 1182.88 1098.75C1184.09 1099.83 1187.13 1099.96 1191.13 1099.18C1188.75 1097.61 1186.06 1096.56 1183.25 1096.08H1183.34Z" fill="#407BFF"/>
<path d="M1192.46 1100.08C1192.38 1100.11 1192.29 1100.11 1192.21 1100.08C1189.89 1098.78 1185.51 1093.66 1186.17 1091.06C1186.26 1090.64 1186.5 1090.27 1186.83 1090.01C1187.16 1089.75 1187.57 1089.6 1188 1089.6C1188.41 1089.54 1188.83 1089.58 1189.24 1089.7C1189.64 1089.82 1190.01 1090.03 1190.32 1090.31C1192.9 1092.51 1193.05 1099.28 1193.05 1099.62C1193.07 1099.72 1193.05 1099.82 1193 1099.91C1192.95 1100 1192.87 1100.07 1192.77 1100.11C1192.67 1100.14 1192.56 1100.12 1192.46 1100.08ZM1188.31 1090.62H1188.09C1187.37 1090.62 1187.28 1091.02 1187.25 1091.18C1186.88 1092.7 1189.64 1096.58 1191.93 1098.41C1191.92 1095.79 1191.11 1093.23 1189.61 1091.09C1189.25 1090.77 1188.78 1090.61 1188.31 1090.62Z" fill="#407BFF"/>
<path d="M1104.08 1097.04C1102.19 1097.7 1100.12 1097.7 1098.22 1097.04C1097.79 1096.81 1097.43 1096.47 1097.16 1096.06C1096.89 1095.65 1096.74 1095.17 1096.7 1094.69C1096.66 1094.38 1096.7 1094.07 1096.82 1093.78C1096.93 1093.49 1097.11 1093.24 1097.35 1093.04C1099.83 1090.81 1109.98 1093.04 1111.13 1093.48C1111.24 1093.5 1111.33 1093.57 1111.4 1093.66C1111.47 1093.75 1111.5 1093.86 1111.5 1093.97C1111.5 1094.09 1111.47 1094.2 1111.41 1094.3C1111.35 1094.4 1111.26 1094.48 1111.16 1094.53C1108.87 1095.56 1106.51 1096.4 1104.08 1097.04ZM1099.03 1093.35C1098.67 1093.42 1098.34 1093.58 1098.07 1093.82C1097.97 1093.89 1097.89 1093.99 1097.85 1094.11C1097.8 1094.22 1097.79 1094.35 1097.82 1094.47C1097.84 1094.79 1097.94 1095.11 1098.11 1095.39C1098.29 1095.66 1098.53 1095.89 1098.81 1096.05C1100.46 1096.92 1104.27 1096.24 1109.2 1094.16C1105.88 1093.32 1102.44 1093.05 1099.03 1093.35Z" fill="#407BFF"/>
<path d="M1111.06 1094.53H1110.82C1107.71 1093.97 1101.51 1090.4 1101.32 1087.74C1101.32 1087.12 1101.6 1086.25 1103.09 1085.75C1103.59 1085.57 1104.13 1085.5 1104.66 1085.53C1105.19 1085.56 1105.72 1085.7 1106.19 1085.94C1109.54 1087.58 1111.31 1093.54 1111.41 1093.82C1111.43 1093.91 1111.42 1094.01 1111.4 1094.1C1111.37 1094.19 1111.32 1094.28 1111.25 1094.34C1111.2 1094.42 1111.14 1094.48 1111.06 1094.53ZM1103.71 1086.68H1103.4C1102.44 1087.02 1102.44 1087.43 1102.44 1087.55C1102.44 1089.16 1106.94 1092.11 1110.07 1093.1C1109.35 1090.61 1107.82 1088.43 1105.73 1086.9C1105.11 1086.58 1104.39 1086.51 1103.71 1086.68Z" fill="#407BFF"/>
<path d="M1066.43 447.844L1034.07 462.734L1030.32 472.04L1042.26 480.074C1042.26 480.074 1064.6 477.655 1070.95 463.292L1066.43 447.844Z" fill="#E58A7B"/>
<path d="M1067.79 467.17C1067.07 460.953 1065.01 454.965 1061.77 449.612L1066.89 445.766C1070.74 451.934 1073.2 458.868 1074.09 466.084L1067.79 467.17Z" fill="#263238"/>
<path d="M1073.31 452.249C1074 453.325 1074.33 454.585 1074.27 455.859C1074.22 457.132 1073.77 458.357 1072.99 459.367C1072.21 460.376 1071.14 461.121 1069.92 461.501C1068.71 461.88 1067.4 461.876 1066.19 461.487C1064.97 461.099 1063.91 460.346 1063.14 459.331C1062.37 458.316 1061.93 457.088 1061.88 455.814C1061.83 454.54 1062.17 453.282 1062.87 452.212C1063.56 451.141 1064.56 450.309 1065.74 449.829C1067.07 449.154 1068.61 449.029 1070.03 449.482C1071.44 449.935 1072.62 450.93 1073.31 452.249Z" fill="#263238"/>
<path d="M1012.2 474.77L1016.51 479.113L1045.55 466.705L1034.07 462.734L1012.2 474.77Z" fill="#E58A7B"/>
<path opacity="0.2" d="M1136.87 1041.76C1137.06 1041.76 1141.28 1053.61 1141.28 1053.61L1098.35 1071.67L1091.58 1059.07L1136.87 1041.76Z" fill="black"/>
<path opacity="0.2" d="M1224.63 1056.81C1224.82 1056.81 1226.06 1068.75 1226.06 1068.75H1179.03L1175.68 1055.04L1224.63 1056.81Z" fill="black"/>
<path d="M1217.37 323.979C1225.9 351.494 1192.56 389.122 1192.56 389.122L1146.49 370.324C1151.95 354.42 1158.25 338.816 1165.35 323.576C1179.5 293.082 1208.75 296.215 1217.37 323.979Z" fill="#407BFF"/>
<path opacity="0.2" d="M1217.37 323.979C1225.9 351.494 1192.56 389.122 1192.56 389.122L1146.49 370.324C1151.95 354.42 1158.25 338.816 1165.35 323.576C1179.5 293.082 1208.75 296.215 1217.37 323.979Z" fill="black"/>
<path d="M759.632 48.2991H739.81V51.4942H759.632V48.2991Z" fill="#407BFF"/>
<path d="M1016.23 174.759L1013.83 227.998L1017.02 228.142L1019.42 174.903L1016.23 174.759Z" fill="#407BFF"/>
<path d="M1010.06 62.6306H644.018L609.958 824.868H976.001L1010.06 62.6306Z" fill="#407BFF"/>
<path opacity="0.56" d="M999.142 73.1155H633.099L599.038 835.353H965.081L999.142 73.1155Z" fill="#FAFAFA"/>
<path opacity="0.07" d="M988.223 83.5695H622.18L588.088 845.807H954.131L988.223 83.5695Z" fill="#407BFF"/>
<path d="M946.562 416.017H634.123L631.517 474.336H943.956L946.562 416.017Z" fill="white"/>
<path d="M805.946 373.457H636.015L634.867 399.545H804.798L805.946 373.457Z" fill="#407BFF"/>
<path d="M939.52 573.416H627.081L624.475 631.734H936.915L939.52 573.416Z" fill="white"/>
<path opacity="0.47" d="M882.225 710.495H672.123L668.99 780.385H879.092L882.225 710.495Z" fill="#407BFF"/>
<path d="M868.173 791.242H658.071C657.979 791.266 657.883 791.266 657.791 791.242C657.761 791.152 657.761 791.053 657.791 790.963L660.893 721.042C660.893 720.995 660.903 720.948 660.922 720.904C660.941 720.861 660.969 720.822 661.004 720.79C661.039 720.757 661.08 720.733 661.126 720.718C661.171 720.703 661.218 720.697 661.266 720.701H871.368C871.407 720.682 871.449 720.672 871.492 720.672C871.535 720.672 871.578 720.682 871.616 720.701C871.638 720.739 871.649 720.782 871.649 720.825C871.649 720.869 871.638 720.912 871.616 720.949L868.576 791.025C868.539 791.098 868.48 791.157 868.408 791.196C868.336 791.235 868.254 791.251 868.173 791.242ZM658.443 790.497H867.801L870.903 721.322H661.545L658.443 790.497Z" fill="white"/>
<path d="M769.248 530.855H628.973L627.825 556.975H768.07L769.248 530.855Z" fill="#407BFF"/>
<path d="M878.224 227.629C877.422 244.602 871.386 260.91 860.945 274.315C853.216 284.441 843.27 292.661 831.87 298.345C820.47 304.028 807.92 307.025 795.182 307.104C784.888 307.182 774.687 305.152 765.208 301.139C755.728 297.126 747.171 291.215 740.062 283.769C732.954 276.324 727.445 267.502 723.875 257.847C720.306 248.192 718.75 237.908 719.305 227.629C720.396 206.299 729.594 186.192 745.019 171.419C760.443 156.646 780.928 148.324 802.285 148.154C812.587 148.058 822.798 150.076 832.289 154.082C841.78 158.088 850.349 163.998 857.466 171.446C864.583 178.894 870.097 187.723 873.667 197.386C877.237 207.05 878.788 217.343 878.224 227.629Z" fill="white"/>
<path d="M885.7 164.781C885.497 169.294 883.892 173.632 881.109 177.19C879.049 179.879 876.402 182.062 873.37 183.573C870.338 185.084 867 185.882 863.613 185.906C860.331 185.926 857.094 185.142 854.185 183.623C851.276 182.103 848.783 179.895 846.924 177.19C844.462 173.534 843.244 169.183 843.45 164.781C843.749 159.118 846.198 153.783 850.297 149.863C854.395 145.943 859.834 143.735 865.505 143.687C868.241 143.662 870.953 144.198 873.474 145.261C875.995 146.324 878.271 147.892 880.163 149.868C882.055 151.844 883.523 154.187 884.475 156.752C885.427 159.317 885.844 162.049 885.7 164.781Z" fill="#407BFF"/>
<path d="M667.78 445.176C667.631 447.676 666.54 450.026 664.726 451.753C662.913 453.48 660.512 454.456 658.008 454.483C656.799 454.497 655.6 454.263 654.485 453.796C653.37 453.328 652.363 452.637 651.525 451.765C650.688 450.893 650.039 449.858 649.617 448.725C649.195 447.591 649.011 446.384 649.075 445.176C649.209 442.671 650.296 440.313 652.112 438.583C653.929 436.853 656.338 435.882 658.846 435.87C660.054 435.86 661.251 436.097 662.364 436.566C663.477 437.035 664.482 437.726 665.319 438.598C666.155 439.469 666.805 440.502 667.228 441.633C667.651 442.764 667.839 443.97 667.78 445.176Z" fill="#263238"/>
<path d="M709.596 445.176C709.454 447.679 708.365 450.033 706.55 451.762C704.735 453.49 702.33 454.463 699.824 454.483C698.618 454.493 697.422 454.256 696.311 453.787C695.199 453.317 694.196 452.625 693.362 451.754C692.528 450.882 691.881 449.849 691.461 448.717C691.042 447.586 690.858 446.381 690.921 445.176C691.055 442.677 692.138 440.323 693.948 438.593C695.758 436.864 698.159 435.89 700.662 435.87C701.871 435.856 703.07 436.09 704.185 436.557C705.3 437.025 706.307 437.716 707.145 438.588C707.982 439.46 708.632 440.495 709.053 441.628C709.475 442.761 709.659 443.969 709.596 445.176Z" fill="#263238"/>
<path d="M751.442 445.176C751.301 447.679 750.212 450.033 748.397 451.762C746.582 453.49 744.177 454.463 741.671 454.483C740.463 454.493 739.266 454.256 738.153 453.787C737.04 453.318 736.035 452.626 735.198 451.755C734.362 450.884 733.712 449.851 733.289 448.72C732.866 447.589 732.678 446.383 732.737 445.176C732.879 442.674 733.968 440.32 735.783 438.591C737.598 436.863 740.002 435.89 742.509 435.87C743.718 435.856 744.917 436.09 746.032 436.557C747.147 437.025 748.154 437.716 748.992 438.588C749.829 439.46 750.478 440.495 750.9 441.628C751.322 442.761 751.506 443.969 751.442 445.176Z" fill="#263238"/>
<path d="M660.738 602.575C660.589 605.074 659.498 607.425 657.685 609.152C655.871 610.879 653.471 611.854 650.967 611.881C649.759 611.891 648.562 611.654 647.449 611.185C646.336 610.716 645.33 610.025 644.494 609.153C643.658 608.282 643.008 607.249 642.585 606.118C642.161 604.987 641.974 603.781 642.033 602.575C642.175 600.073 643.264 597.718 645.078 595.99C646.893 594.261 649.298 593.288 651.804 593.269C653.012 593.259 654.209 593.496 655.322 593.965C656.435 594.434 657.441 595.125 658.277 595.996C659.114 596.867 659.763 597.9 660.186 599.032C660.61 600.163 660.797 601.368 660.738 602.575Z" fill="#263238"/>
<path d="M702.554 602.575C702.413 605.072 701.328 607.422 699.52 609.149C697.711 610.877 695.314 611.854 692.814 611.881C691.605 611.895 690.405 611.662 689.29 611.194C688.175 610.727 687.168 610.036 686.331 609.163C685.493 608.291 684.844 607.256 684.422 606.123C684.001 604.99 683.816 603.782 683.88 602.575C684.022 600.073 685.11 597.718 686.925 595.99C688.74 594.261 691.145 593.288 693.651 593.269C694.858 593.258 696.053 593.495 697.165 593.965C698.276 594.434 699.28 595.126 700.114 595.998C700.948 596.869 701.595 597.903 702.014 599.034C702.434 600.165 702.618 601.37 702.554 602.575Z" fill="#263238"/>
<path d="M744.494 602.575C744.352 605.077 743.263 607.432 741.448 609.16C739.633 610.889 737.229 611.861 734.722 611.881C733.516 611.886 732.321 611.647 731.21 611.176C730.099 610.706 729.095 610.014 728.26 609.144C727.424 608.273 726.774 607.242 726.349 606.113C725.925 604.984 725.734 603.78 725.788 602.575C725.937 600.075 727.029 597.725 728.842 595.998C730.655 594.271 733.056 593.296 735.56 593.269C736.769 593.254 737.968 593.488 739.083 593.955C740.198 594.423 741.206 595.114 742.043 595.986C742.88 596.859 743.53 597.893 743.951 599.027C744.373 600.16 744.558 601.367 744.494 602.575Z" fill="#263238"/>
<path d="M786.248 602.575C786.099 605.074 785.007 607.425 783.194 609.152C781.381 610.879 778.98 611.854 776.476 611.881C775.27 611.886 774.075 611.647 772.964 611.176C771.853 610.705 770.849 610.014 770.013 609.144C769.178 608.273 768.528 607.242 768.103 606.113C767.678 604.984 767.487 603.78 767.542 602.575C767.691 600.075 768.782 597.725 770.596 595.998C772.409 594.271 774.81 593.296 777.314 593.269C778.521 593.259 779.718 593.496 780.831 593.965C781.944 594.434 782.95 595.125 783.786 595.996C784.623 596.867 785.273 597.9 785.696 599.032C786.119 600.163 786.307 601.368 786.248 602.575Z" fill="#263238"/>
<path d="M828.249 602.575C828.1 605.074 827.009 607.425 825.196 609.152C823.383 610.879 820.982 611.854 818.478 611.881C817.269 611.895 816.07 611.662 814.955 611.194C813.84 610.727 812.832 610.036 811.995 609.163C811.158 608.291 810.508 607.256 810.086 606.123C809.665 604.99 809.48 603.782 809.544 602.575C809.686 600.073 810.775 597.718 812.59 595.99C814.405 594.261 816.809 593.288 819.315 593.269C820.523 593.259 821.72 593.496 822.833 593.965C823.946 594.434 824.952 595.125 825.788 595.996C826.625 596.867 827.274 597.9 827.698 599.032C828.121 600.163 828.309 601.368 828.249 602.575Z" fill="#263238"/>
<path d="M821.901 223.49C834.885 210.793 835.573 190.441 823.44 178.033C811.306 165.625 790.944 165.859 777.96 178.556C764.976 191.253 764.287 211.605 776.421 224.013C788.555 236.421 808.917 236.187 821.901 223.49Z" fill="#407BFF"/>
<path d="M860.945 274.315C853.216 284.441 843.27 292.661 831.87 298.345C820.47 304.028 807.92 307.025 795.182 307.104C782.829 307.209 770.641 304.272 759.692 298.554C748.742 292.836 739.368 284.512 732.396 274.315C747.472 259.301 771.327 249.499 797.756 249.499C824.186 249.499 847.203 259.301 860.945 274.315Z" fill="#407BFF"/>
<path opacity="0.1" d="M821.901 223.49C834.885 210.793 835.573 190.441 823.44 178.033C811.306 165.625 790.944 165.859 777.96 178.556C764.976 191.253 764.287 211.605 776.421 224.013C788.555 236.421 808.917 236.187 821.901 223.49Z" fill="white"/>
<path opacity="0.1" d="M860.945 274.315C853.216 284.441 843.27 292.661 831.87 298.345C820.47 304.028 807.92 307.025 795.182 307.104C782.829 307.209 770.641 304.272 759.692 298.554C748.742 292.836 739.368 284.512 732.396 274.315C747.472 259.301 771.327 249.499 797.756 249.499C824.186 249.499 847.203 259.301 860.945 274.315Z" fill="white"/>
<path d="M404.539 488.388C401.593 494.84 398.49 501.944 395.792 508.831C393.093 515.717 390.332 522.821 387.943 529.894C383.067 543.832 379.352 558.15 376.838 572.702L376.156 577.262C376.091 578.044 376.164 578.832 376.373 579.588C377.105 582.159 378.258 584.591 379.785 586.785C383.769 592.464 388.39 597.668 393.558 602.296C399.007 607.364 404.723 612.138 410.682 616.596C416.638 621.187 422.904 625.654 429.077 629.873L423.276 640.761C408.536 634.338 394.544 626.318 381.553 616.844C374.622 611.79 368.367 605.868 362.941 599.224C359.724 595.27 357.216 590.788 355.527 585.979C354.545 582.974 354.042 579.834 354.038 576.673C354.038 575.928 354.038 574.842 354.038 574.315V572.795L354.348 569.693C356.127 553.531 359.525 537.589 364.492 522.107C366.912 514.476 369.486 506.876 372.433 499.462C375.38 492.048 378.42 484.79 382.174 477.252L404.539 488.388Z" fill="#E58A7B"/>
<path d="M424.703 627.95L446.634 616.844L440.958 640.916C440.958 640.916 425.913 645.135 418.933 637.814L424.703 627.95Z" fill="#E58A7B"/>
<path d="M466.705 620.784L460.873 640.699L440.958 640.916L446.634 616.844L466.705 620.784Z" fill="#E58A7B"/>
<path d="M497.663 372.247C498.836 376.546 500.469 380.706 502.533 384.655C501.93 385.339 501.154 385.847 500.285 386.126C499.417 386.404 498.49 386.443 497.601 386.237L497.663 372.247Z" fill="#DF5753"/>
<path d="M497.012 372.433C498.297 372.433 499.338 370.836 499.338 368.866C499.338 366.896 498.297 365.298 497.012 365.298C495.727 365.298 494.685 366.896 494.685 368.866C494.685 370.836 495.727 372.433 497.012 372.433Z" fill="#263238"/>
<path d="M496.329 365.422L501.044 364.089C501.044 364.089 498.749 367.749 496.329 365.422Z" fill="#263238"/>
<path d="M437.08 395.016C439.903 409.441 442.726 435.901 432.613 445.549C432.613 445.549 436.584 460.19 463.416 460.19C492.917 460.19 477.5 445.549 477.5 445.549C461.4 441.702 461.803 429.759 464.626 418.53L437.08 395.016Z" fill="#E58A7B"/>
<path d="M429.232 362.134C430.721 386.237 430.845 396.474 443.005 408.851C461.338 427.464 490.621 420.391 496.36 396.443C501.541 374.729 498.253 338.993 474.646 329.408C469.464 327.273 463.823 326.495 458.257 327.149C452.691 327.802 447.384 329.864 442.837 333.141C438.291 336.417 434.655 340.799 432.274 345.873C429.893 350.946 428.846 356.543 429.232 362.134Z" fill="#E58A7B"/>
<path d="M431.62 335.022C419.522 339.427 403.392 336.139 409.72 373.457C416.42 412.977 406.121 425.975 406.121 425.975C406.121 425.975 452.001 435.746 498.842 425.385C498.842 425.385 484.542 400.383 488.543 381.956C493.662 358.691 489.629 350.098 489.629 350.098C489.629 350.098 448.62 328.818 431.62 335.022Z" fill="#263238"/>
<path d="M482.804 374.698C482.817 379.281 484.129 383.766 486.589 387.633C489.877 392.658 493.755 390.735 494.716 385.4C495.585 380.716 494.933 372.433 490.746 369.207C486.558 365.981 482.866 369.145 482.804 374.698Z" fill="#E58A7B"/>
<path d="M421.104 339.086C417.63 329.314 434.195 314.269 469.248 320.474C504.302 326.678 505.822 355.868 505.822 355.868L498.749 347.43L499.059 356.302L463.044 363.22L421.104 339.086Z" fill="#263238"/>
<path d="M424.082 447.193C423.875 445.776 424.23 444.335 425.07 443.176C425.91 442.017 427.17 441.232 428.58 440.989C439.5 439.189 464.316 435.529 476.786 437.266C486.092 438.569 488.512 443.967 488.915 448.402C488.978 449.179 488.875 449.96 488.611 450.694C488.347 451.427 487.929 452.095 487.385 452.654C486.842 453.212 486.185 453.647 485.459 453.931C484.733 454.214 483.955 454.339 483.177 454.296L429.263 451.877C427.992 451.813 426.782 451.311 425.838 450.458C424.894 449.604 424.274 448.451 424.082 447.193Z" fill="#407BFF"/>
<path opacity="0.6" d="M424.082 447.193C423.875 445.776 424.23 444.335 425.07 443.176C425.91 442.017 427.17 441.232 428.58 440.989C439.5 439.189 464.316 435.529 476.786 437.266C486.092 438.569 488.512 443.967 488.915 448.402C488.978 449.179 488.875 449.96 488.611 450.694C488.347 451.427 487.929 452.095 487.385 452.654C486.842 453.212 486.185 453.647 485.459 453.931C484.733 454.214 483.955 454.339 483.177 454.296L429.263 451.877C427.992 451.813 426.782 451.311 425.838 450.458C424.894 449.604 424.274 448.451 424.082 447.193Z" fill="black"/>
<path d="M455.258 989.122L475.266 1003.02L508.738 957.636L488.729 943.77L455.258 989.122Z" fill="#E58A7B"/>
<path d="M408.603 988.223L429.728 1000.26L459.353 952.27L438.228 940.234L408.603 988.223Z" fill="#E58A7B"/>
<path d="M508.707 957.636L491.459 981.026L471.451 967.16L488.698 943.77L508.707 957.636Z" fill="#CF6F64"/>
<path d="M438.197 940.234L459.353 952.301L444.091 977.024L422.935 964.957L438.197 940.234Z" fill="#CF6F64"/>
<path d="M472.133 598.697C472.133 598.697 550.243 697.125 535.57 791.273C523.752 867.304 455.196 970.262 455.196 970.262L422.966 954.255C445.684 908.733 465.071 861.624 480.974 813.298C485.878 798.294 487.31 782.372 485.16 766.734C483.011 751.097 477.337 736.152 468.566 723.028C428.984 665.236 365.578 699.638 408.231 598.697H472.133Z" fill="#407BFF"/>
<path opacity="0.6" d="M472.133 598.697C472.133 598.697 550.243 697.125 535.57 791.273C523.752 867.304 455.196 970.262 455.196 970.262L422.966 954.255C445.684 908.733 465.071 861.624 480.974 813.298C485.878 798.294 487.31 782.372 485.16 766.734C483.011 751.097 477.337 736.152 468.566 723.028C428.984 665.236 365.578 699.638 408.231 598.697H472.133Z" fill="black"/>
<path opacity="0.4" d="M510.444 661.917L499.09 650.626C499.09 651.525 521.084 787.302 527.257 825.458C530.9 814.312 533.689 802.904 535.601 791.335C542.86 745.145 527.691 697.963 510.444 661.917Z" fill="black"/>
<path d="M507 598.697C507 598.697 601.055 722.407 603.723 796.577C605.925 858.619 501.355 978.823 501.355 978.823L470.954 959.156C470.954 959.156 532.158 873.788 547.575 804.053C541.619 734.94 415.676 598.697 415.676 598.697H507Z" fill="#407BFF"/>
<path opacity="0.6" d="M507 598.697C507 598.697 601.055 722.407 603.723 796.577C605.925 858.619 501.355 978.823 501.355 978.823L470.954 959.156C470.954 959.156 532.158 873.788 547.575 804.053C541.619 734.94 415.676 598.697 415.676 598.697H507Z" fill="black"/>
<path d="M390.642 451.07C380.591 453.459 370.944 490.001 370.944 490.001L410.247 516.244C410.247 516.244 423.338 487.333 418.747 474.677C414.001 461.493 403.268 448.061 390.642 451.07Z" fill="#407BFF"/>
<path opacity="0.2" d="M398.335 474.615L395.605 506.473L410.216 516.275C414.25 507.193 417.237 497.681 419.119 487.923L398.335 474.615Z" fill="black"/>
<path d="M518.633 451.784C518.633 451.784 530.235 455.847 507 598.666H408.169C409.844 558.339 409.875 533.523 390.642 451.07C404.481 448.218 418.508 446.373 432.613 445.548C447.556 444.477 462.557 444.477 477.5 445.548C496.795 447.317 518.633 451.784 518.633 451.784Z" fill="#407BFF"/>
<path d="M528.684 474.615C530.917 480.819 533.275 487.488 535.756 493.91C538.238 500.331 540.596 506.938 543.108 513.453L550.708 532.934L552.632 537.804L553.624 540.223L554.09 541.433C554.09 541.65 554.09 541.65 554.09 541.619C553.523 540.82 552.78 540.162 551.918 539.696C550.691 538.974 549.308 538.559 547.885 538.486C546.704 538.449 545.529 538.672 544.442 539.138C543.015 539.789 543.015 540.068 543.046 540.037C543.304 539.831 543.534 539.591 543.729 539.324C545.446 537.069 546.932 534.648 548.165 532.096C549.623 529.242 551.019 526.202 552.414 523.131C555.144 516.927 557.657 510.506 560.17 504.022C562.682 497.539 565.071 490.994 567.397 484.386L574.47 464.595L586.413 467.697C584.055 481.843 581.015 495.616 577.355 509.637C575.587 516.617 573.508 523.534 571.151 530.514C569.972 534.019 568.669 537.494 567.18 541.061C565.628 544.933 563.717 548.651 561.472 552.166C560.647 553.35 559.735 554.469 558.743 555.517C557.159 557.227 555.236 558.59 553.097 559.518C551.199 560.333 549.143 560.715 547.079 560.635C544.767 560.549 542.514 559.876 540.534 558.681C538.197 557.222 536.257 555.208 534.888 552.818C534.423 552.011 534.019 551.205 533.74 550.615L533.151 549.436L531.972 547.017L529.614 542.209C526.512 535.756 523.41 529.242 520.711 522.697C518.013 516.151 515.159 509.513 512.491 502.844C509.823 496.174 507.435 489.505 505.17 482.308L528.684 474.615Z" fill="#E58A7B"/>
<path d="M518.633 451.784C530.514 454.607 543.884 489.722 543.884 489.722L508.551 519.781C508.551 519.781 485.689 481.501 490.311 468.876C495.12 455.723 503.123 448.092 518.633 451.784Z" fill="#407BFF"/>
<path d="M580.085 453.49L592.493 443.129L601.117 456.561L594.758 467.759C594.758 467.759 584.645 477.065 575.711 472.319C574.293 469.132 573.953 465.569 574.742 462.171C575.532 458.774 577.407 455.726 580.085 453.49Z" fill="#E58A7B"/>
<path d="M614.89 443.16L613.959 446.541L594.323 449.829L592.4 443.129L614.89 443.16Z" fill="#E58A7B"/>
<path d="M503.774 980.405L468.349 957.512L474.708 946.469L514.507 970.944L503.774 980.405Z" fill="#407BFF"/>
<path d="M443.594 998.646C440.486 998.266 437.5 997.207 434.847 995.543C434.737 995.505 434.642 995.434 434.575 995.34C434.508 995.245 434.472 995.132 434.472 995.016C434.472 994.9 434.508 994.787 434.575 994.693C434.642 994.598 434.737 994.527 434.847 994.489C435.808 994.179 444.153 991.604 446.572 993.589C446.844 993.815 447.051 994.11 447.171 994.442C447.291 994.775 447.32 995.134 447.255 995.481C447.212 996.04 447.027 996.578 446.717 997.045C446.408 997.512 445.984 997.892 445.487 998.149C444.906 998.466 444.256 998.637 443.594 998.646ZM436.615 995.233C440.492 997.219 443.594 997.932 445.083 997.188C445.408 997.008 445.68 996.748 445.876 996.433C446.071 996.118 446.183 995.759 446.2 995.388C446.2 994.892 446.2 994.675 445.921 994.551C444.618 993.496 439.965 994.303 436.553 995.233H436.615Z" fill="#263238"/>
<path d="M435.064 995.761C434.9 995.758 434.744 995.691 434.629 995.575C434.583 995.489 434.559 995.393 434.559 995.295C434.559 995.198 434.583 995.102 434.629 995.016C434.629 994.737 436.646 988.006 439.81 986.486C440.214 986.301 440.653 986.206 441.097 986.206C441.541 986.206 441.98 986.301 442.385 986.486C442.82 986.623 443.197 986.902 443.456 987.279C443.714 987.656 443.84 988.108 443.812 988.564C443.594 991.356 437.918 995.202 435.312 995.854L435.064 995.761ZM441.082 987.292C440.78 987.301 440.484 987.375 440.213 987.509C438.29 988.44 436.708 992.069 435.932 994.272C438.662 993.124 442.416 990.084 442.54 988.378C442.54 988.099 442.54 987.757 441.826 987.447C441.594 987.322 441.342 987.238 441.082 987.199V987.292Z" fill="#263238"/>
<path d="M487.861 1012.05C484.355 1012.05 479.485 1007.55 476.817 1004.79C476.749 1004.69 476.713 1004.58 476.713 1004.46C476.713 1004.35 476.749 1004.23 476.817 1004.14C476.879 1004.04 476.966 1003.95 477.069 1003.9C477.173 1003.85 477.29 1003.82 477.407 1003.83C478.648 1003.83 489.412 1005.44 490.932 1008.48C491.093 1008.75 491.178 1009.06 491.178 1009.38C491.178 1009.7 491.093 1010.01 490.932 1010.28C490.704 1010.75 490.359 1011.16 489.931 1011.46C489.502 1011.77 489.003 1011.96 488.481 1012.02L487.861 1012.05ZM478.865 1005.22C482.773 1009.01 486.217 1011.12 488.171 1010.87C488.513 1010.82 488.839 1010.69 489.12 1010.49C489.402 1010.29 489.63 1010.03 489.784 1009.72C489.853 1009.61 489.89 1009.49 489.89 1009.36C489.89 1009.24 489.853 1009.11 489.784 1009.01C488.977 1007.33 483.239 1005.9 478.865 1005.22Z" fill="#263238"/>
<path d="M479.206 1005.07C478.51 1005.09 477.813 1005.03 477.128 1004.91C477.032 1004.9 476.941 1004.86 476.865 1004.8C476.789 1004.74 476.73 1004.66 476.693 1004.57C476.647 1004.48 476.623 1004.38 476.623 1004.28C476.623 1004.17 476.647 1004.07 476.693 1003.98C476.879 1003.76 481.067 998.707 485.038 998.366C486.162 998.279 487.275 998.635 488.14 999.359C489.35 1000.41 489.288 1001.34 488.977 1001.93C488.202 1004.04 482.835 1005.07 479.206 1005.07ZM478.399 1003.92C481.874 1004.11 487.426 1002.96 488.14 1001.44C488.14 1001.44 488.388 1000.94 487.581 1000.26C487.261 999.979 486.886 999.769 486.48 999.641C486.075 999.513 485.647 999.47 485.224 999.514C482.549 1000.26 480.168 1001.81 478.399 1003.95V1003.92Z" fill="#263238"/>
<path d="M435.901 992.41L409.596 984.965C409.142 984.828 408.654 984.863 408.225 985.063C407.795 985.264 407.455 985.615 407.269 986.051L398.397 1006C398.189 1006.51 398.091 1007.06 398.11 1007.61C398.129 1008.16 398.265 1008.7 398.508 1009.2C398.751 1009.69 399.097 1010.13 399.521 1010.48C399.946 1010.83 400.44 1011.09 400.972 1011.24C410.278 1013.66 414.745 1014.34 426.316 1017.66C433.451 1019.65 443.625 1023.34 453.459 1026.13C463.292 1028.92 466.581 1019.34 462.765 1017.29C445.518 1008.17 444.153 1001.78 439.438 994.954C438.593 993.718 437.342 992.818 435.901 992.41Z" fill="#407BFF"/>
<path d="M477.531 1001.16L455.072 985.648C454.691 985.371 454.222 985.243 453.753 985.288C453.284 985.334 452.848 985.55 452.528 985.896L437.638 1001.9C437.276 1002.32 437.005 1002.8 436.844 1003.33C436.684 1003.86 436.637 1004.41 436.708 1004.96C436.778 1005.5 436.964 1006.03 437.253 1006.49C437.542 1006.96 437.927 1007.36 438.383 1007.67C446.293 1012.98 450.388 1015.12 460.283 1021.97C466.488 1026.19 478.492 1035.56 486.868 1041.39C495.244 1047.22 501.479 1039.22 498.501 1036.06C485.162 1021.82 482.246 1012.88 480.044 1004.79C479.661 1003.32 478.771 1002.03 477.531 1001.16Z" fill="#407BFF"/>
<path d="M459.322 972.309L418.84 952.177L423.028 941.195L466.27 962.413L459.322 972.309Z" fill="#407BFF"/>
<path d="M406.68 592.865L403.268 601.799C402.926 602.482 403.733 603.195 404.881 603.195H507.497C508.396 603.195 509.141 602.761 509.203 602.203L510.071 593.331C510.071 592.741 509.358 592.214 508.396 592.214H408.293C407.992 592.186 407.688 592.23 407.407 592.343C407.126 592.457 406.877 592.636 406.68 592.865Z" fill="#407BFF"/>
<path opacity="0.4" d="M406.68 592.865L403.268 601.799C402.926 602.482 403.733 603.195 404.881 603.195H507.497C508.396 603.195 509.141 602.761 509.203 602.203L510.071 593.331C510.071 592.741 509.358 592.214 508.396 592.214H408.293C407.992 592.186 407.688 592.23 407.407 592.343C407.126 592.457 406.877 592.636 406.68 592.865Z" fill="white"/>
<path d="M422.842 604.064H420.143C419.615 604.064 419.212 603.784 419.243 603.443L420.515 591.935C420.515 591.624 421.011 591.345 421.539 591.345H424.237C424.765 591.345 425.168 591.624 425.137 591.935L423.865 603.443C423.834 603.784 423.369 604.064 422.842 604.064Z" fill="#407BFF"/>
<path d="M486.124 604.064H483.456C482.929 604.064 482.525 603.784 482.556 603.443L483.797 591.935C483.797 591.624 484.324 591.345 484.852 591.345H487.52C488.047 591.345 488.481 591.624 488.419 591.935L487.178 603.443C487.023 603.784 486.682 604.064 486.124 604.064Z" fill="#407BFF"/>
<g style="mix-blend-mode:multiply">
<path d="M420.484 1129.4C466.381 1129.4 503.588 1126.7 503.588 1123.38C503.588 1120.06 466.381 1117.36 420.484 1117.36C374.587 1117.36 337.38 1120.06 337.38 1123.38C337.38 1126.7 374.587 1129.4 420.484 1129.4Z" fill="#F5F5F5"/>
</g>
<path d="M471.11 1114.88C456.406 1110.6 440.089 1105.11 430.224 1099.37C429.945 1099.18 429.635 1099.09 429.356 1098.94V1032.36H459.105C461.363 1032.23 463.485 1031.24 465.036 1029.59C466.588 1027.95 467.452 1025.77 467.452 1023.51C467.452 1021.25 466.588 1019.07 465.036 1017.42C463.485 1015.78 461.363 1014.79 459.105 1014.65H429.511V711.209H411.643V1014.65H382.081C380.873 1014.58 379.664 1014.76 378.528 1015.17C377.391 1015.58 376.351 1016.22 375.471 1017.05C374.591 1017.88 373.89 1018.88 373.411 1019.99C372.931 1021.1 372.684 1022.3 372.684 1023.51C372.684 1024.72 372.931 1025.91 373.411 1027.02C373.89 1028.13 374.591 1029.14 375.471 1029.96C376.351 1030.79 377.391 1031.43 378.528 1031.85C379.664 1032.26 380.873 1032.44 382.081 1032.36H411.643V1098.84C411.364 1098.84 411.085 1099.09 410.806 1099.28C400.786 1105.11 384.593 1110.6 369.889 1114.79C368.896 1115.09 368.043 1115.73 367.485 1116.61C366.927 1117.48 366.701 1118.53 366.847 1119.56C366.993 1120.58 367.502 1121.52 368.282 1122.21C369.062 1122.89 370.062 1123.27 371.099 1123.29H469.9C470.891 1123.22 471.83 1122.81 472.558 1122.14C473.287 1121.46 473.762 1120.56 473.903 1119.57C474.045 1118.59 473.845 1117.59 473.336 1116.73C472.828 1115.88 472.042 1115.22 471.11 1114.88Z" fill="#E0E0E0"/>
<path d="M475.67 680.312H365.36C356.486 680.312 349.292 687.506 349.292 696.381V729.17C349.292 738.044 356.486 745.238 365.36 745.238H475.67C484.544 745.238 491.738 738.044 491.738 729.17V696.381C491.738 687.506 484.544 680.312 475.67 680.312Z" fill="#407BFF"/>
<path d="M364.337 745.269V750.915C364.337 755.568 369.393 759.353 375.597 759.353H465.557C471.761 759.353 476.817 755.568 476.817 750.915V745.269H364.337Z" fill="#407BFF"/>
<path opacity="0.3" d="M364.337 745.269V750.915C364.337 755.568 369.393 759.353 375.597 759.353H465.557C471.761 759.353 476.817 755.568 476.817 750.915V745.269H364.337Z" fill="white"/>
</svg>
