<svg width="100" height="33" viewBox="0 0 100 33" fill="none" xmlns="http://www.w3.org/2000/svg">
<path d="M41.203 29.7938C43.8269 29.7938 46.2239 28.662 47.6186 26.7653L47.9956 26.2492V29.5109H53.2065V7.52783H47.9956V19.6543C47.9956 23.258 46.0676 25.4128 42.8399 25.4128C39.6122 25.4128 37.7209 23.258 37.7209 19.6543V7.52783H32.556V20.4658C32.556 26.2274 35.8695 29.7938 41.203 29.7938Z" fill="#22294D"/>
<path d="M68.5724 29.8836C73.4246 29.8836 77.2469 27.2189 78.6202 22.9062H73.0108C72.0912 24.7034 70.5586 25.6176 68.4528 25.6176C65.3876 25.6176 63.2113 23.5063 62.9354 20.2415L62.917 20.0114H79.1259C79.215 19.3572 79.257 18.6974 79.2516 18.037C79.2516 11.5323 74.9603 7.1543 68.5724 7.1543C62.0649 7.1543 57.6908 11.7188 57.6908 18.5158C57.6908 25.3129 62.0649 29.8836 68.5724 29.8836ZM62.9783 16.389C63.4166 13.3046 65.501 11.3892 68.413 11.3892C71.5579 11.3892 73.8108 13.4569 73.8905 16.4139V16.6316H62.9446L62.9783 16.389Z" fill="#22294D"/>
<path d="M88.9071 0H83.7422V29.5201H88.9071V0Z" fill="#22294D"/>
<path d="M100 0H94.8351V29.5201H100V0Z" fill="#22294D"/>
<path d="M27.7405 3.74072C26.686 3.74072 25.6132 4.15737 24.5465 4.96891L17.1103 13.1714L15.5776 11.909C14.7337 11.2494 13.6941 10.8998 12.6289 10.9171C11.0178 10.9598 9.46969 11.5611 8.24255 12.621L14.373 17.54C15.1403 18.1637 16.0904 18.5105 17.0735 18.5256C17.9924 18.5238 18.8812 18.1935 19.5839 17.5928L30.9498 5.11194C29.9168 4.18846 28.8378 3.74072 27.7405 3.74072Z" fill="#5484E1"/>
<path d="M28.1051 15.528C28.1082 14.1257 27.9194 12.7297 27.5441 11.3801L22.7317 16.666C22.2995 21.8026 18.9308 25.1762 14.0725 25.1762C8.84011 25.1762 5.3243 21.2989 5.3243 15.5373C5.31915 14.5843 5.422 13.6338 5.63082 12.7047L5.58178 12.6674L5.64921 12.6145C6.62089 8.50396 9.71064 5.97606 14.0663 5.97606C16.0797 5.93005 18.0441 6.60859 19.6113 7.89142L22.8789 4.29702C20.3586 2.3235 17.256 1.26967 14.0725 1.30583C6.05076 1.30583 0 7.42501 0 15.5373C0 23.6496 6.05076 29.7936 14.0725 29.7936C15.2657 29.7937 16.4546 29.6464 17.6128 29.3552H17.671L17.7262 29.3708L26.7533 32.2531L23.5685 26.2552L23.6881 26.1433C26.5357 23.4786 28.1051 19.7069 28.1051 15.528Z" fill="#22294D"/>
</svg>
