<svg width="252" height="82" viewBox="0 0 252 82" fill="none" xmlns="http://www.w3.org/2000/svg">
<path d="M103.831 75.4415C110.444 75.4415 116.484 72.5894 119.999 67.8097L120.949 66.509V74.7285H134.08V19.3312H120.949V49.8898C120.949 58.9712 116.09 64.4013 107.956 64.4013C99.8225 64.4013 95.0566 58.9712 95.0566 49.8898V19.3312H82.041V51.9349C82.041 66.4542 90.3911 75.4415 103.831 75.4415Z" fill="#22294D"/>
<path d="M172.802 75.6678C185.03 75.6678 194.662 68.9527 198.123 58.0848H183.987C181.67 62.6137 177.808 64.9174 172.501 64.9174C164.777 64.9174 159.292 59.597 158.597 51.3697L158.551 50.7899H199.397C199.622 49.1414 199.728 47.4784 199.714 45.8143C199.714 29.4224 188.9 18.3899 172.802 18.3899C156.404 18.3899 145.381 29.8925 145.381 47.021C145.381 64.1495 156.404 75.6678 172.802 75.6678ZM158.705 41.6615C159.81 33.8886 165.063 29.0619 172.401 29.0619C180.326 29.0619 186.003 34.2726 186.204 41.7242V42.2727H158.62L158.705 41.6615Z" fill="#22294D"/>
<path d="M224.046 0.361084H211.03V74.7517H224.046V0.361084Z" fill="#22294D"/>
<path d="M252 0.361084H238.984V74.7517H252V0.361084Z" fill="#22294D"/>
<path d="M69.9057 9.78769C67.2485 9.78769 64.545 10.8376 61.8569 12.8827L43.1176 33.5529L39.2554 30.3717C37.1286 28.7096 34.509 27.8285 31.8246 27.8721C27.7645 27.9797 23.8634 29.4951 20.771 32.166L36.2197 44.5618C38.1532 46.1335 40.5475 47.0074 43.0249 47.0457C45.3405 47.0409 47.5804 46.2086 49.3512 44.695L77.9931 13.2432C75.39 10.916 72.671 9.78769 69.9057 9.78769Z" fill="#5484E1"/>
<path d="M70.8247 39.4915C70.8326 35.9578 70.3568 32.44 69.4112 29.0389L57.2839 42.3593C56.1948 55.3037 47.7057 63.8052 35.4626 63.8052C22.2771 63.8052 13.4172 54.0343 13.4172 39.515C13.4043 37.1135 13.6634 34.7184 14.1897 32.3769L14.0661 32.2828L14.236 32.1496C16.6846 21.791 24.4708 15.4207 35.4471 15.4207C40.5208 15.3048 45.471 17.0147 49.4205 20.2474L57.6547 11.1896C51.3038 6.21631 43.4852 3.56065 35.4626 3.65177C15.2479 3.65177 0 19.0721 0 39.515C0 59.958 15.2479 75.441 35.4626 75.441C38.4696 75.4411 41.4655 75.0701 44.3842 74.3362H44.531L44.67 74.3754L67.4183 81.6389L59.3927 66.5241L59.6939 66.2421C66.8699 59.527 70.8247 50.0225 70.8247 39.4915Z" fill="#22294D"/>
</svg>
