<svg width="81" height="71" viewBox="0 0 81 71" fill="none" xmlns="http://www.w3.org/2000/svg">
<path d="M37.2542 6.28969C32.6464 9.07032 28.3679 12.3637 24.5006 16.107C22.0391 18.5197 19.8824 21.2249 18.0785 24.1622C16.864 26.1672 16.0535 28.3907 15.6929 30.7071C15.4579 32.4598 15.3301 34.2251 15.3104 35.9934C15.3104 39.8599 17.3236 41.7831 21.35 41.7831C30.7449 41.7831 35.4423 45.9819 35.4423 54.3794C35.4423 65.1198 30.3221 70.4899 20.0817 70.4899C6.66036 70.4899 -0.050293 62.5186 -0.050293 46.5759C-0.050293 36.3324 2.80173 27.5186 8.50579 20.1346C14.2098 12.7507 22.5344 6.19236 33.4795 0.459717L37.2542 6.28969ZM80.5379 6.28969C75.9423 9.0702 71.6772 12.3637 67.8246 16.107C65.3631 18.5197 63.2063 21.2249 61.4025 24.1622C60.1834 26.1651 59.3727 28.3894 59.0169 30.7071C58.7818 32.4598 58.6541 34.2251 58.6344 35.9934C58.6344 39.8599 60.557 41.7831 64.4223 41.7831C73.985 41.7831 78.7663 45.9819 78.7663 54.3794C78.7663 65.1198 73.6494 70.4899 63.4157 70.4899C49.9944 70.4899 43.2837 62.5186 43.2837 46.5759C43.2837 36.3324 46.0921 27.5186 51.709 20.1346C57.3258 12.7507 65.5933 6.19236 76.5115 0.459717L80.5379 6.28969Z" fill="#C2D4F5"/>
</svg>
