<svg width="485" height="402" viewBox="0 0 485 402" fill="none" xmlns="http://www.w3.org/2000/svg">
<path d="M138.231 164.291L337.876 164.291C342.779 164.291 346.753 160.317 346.753 155.414V9.24295C346.753 4.3403 342.779 0.365906 337.876 0.365906L138.231 0.365906C133.328 0.365906 129.354 4.3403 129.354 9.24295L129.354 155.414C129.354 160.317 133.328 164.291 138.231 164.291Z" fill="white"/>
<path d="M337.876 164.657H138.231C135.78 164.654 133.431 163.68 131.698 161.947C129.965 160.214 128.991 157.865 128.988 155.414V9.24296C128.991 6.7924 129.965 4.44299 131.698 2.71019C133.431 0.977381 135.78 0.00270345 138.231 0L337.876 0C340.327 0.00270323 342.676 0.977366 344.409 2.71016C346.142 4.44295 347.117 6.79236 347.119 9.24296V155.414C347.117 157.865 346.142 160.214 344.409 161.947C342.676 163.68 340.327 164.654 337.876 164.657ZM138.231 0.731834C135.974 0.73442 133.811 1.63196 132.215 3.22754C130.62 4.82313 129.722 6.98646 129.72 9.24296V155.414C129.722 157.67 130.62 159.834 132.215 161.429C133.811 163.025 135.974 163.923 138.231 163.925H337.876C340.133 163.923 342.296 163.025 343.892 161.429C345.487 159.834 346.385 157.671 346.388 155.414V9.24296C346.385 6.98642 345.487 4.82309 343.892 3.22751C342.296 1.63194 340.133 0.73442 337.876 0.731834H138.231Z" fill="#292A2E"/>
<path d="M155.225 14.1366L140.956 15.4896C139.482 15.6294 138.401 16.9374 138.54 18.4111L139.893 32.6801C140.033 34.1538 141.341 35.2352 142.815 35.0955L157.084 33.7424C158.558 33.6026 159.639 32.2946 159.499 30.8209L158.146 16.552C158.006 15.0782 156.698 13.9968 155.225 14.1366Z" fill="#292A2E"/>
<path d="M195.859 45.09L181.608 43.5568C180.136 43.3984 178.815 44.4632 178.656 45.9351L177.123 60.1858C176.965 61.6576 178.029 62.9792 179.501 63.1376L193.752 64.6708C195.224 64.8292 196.545 63.7644 196.704 62.2925L198.237 48.0418C198.395 46.57 197.331 45.2484 195.859 45.09Z" fill="white"/>
<path d="M194.044 65.1308C193.93 65.1307 193.817 65.1246 193.704 65.1126L179.454 63.5792C178.63 63.4897 177.876 63.0771 177.356 62.4319C176.836 61.7868 176.594 60.9619 176.682 60.1381L178.215 45.8882C178.259 45.4801 178.383 45.0847 178.579 44.7246C178.776 44.3644 179.042 44.0465 179.361 43.789C179.681 43.5315 180.048 43.3395 180.442 43.2239C180.835 43.1083 181.248 43.0714 181.656 43.1154L195.906 44.6488C196.73 44.7376 197.485 45.15 198.005 45.7953C198.525 46.4406 198.767 47.266 198.679 48.0899L197.145 62.3398C197.063 63.1053 196.701 63.8135 196.129 64.3286C195.557 64.8436 194.814 65.1293 194.044 65.1308ZM193.799 64.2293C194.389 64.2928 194.979 64.1194 195.441 63.7473C195.903 63.3752 196.198 62.8349 196.262 62.2452L197.796 47.9949C197.859 47.4051 197.685 46.8142 197.313 46.3523C196.941 45.8904 196.401 45.5952 195.811 45.5316L181.56 43.9986C181.268 43.9672 180.973 43.9936 180.691 44.0763C180.409 44.1591 180.146 44.2965 179.918 44.4808C179.689 44.6651 179.499 44.8926 179.358 45.1504C179.217 45.4082 179.129 45.6912 179.097 45.9832L177.564 60.2331C177.501 60.8228 177.675 61.4133 178.047 61.8751C178.419 62.3369 178.959 62.6322 179.549 62.6964L193.799 64.2293Z" fill="#292A2E"/>
<path d="M259.093 67.6841C259.02 67.6842 258.948 67.6664 258.884 67.6321C258.819 67.5979 258.765 67.5483 258.724 67.4878C249.682 54.0386 235.965 51.59 226.047 51.9008C219.34 52.1562 212.719 53.4916 206.437 55.8558C206.329 55.8997 206.207 55.8991 206.099 55.8539C205.991 55.8087 205.905 55.7226 205.86 55.6145C205.815 55.5063 205.815 55.3848 205.859 55.2764C205.904 55.168 205.989 55.0814 206.097 55.0356C212.478 52.6323 219.205 51.274 226.019 51.0131C236.157 50.6943 250.192 53.206 259.461 66.9918C259.506 67.0586 259.532 67.1364 259.536 67.2168C259.54 67.2971 259.522 67.3771 259.485 67.4482C259.447 67.5193 259.39 67.5787 259.321 67.6202C259.252 67.6617 259.173 67.6836 259.093 67.6837V67.6841Z" fill="#292A2E"/>
<path d="M259.257 67.8658C259.216 67.8657 259.175 67.86 259.136 67.849L250.037 65.2791C249.923 65.2471 249.827 65.1714 249.77 65.0687C249.712 64.9659 249.698 64.8445 249.73 64.7311C249.762 64.6178 249.838 64.5217 249.94 64.4642C250.043 64.4067 250.165 64.3923 250.278 64.4243L258.95 66.8729L261.399 58.201C261.433 58.0902 261.509 57.9972 261.611 57.9419C261.713 57.8865 261.832 57.8731 261.944 57.9047C262.056 57.9362 262.15 58.0102 262.208 58.1107C262.266 58.2112 262.282 58.3303 262.253 58.4426L259.684 67.5417C259.658 67.6348 259.602 67.7169 259.525 67.7754C259.448 67.8339 259.354 67.8657 259.257 67.8658Z" fill="#292A2E"/>
<path d="M273.529 71.8494L259.26 73.2025C257.786 73.3423 256.704 74.6503 256.844 76.124L258.197 90.393C258.337 91.8667 259.645 92.9481 261.119 92.8084L275.388 91.4553C276.861 91.3155 277.943 90.0075 277.803 88.5338L276.45 74.2649C276.31 72.7911 275.002 71.7097 273.529 71.8494Z" fill="#367CFF"/>
<path d="M320.163 27.983L305.86 27.0634C304.382 26.9684 303.108 28.089 303.013 29.5663L302.093 43.8697C301.998 45.347 303.119 46.6216 304.596 46.7166L318.899 47.6363C320.377 47.7313 321.651 46.6107 321.746 45.1334L322.666 30.83C322.761 29.3526 321.64 28.078 320.163 27.983Z" fill="#292A2E"/>
<path d="M328.245 74.6596L313.994 73.1263C312.522 72.968 311.201 74.0328 311.042 75.5047L309.509 89.7553C309.351 91.2272 310.415 92.5488 311.887 92.7071L326.138 94.2404C327.61 94.3988 328.931 93.334 329.09 91.8621L330.623 77.6114C330.781 76.1395 329.717 74.818 328.245 74.6596Z" fill="#0CBC8B"/>
<path d="M250.018 121.082L235.749 122.435C234.275 122.574 233.193 123.882 233.333 125.356L234.686 139.625C234.826 141.099 236.134 142.18 237.608 142.041L251.877 140.687C253.351 140.548 254.432 139.24 254.292 137.766L252.939 123.497C252.799 122.023 251.491 120.942 250.018 121.082Z" fill="white"/>
<path d="M237.353 142.497C236.576 142.496 235.828 142.205 235.253 141.682C234.678 141.159 234.319 140.441 234.245 139.667L232.892 125.398C232.814 124.574 233.067 123.752 233.595 123.113C234.123 122.475 234.883 122.072 235.707 121.993L249.976 120.64C250.384 120.601 250.796 120.643 251.188 120.764C251.581 120.884 251.945 121.081 252.262 121.342C252.578 121.604 252.839 121.925 253.032 122.288C253.224 122.65 253.342 123.047 253.381 123.456L254.734 137.724C254.812 138.549 254.558 139.371 254.031 140.009C253.503 140.648 252.743 141.051 251.919 141.13L237.651 142.483C237.55 142.492 237.451 142.497 237.353 142.497ZM250.276 121.514C250.205 121.514 250.133 121.517 250.061 121.524L235.791 122.876C235.201 122.932 234.657 123.221 234.279 123.678C233.901 124.135 233.72 124.723 233.775 125.314L235.128 139.582C235.185 140.172 235.474 140.715 235.931 141.093C236.388 141.471 236.976 141.652 237.566 141.597L251.834 140.244C252.425 140.188 252.968 139.899 253.346 139.442C253.724 138.985 253.905 138.397 253.85 137.806L252.497 123.538C252.444 122.984 252.187 122.47 251.776 122.096C251.365 121.721 250.83 121.513 250.274 121.512L250.276 121.514Z" fill="#292A2E"/>
<path d="M158.013 116.256L143.744 117.609C142.27 117.749 141.189 119.057 141.328 120.53L142.681 134.799C142.821 136.273 144.129 137.354 145.603 137.215L159.872 135.862C161.346 135.722 162.427 134.414 162.287 132.94L160.934 118.671C160.794 117.197 159.486 116.116 158.013 116.256Z" fill="#367CFF"/>
<path d="M272.173 64.5795C272.156 64.5795 272.139 64.5786 272.122 64.5769C272.064 64.5702 272.008 64.5522 271.957 64.5238C271.906 64.4955 271.861 64.4574 271.825 64.4117C271.789 64.366 271.762 64.3136 271.746 64.2575C271.73 64.2015 271.725 64.1428 271.732 64.0848C272.399 59.6015 273.785 55.2552 275.837 51.2133C280.277 42.6059 287.241 37.6691 295.971 36.9337C296.088 36.9238 296.205 36.9609 296.295 37.0369C296.385 37.1129 296.441 37.2216 296.451 37.3389C296.461 37.4563 296.424 37.5728 296.348 37.6628C296.272 37.7527 296.163 37.8088 296.046 37.8187C275.685 39.5311 272.643 63.9401 272.614 64.1865C272.601 64.2946 272.549 64.3944 272.468 64.4668C272.387 64.5393 272.282 64.5794 272.173 64.5795Z" fill="#292A2E"/>
<path d="M291.748 42.2195C291.66 42.2196 291.574 42.1936 291.501 42.1449C291.428 42.0962 291.371 42.027 291.337 41.9459C291.304 41.8648 291.295 41.7756 291.312 41.6894C291.329 41.6033 291.371 41.5241 291.433 41.4619L295.536 37.3405L291.415 33.2373C291.373 33.1964 291.339 33.1474 291.315 33.0933C291.292 33.0392 291.28 32.9809 291.279 32.922C291.278 32.863 291.289 32.8045 291.312 32.7499C291.334 32.6953 291.367 32.6457 291.408 32.6039C291.45 32.5621 291.499 32.529 291.554 32.5066C291.609 32.4841 291.667 32.4728 291.726 32.4732C291.785 32.4735 291.843 32.4857 291.897 32.5088C291.952 32.532 292.001 32.5657 292.042 32.608L296.477 37.0248C296.56 37.108 296.607 37.221 296.607 37.3387C296.607 37.4565 296.56 37.5694 296.477 37.6527L292.061 42.0885C292.02 42.1299 291.971 42.1628 291.917 42.1853C291.864 42.2078 291.806 42.2194 291.748 42.2195Z" fill="#292A2E"/>
<path d="M243.303 114.448C243.208 114.448 243.116 114.418 243.039 114.361C242.963 114.305 242.907 114.225 242.879 114.134C242.813 113.917 236.426 92.3502 252.959 83.4043C253.011 83.3752 253.067 83.3567 253.126 83.3497C253.184 83.3428 253.244 83.3477 253.301 83.364C253.357 83.3803 253.41 83.4078 253.456 83.4448C253.502 83.4818 253.54 83.5276 253.569 83.5796C253.597 83.6315 253.614 83.6885 253.62 83.7473C253.626 83.806 253.62 83.8654 253.602 83.9218C253.585 83.9782 253.556 84.0306 253.518 84.0758C253.48 84.1211 253.434 84.1584 253.381 84.1854C237.493 92.7814 243.665 113.662 243.729 113.872C243.749 113.939 243.754 114.009 243.742 114.077C243.73 114.146 243.703 114.211 243.662 114.266C243.62 114.322 243.566 114.368 243.504 114.399C243.442 114.43 243.374 114.446 243.305 114.446L243.303 114.448Z" fill="#292A2E"/>
<path d="M251.27 89.3283C251.198 89.3282 251.127 89.3106 251.063 89.2768C250.999 89.2431 250.945 89.1943 250.904 89.1347C250.863 89.0751 250.838 89.0064 250.83 88.9347C250.821 88.8629 250.831 88.7903 250.857 88.723L252.71 83.9639L247.95 82.1094C247.843 82.0653 247.757 81.9807 247.711 81.8738C247.665 81.7668 247.663 81.6462 247.705 81.5377C247.747 81.4292 247.83 81.3416 247.936 81.2937C248.042 81.2458 248.163 81.2415 248.272 81.2817L253.445 83.2951C253.5 83.3163 253.549 83.3479 253.592 83.3883C253.634 83.4286 253.667 83.4769 253.691 83.5303C253.714 83.5837 253.727 83.6412 253.728 83.6995C253.73 83.7578 253.719 83.8158 253.698 83.8702L251.684 89.0432C251.652 89.127 251.595 89.199 251.522 89.2499C251.448 89.3008 251.36 89.3281 251.27 89.3283Z" fill="#292A2E"/>
<path d="M188.073 41.0957C187.955 41.0957 187.842 41.049 187.759 40.9657C187.675 40.8824 187.628 40.7694 187.628 40.6517C187.628 33.9057 185.638 28.7563 181.71 25.3466C174.738 19.2952 163.894 20.754 163.785 20.7696C163.669 20.7862 163.55 20.7559 163.456 20.6852C163.362 20.6146 163.299 20.5094 163.283 20.3928C163.266 20.2762 163.296 20.1577 163.367 20.0635C163.438 19.9693 163.543 19.907 163.66 19.8903C164.119 19.8241 175.006 18.3556 182.288 24.6721C186.421 28.258 188.517 33.6344 188.517 40.6517C188.517 40.71 188.505 40.7677 188.483 40.8216C188.461 40.8755 188.428 40.9244 188.387 40.9657C188.345 41.0069 188.296 41.0396 188.243 41.0619C188.189 41.0843 188.131 41.0957 188.073 41.0957Z" fill="#292A2E"/>
<path d="M188.094 41.2546C188.08 41.2546 188.066 41.2546 188.052 41.2546C187.994 41.2492 187.938 41.2323 187.886 41.2051C187.834 41.1778 187.789 41.1406 187.752 41.0957L183.758 36.2735C183.683 36.1827 183.647 36.0658 183.658 35.9485C183.669 35.8312 183.726 35.7231 183.817 35.648C183.908 35.5728 184.024 35.5368 184.142 35.5479C184.259 35.5589 184.367 35.6161 184.442 35.7068L188.154 40.1889L192.634 36.4799C192.679 36.4428 192.731 36.4148 192.787 36.3977C192.842 36.3805 192.901 36.3745 192.959 36.38C193.017 36.3855 193.073 36.4023 193.125 36.4296C193.177 36.4569 193.222 36.4941 193.259 36.539C193.297 36.5839 193.325 36.6358 193.342 36.6915C193.359 36.7472 193.365 36.8058 193.359 36.8639C193.354 36.9219 193.337 36.9783 193.31 37.0299C193.282 37.0814 193.245 37.1271 193.2 37.1643L188.376 41.1543C188.297 41.2194 188.197 41.2549 188.094 41.2546Z" fill="#292A2E"/>
<path d="M197.912 90.0842H183.579C182.099 90.0842 180.899 91.2843 180.899 92.7647V107.098C180.899 108.578 182.099 109.778 183.579 109.778H197.912C199.393 109.778 200.593 108.578 200.593 107.098V92.7647C200.593 91.2843 199.393 90.0842 197.912 90.0842Z" fill="#0CBC8B"/>
<path d="M234.416 116.278C234.317 116.278 234.221 116.245 234.144 116.184C234.066 116.123 234.01 116.038 233.986 115.942C229.035 96.1365 204.827 97.5255 204.586 97.542C204.528 97.5459 204.47 97.5383 204.414 97.5196C204.359 97.5009 204.308 97.4715 204.264 97.4331C204.22 97.3946 204.184 97.3479 204.158 97.2955C204.132 97.2431 204.116 97.1862 204.112 97.1279C204.108 97.0695 204.116 97.011 204.135 96.9556C204.153 96.9003 204.183 96.8491 204.221 96.8051C204.26 96.7611 204.306 96.725 204.359 96.6991C204.411 96.6731 204.468 96.6577 204.526 96.6538C208.985 96.5029 213.438 97.089 217.706 98.3884C224.044 100.368 232.163 104.984 234.847 115.725C234.862 115.781 234.864 115.84 234.856 115.898C234.847 115.955 234.827 116.011 234.797 116.061C234.767 116.111 234.728 116.155 234.681 116.189C234.634 116.224 234.581 116.249 234.524 116.263C234.489 116.273 234.453 116.278 234.416 116.278Z" fill="#292A2E"/>
<path d="M234.478 116.428C234.386 116.428 234.296 116.399 234.221 116.346L229.195 112.78C229.099 112.711 229.034 112.608 229.015 112.492C228.995 112.375 229.022 112.256 229.091 112.16C229.159 112.064 229.262 111.999 229.379 111.98C229.495 111.96 229.614 111.987 229.71 112.056L234.368 115.361L237.688 110.547C237.755 110.451 237.858 110.385 237.973 110.364C238.089 110.344 238.208 110.369 238.304 110.436C238.401 110.503 238.467 110.605 238.488 110.72C238.51 110.835 238.485 110.954 238.419 111.051L234.843 116.236C234.81 116.285 234.767 116.326 234.718 116.358C234.668 116.39 234.613 116.411 234.555 116.421C234.53 116.426 234.504 116.428 234.478 116.428Z" fill="#292A2E"/>
<path d="M452.794 402L453.666 401.832L440.035 266.375L439.163 266.543L452.794 402Z" fill="#494949"/>
<path d="M402.037 402L402.91 401.832L389.279 266.375L388.406 266.543L402.037 402Z" fill="#494949"/>
<path d="M289.843 402L288.971 401.832L302.602 266.375L303.474 266.543L289.843 402Z" fill="#494949"/>
<path d="M340.6 402L339.728 401.832L353.358 266.375L354.231 266.543L340.6 402Z" fill="#494949"/>
<path d="M358.672 206.757L350.709 266.398L351.59 266.516L359.553 206.875L358.672 206.757Z" fill="#494949"/>
<path d="M450.073 206.757L442.11 266.398L442.99 266.515L450.953 206.875L450.073 206.757Z" fill="#494949"/>
<path d="M350.79 270.827H440.191C442.603 270.827 444.558 268.872 444.558 266.459V266.459C444.558 264.047 442.603 262.092 440.191 262.092H350.79C348.378 262.092 346.422 264.047 346.422 266.459V266.459C346.422 268.872 348.378 270.827 350.79 270.827Z" fill="#292A2E"/>
<path opacity="0.8" d="M350.79 270.827H440.191C442.603 270.827 444.558 268.872 444.558 266.459V266.459C444.558 264.047 442.603 262.092 440.191 262.092H350.79C348.378 262.092 346.422 264.047 346.422 266.459V266.459C346.422 268.872 348.378 270.827 350.79 270.827Z" fill="white"/>
<path d="M345.978 266.46C345.98 265.184 346.487 263.961 347.389 263.059C348.291 262.157 349.514 261.65 350.79 261.648H440.191C441.467 261.648 442.691 262.155 443.593 263.058C444.495 263.96 445.002 265.184 445.002 266.46C445.002 267.736 444.495 268.96 443.593 269.862C442.691 270.765 441.467 271.272 440.191 271.272H350.79C349.514 271.27 348.291 270.762 347.389 269.86C346.487 268.958 345.98 267.735 345.978 266.46ZM350.79 262.536C349.749 262.536 348.751 262.949 348.016 263.685C347.28 264.421 346.866 265.419 346.866 266.46C346.866 267.5 347.28 268.498 348.016 269.234C348.751 269.97 349.749 270.383 350.79 270.383H440.191C441.231 270.383 442.229 269.97 442.965 269.234C443.701 268.498 444.114 267.5 444.114 266.46C444.114 265.419 443.701 264.421 442.965 263.685C442.229 262.949 441.231 262.536 440.191 262.536H350.79Z" fill="#292A2E"/>
<path d="M301.722 270.827H391.123C393.535 270.827 395.49 268.872 395.49 266.459V266.459C395.49 264.047 393.535 262.092 391.123 262.092H301.722C299.31 262.092 297.354 264.047 297.354 266.459V266.459C297.354 268.872 299.31 270.827 301.722 270.827Z" fill="white"/>
<path d="M296.908 266.46C296.91 265.184 297.418 263.96 298.32 263.058C299.222 262.156 300.446 261.649 301.722 261.648H391.123C392.399 261.648 393.623 262.155 394.525 263.058C395.427 263.96 395.934 265.184 395.934 266.46C395.934 267.736 395.427 268.96 394.525 269.862C393.623 270.765 392.399 271.272 391.123 271.272H301.722C300.446 271.27 299.222 270.763 298.32 269.861C297.417 268.959 296.91 267.736 296.908 266.46ZM301.722 262.537C301.207 262.537 300.696 262.638 300.22 262.835C299.744 263.032 299.312 263.321 298.948 263.686C298.583 264.05 298.294 264.483 298.097 264.959C297.9 265.435 297.798 265.945 297.798 266.46C297.798 266.975 297.9 267.485 298.097 267.961C298.294 268.437 298.583 268.87 298.948 269.234C299.312 269.599 299.744 269.888 300.22 270.085C300.696 270.282 301.207 270.383 301.722 270.383H391.123C392.163 270.383 393.161 269.97 393.897 269.234C394.633 268.498 395.046 267.501 395.046 266.46C395.046 265.419 394.633 264.421 393.897 263.686C393.161 262.95 392.163 262.537 391.123 262.537H301.722Z" fill="#292A2E"/>
<path d="M363.574 206.818H450.279C451.696 206.818 453.065 206.302 454.13 205.367C455.196 204.432 455.884 203.14 456.067 201.735L461.802 157.691C461.909 156.867 461.839 156.031 461.598 155.236C461.356 154.442 460.947 153.709 460.4 153.085C459.852 152.461 459.177 151.961 458.421 151.619C457.665 151.277 456.844 151.1 456.014 151.1H369.31C367.891 151.099 366.522 151.615 365.456 152.551C364.391 153.486 363.702 154.778 363.519 156.184L357.784 200.228C357.677 201.051 357.747 201.888 357.989 202.682C358.231 203.476 358.639 204.21 359.187 204.834C359.735 205.458 360.41 205.957 361.167 206.3C361.923 206.642 362.744 206.819 363.574 206.818Z" fill="#292A2E"/>
<path opacity="0.8" d="M363.574 206.818H450.279C451.696 206.818 453.065 206.302 454.13 205.367C455.196 204.432 455.884 203.14 456.067 201.735L461.802 157.691C461.909 156.867 461.839 156.031 461.598 155.236C461.356 154.442 460.947 153.709 460.4 153.085C459.852 152.461 459.177 151.961 458.421 151.619C457.665 151.277 456.844 151.1 456.014 151.1H369.31C367.891 151.099 366.522 151.615 365.456 152.551C364.391 153.486 363.702 154.778 363.519 156.184L357.784 200.228C357.677 201.051 357.747 201.888 357.989 202.682C358.231 203.476 358.639 204.21 359.187 204.834C359.735 205.458 360.41 205.957 361.167 206.3C361.923 206.642 362.744 206.819 363.574 206.818Z" fill="white"/>
<path d="M358.856 205.126C358.267 204.455 357.827 203.666 357.567 202.811C357.306 201.957 357.231 201.056 357.347 200.17L363.082 156.127C363.282 154.616 364.024 153.228 365.169 152.222C366.314 151.216 367.786 150.66 369.31 150.656H456.015C456.908 150.656 457.791 150.847 458.605 151.215C459.419 151.584 460.145 152.122 460.734 152.793C461.324 153.464 461.763 154.254 462.024 155.108C462.284 155.963 462.359 156.863 462.243 157.749L456.508 201.792C456.308 203.303 455.567 204.691 454.421 205.697C453.276 206.703 451.804 207.259 450.28 207.263H363.574C362.681 207.262 361.799 207.072 360.985 206.703C360.172 206.335 359.446 205.797 358.856 205.126ZM369.31 151.545C368.001 151.548 366.738 152.026 365.755 152.89C364.772 153.753 364.135 154.944 363.963 156.242L358.228 200.285C358.129 201.046 358.193 201.819 358.417 202.552C358.64 203.286 359.018 203.964 359.524 204.54C360.03 205.116 360.653 205.578 361.352 205.895C362.051 206.211 362.809 206.374 363.576 206.374H450.28C451.589 206.372 452.853 205.894 453.836 205.03C454.82 204.166 455.456 202.975 455.628 201.678L461.363 157.634C461.462 156.874 461.398 156.101 461.174 155.367C460.951 154.633 460.574 153.955 460.068 153.379C459.562 152.803 458.938 152.341 458.24 152.025C457.541 151.708 456.783 151.545 456.016 151.545H369.31Z" fill="#292A2E"/>
<path d="M358.671 206.818H445.375C446.793 206.818 448.162 206.302 449.227 205.367C450.292 204.432 450.981 203.14 451.164 201.735L456.899 157.691C457.006 156.867 456.937 156.031 456.695 155.236C456.453 154.442 456.044 153.709 455.497 153.085C454.949 152.461 454.274 151.961 453.518 151.619C452.761 151.277 451.941 151.1 451.111 151.1H364.407C362.99 151.1 361.621 151.615 360.556 152.551C359.491 153.486 358.802 154.777 358.619 156.183L352.884 200.226C352.777 201.049 352.846 201.886 353.088 202.68C353.329 203.475 353.738 204.208 354.285 204.832C354.833 205.456 355.508 205.956 356.264 206.299C357.02 206.641 357.841 206.818 358.671 206.818Z" fill="white"/>
<path d="M353.952 205.126C353.362 204.455 352.922 203.666 352.662 202.811C352.402 201.957 352.327 201.056 352.442 200.17L358.177 156.127C358.377 154.615 359.119 153.228 360.265 152.222C361.411 151.216 362.882 150.66 364.407 150.656H451.111C452.005 150.656 452.888 150.847 453.702 151.215C454.516 151.584 455.242 152.122 455.831 152.793C456.421 153.464 456.86 154.254 457.12 155.108C457.381 155.963 457.455 156.863 457.34 157.749L451.605 201.792C451.405 203.303 450.663 204.691 449.518 205.697C448.372 206.703 446.901 207.259 445.376 207.263H358.671C357.778 207.262 356.895 207.072 356.081 206.703C355.267 206.335 354.541 205.797 353.952 205.126ZM364.407 151.545C363.098 151.548 361.835 152.025 360.851 152.889C359.868 153.753 359.231 154.944 359.059 156.242L353.324 200.285C353.225 201.046 353.289 201.819 353.513 202.552C353.736 203.286 354.114 203.964 354.62 204.54C355.126 205.116 355.749 205.578 356.448 205.895C357.147 206.211 357.905 206.374 358.672 206.374H445.375C446.684 206.372 447.948 205.894 448.931 205.03C449.915 204.166 450.551 202.975 450.723 201.678L456.458 157.635C456.557 156.874 456.493 156.101 456.27 155.367C456.046 154.633 455.669 153.956 455.163 153.379C454.657 152.803 454.033 152.341 453.335 152.025C452.636 151.708 451.878 151.545 451.11 151.545H364.407Z" fill="#292A2E"/>
<path d="M293.142 378.535C293.142 378.535 290.761 390.878 279.205 391.566C267.649 392.254 270.155 401.459 270.155 401.459H314.316V379.396L293.142 378.535Z" fill="#367CFF"/>
<path d="M332.765 370.743C332.765 370.743 336.077 382.869 326.011 388.587C315.946 394.305 322.258 401.459 322.258 401.459L361.883 381.964L352.144 362.169L332.765 370.743Z" fill="#367CFF"/>
<path d="M357.308 367.317L323.892 261.899H384.464C396.631 261.899 401.703 251.581 401.703 239.414C401.703 227.247 389.742 216.581 377.575 216.581H295.825C288.405 216.581 280.084 221.12 276.011 227.323C271.938 233.527 273.039 243.141 275.989 249.949L329.5 379.915" fill="#262626"/>
<path opacity="0.8" d="M357.308 367.317L323.892 261.899H384.464C396.631 261.899 401.703 251.581 401.703 239.414C401.703 227.247 389.742 216.581 377.575 216.581H295.825C288.405 216.581 280.084 221.12 276.011 227.323C271.938 233.527 273.039 243.141 275.989 249.949L329.5 379.915" fill="#0A0A0A"/>
<path d="M317.768 387.383L328.337 261.899L401.702 261.894C418.893 260.547 426.765 251.125 426.515 238.961C426.268 226.951 420.187 215.089 408.231 215.089H309.351C300.505 215.27 290.264 223.638 290.264 233.262L285.125 385.925" fill="#262626"/>
<path d="M431.521 215.236C431.521 215.236 434.779 236.483 429.615 248.296C423.167 263.044 398.997 261.894 398.997 261.894L400.359 215.089L431.521 215.236Z" fill="#262626"/>
<path d="M435.112 212.834L435.206 212.84C435.206 212.84 435.138 211.03 435.112 212.834Z" fill="#333333"/>
<path d="M434.994 212.834L435.088 212.84C435.088 212.84 435.02 211.03 434.994 212.834Z" fill="#333333"/>
<path d="M277.709 126.694C277.882 126.352 278.157 126.072 278.496 125.892C278.835 125.713 279.221 125.643 279.602 125.692C279.599 125.659 279.606 125.625 279.623 125.595C279.64 125.572 279.664 125.555 279.69 125.544C279.717 125.533 279.746 125.529 279.775 125.533L278.491 124.613C278.108 124.35 277.833 123.958 277.716 123.508C277.6 123.058 277.65 122.581 277.857 122.165C278.076 121.76 278.437 121.452 278.87 121.298C279.304 121.145 279.778 121.158 280.203 121.335C280.2 121.316 280.212 121.299 280.214 121.281L279.687 120.903C279.327 120.654 279.063 120.288 278.942 119.867C278.82 119.446 278.847 118.996 279.018 118.593C279.132 118.343 279.299 118.12 279.508 117.942C279.718 117.764 279.964 117.635 280.23 117.563C280.495 117.492 280.773 117.48 281.044 117.529C281.314 117.578 281.571 117.687 281.794 117.847L283.012 118.719C283.015 118.712 283.012 118.704 283.016 118.697C283.021 118.69 283.034 118.688 283.041 118.68C282.762 118.366 282.598 117.966 282.575 117.546C282.553 117.126 282.674 116.711 282.919 116.369C283.493 115.444 284.819 115.633 285.606 116.197L292.77 121.145L291.49 118.985C291.232 118.57 291.142 118.073 291.236 117.594C291.331 117.115 291.604 116.689 292 116.404C292.21 116.263 292.446 116.167 292.694 116.121C292.942 116.075 293.196 116.08 293.442 116.136C293.688 116.192 293.921 116.297 294.125 116.445C294.329 116.594 294.5 116.782 294.629 116.999L301.62 128.767C302.44 130.147 302.69 131.794 302.315 133.355C301.941 134.917 300.973 136.271 299.616 137.13C298.042 138.127 296.207 138.631 294.346 138.577C292.484 138.524 290.681 137.915 289.167 136.83L278.349 129.077C277.99 128.81 277.731 128.429 277.615 127.997C277.499 127.564 277.532 127.105 277.709 126.694Z" fill="#E98862"/>
<g opacity="0.25">
<path d="M290.1 123.605C290.074 123.641 290.034 123.666 289.99 123.673C289.946 123.68 289.901 123.67 289.864 123.645L283.058 118.931C283.021 118.905 282.996 118.865 282.988 118.821C282.98 118.776 282.99 118.731 283.016 118.693C283.041 118.656 283.081 118.631 283.125 118.622C283.17 118.614 283.216 118.624 283.253 118.649L290.059 123.364C290.078 123.376 290.094 123.393 290.106 123.412C290.119 123.43 290.127 123.452 290.131 123.474C290.135 123.496 290.135 123.519 290.13 123.541C290.126 123.563 290.117 123.584 290.104 123.602L290.1 123.605Z" fill="#0C0C0C"/>
</g>
<g opacity="0.25">
<path d="M288.104 126.664C288.078 126.7 288.039 126.725 287.994 126.732C287.95 126.74 287.905 126.729 287.868 126.704L280.274 121.443C280.237 121.417 280.211 121.378 280.203 121.333C280.195 121.288 280.204 121.242 280.23 121.205C280.257 121.168 280.296 121.144 280.34 121.135C280.385 121.127 280.431 121.136 280.468 121.16L288.064 126.421C288.083 126.434 288.099 126.45 288.111 126.469C288.123 126.488 288.132 126.509 288.136 126.531C288.14 126.553 288.14 126.576 288.135 126.598C288.13 126.62 288.122 126.641 288.109 126.66L288.104 126.664Z" fill="#0C0C0C"/>
</g>
<g opacity="0.25">
<path d="M285.961 129.99C285.935 130.026 285.895 130.05 285.851 130.058C285.807 130.065 285.762 130.055 285.725 130.03L279.666 125.833C279.63 125.807 279.606 125.767 279.598 125.723C279.591 125.679 279.601 125.634 279.627 125.597C279.652 125.56 279.691 125.535 279.735 125.527C279.779 125.518 279.824 125.527 279.861 125.551L285.92 129.748C285.939 129.761 285.955 129.777 285.967 129.796C285.979 129.815 285.988 129.836 285.992 129.858C285.996 129.88 285.996 129.903 285.991 129.925C285.986 129.947 285.977 129.968 285.965 129.986L285.961 129.99Z" fill="#0C0C0C"/>
</g>
<path d="M305.745 126.088L326.275 161.054L351.327 128.195L372.131 146.952L336.601 192.965L336.368 193.292C334.946 195.24 333.051 196.794 330.863 197.807C328.674 198.82 326.264 199.259 323.858 199.083C321.453 198.907 319.132 198.122 317.115 196.801C315.097 195.48 313.449 193.667 312.325 191.533L283.13 138.663L305.745 126.088Z" fill="#367CFF"/>
<path d="M328.287 165.258C328.331 165.258 328.375 165.247 328.414 165.225C328.453 165.203 328.486 165.172 328.509 165.134C328.532 165.096 328.546 165.052 328.547 165.008C328.549 164.963 328.539 164.919 328.519 164.879L326.506 160.935C326.474 160.876 326.419 160.832 326.354 160.812C326.29 160.792 326.22 160.798 326.159 160.829C326.099 160.86 326.053 160.913 326.031 160.977C326.009 161.041 326.013 161.111 326.041 161.172L328.054 165.116C328.076 165.159 328.109 165.195 328.15 165.22C328.191 165.245 328.239 165.258 328.287 165.258Z" fill="#0C0C0C"/>
<path d="M352.77 160.855L352.249 160.885L352.876 171.928L353.396 171.899L352.77 160.855Z" fill="#0C0C0C"/>
<path d="M418.924 80.9279C418.924 80.9279 419.887 93.2207 422.706 97.6521C430.823 110.409 433.299 124.838 425.407 132.482C417.515 140.126 366.621 140.821 362.565 123.497C359.149 108.91 366.097 107.257 367.653 95.1738C368.356 89.7068 370.333 78.2363 370.333 78.2363" fill="#0A0A0A"/>
<path d="M375.521 120.725C375.61 120.714 376.584 136.89 395.377 135.481C408.389 134.506 413.027 120.702 413.325 120.702C411.922 120.404 409.56 119.971 408.937 119.637C406.888 118.536 404.354 117.39 403.693 113.412C403.313 111.119 403.96 99.3877 403.759 97.0674L383.788 101.525C384.067 106.425 386.02 117.784 379.175 119.795C378.036 120.129 376.809 120.435 375.521 120.725Z" fill="#E98862"/>
<path opacity="0.52" d="M383.508 115.154C383.821 114.146 384.023 113.106 384.109 112.054C384.329 109.654 384.285 107.236 383.979 104.845C388.038 104.297 391.862 102.622 395.017 100.009C395.387 101.379 397.427 107.363 396.862 108.665C395.795 111.125 390.779 115.154 383.508 115.154Z" fill="#0C0C0C"/>
<path d="M386.155 110.063C394.037 110.733 404.188 107.466 406.177 96.9568L407.971 87.474C409.961 76.9646 406.053 67.4019 396.159 65.5279C386.264 63.6552 377.256 70.7751 375.267 81.2845L374.472 85.4824C373.708 89.515 372.092 108.866 386.155 110.063Z" fill="#E98862"/>
<path d="M377.291 85.9403C377.976 85.9403 378.532 85.385 378.532 84.7C378.532 84.015 377.976 83.4597 377.291 83.4597C376.606 83.4597 376.051 84.015 376.051 84.7C376.051 85.385 376.606 85.9403 377.291 85.9403Z" fill="#0C0C0C"/>
<path d="M389.999 87.6376C390.684 87.6376 391.239 87.0823 391.239 86.3973C391.239 85.7123 390.684 85.157 389.999 85.157C389.314 85.157 388.759 85.7123 388.759 86.3973C388.759 87.0823 389.314 87.6376 389.999 87.6376Z" fill="#0C0C0C"/>
<path d="M383.025 95.491C383.019 95.4905 383.012 95.4896 383.006 95.4883C382.605 95.4092 382.209 95.3083 381.819 95.1859C381.237 94.9989 380.475 94.689 380.576 94.1645C380.689 93.5659 383.551 87.4146 383.878 86.7161C383.907 86.6549 383.958 86.6076 384.021 86.5845C384.085 86.5614 384.155 86.5644 384.216 86.5928C384.277 86.6213 384.324 86.6728 384.347 86.7362C384.37 86.7995 384.367 86.8694 384.339 86.9305C383.118 89.5506 381.151 93.8581 381.076 94.2578C381.141 94.4447 382.107 94.7995 383.101 94.9883C383.167 94.9999 383.225 95.0364 383.263 95.0901C383.302 95.1438 383.318 95.2105 383.308 95.2759C383.298 95.3413 383.263 95.4003 383.211 95.4404C383.158 95.4805 383.092 95.4985 383.026 95.4905L383.025 95.491Z" fill="#0C0C0C"/>
<path d="M384.49 100.029C382.876 99.8188 381.334 99.2329 379.988 98.3179C379.931 98.2811 379.892 98.2234 379.878 98.1574C379.864 98.0915 379.877 98.0227 379.914 97.9662C379.951 97.9097 380.008 97.8702 380.074 97.8563C380.14 97.8424 380.209 97.8553 380.265 97.8921C383.178 99.79 386.073 100.097 388.636 98.7802C388.687 98.7518 388.741 98.7264 388.795 98.7043C388.859 98.6814 388.929 98.6846 388.99 98.7132C389.051 98.7418 389.098 98.7934 389.121 98.8568C389.143 98.9202 389.14 98.99 389.112 99.051C389.083 99.112 389.031 99.1592 388.968 99.1821C388.948 99.1905 388.914 99.2083 388.868 99.2323C387.521 99.9273 385.996 100.205 384.49 100.029Z" fill="#0C0C0C"/>
<path d="M415.887 90.7789L407.017 89.1527C400.3 86.434 398.269 74.8046 398.269 74.8046C398.269 74.8046 390.109 82.758 370.337 78.2347C370.337 78.2347 374.302 50.6577 403.516 58.6759C412.935 61.2617 419.696 70.7547 418.854 83.441C418.261 92.3318 415.887 90.7789 415.887 90.7789Z" fill="#0A0A0A"/>
<path d="M404.957 100.042C407.963 100.611 411.01 97.8556 411.579 94.8466C412.148 91.8375 410.025 89.7197 407.017 89.1509L405.086 90.8726L402.371 99.5511L404.957 100.042Z" fill="#E98862"/>
<path d="M382.065 81.689C381.188 81.1225 380.174 80.8025 379.131 80.7627C378.617 80.7398 378.103 80.7941 377.606 80.9239C377.113 81.0504 376.638 81.2386 376.192 81.4838C376.135 81.5181 376.093 81.5724 376.074 81.6361C376.055 81.6998 376.061 81.7683 376.09 81.8282C376.119 81.888 376.169 81.9349 376.231 81.9596C376.292 81.9843 376.361 81.985 376.423 81.9617L376.442 81.9532C376.854 81.7516 377.29 81.6024 377.739 81.5091C378.183 81.4141 378.639 81.3868 379.091 81.4283C379.989 81.5031 380.85 81.8143 381.588 82.3302L381.612 82.3476C381.654 82.3826 381.703 82.4087 381.755 82.4241C381.808 82.4396 381.863 82.444 381.917 82.4373C381.972 82.4305 382.024 82.4126 382.071 82.3847C382.119 82.3568 382.159 82.3196 382.192 82.2752C382.224 82.2309 382.246 82.1804 382.258 82.1269C382.27 82.0734 382.271 82.0181 382.26 81.9643C382.25 81.9106 382.228 81.8595 382.197 81.8144C382.166 81.7692 382.126 81.7309 382.08 81.7019L382.065 81.689Z" fill="#0C0C0C"/>
<path d="M389.976 83.5515C390.85 83.3376 391.766 83.3586 392.629 83.6123C393.066 83.7373 393.482 83.9276 393.861 84.1767C394.246 84.4265 394.599 84.7237 394.909 85.0613L394.924 85.0755C394.973 85.1198 395.037 85.144 395.104 85.1433C395.17 85.1426 395.234 85.1171 395.283 85.0717C395.331 85.0264 395.361 84.9645 395.367 84.8983C395.372 84.832 395.352 84.7662 395.312 84.7136C394.985 84.3241 394.61 83.9772 394.196 83.6811C393.779 83.3804 393.32 83.1439 392.832 82.9795C391.845 82.6398 390.784 82.5722 389.762 82.7837C389.664 82.8115 389.581 82.8754 389.529 82.9623C389.477 83.0492 389.459 83.1527 389.481 83.2519C389.502 83.351 389.56 83.4384 389.643 83.4962C389.727 83.5541 389.829 83.5781 389.929 83.5635L389.945 83.5595L389.976 83.5515Z" fill="#0C0C0C"/>
<path d="M384.147 102.415C383.855 102.381 383.566 102.323 383.283 102.241C383.218 102.222 383.164 102.179 383.131 102.12C383.098 102.061 383.091 101.991 383.109 101.926C383.128 101.861 383.172 101.807 383.231 101.774C383.29 101.742 383.359 101.734 383.424 101.752C385.125 102.241 386.092 101.593 386.133 101.565C386.188 101.527 386.256 101.511 386.323 101.523C386.389 101.535 386.448 101.572 386.487 101.627C386.526 101.683 386.541 101.751 386.529 101.817C386.518 101.884 386.48 101.943 386.425 101.982C385.739 102.385 384.934 102.538 384.147 102.415Z" fill="#0C0C0C"/>
<path d="M406.998 89.0404L407.087 88.7948C395.848 84.7604 398.596 73.7314 398.625 73.6204L398.373 73.5542C398.343 73.6674 395.531 84.9238 406.998 89.0404Z" fill="#0C0C0C"/>
<path opacity="0.1" d="M393.534 94.7938C393.636 93.842 392.668 92.9573 391.37 92.8177C390.073 92.6781 388.938 93.3365 388.835 94.2882C388.733 95.24 389.702 96.1246 390.999 96.2642C392.297 96.4039 393.432 95.7455 393.534 94.7938Z" fill="#0C0C0C"/>
<path opacity="0.1" d="M377.266 92.6239C377.161 93.5743 376.027 94.2319 374.729 94.0938C374.505 94.0699 374.283 94.0226 374.069 93.9526C373.996 92.8216 373.98 91.7322 374.001 90.7251C374.36 90.6309 374.733 90.6047 375.101 90.6478C376.397 90.7855 377.367 91.6701 377.266 92.6239Z" fill="#0C0C0C"/>
<path d="M352.171 156.341C352.763 163.295 355.643 206.521 356.212 215.089L431.521 215.249C431.965 207.522 437.083 173.74 438.764 158.632C440.368 144.216 443.515 136.998 441.206 132.735C437.437 125.77 427.137 121.745 420.113 120.793C415.824 120.213 409.374 119.797 409.374 119.797C409.374 119.797 408.828 130.845 395.805 131.46C378.077 132.296 379.261 119.797 379.173 119.797C376.301 119.797 359.895 121.614 355.881 123.994C344.946 130.469 350.914 141.603 352.171 156.341Z" fill="#367CFF"/>
<path d="M303.289 161.199L310.548 196.482C310.695 197.198 311.084 197.842 311.649 198.307C312.214 198.772 312.921 199.029 313.652 199.035L363.638 199.46C364.115 199.464 364.586 199.362 365.018 199.16C365.45 198.958 365.832 198.662 366.135 198.294C366.438 197.925 366.654 197.494 366.769 197.031C366.883 196.568 366.893 196.086 366.797 195.618L359.538 160.335C359.39 159.619 359.002 158.975 358.437 158.51C357.872 158.046 357.164 157.789 356.433 157.783L306.448 157.357C305.971 157.353 305.499 157.456 305.067 157.657C304.635 157.859 304.254 158.155 303.951 158.523C303.648 158.892 303.431 159.323 303.317 159.786C303.202 160.249 303.192 160.732 303.289 161.199Z" fill="#292A2E"/>
<path d="M349.899 186.261C349.872 186.725 350.015 187.184 350.299 187.552C350.584 187.92 350.992 188.173 351.448 188.264L352.987 188.603C352.96 188.612 352.935 188.628 352.915 188.649C352.895 188.67 352.88 188.695 352.872 188.723C352.869 188.756 352.876 188.788 352.893 188.817C352.523 188.921 352.195 189.137 351.954 189.436C351.712 189.735 351.57 190.102 351.547 190.486C351.545 190.933 351.694 191.368 351.969 191.72C352.245 192.072 352.631 192.321 353.065 192.426L366.059 195.313C366.723 195.461 367.402 195.536 368.083 195.535C369.6 195.535 371.093 195.166 372.436 194.46C373.778 193.754 374.928 192.732 375.787 191.482C376.698 190.16 377.058 188.534 376.789 186.951C376.52 185.368 375.644 183.953 374.348 183.005L363.295 174.923C363.051 174.745 362.768 174.629 362.47 174.584L363.487 179.524L363.216 179.461L363.159 179.451L354.682 177.727C353.738 177.518 352.444 177.86 352.277 178.937C352.188 179.349 352.24 179.778 352.425 180.156C352.611 180.534 352.919 180.838 353.299 181.019C353.294 181.023 353.283 181.029 353.283 181.039C353.283 181.05 353.288 181.055 353.288 181.065L351.823 180.742C351.555 180.683 351.277 180.684 351.009 180.745C350.742 180.805 350.491 180.925 350.275 181.094C350.059 181.264 349.883 181.479 349.761 181.725C349.638 181.97 349.571 182.24 349.565 182.514C349.565 182.953 349.717 183.378 349.994 183.717C350.272 184.056 350.659 184.289 351.088 184.376L351.719 184.517C351.725 184.538 351.719 184.559 351.73 184.575C351.27 184.578 350.827 184.753 350.489 185.064C350.15 185.376 349.94 185.803 349.899 186.261Z" fill="#E98862"/>
<g opacity="0.25">
<path d="M361.728 182.778C361.718 182.821 361.691 182.859 361.654 182.883C361.616 182.908 361.57 182.916 361.527 182.907L353.416 181.244C353.393 181.24 353.372 181.231 353.353 181.219C353.334 181.206 353.317 181.19 353.304 181.171C353.291 181.152 353.282 181.131 353.278 181.109C353.273 181.086 353.273 181.063 353.278 181.041C353.283 181.018 353.292 180.997 353.305 180.978C353.318 180.959 353.334 180.943 353.353 180.931C353.373 180.918 353.394 180.91 353.417 180.906C353.439 180.902 353.463 180.903 353.485 180.908L361.595 182.572C361.617 182.576 361.638 182.585 361.657 182.597C361.676 182.61 361.692 182.626 361.704 182.645C361.716 182.664 361.725 182.685 361.729 182.707C361.733 182.729 361.733 182.752 361.729 182.774L361.728 182.778Z" fill="#0C0C0C"/>
</g>
<g opacity="0.25">
<path d="M361.093 186.375C361.083 186.419 361.056 186.456 361.019 186.481C360.981 186.505 360.935 186.513 360.892 186.504L351.84 184.648C351.818 184.644 351.797 184.635 351.778 184.622C351.76 184.61 351.744 184.593 351.731 184.575C351.719 184.556 351.711 184.535 351.706 184.513C351.702 184.491 351.702 184.468 351.707 184.446C351.717 184.402 351.744 184.364 351.782 184.34C351.819 184.315 351.865 184.305 351.909 184.313L360.96 186.169C361.005 186.178 361.044 186.205 361.069 186.243C361.094 186.281 361.103 186.327 361.094 186.372L361.093 186.375Z" fill="#0C0C0C"/>
</g>
<g opacity="0.25">
<path d="M360.428 190.275C360.418 190.318 360.391 190.356 360.354 190.381C360.316 190.405 360.27 190.413 360.226 190.405L353.006 188.924C352.962 188.914 352.924 188.888 352.899 188.85C352.875 188.812 352.866 188.766 352.875 188.722C352.884 188.678 352.91 188.639 352.948 188.614C352.985 188.589 353.031 188.58 353.075 188.588L360.295 190.069C360.34 190.078 360.379 190.104 360.404 190.142C360.429 190.18 360.437 190.226 360.428 190.271L360.428 190.275Z" fill="#0C0C0C"/>
</g>
<path d="M366.863 200.452L437.359 213.192C439.559 213.431 441.784 213.158 443.86 212.393C445.937 211.627 447.808 210.392 449.326 208.782C450.844 207.172 451.969 205.233 452.612 203.116C453.255 200.998 453.399 198.761 453.032 196.578L443.162 137.916C442.855 136.057 442.184 134.277 441.188 132.678C440.192 131.078 438.89 129.691 437.356 128.596C435.823 127.501 434.089 126.719 432.253 126.295C430.416 125.872 428.515 125.815 426.657 126.127C424.799 126.44 423.02 127.116 421.424 128.117C419.828 129.118 418.444 130.424 417.354 131.961C416.263 133.498 415.487 135.234 415.068 137.072C414.65 138.909 414.599 140.811 414.917 142.668L421.648 183.052L369.963 176.561L366.863 200.452Z" fill="#367CFF"/>
<path d="M437.359 213.453C437.424 213.452 437.486 213.427 437.534 213.383C437.581 213.339 437.61 213.279 437.616 213.214C437.622 213.15 437.603 213.085 437.564 213.034C437.524 212.982 437.467 212.947 437.404 212.935L367.151 200.24L370.185 176.852L421.609 183.311C421.65 183.316 421.691 183.312 421.73 183.298C421.768 183.285 421.803 183.262 421.831 183.232C421.859 183.203 421.88 183.168 421.892 183.13C421.904 183.091 421.907 183.05 421.901 183.01L417.625 157.202C417.62 157.168 417.608 157.136 417.59 157.106C417.572 157.077 417.549 157.052 417.521 157.032C417.493 157.012 417.461 156.998 417.428 156.99C417.394 156.982 417.36 156.982 417.326 156.988C417.258 156.999 417.197 157.037 417.156 157.093C417.116 157.15 417.1 157.22 417.111 157.288L421.33 182.751L369.995 176.304C369.927 176.296 369.858 176.315 369.803 176.357C369.749 176.4 369.713 176.461 369.704 176.53L366.604 200.421C366.596 200.487 366.613 200.554 366.653 200.608C366.692 200.662 366.751 200.699 366.817 200.711L437.313 213.449C437.328 213.451 437.344 213.453 437.359 213.453Z" fill="#0C0C0C"/>
<path d="M421.689 182.796L421.607 183.312L426.141 184.038L426.224 183.522L421.689 182.796Z" fill="#0C0C0C"/>
<path d="M484.539 401.737H0.310852C0.228409 401.737 0.149342 401.704 0.0910464 401.646C0.0327504 401.588 0 401.509 0 401.426C0 401.344 0.0327504 401.265 0.0910464 401.206C0.149342 401.148 0.228409 401.115 0.310852 401.115H484.538C484.621 401.115 484.7 401.148 484.758 401.206C484.816 401.265 484.849 401.344 484.849 401.426C484.849 401.509 484.816 401.588 484.758 401.646C484.7 401.704 484.621 401.737 484.538 401.737H484.539Z" fill="#292A2E"/>
<g opacity="0.65">
<path d="M484.539 401.737H0.310852C0.228409 401.737 0.149342 401.704 0.0910464 401.646C0.0327504 401.588 0 401.509 0 401.426C0 401.344 0.0327504 401.265 0.0910464 401.206C0.149342 401.148 0.228409 401.115 0.310852 401.115H484.538C484.621 401.115 484.7 401.148 484.758 401.206C484.816 401.265 484.849 401.344 484.849 401.426C484.849 401.509 484.816 401.588 484.758 401.646C484.7 401.704 484.621 401.737 484.538 401.737H484.539Z" fill="#292A2E"/>
</g>
<path d="M30.0882 402L29.2161 401.832L42.8474 266.375L43.7195 266.543L30.0882 402Z" fill="#494949"/>
<path d="M80.8451 402L79.9729 401.832L93.6038 266.375L94.4759 266.543L80.8451 402Z" fill="#494949"/>
<path d="M193.04 402L193.912 401.832L180.28 266.375L179.408 266.543L193.04 402Z" fill="#494949"/>
<path d="M142.283 402L143.155 401.832L129.524 266.375L128.652 266.543L142.283 402Z" fill="#494949"/>
<path d="M124.205 206.761L123.325 206.879L131.288 266.52L132.169 266.402L124.205 206.761Z" fill="#494949"/>
<path d="M32.804 206.76L31.9237 206.878L39.8868 266.519L40.7672 266.401L32.804 206.76Z" fill="#494949"/>
<path d="M132.093 262.092H42.6916C40.2795 262.092 38.3241 264.047 38.3241 266.46V266.46C38.3241 268.872 40.2795 270.827 42.6916 270.827H132.093C134.505 270.827 136.46 268.872 136.46 266.46V266.46C136.46 264.047 134.505 262.092 132.093 262.092Z" fill="#292A2E"/>
<path opacity="0.8" d="M132.093 262.092H42.6916C40.2795 262.092 38.3241 264.047 38.3241 266.46V266.46C38.3241 268.872 40.2795 270.827 42.6916 270.827H132.093C134.505 270.827 136.46 268.872 136.46 266.46V266.46C136.46 264.047 134.505 262.092 132.093 262.092Z" fill="white"/>
<path d="M132.093 271.271H42.6915C42.0597 271.271 41.434 271.147 40.8502 270.905C40.2665 270.663 39.7361 270.309 39.2893 269.862C38.8425 269.415 38.4881 268.885 38.2463 268.301C38.0045 267.717 37.88 267.091 37.88 266.46C37.88 265.828 38.0045 265.202 38.2463 264.618C38.4881 264.034 38.8425 263.504 39.2893 263.057C39.7361 262.61 40.2665 262.256 40.8502 262.014C41.434 261.772 42.0597 261.648 42.6915 261.648H132.093C133.369 261.648 134.593 262.155 135.495 263.057C136.397 263.96 136.904 265.183 136.904 266.46C136.904 267.736 136.397 268.959 135.495 269.862C134.593 270.764 133.369 271.271 132.093 271.271ZM42.6915 262.537C42.1763 262.537 41.6661 262.638 41.1901 262.835C40.7141 263.032 40.2816 263.321 39.9173 263.686C39.553 264.05 39.264 264.483 39.0668 264.959C38.8696 265.435 38.7682 265.945 38.7682 266.46C38.7682 266.975 38.8696 267.485 39.0668 267.961C39.264 268.437 39.553 268.87 39.9173 269.234C40.2816 269.599 40.7141 269.888 41.1901 270.085C41.6661 270.282 42.1763 270.383 42.6915 270.383H132.093C133.133 270.383 134.131 269.97 134.867 269.234C135.603 268.498 136.016 267.5 136.016 266.46C136.016 265.419 135.603 264.421 134.867 263.686C134.131 262.95 133.133 262.537 132.093 262.537H42.6915Z" fill="#292A2E"/>
<path d="M181.161 262.092H91.7596C89.3475 262.092 87.3921 264.047 87.3921 266.46V266.46C87.3921 268.872 89.3475 270.827 91.7596 270.827H181.161C183.573 270.827 185.528 268.872 185.528 266.46V266.46C185.528 264.047 183.573 262.092 181.161 262.092Z" fill="white"/>
<path d="M181.161 271.271H91.7595C91.1277 271.271 90.502 271.147 89.9182 270.905C89.3345 270.663 88.8041 270.309 88.3573 269.862C87.9105 269.415 87.5561 268.885 87.3142 268.301C87.0724 267.717 86.948 267.091 86.948 266.46C86.948 265.828 87.0724 265.202 87.3142 264.618C87.5561 264.034 87.9105 263.504 88.3573 263.057C88.8041 262.61 89.3345 262.256 89.9182 262.014C90.502 261.772 91.1277 261.648 91.7595 261.648H181.161C181.792 261.648 182.418 261.772 183.002 262.014C183.586 262.256 184.116 262.61 184.563 263.057C185.01 263.504 185.364 264.034 185.606 264.618C185.848 265.202 185.972 265.828 185.972 266.46C185.972 267.091 185.848 267.717 185.606 268.301C185.364 268.885 185.01 269.415 184.563 269.862C184.116 270.309 183.586 270.663 183.002 270.905C182.418 271.147 181.792 271.271 181.161 271.271ZM91.7595 262.537C91.2443 262.537 90.7341 262.638 90.2581 262.835C89.7821 263.032 89.3496 263.321 88.9853 263.686C88.621 264.05 88.332 264.483 88.1348 264.959C87.9376 265.435 87.8361 265.945 87.8361 266.46C87.8361 266.975 87.9376 267.485 88.1348 267.961C88.332 268.437 88.621 268.87 88.9853 269.234C89.3496 269.599 89.7821 269.888 90.2581 270.085C90.7341 270.282 91.2443 270.383 91.7595 270.383H181.161C181.676 270.383 182.186 270.282 182.662 270.085C183.138 269.888 183.571 269.599 183.935 269.234C184.299 268.87 184.588 268.437 184.785 267.961C184.982 267.485 185.084 266.975 185.084 266.46C185.084 265.945 184.982 265.435 184.785 264.959C184.588 264.483 184.299 264.05 183.935 263.686C183.571 263.321 183.138 263.032 182.662 262.835C182.186 262.638 181.676 262.537 181.161 262.537H91.7595Z" fill="#292A2E"/>
<path d="M119.308 206.818H32.6041C31.1865 206.818 29.8173 206.302 28.7522 205.367C27.687 204.432 26.9987 203.14 26.8156 201.735L21.0803 157.691C20.9732 156.867 21.0428 156.031 21.2847 155.236C21.5265 154.442 21.935 153.709 22.4829 153.085C23.0307 152.461 23.7053 151.961 24.4616 151.619C25.218 151.277 26.0386 151.1 26.8689 151.1H113.573C114.991 151.1 116.36 151.615 117.425 152.551C118.49 153.486 119.178 154.777 119.362 156.183L125.096 200.226C125.204 201.05 125.134 201.886 124.893 202.681C124.651 203.475 124.242 204.209 123.695 204.833C123.147 205.457 122.472 205.957 121.716 206.299C120.959 206.641 120.139 206.819 119.308 206.818Z" fill="#292A2E"/>
<path opacity="0.8" d="M119.308 206.818H32.6041C31.1865 206.818 29.8173 206.302 28.7522 205.367C27.687 204.432 26.9987 203.14 26.8156 201.735L21.0803 157.691C20.9732 156.867 21.0428 156.031 21.2847 155.236C21.5265 154.442 21.935 153.709 22.4829 153.085C23.0307 152.461 23.7053 151.961 24.4616 151.619C25.218 151.277 26.0386 151.1 26.8689 151.1H113.573C114.991 151.1 116.36 151.615 117.425 152.551C118.49 153.486 119.178 154.777 119.362 156.183L125.096 200.226C125.204 201.05 125.134 201.886 124.893 202.681C124.651 203.475 124.242 204.209 123.695 204.833C123.147 205.457 122.472 205.957 121.716 206.299C120.959 206.641 120.139 206.819 119.308 206.818Z" fill="white"/>
<path d="M119.308 207.263H32.604C31.0795 207.259 29.6079 206.703 28.4624 205.697C27.3169 204.691 26.5752 203.303 26.375 201.792L20.6402 157.749C20.5247 156.863 20.5996 155.963 20.8598 155.108C21.12 154.254 21.5595 153.464 22.149 152.793C22.7385 152.122 23.4644 151.584 24.2783 151.215C25.0922 150.847 25.9754 150.656 26.8688 150.656H113.573C115.097 150.66 116.569 151.216 117.714 152.222C118.86 153.228 119.601 154.616 119.802 156.127L125.537 200.17C125.652 201.056 125.577 201.957 125.317 202.811C125.057 203.666 124.617 204.455 124.028 205.126C123.438 205.798 122.712 206.335 121.898 206.704C121.085 207.072 120.202 207.263 119.308 207.263ZM26.8688 151.545C26.1017 151.545 25.3435 151.708 24.6448 152.025C23.946 152.341 23.3227 152.803 22.8166 153.379C22.3104 153.955 21.933 154.633 21.7096 155.367C21.4861 156.101 21.4218 156.874 21.5208 157.634L27.256 201.678C27.4278 202.975 28.0646 204.166 29.0481 205.03C30.0316 205.894 31.295 206.372 32.604 206.374H119.308C120.075 206.374 120.833 206.211 121.532 205.895C122.231 205.578 122.854 205.116 123.36 204.54C123.867 203.964 124.244 203.286 124.467 202.552C124.691 201.819 124.755 201.046 124.656 200.285L118.923 156.242C118.751 154.944 118.114 153.753 117.131 152.889C116.148 152.025 114.884 151.548 113.575 151.545H26.8688Z" fill="#292A2E"/>
<path d="M124.211 206.818H37.5065C36.0889 206.818 34.7198 206.302 33.6547 205.367C32.5897 204.432 31.9014 203.14 31.7184 201.735L25.9832 157.691C25.876 156.867 25.9457 156.031 26.1875 155.236C26.4294 154.442 26.8379 153.709 27.3857 153.085C27.9335 152.461 28.6081 151.961 29.3645 151.619C30.1208 151.277 30.9415 151.1 31.7717 151.1H118.476C119.893 151.1 121.262 151.615 122.328 152.551C123.393 153.486 124.081 154.777 124.264 156.183L129.999 200.226C130.107 201.05 130.037 201.886 129.795 202.681C129.553 203.475 129.145 204.209 128.597 204.833C128.049 205.457 127.375 205.957 126.618 206.299C125.862 206.641 125.041 206.819 124.211 206.818Z" fill="white"/>
<path d="M124.211 207.263H37.5067C35.9822 207.259 34.5107 206.703 33.3653 205.697C32.2199 204.691 31.4783 203.303 31.2781 201.792L25.5429 157.749C25.4276 156.863 25.5026 155.963 25.7628 155.108C26.0231 154.254 26.4627 153.464 27.0522 152.793C27.6417 152.122 28.3677 151.584 29.1815 151.216C29.9954 150.847 30.8785 150.657 31.7719 150.656H118.476C120 150.66 121.472 151.216 122.617 152.222C123.763 153.228 124.504 154.616 124.705 156.127L130.44 200.17C130.555 201.056 130.48 201.956 130.22 202.811C129.96 203.666 129.52 204.455 128.93 205.126C128.341 205.797 127.615 206.335 126.801 206.704C125.987 207.072 125.104 207.263 124.211 207.263ZM31.7719 151.545C31.0048 151.545 30.2464 151.708 29.5475 152.024C28.8485 152.341 28.2251 152.802 27.7188 153.379C27.2125 153.955 26.835 154.633 26.6115 155.367C26.388 156.101 26.3236 156.874 26.4226 157.635L32.1574 201.678C32.3294 202.975 32.9664 204.167 33.9501 205.03C34.9339 205.894 36.1976 206.372 37.5067 206.374H124.211C124.978 206.374 125.736 206.211 126.435 205.895C127.134 205.578 127.757 205.116 128.263 204.54C128.769 203.964 129.147 203.286 129.37 202.552C129.594 201.819 129.658 201.046 129.559 200.285L123.824 156.242C123.652 154.944 123.015 153.753 122.032 152.889C121.048 152.025 119.785 151.548 118.476 151.545H31.7719Z" fill="#292A2E"/>
<path d="M114.654 83.1485C114.654 83.1485 120.416 78.7996 121.843 68.7893C122.949 61.0384 115.799 66.06 115.799 66.06C115.799 66.06 116.541 60.4714 112.468 61.026C108.396 61.5807 106.118 67.4513 106.118 67.4513" fill="#0C0C0C"/>
<path d="M91.4237 61.6819C91.4237 61.6819 71.221 63.8481 78.5243 91.2244L80.3117 91.3438L83.9406 91.5872" fill="#0C0C0C"/>
<path d="M111.27 119.811C111.181 119.8 110.196 136.153 91.1955 134.729C78.042 133.743 73.3517 119.788 73.0507 119.788C74.4686 119.486 76.2213 119.029 76.9177 118.872C78.4357 118.52 79.8106 117.713 80.8593 116.561C81.908 115.408 82.5808 113.963 82.7883 112.419C83.1729 110.101 82.5219 98.2402 82.7213 95.895L102.912 100.405C102.63 105.359 100.655 116.843 107.575 118.875C108.728 119.209 109.968 119.519 111.27 119.811Z" fill="#E98862"/>
<path opacity="0.52" d="M103.195 114.18C102.878 113.161 102.675 112.11 102.588 111.047C102.366 108.619 102.411 106.175 102.721 103.758C98.6172 103.204 94.751 101.51 91.5618 98.8691C91.1865 100.254 89.1247 106.303 89.6966 107.62C90.7735 110.107 95.8444 114.18 103.195 114.18Z" fill="#0C0C0C"/>
<path d="M99.0286 110.943C91.0633 110.229 81.5295 105.196 81.3918 94.3834L81.2657 84.6271C81.128 73.8144 86.6958 64.9769 96.8762 64.8476C107.057 64.718 114.778 73.3867 114.915 84.199L114.97 88.5186C114.963 90.0018 114.855 91.4828 114.647 92.9513C114.125 96.837 113.315 102.744 110.678 106.741C108.189 110.514 104.117 111.399 99.0286 110.943Z" fill="#E98862"/>
<path d="M102.723 101.06C104.367 101.134 106.006 100.821 107.506 100.146C107.537 100.133 107.566 100.114 107.589 100.09C107.613 100.066 107.631 100.037 107.644 100.006C107.656 99.9745 107.663 99.9411 107.662 99.9073C107.662 99.8736 107.655 99.8403 107.642 99.8092C107.629 99.7782 107.609 99.7501 107.585 99.7265C107.561 99.7029 107.533 99.6843 107.501 99.6717C107.47 99.6591 107.437 99.6529 107.403 99.6532C107.369 99.6536 107.336 99.6606 107.305 99.6738C104.071 101.05 101.136 100.851 98.815 99.0903C98.7682 99.0532 98.7196 99.0185 98.6693 98.9864C98.6109 98.9589 98.5444 98.9544 98.4828 98.9737C98.4213 98.993 98.3693 99.0348 98.3371 99.0907C98.3049 99.1466 98.2948 99.2126 98.309 99.2755C98.3232 99.3384 98.3605 99.3937 98.4135 99.4304C98.4322 99.4424 98.4624 99.466 98.5023 99.498C99.7223 100.427 101.192 100.971 102.723 101.06Z" fill="#0C0C0C"/>
<path d="M102.647 103.496C102.944 103.514 103.242 103.507 103.538 103.474C103.604 103.465 103.664 103.431 103.706 103.378C103.747 103.326 103.766 103.259 103.759 103.192C103.752 103.126 103.719 103.065 103.668 103.022C103.616 102.979 103.55 102.958 103.483 102.963C101.704 103.152 100.855 102.337 100.819 102.302C100.77 102.256 100.706 102.231 100.639 102.232C100.572 102.233 100.508 102.26 100.46 102.307C100.413 102.354 100.386 102.418 100.385 102.485C100.384 102.552 100.409 102.617 100.455 102.665C101.068 103.187 101.842 103.48 102.647 103.496Z" fill="#0C0C0C"/>
<path d="M111.554 90.5977C112.247 90.5977 112.809 90.0363 112.809 89.3437C112.809 88.6511 112.247 88.0896 111.554 88.0896C110.862 88.0896 110.3 88.6511 110.3 89.3437C110.3 90.0363 110.862 90.5977 111.554 90.5977Z" fill="#0C0C0C"/>
<path d="M99.3031 89.8284C99.9957 89.8284 100.557 89.267 100.557 88.5744C100.557 87.8818 99.9957 87.3203 99.3031 87.3203C98.6105 87.3203 98.0491 87.8818 98.0491 88.5744C98.0491 89.267 98.6105 89.8284 99.3031 89.8284Z" fill="#0C0C0C"/>
<path d="M82.0649 97.6691C78.9715 97.7086 76.4211 94.4305 76.3807 91.3371C76.3403 88.2436 78.828 86.5051 81.9219 86.4656L83.5423 88.5185L84.724 97.6354L82.0649 97.6691Z" fill="#E98862"/>
<path d="M85.1433 92.6976C85.1433 92.6976 86.1877 77.3979 90.8274 76.4534C93.9173 75.8241 101.41 80.2067 108.351 78.8834C111.387 78.3061 114.269 79.0556 114.562 80.49C114.679 81.058 116.57 72.8963 111.815 66.7037C108.03 61.7745 95.6412 60.3801 90.005 61.9965C74.3984 66.4732 81.2851 87.1387 81.2851 87.1387L81.981 92.4134L85.1433 92.6976Z" fill="#0C0C0C"/>
<path d="M104.594 97.4492H104.613C105.61 97.439 107.282 97.3111 107.275 96.5651C107.268 95.9474 105.509 89.2933 105.309 88.5366C105.291 88.4715 105.249 88.4159 105.191 88.3821C105.132 88.3482 105.063 88.3389 104.998 88.3561C104.933 88.3734 104.877 88.4158 104.843 88.4741C104.809 88.5323 104.8 88.6016 104.817 88.6668C105.599 91.6136 106.762 96.1503 106.767 96.5713C106.671 96.7489 105.641 96.9314 104.609 96.9421C104.543 96.9421 104.479 96.9678 104.432 97.0138C104.384 97.0598 104.357 97.1225 104.355 97.1885C104.353 97.2546 104.377 97.3188 104.421 97.3675C104.466 97.4163 104.528 97.4458 104.594 97.4497V97.4492Z" fill="#0C0C0C"/>
<path d="M107.995 82.5439C109.043 82.2559 110.149 82.2559 111.197 82.5439C111.712 82.6826 112.202 82.8976 112.653 83.1816C113.099 83.4601 113.508 83.7937 113.87 84.1746C113.937 84.2424 113.975 84.3334 113.976 84.4286C113.977 84.5238 113.942 84.6158 113.877 84.6856C113.813 84.7554 113.723 84.7975 113.628 84.8033C113.533 84.809 113.44 84.7778 113.367 84.7163L113.345 84.6968C113.01 84.3865 112.637 84.1196 112.235 83.9023C111.84 83.6865 111.416 83.5315 110.975 83.4427C110.107 83.261 109.207 83.3112 108.365 83.5884L108.33 83.6008C108.261 83.6251 108.188 83.6357 108.115 83.6318C108.043 83.628 107.971 83.6098 107.905 83.5783C107.84 83.5469 107.781 83.5028 107.732 83.4486C107.683 83.3943 107.645 83.331 107.621 83.2622C107.597 83.1934 107.586 83.1205 107.59 83.0477C107.594 82.9748 107.612 82.9034 107.643 82.8376C107.675 82.7718 107.719 82.7128 107.773 82.664C107.828 82.6152 107.891 82.5776 107.96 82.5532C107.972 82.5506 107.984 82.547 107.995 82.5439Z" fill="#0C0C0C"/>
<path d="M100.576 83.1748C99.7783 82.7874 98.8927 82.6175 98.0086 82.6824C97.56 82.7115 97.1184 82.8086 96.699 82.9701C96.2722 83.1322 95.8674 83.3471 95.4942 83.61L95.4702 83.6256C95.3902 83.6797 95.2921 83.7004 95.197 83.6831C95.1019 83.6658 95.0174 83.6119 94.9616 83.533C94.9057 83.4541 94.883 83.3565 94.8983 83.261C94.9137 83.1656 94.9658 83.08 95.0435 83.0225C95.453 82.6931 95.9026 82.4168 96.3815 82.2001C96.8662 81.9786 97.3815 81.831 97.91 81.7622C98.9868 81.616 100.083 81.7629 101.083 82.1877C101.219 82.2465 101.325 82.3568 101.379 82.4942C101.434 82.6317 101.431 82.7849 101.372 82.9204C101.313 83.0558 101.203 83.1623 101.065 83.2165C100.928 83.2706 100.775 83.2679 100.639 83.209C100.629 83.2046 100.618 83.1997 100.608 83.1944L100.576 83.1748Z" fill="#0C0C0C"/>
<path d="M106.504 72.0111C108.794 71.5326 110.08 68.4124 109.375 65.0418C108.671 61.6712 106.244 59.3266 103.954 59.8051C101.664 60.2835 100.378 63.4038 101.082 66.7744C101.787 70.145 104.214 72.4896 106.504 72.0111Z" fill="#0C0C0C"/>
<path d="M234.226 378.535C234.226 378.535 236.607 390.878 248.163 391.566C259.719 392.254 257.213 401.459 257.213 401.459H213.052V379.396L234.226 378.535Z" fill="#367CFF"/>
<path d="M150.213 370.743C150.213 370.743 146.9 382.869 156.967 388.587C167.034 394.306 160.721 401.46 160.721 401.46L121.095 381.965L130.834 362.167L150.213 370.743Z" fill="#367CFF"/>
<path d="M125.67 367.318L159.086 261.899H98.5143C86.3467 261.899 81.2749 251.581 81.2749 239.414C81.2749 227.248 93.236 216.582 105.403 216.582H187.152C194.573 216.582 202.894 221.12 206.967 227.324C211.04 233.528 209.94 243.141 206.989 249.95L153.478 379.916" fill="#262626"/>
<path opacity="0.8" d="M125.67 367.318L159.086 261.899H98.5143C86.3467 261.899 81.2749 251.581 81.2749 239.414C81.2749 227.248 93.236 216.582 105.403 216.582H187.152C194.573 216.582 202.894 221.12 206.967 227.324C211.04 233.528 209.94 243.141 206.989 249.95L153.478 379.916" fill="#0A0A0A"/>
<path d="M210.513 389.998L154.64 261.899L81.2754 261.894C64.0844 260.547 56.2118 251.125 56.4618 238.961C56.7087 226.951 62.7899 215.089 74.7461 215.089H173.627C182.473 215.271 189.433 225.047 192.714 233.262L239.165 382.155" fill="#262626"/>
<path d="M51.4571 215.236C51.4571 215.236 48.1989 236.483 53.3635 248.296C59.811 263.044 83.9811 261.895 83.9811 261.895L82.6191 215.089L51.4571 215.236Z" fill="#262626"/>
<path d="M194.815 214.818L142.992 204.079C140.832 203.632 138.821 202.647 137.143 201.216C135.465 199.784 134.175 197.953 133.392 195.892L113.009 142.179C112.398 140.569 112.11 138.854 112.162 137.133C112.214 135.412 112.604 133.717 113.31 132.147C114.017 130.576 115.026 129.161 116.279 127.98C117.533 126.799 119.007 125.877 120.617 125.266C122.227 124.655 123.942 124.367 125.663 124.419C127.384 124.471 129.079 124.861 130.649 125.567C132.22 126.274 133.635 127.283 134.816 128.536C135.997 129.79 136.919 131.264 137.53 132.874L155.36 179.857L200.138 189.135C200.138 189.135 195.715 215.004 194.815 214.818Z" fill="#367CFF"/>
<path d="M134.877 155.819C134.278 162.85 130.036 206.715 129.459 215.375H51.4909C51.0429 207.564 49.5885 174.402 47.8899 159.128C46.2682 144.553 45.6802 136.235 47.548 131.706C50.8421 123.717 59.0855 120.843 66.1858 119.881C70.5217 119.294 77.043 118.873 77.043 118.873C77.043 118.873 77.595 130.043 90.7609 130.665C108.684 131.509 107.487 118.873 107.575 118.873C110.479 118.873 126.284 120.985 130.236 123.561C135.817 127.199 137.467 132.157 137.532 136.712C137.607 141.956 135.556 147.845 134.877 155.819Z" fill="#367CFF"/>
<path d="M131.811 191.662C131.805 191.663 131.799 191.663 131.792 191.662C131.734 191.657 131.679 191.629 131.641 191.585C131.603 191.54 131.585 191.482 131.589 191.423L133.614 167.108C133.615 167.078 133.623 167.05 133.636 167.023C133.649 166.997 133.668 166.974 133.69 166.955C133.712 166.936 133.738 166.922 133.767 166.913C133.795 166.905 133.824 166.902 133.853 166.905C133.912 166.91 133.966 166.938 134.004 166.983C134.042 167.028 134.061 167.086 134.056 167.144L132.032 191.46C132.027 191.515 132.002 191.566 131.961 191.604C131.92 191.641 131.867 191.662 131.811 191.662Z" fill="#0C0C0C"/>
<path d="M168.946 206.254L186.054 153.665C186.355 152.741 186.94 151.936 187.727 151.365C188.513 150.794 189.46 150.486 190.431 150.486H260.13C260.856 150.486 261.573 150.658 262.22 150.988C262.867 151.318 263.427 151.797 263.854 152.385C264.281 152.972 264.563 153.653 264.676 154.371C264.79 155.088 264.732 155.822 264.507 156.513L247.399 209.102C247.098 210.026 246.513 210.831 245.727 211.402C244.94 211.973 243.994 212.281 243.022 212.281H173.322C172.596 212.281 171.88 212.109 171.233 211.779C170.585 211.449 170.026 210.97 169.599 210.382C169.172 209.794 168.89 209.114 168.777 208.397C168.664 207.679 168.722 206.945 168.946 206.254Z" fill="#292A2E"/>
<path d="M168.946 206.254L186.054 153.665C186.355 152.741 186.94 151.936 187.727 151.365C188.513 150.794 189.46 150.486 190.431 150.486H260.13C260.856 150.486 261.573 150.658 262.22 150.988C262.867 151.318 263.427 151.797 263.854 152.385C264.281 152.972 264.563 153.653 264.676 154.371C264.79 155.088 264.732 155.822 264.507 156.513L247.399 209.102C247.098 210.026 246.513 210.831 245.727 211.402C244.94 211.973 243.994 212.281 243.022 212.281H173.322C172.596 212.281 171.88 212.109 171.233 211.779C170.585 211.449 170.026 210.97 169.599 210.382C169.172 209.794 168.89 209.114 168.777 208.397C168.664 207.679 168.722 206.945 168.946 206.254Z" fill="#292A2E"/>
<path d="M182.902 208.017H136.246C135.084 208.017 134.141 208.96 134.141 210.122V210.176C134.141 211.339 135.084 212.281 136.246 212.281H182.902C184.065 212.281 185.007 211.339 185.007 210.176V210.122C185.007 208.96 184.065 208.017 182.902 208.017Z" fill="#292A2E"/>
<path d="M182.902 208.017H136.246C135.084 208.017 134.141 208.96 134.141 210.122V210.176C134.141 211.339 135.084 212.281 136.246 212.281H182.902C184.065 212.281 185.007 211.339 185.007 210.176V210.122C185.007 208.96 184.065 208.017 182.902 208.017Z" fill="#292A2E"/>
<path d="M216.726 191.259C220.764 191.259 224.036 187.986 224.036 183.949C224.036 179.912 220.764 176.639 216.726 176.639C212.689 176.639 209.417 179.912 209.417 183.949C209.417 187.986 212.689 191.259 216.726 191.259Z" fill="white"/>
<path d="M165.047 193.935L153.402 189.854L155.074 189.738C155.613 189.69 156.114 189.439 156.475 189.036C156.836 188.634 157.03 188.109 157.019 187.568C157.003 187.289 156.931 187.016 156.807 186.766C156.683 186.516 156.508 186.294 156.295 186.113C156.082 185.932 155.835 185.797 155.568 185.715C155.3 185.634 155.019 185.607 154.742 185.637L134.141 187.826L134.674 194.447C134.84 196.503 135.617 198.462 136.904 200.075C138.191 201.687 139.931 202.877 141.899 203.495L150.82 206.274C151.281 206.427 151.78 206.416 152.234 206.244C152.688 206.071 153.069 205.747 153.311 205.326C153.522 204.941 153.604 204.5 153.546 204.065C153.488 203.63 153.292 203.226 152.988 202.91C153.008 202.896 153.024 202.878 153.037 202.858C153.049 202.837 153.058 202.814 153.061 202.79C153.064 202.766 153.063 202.742 153.056 202.718C153.05 202.695 153.039 202.673 153.024 202.654L154.667 203.17C155.18 203.342 155.739 203.313 156.231 203.089C156.723 202.865 157.112 202.462 157.319 201.962C157.488 201.509 157.492 201.01 157.329 200.554C157.167 200.098 156.849 199.714 156.431 199.47C156.45 199.46 156.467 199.446 156.482 199.429L157.157 199.641C157.618 199.795 158.118 199.784 158.572 199.611C159.026 199.439 159.406 199.114 159.648 198.694C159.904 198.227 159.969 197.679 159.83 197.166C159.691 196.652 159.358 196.212 158.902 195.938C158.906 195.925 158.908 195.911 158.908 195.896L163.757 197.596C164.243 197.767 164.776 197.737 165.24 197.514C165.703 197.291 166.06 196.893 166.23 196.407C166.4 195.922 166.37 195.389 166.147 194.925C165.924 194.461 165.526 194.105 165.041 193.935H165.047Z" fill="#E98862"/>
<path opacity="0.2" d="M158.724 196.086C158.701 196.086 158.679 196.082 158.658 196.074L153.967 194.371C153.919 194.353 153.88 194.317 153.858 194.271C153.837 194.224 153.834 194.171 153.852 194.123C153.87 194.075 153.906 194.036 153.952 194.014C153.999 193.993 154.052 193.991 154.1 194.008L158.79 195.713C158.833 195.729 158.869 195.759 158.892 195.798C158.915 195.838 158.923 195.884 158.915 195.928C158.907 195.973 158.884 196.014 158.849 196.043C158.814 196.072 158.77 196.088 158.725 196.088L158.724 196.086Z" fill="#0A0A0A"/>
<path opacity="0.2" d="M156.352 199.497C156.33 199.497 156.309 199.493 156.288 199.485L152.591 198.174C152.567 198.165 152.545 198.152 152.526 198.135C152.507 198.118 152.492 198.098 152.481 198.075C152.47 198.052 152.464 198.027 152.462 198.002C152.461 197.976 152.465 197.951 152.473 197.927C152.482 197.903 152.495 197.881 152.512 197.862C152.529 197.843 152.549 197.828 152.572 197.817C152.595 197.806 152.62 197.8 152.645 197.799C152.671 197.797 152.696 197.801 152.72 197.809L156.417 199.121C156.46 199.136 156.496 199.166 156.519 199.206C156.542 199.245 156.551 199.291 156.543 199.336C156.535 199.381 156.512 199.422 156.477 199.451C156.442 199.481 156.398 199.497 156.352 199.497Z" fill="#0A0A0A"/>
<path opacity="0.2" d="M152.871 202.957C152.847 202.957 152.824 202.953 152.802 202.944L151.07 202.284C151.045 202.275 151.022 202.262 151.003 202.245C150.983 202.228 150.967 202.207 150.956 202.183C150.945 202.16 150.939 202.134 150.938 202.108C150.937 202.082 150.941 202.056 150.95 202.032C150.96 202.007 150.974 201.985 150.992 201.966C151.01 201.947 151.032 201.933 151.056 201.922C151.08 201.912 151.106 201.907 151.132 201.907C151.158 201.907 151.184 201.913 151.208 201.923L152.939 202.583C152.982 202.6 153.017 202.63 153.039 202.669C153.061 202.709 153.068 202.754 153.06 202.799C153.052 202.843 153.028 202.883 152.994 202.912C152.959 202.941 152.916 202.957 152.871 202.957H152.871Z" fill="#0A0A0A"/>
<path d="M143.258 183.909L94.4103 183.876L75.931 138.797L48.3638 150.387L71.4205 203.889L71.6461 204.421C72.7741 207.022 74.6741 209.213 77.0889 210.698C79.5036 212.183 82.3163 212.889 85.146 212.722L143.998 209.245L143.258 183.909Z" fill="#367CFF"/>
<path d="M84.336 212.967C81.5975 212.963 78.9197 212.16 76.6299 210.658C74.3401 209.156 72.5375 207.019 71.4423 204.509L71.2163 203.977L51.5704 158.388L51.9781 158.213L71.8504 204.334C72.9656 206.889 74.8363 209.041 77.2109 210.501C79.5855 211.961 82.3502 212.658 85.1331 212.5L143.77 209.036L143.043 184.131L94.2624 184.099L80.052 149.438L80.4628 149.269L94.5595 183.655L143.474 183.688L144.226 209.455L144.01 209.467L85.1584 212.944C84.8837 212.96 84.6096 212.967 84.336 212.967Z" fill="#0C0C0C"/>
<path d="M377.906 216.536L377.022 216.626L395.743 401.96L396.627 401.87L377.906 216.536Z" fill="#494949"/>
<path d="M30.0026 216.539L11.2687 401.872L12.1523 401.961L30.8862 216.628L30.0026 216.539Z" fill="#494949"/>
<path d="M107.404 216.539L88.6698 401.872L89.5534 401.961L108.287 216.628L107.404 216.539Z" fill="#494949"/>
<path d="M455.308 216.536L454.424 216.625L473.145 401.96L474.029 401.87L455.308 216.536Z" fill="#494949"/>
<path d="M472.189 212.943H14.3475C12.3379 212.943 10.7087 214.572 10.7087 216.582C10.7087 218.591 12.3379 220.22 14.3475 220.22H472.189C474.199 220.22 475.828 218.591 475.828 216.582C475.828 214.572 474.199 212.943 472.189 212.943Z" fill="#292A2E"/>
<path opacity="0.8" d="M472.189 212.943H14.3475C12.3379 212.943 10.7087 214.572 10.7087 216.582C10.7087 218.591 12.3379 220.22 14.3475 220.22H472.189C474.199 220.22 475.828 218.591 475.828 216.582C475.828 214.572 474.199 212.943 472.189 212.943Z" fill="white"/>
<path d="M472.19 220.664H14.3493C13.8096 220.67 13.2741 220.569 12.7738 220.366C12.2736 220.163 11.8184 219.864 11.4348 219.484C11.0512 219.104 10.7466 218.652 10.5387 218.154C10.3309 217.656 10.2239 217.122 10.2239 216.582C10.2239 216.042 10.3309 215.508 10.5387 215.01C10.7466 214.511 11.0512 214.059 11.4348 213.68C11.8184 213.3 12.2736 213 12.7738 212.798C13.2741 212.595 13.8096 212.494 14.3493 212.499H472.19C473.265 212.51 474.293 212.946 475.049 213.71C475.806 214.474 476.23 215.506 476.23 216.582C476.23 217.657 475.806 218.689 475.049 219.454C474.293 220.218 473.265 220.653 472.19 220.664ZM14.3493 213.387C13.9266 213.382 13.5071 213.461 13.1152 213.62C12.7233 213.778 12.3666 214.012 12.066 214.31C11.7653 214.607 11.5266 214.961 11.3637 215.351C11.2008 215.741 11.1169 216.159 11.1169 216.582C11.1169 217.005 11.2008 217.423 11.3637 217.813C11.5266 218.203 11.7653 218.557 12.066 218.854C12.3666 219.151 12.7233 219.386 13.1152 219.544C13.5071 219.702 13.9266 219.781 14.3493 219.776H472.19C473.03 219.766 473.833 219.425 474.424 218.827C475.015 218.229 475.347 217.423 475.347 216.582C475.347 215.741 475.015 214.934 474.424 214.336C473.833 213.738 473.03 213.397 472.19 213.387H14.3493Z" fill="#292A2E"/>
<path d="M472.189 212.943H94.7076C92.698 212.943 91.0688 214.572 91.0688 216.582C91.0688 218.591 92.698 220.22 94.7076 220.22H472.189C474.199 220.22 475.828 218.591 475.828 216.582C475.828 214.572 474.199 212.943 472.189 212.943Z" fill="white"/>
<path d="M472.19 220.664H94.7072C93.6318 220.653 92.6043 220.218 91.8478 219.454C91.0913 218.689 90.667 217.657 90.667 216.582C90.667 215.506 91.0913 214.474 91.8478 213.71C92.6043 212.946 93.6318 212.51 94.7072 212.499H472.19C473.265 212.51 474.293 212.946 475.049 213.71C475.806 214.474 476.23 215.506 476.23 216.582C476.23 217.657 475.806 218.689 475.049 219.454C474.293 220.218 473.265 220.653 472.19 220.664ZM94.7072 213.387C93.8665 213.397 93.0636 213.738 92.4726 214.336C91.8817 214.934 91.5502 215.741 91.5502 216.582C91.5502 217.423 91.8817 218.229 92.4726 218.827C93.0636 219.425 93.8665 219.766 94.7072 219.776H472.19C473.031 219.766 473.833 219.425 474.424 218.827C475.015 218.229 475.347 217.423 475.347 216.582C475.347 215.741 475.015 214.934 474.424 214.336C473.833 213.738 473.031 213.397 472.19 213.387H94.7072Z" fill="#292A2E"/>
</svg>
