<svg width="547" height="530" viewBox="0 0 547 530" fill="none" xmlns="http://www.w3.org/2000/svg">
<path d="M392.144 529.415C477.669 529.415 547 523.021 547 515.134C547 507.248 477.669 500.854 392.144 500.854C306.619 500.854 237.288 507.248 237.288 515.134C237.288 523.021 306.619 529.415 392.144 529.415Z" fill="white"/>
<path opacity="0.1" d="M392.144 529.415C477.669 529.415 547 523.021 547 515.134C547 507.248 477.669 500.854 392.144 500.854C306.619 500.854 237.288 507.248 237.288 515.134C237.288 523.021 306.619 529.415 392.144 529.415Z" fill="#292A2E"/>
<path d="M135.076 302.775H85.7153V317.128H135.076V302.775Z" fill="#F4F4F4"/>
<path opacity="0.05" d="M98.8116 302.775H92.3439V317.128H98.8116V302.775Z" fill="#292A2E"/>
<path d="M128.769 305.895H101.876V314.4H128.769V305.895Z" fill="white"/>
<path d="M174.448 304.647L128.584 284.627L122.835 297.781L168.7 317.801L174.448 304.647Z" fill="#F4F4F4"/>
<path opacity="0.05" d="M174.448 304.647L128.584 284.627L122.835 297.781L168.7 317.801L174.448 304.647Z" fill="#292A2E"/>
<path d="M168.289 301.959L162.28 299.335L156.531 312.489L162.541 315.112L168.289 301.959Z" fill="white"/>
<path d="M158.183 300.952L133.195 290.045L129.788 297.839L154.776 308.747L158.183 300.952Z" fill="white"/>
<path opacity="0.05" d="M174.534 484.604H162.13V492.883H174.534V484.604Z" fill="#292A2E"/>
<path opacity="0.05" d="M47.7116 484.604H35.3071V492.883H47.7116V484.604Z" fill="#292A2E"/>
<path d="M185.905 317.801H23.937V484.324H185.905V317.801Z" fill="#F4F4F4"/>
<path opacity="0.03" d="M185.905 317.801H23.937V484.324H185.905V317.801Z" fill="#292A2E"/>
<path d="M215.92 317.801H53.952V484.324H215.92V317.801Z" fill="#F4F4F4"/>
<path opacity="0.05" d="M204.549 484.604H192.145V492.883H204.549V484.604Z" fill="#292A2E"/>
<path opacity="0.05" d="M77.7273 484.604H65.3228V492.883H77.7273V484.604Z" fill="#292A2E"/>
<path opacity="0.7" d="M209.841 325.601H60.0325V357.593H209.841V325.601Z" fill="white"/>
<path opacity="0.7" d="M209.841 365.423H60.0325V397.416H209.841V365.423Z" fill="white"/>
<path opacity="0.7" d="M209.841 405.246H60.0325V437.238H209.841V405.246Z" fill="white"/>
<path opacity="0.05" d="M134.937 346.073C137.411 346.073 139.416 344.069 139.416 341.597C139.416 339.125 137.411 337.121 134.937 337.121C132.463 337.121 130.458 339.125 130.458 341.597C130.458 344.069 132.463 346.073 134.937 346.073Z" fill="#292A2E"/>
<path opacity="0.05" d="M134.937 385.896C137.411 385.896 139.416 383.892 139.416 381.42C139.416 378.947 137.411 376.943 134.937 376.943C132.463 376.943 130.458 378.947 130.458 381.42C130.458 383.892 132.463 385.896 134.937 385.896Z" fill="#292A2E"/>
<path opacity="0.05" d="M134.937 425.719C137.411 425.719 139.416 423.715 139.416 421.243C139.416 418.771 137.411 416.766 134.937 416.766C132.463 416.766 130.458 418.771 130.458 421.243C130.458 423.715 132.463 425.719 134.937 425.719Z" fill="#292A2E"/>
<path opacity="0.7" d="M209.841 445.966H60.0325V477.958H209.841V445.966Z" fill="white"/>
<path opacity="0.05" d="M134.937 466.439C137.41 466.439 139.416 464.434 139.416 461.962C139.416 459.49 137.41 457.486 134.937 457.486C132.463 457.486 130.458 459.49 130.458 461.962C130.458 464.434 132.463 466.439 134.937 466.439Z" fill="#292A2E"/>
<path d="M81.4327 152.521H177.206L177.206 27.938L81.4327 27.938L81.4327 152.521Z" fill="#F4F4F4"/>
<path d="M81.4334 27.938H78.3265V152.521H81.4334V27.938Z" fill="#F4F4F4"/>
<path opacity="0.05" d="M81.4334 27.938H78.3265V152.521H81.4334V27.938Z" fill="#292A2E"/>
<path opacity="0.05" d="M98.8798 129.826H159.76V50.6318L98.8798 50.6318V129.826Z" fill="#292A2E"/>
<path opacity="0.03" d="M98.8799 129.826H102.053L102.053 50.6318H98.8799L98.8799 129.826Z" fill="#292A2E"/>
<path d="M3.10638 262.155H81.4328L81.4328 183.157H3.10638L3.10638 262.155Z" fill="#F4F4F4"/>
<path opacity="0.05" d="M17.3746 247.764H67.1645V197.548H17.3746L17.3746 247.764Z" fill="#292A2E"/>
<path d="M3.10695 183.158H0V262.155H3.10695V183.158Z" fill="#F4F4F4"/>
<path opacity="0.05" d="M3.10695 183.158H0V262.155H3.10695V183.158Z" fill="#292A2E"/>
<path opacity="0.03" d="M17.3746 247.764H20.5473L20.5473 197.548H17.3746L17.3746 247.764Z" fill="#292A2E"/>
<path d="M480.73 27.6411H280.868V227.38H480.73V27.6411Z" fill="#F4F4F4"/>
<path d="M280.868 27.6411H278.577V227.38H280.868V27.6411Z" fill="#F4F4F4"/>
<path opacity="0.05" d="M280.868 27.6411H278.577V227.38H280.868V27.6411Z" fill="#292A2E"/>
<path opacity="0.05" d="M329.285 165.278V113.019H372.119V143.381H438.468V197.138H466.668V227.38H438.468H433.036H290.482V165.278H329.285Z" fill="#292A2E"/>
<path opacity="0.34" d="M366.62 118.693H335.429V124.367H366.62V118.693Z" fill="#FFFFFA"/>
<path opacity="0.34" d="M366.62 130.451H335.429V136.125H366.62V130.451Z" fill="#FFFFFA"/>
<path opacity="0.34" d="M366.62 142.209H335.429V147.883H366.62V142.209Z" fill="#FFFFFA"/>
<path opacity="0.34" d="M301.762 170.785H296.013V176.459H301.762V170.785Z" fill="#FFFFFA"/>
<path opacity="0.34" d="M301.762 182.543H296.013V188.217H301.762V182.543Z" fill="#FFFFFA"/>
<path opacity="0.34" d="M301.762 194.301H296.013V199.975H301.762V194.301Z" fill="#FFFFFA"/>
<path opacity="0.34" d="M312.398 170.785H306.649V176.459H312.398V170.785Z" fill="#FFFFFA"/>
<path opacity="0.34" d="M312.398 182.543H306.649V188.217H312.398V182.543Z" fill="#FFFFFA"/>
<path opacity="0.34" d="M312.398 194.301H306.649V199.975H312.398V194.301Z" fill="#FFFFFA"/>
<path opacity="0.34" d="M322.746 170.785H316.997V176.459H322.746V170.785Z" fill="#FFFFFA"/>
<path opacity="0.34" d="M322.746 182.543H316.997V188.217H322.746V182.543Z" fill="#FFFFFA"/>
<path opacity="0.34" d="M322.746 194.301H316.997V199.975H322.746V194.301Z" fill="#FFFFFA"/>
<path d="M280.868 126.39H321.083V27.6406H324.409V126.39H433.036V27.6406H436.362V126.39H480.73V129.714H436.362V227.38H433.036V129.714H324.409V227.38H321.083V129.714H280.868V126.39Z" fill="white"/>
<path d="M488.692 227.139H272.905V233.782H488.692V227.139Z" fill="#F4F4F4"/>
<path opacity="0.1" d="M488.692 227.139H272.905V233.782H488.692V227.139Z" fill="#292A2E"/>
<path opacity="0.1" d="M272.905 227.139H269.79V233.782H272.905V227.139Z" fill="#292A2E"/>
<path opacity="0.1" d="M272.905 227.139H269.79V233.782H272.905V227.139Z" fill="#292A2E"/>
<path d="M446.458 261.357C415.86 261.357 391.056 269.7 391.056 279.99V302.173H501.861V279.99C501.861 269.7 477.056 261.357 446.458 261.357Z" fill="#367CFF"/>
<path opacity="0.49" d="M446.458 261.357C415.86 261.357 391.056 269.7 391.056 279.99V302.173H501.861V279.99C501.861 269.7 477.056 261.357 446.458 261.357Z" fill="white"/>
<path opacity="0.49" d="M486.768 279.993V302.172H391.054V279.993C391.054 270.561 411.886 262.767 438.911 261.535C465.939 262.767 486.768 270.561 486.768 279.993Z" fill="white"/>
<path d="M501.861 517.717H503.72L501.861 300.206L500.017 302.064L501.332 454.001L435.694 455.116L434.37 302.048L432.526 302.064L433.851 455.147L394.228 455.82L392.898 302.048L391.054 300.222L392.914 517.717L394.741 517.701L394.244 457.663L433.867 456.99L434.37 517.717L436.213 517.701L435.71 456.959L501.348 455.844L501.861 517.717Z" fill="#292A2E"/>
<path d="M334.747 485.152C334.747 485.152 331.452 502.22 315.461 503.172C299.47 504.123 302.937 516.854 302.937 516.854H364.047V486.342L334.747 485.152Z" fill="#367CFF"/>
<path d="M369.613 433.813C369.613 433.813 374.195 450.583 360.267 458.491C346.338 466.399 355.073 476.293 355.073 476.293L409.906 449.333L396.429 421.954L369.613 433.813Z" fill="#367CFF"/>
<path d="M363.811 444.896L322.494 289.099C319.36 271.887 324.078 264.427 331.348 257.179C344.122 244.447 397.05 217.346 397.05 217.346L460.547 217.173C477.384 217.173 493.935 233.765 493.935 250.591C493.935 267.417 476.819 281.687 459.982 281.687L381.791 289.486L402.986 432.14L363.811 444.896Z" fill="#262626"/>
<path d="M402.986 432.138L394.641 375.978L352.368 401.749L363.811 444.896L402.986 432.138Z" fill="#0C0C0C"/>
<path d="M412.568 248.874C412.568 248.874 385.876 254.819 359.439 281.238C343.411 297.257 344.726 326.244 347.13 381.997L373.386 343.239L402.185 291.332L412.568 248.874Z" fill="#0C0C0C"/>
<path d="M504.989 217.156L461.866 216.953L461.85 217.52H448.793C448.793 217.52 416.084 247.598 389.752 266.552C370.598 280.337 358.913 293.481 357.902 307.806C355.437 342.726 327.638 491.655 327.638 491.655L369.475 497.987L406.19 320.005C406.19 320.005 463.597 293.554 476.876 284.351C489.38 275.684 498.213 272.333 502.351 262.874C509.497 246.538 504.989 217.156 504.989 217.156Z" fill="#262626"/>
<path d="M456.61 228.011L386.655 228.937L425.896 252.36L458.549 235.508C459.336 235.086 459.958 234.412 460.316 233.595C460.674 232.777 460.747 231.863 460.524 230.999C460.3 230.135 459.793 229.371 459.084 228.829C458.374 228.287 457.503 227.999 456.61 228.011Z" fill="#292A2E"/>
<path opacity="0.2" d="M456.61 228.011L386.655 228.937L425.896 252.36L458.549 235.508C459.336 235.086 459.958 234.412 460.316 233.595C460.674 232.777 460.747 231.863 460.524 230.999C460.3 230.135 459.793 229.371 459.084 228.829C458.374 228.287 457.503 227.999 456.61 228.011Z" fill="white"/>
<path d="M387.055 102.587L367.268 166.66L327.635 218.518L350.787 245.078L397.938 192.485C400.11 190.769 401.809 188.529 402.875 185.975L403.61 184.198L430.845 118.343L387.055 102.587Z" fill="#367CFF"/>
<path d="M417.537 34.5755C417.537 34.5755 409.563 28.557 407.588 14.7145C406.058 3.99615 415.952 10.9401 415.952 10.9401C415.952 10.9401 414.926 3.2113 420.561 3.97834C426.196 4.74539 429.348 12.8642 429.348 12.8642" fill="#0C0C0C"/>
<path d="M449.682 4.88306C449.682 4.88306 477.639 7.87816 467.532 45.738L465.059 45.9038L460.037 46.2403" fill="#0C0C0C"/>
<path d="M422.219 85.2767C422.342 85.2607 423.706 107.877 449.995 105.907C468.197 104.544 474.687 85.2447 475.104 85.2447C473.142 84.8277 470.716 84.1952 469.753 83.9784C467.652 83.4912 465.749 82.3764 464.298 80.7821C462.847 79.1879 461.916 77.1899 461.629 75.0539C461.097 71.8481 461.998 55.446 461.722 52.2021L433.785 58.4343C434.176 65.2855 436.908 81.1675 427.333 83.9784C425.738 84.4427 424.021 84.8726 422.219 85.2767Z" fill="#E98862"/>
<path opacity="0.52" d="M433.393 77.4878C433.831 76.0781 434.113 74.6248 434.234 73.1539C434.541 69.7973 434.479 66.4173 434.05 63.0742C439.729 62.3094 445.079 59.9678 449.493 56.3157C450.012 58.2305 452.865 66.5974 452.074 68.414C450.582 71.8531 443.565 77.4878 433.393 77.4878Z" fill="#0C0C0C"/>
<path d="M439.16 73.0112C450.182 72.0231 463.375 65.0632 463.566 50.1098L463.737 36.6174C463.928 21.6645 456.223 9.44277 442.135 9.26345C428.048 9.08474 417.363 21.0725 417.173 36.0259L417.097 41.999C417.107 44.0504 417.256 46.0987 417.545 48.1298C418.267 53.5034 419.388 61.6732 423.037 67.1997C426.483 72.4174 432.118 73.6419 439.16 73.0112Z" fill="#E98862"/>
<path opacity="0.52" d="M434.046 59.3433C431.771 59.4463 429.504 59.0136 427.427 58.0801C427.342 58.0418 427.276 57.9718 427.242 57.8852C427.208 57.7986 427.21 57.7021 427.246 57.6166C427.283 57.5311 427.351 57.4632 427.437 57.4276C427.523 57.392 427.62 57.3914 427.706 57.426C432.18 59.3329 436.243 59.0541 439.454 56.6191C439.519 56.5679 439.586 56.5201 439.656 56.476C439.737 56.438 439.829 56.4317 439.914 56.4585C439.999 56.4852 440.071 56.5429 440.116 56.6202C440.16 56.6975 440.174 56.7888 440.154 56.8758C440.135 56.9628 440.083 57.0393 440.01 57.0901C439.984 57.1061 439.942 57.1386 439.887 57.1828C438.199 58.4681 436.165 59.2204 434.046 59.3433Z" fill="#0C0C0C"/>
<path opacity="0.52" d="M434.15 62.7118C433.739 62.7371 433.327 62.7272 432.917 62.6823C432.871 62.6774 432.826 62.6634 432.785 62.6411C432.744 62.6188 432.708 62.5887 432.678 62.5524C432.649 62.5161 432.627 62.4744 432.614 62.4297C432.601 62.385 432.596 62.3381 432.601 62.2917C432.606 62.2454 432.62 62.2004 432.643 62.1594C432.665 62.1185 432.695 62.0823 432.731 62.053C432.768 62.0237 432.809 62.0018 432.854 61.9886C432.899 61.9754 432.946 61.9711 432.992 61.9761C435.454 62.2371 436.629 61.1101 436.679 61.0616C436.746 60.9949 436.836 60.9574 436.93 60.9573C437.025 60.9572 437.115 60.9945 437.182 61.061C437.249 61.1275 437.286 61.2179 437.286 61.3121C437.286 61.4063 437.249 61.4967 437.183 61.5634C436.335 62.2848 435.263 62.6906 434.15 62.7118Z" fill="#0C0C0C"/>
<path d="M421.825 44.8744C422.784 44.8744 423.561 44.0979 423.561 43.1401C423.561 42.1822 422.784 41.4058 421.825 41.4058C420.867 41.4058 420.09 42.1822 420.09 43.1401C420.09 44.0979 420.867 44.8744 421.825 44.8744Z" fill="#0C0C0C"/>
<path d="M438.779 43.8114C439.737 43.8114 440.514 43.0349 440.514 42.0771C440.514 41.1192 439.737 40.3428 438.779 40.3428C437.821 40.3428 437.044 41.1192 437.044 42.0771C437.044 43.0349 437.821 43.8114 438.779 43.8114Z" fill="#0C0C0C"/>
<path d="M462.633 54.6574C466.914 54.7121 470.443 50.1786 470.499 45.9C470.555 41.6213 467.112 39.2176 462.831 39.1636L460.588 42.0021L458.953 54.6108L462.633 54.6574Z" fill="#E98862"/>
<path d="M458.373 47.7792C458.373 47.7792 456.928 26.6206 450.508 25.3137C446.232 24.4435 435.863 30.5049 426.259 28.6742C422.058 27.8759 418.069 28.9125 417.663 30.8961C417.502 31.6816 414.885 20.3945 421.465 11.8311C426.703 5.01431 443.846 3.08594 451.646 5.32137C473.242 11.513 463.712 40.0915 463.712 40.0915L462.749 47.3861L458.373 47.7792Z" fill="#0C0C0C"/>
<g opacity="0.52">
<path d="M431.458 54.3502C431.449 54.3508 431.44 54.3508 431.431 54.3502C430.051 54.3367 427.738 54.1592 427.747 53.1281C427.757 52.2732 430.191 43.0718 430.468 42.0253C430.492 41.9352 430.551 41.8583 430.632 41.8115C430.712 41.7647 430.808 41.7518 430.898 41.7756C430.988 41.7995 431.065 41.8582 431.112 41.9387C431.159 42.0193 431.172 42.1151 431.148 42.2052C430.066 46.2806 428.456 52.5545 428.45 53.1367C428.584 53.3824 430.009 53.6354 431.437 53.6501C431.527 53.652 431.613 53.6885 431.677 53.7519C431.741 53.8153 431.778 53.9008 431.781 53.9909C431.783 54.0809 431.751 54.1685 431.691 54.2356C431.631 54.3027 431.548 54.3442 431.458 54.3515V54.3502Z" fill="#0C0C0C"/>
</g>
<path d="M426.751 33.7364C425.301 33.3375 423.77 33.3375 422.32 33.7364C421.608 33.9278 420.929 34.2251 420.305 34.6183C419.688 35.0033 419.122 35.4647 418.621 35.9915C418.529 36.0853 418.476 36.2111 418.474 36.3428C418.472 36.4744 418.521 36.6017 418.611 36.6982C418.701 36.7947 418.824 36.853 418.955 36.8609C419.087 36.8688 419.216 36.8258 419.317 36.7407L419.348 36.7137C419.812 36.2843 420.328 35.9151 420.885 35.615C421.43 35.3162 422.018 35.1017 422.628 34.9788C423.829 34.7272 425.074 34.7969 426.239 35.1808L426.288 35.198C426.479 35.2594 426.686 35.2441 426.865 35.1553C427.045 35.0665 427.183 34.9112 427.249 34.7224C427.316 34.5336 427.307 34.3263 427.223 34.1444C427.139 33.9626 426.987 33.8206 426.8 33.7487L426.751 33.7364Z" fill="#0C0C0C"/>
<path d="M437.018 34.6066C438.121 34.0709 439.347 33.8359 440.57 33.9256C441.191 33.9658 441.802 34.1 442.382 34.3235C442.973 34.5474 443.533 34.8445 444.05 35.2079L444.083 35.23C444.194 35.3014 444.328 35.3272 444.457 35.3022C444.587 35.2771 444.702 35.203 444.778 35.0953C444.854 34.9876 444.886 34.8547 444.866 34.7243C444.847 34.5939 444.778 34.4761 444.673 34.3954C444.107 33.94 443.484 33.5581 442.822 33.2586C442.151 32.9521 441.438 32.7479 440.707 32.6531C439.217 32.4501 437.7 32.6532 436.315 33.2408C436.223 33.2811 436.139 33.3393 436.068 33.4121C435.998 33.4848 435.943 33.5707 435.906 33.6648C435.869 33.7589 435.85 33.8594 435.852 33.9605C435.854 34.0616 435.876 34.1614 435.916 34.2541C435.998 34.4414 436.15 34.5887 436.34 34.6636C436.434 34.7006 436.535 34.7188 436.636 34.717C436.737 34.7153 436.837 34.6936 436.93 34.6533L436.973 34.633L437.018 34.6066Z" fill="#0C0C0C"/>
<path d="M436.315 11.9275C437.289 7.26612 435.51 2.95093 432.341 2.28925C429.172 1.62757 425.813 4.86997 424.839 9.53133C423.864 14.1927 425.643 18.5078 428.812 19.1695C431.981 19.8312 435.34 16.5888 436.315 11.9275Z" fill="#0C0C0C"/>
<path d="M389.553 134.986C390.381 144.709 396.251 205.371 397.05 217.348H504.941C505.561 206.546 508.344 159.313 510.696 138.186C512.94 118.03 516.085 108.857 513.5 102.593C508.942 91.5452 494.432 86.612 484.607 85.2824C478.607 84.4705 469.582 83.8889 469.582 83.8889C469.582 83.8889 468.819 99.3361 450.6 100.196C425.798 101.363 427.455 83.8889 427.332 83.8889C423.314 83.8889 401.444 86.8091 395.975 90.371C388.251 95.402 385.968 102.259 385.878 108.558C385.775 115.813 388.615 123.957 389.553 134.986Z" fill="#367CFF"/>
<path d="M395.024 193.442C394.947 193.442 394.872 193.414 394.815 193.362C394.758 193.31 394.723 193.239 394.716 193.162L390.629 146.439C390.621 146.358 390.647 146.277 390.699 146.215C390.751 146.152 390.826 146.113 390.908 146.106C390.948 146.102 390.989 146.106 391.027 146.118C391.066 146.13 391.102 146.149 391.133 146.175C391.164 146.201 391.19 146.233 391.208 146.27C391.227 146.306 391.238 146.345 391.241 146.386L395.328 193.108C395.335 193.189 395.31 193.27 395.258 193.332C395.205 193.394 395.13 193.433 395.049 193.441C395.041 193.442 395.032 193.442 395.024 193.442Z" fill="#0C0C0C"/>
<path d="M402.847 220.581L417.662 208.57L415.168 209.274C414.359 209.485 413.5 209.382 412.764 208.984C412.028 208.586 411.471 207.924 411.205 207.132C411.082 206.718 411.044 206.284 411.095 205.855C411.145 205.426 411.283 205.012 411.498 204.638C411.714 204.265 412.004 203.938 412.35 203.68C412.696 203.422 413.091 203.237 413.511 203.136L444.633 195.571L447.312 205.478C448.143 208.555 448.037 211.81 447.006 214.826C445.975 217.842 444.066 220.482 441.524 222.407L429.992 231.104C429.402 231.567 428.67 231.812 427.92 231.797C427.169 231.783 426.447 231.51 425.875 231.025C425.367 230.576 425.016 229.976 424.874 229.313C424.732 228.65 424.805 227.959 425.084 227.341C425.034 227.326 424.989 227.298 424.954 227.259C424.923 227.222 424.901 227.178 424.892 227.13C424.882 227.083 424.884 227.034 424.898 226.987L422.774 228.595C422.117 229.113 421.288 229.363 420.455 229.294C419.621 229.225 418.845 228.842 418.283 228.222C417.801 227.652 417.535 226.929 417.533 226.181C417.531 225.434 417.792 224.71 418.272 224.136C418.238 224.131 418.206 224.12 418.176 224.103L417.304 224.764C416.714 225.227 415.981 225.472 415.231 225.458C414.481 225.443 413.759 225.171 413.187 224.686C412.571 224.14 412.19 223.378 412.124 222.558C412.058 221.739 412.313 220.925 412.834 220.289C412.822 220.271 412.811 220.252 412.803 220.232L406.634 225.234C406.328 225.482 405.976 225.667 405.598 225.779C405.221 225.892 404.825 225.928 404.433 225.887C404.042 225.847 403.662 225.729 403.316 225.542C402.969 225.354 402.663 225.1 402.415 224.795C402.167 224.489 401.982 224.138 401.87 223.76C401.757 223.383 401.721 222.987 401.761 222.596C401.802 222.204 401.92 221.825 402.107 221.479C402.295 221.133 402.549 220.827 402.855 220.579L402.847 220.581Z" fill="#E98862"/>
<path opacity="0.2" d="M413.172 220.411C413.205 220.399 413.235 220.382 413.262 220.36L419.198 215.431C419.228 215.406 419.253 215.376 419.271 215.341C419.289 215.306 419.301 215.268 419.304 215.229C419.308 215.19 419.304 215.151 419.292 215.113C419.28 215.076 419.261 215.041 419.236 215.011C419.211 214.981 419.18 214.956 419.146 214.938C419.111 214.92 419.073 214.908 419.034 214.905C418.995 214.901 418.955 214.905 418.918 214.917C418.881 214.929 418.846 214.948 418.816 214.973L412.88 219.9C412.826 219.945 412.79 220.008 412.777 220.077C412.765 220.146 412.777 220.217 412.812 220.278C412.847 220.339 412.902 220.386 412.968 220.41C413.034 220.434 413.106 220.434 413.172 220.411Z" fill="#0A0A0A"/>
<path opacity="0.2" d="M418.403 224.133C418.435 224.122 418.465 224.105 418.491 224.083L423.187 220.246C423.248 220.196 423.287 220.124 423.295 220.045C423.303 219.966 423.279 219.887 423.229 219.826C423.179 219.765 423.106 219.726 423.028 219.718C422.949 219.71 422.87 219.734 422.809 219.784L418.113 223.621C418.058 223.665 418.021 223.728 418.008 223.797C417.995 223.866 418.007 223.938 418.042 223.999C418.076 224.061 418.132 224.108 418.198 224.132C418.264 224.157 418.337 224.157 418.403 224.133Z" fill="#0A0A0A"/>
<path opacity="0.2" d="M425.276 227.35C425.31 227.338 425.342 227.319 425.37 227.296L427.545 225.432C427.574 225.406 427.599 225.375 427.617 225.34C427.634 225.305 427.645 225.267 427.648 225.228C427.651 225.189 427.646 225.15 427.634 225.113C427.622 225.076 427.603 225.041 427.577 225.012C427.552 224.982 427.52 224.957 427.485 224.94C427.451 224.922 427.412 224.911 427.373 224.908C427.334 224.905 427.295 224.91 427.258 224.922C427.221 224.934 427.186 224.954 427.156 224.979L424.981 226.843C424.928 226.889 424.893 226.951 424.882 227.02C424.87 227.088 424.883 227.159 424.918 227.219C424.953 227.279 425.008 227.325 425.073 227.349C425.139 227.373 425.21 227.374 425.276 227.35Z" fill="#0A0A0A"/>
<path d="M533.781 191.16L533.668 190.656L513.974 103.608L475.015 112.41L490.385 180.357L428.813 195.477L436.39 230.199L518.443 214.558C518.628 214.522 518.901 214.467 519.088 214.424C521.581 213.861 523.939 212.812 526.027 211.338C528.114 209.864 529.891 207.994 531.256 205.834C532.62 203.673 533.545 201.266 533.979 198.748C534.412 196.23 534.345 193.652 533.781 191.16Z" fill="#367CFF"/>
<path d="M428.512 195.543C428.495 195.465 428.51 195.384 428.552 195.316C428.595 195.249 428.662 195.201 428.739 195.182L490.038 180.136L480.071 136.142C480.06 136.102 480.057 136.06 480.062 136.019C480.068 135.977 480.081 135.938 480.103 135.902C480.124 135.866 480.152 135.835 480.186 135.811C480.22 135.786 480.258 135.769 480.299 135.76C480.339 135.75 480.381 135.749 480.422 135.757C480.463 135.765 480.502 135.78 480.537 135.803C480.572 135.826 480.601 135.856 480.624 135.891C480.647 135.926 480.662 135.965 480.669 136.006L490.703 180.294C490.722 180.373 490.708 180.456 490.666 180.525C490.624 180.594 490.556 180.643 490.477 180.662L429.174 195.709C429.174 195.709 429.585 197.499 429.701 198.104C429.71 198.182 429.687 198.261 429.638 198.324C429.589 198.386 429.517 198.426 429.438 198.435C429.36 198.444 429.281 198.421 429.218 198.372C429.156 198.323 429.116 198.251 429.107 198.172C428.966 197.51 428.512 195.543 428.512 195.543Z" fill="#0C0C0C"/>
<path d="M430.915 244.028L407.241 171.301C406.825 170.023 406.015 168.91 404.927 168.12C403.839 167.33 402.528 166.905 401.183 166.905H304.735C303.729 166.905 302.738 167.143 301.842 167.599C300.946 168.055 300.171 168.717 299.581 169.53C298.99 170.343 298.6 171.284 298.443 172.276C298.286 173.269 298.366 174.284 298.677 175.24L322.352 247.967C322.768 249.245 323.578 250.358 324.666 251.148C325.754 251.938 327.064 252.363 328.409 252.363H424.857C425.863 252.363 426.854 252.125 427.75 251.669C428.645 251.213 429.42 250.551 430.011 249.738C430.602 248.925 430.992 247.984 431.149 246.992C431.306 245.999 431.226 244.984 430.915 244.028Z" fill="#292A2E"/>
<path opacity="0.2" d="M430.915 244.028L407.241 171.301C406.825 170.023 406.015 168.91 404.927 168.12C403.839 167.33 402.528 166.905 401.183 166.905H304.735C303.729 166.905 302.738 167.143 301.842 167.599C300.946 168.055 300.171 168.717 299.581 169.53C298.99 170.343 298.6 171.284 298.443 172.276C298.286 173.269 298.366 174.284 298.677 175.24L322.352 247.967C322.768 249.245 323.578 250.358 324.666 251.148C325.754 251.938 327.064 252.363 328.409 252.363H424.857C425.863 252.363 426.854 252.125 427.75 251.669C428.645 251.213 429.42 250.551 430.011 249.738C430.602 248.925 430.992 247.984 431.149 246.992C431.306 245.999 431.226 244.984 430.915 244.028Z" fill="white"/>
<path d="M362.018 219.743C367.604 219.743 372.133 215.217 372.133 209.634C372.133 204.051 367.604 199.525 362.018 199.525C356.431 199.525 351.902 204.051 351.902 209.634C351.902 215.217 356.431 219.743 362.018 219.743Z" fill="white"/>
<path d="M266.792 7.68506H75.365C66.4966 7.68506 59.3073 14.8699 59.3073 23.7329V255.978C59.3073 264.841 66.4966 272.026 75.365 272.026H266.792C275.661 272.026 282.85 264.841 282.85 255.978V23.7329C282.85 14.8699 275.661 7.68506 266.792 7.68506Z" fill="#292A2E"/>
<path d="M273.868 0.614258H82.4405C73.5721 0.614258 66.3828 7.7991 66.3828 16.6621V248.907C66.3828 257.77 73.5721 264.955 82.4405 264.955H273.868C282.736 264.955 289.925 257.77 289.925 248.907V16.6621C289.925 7.7991 282.736 0.614258 273.868 0.614258Z" fill="white"/>
<path d="M273.868 265.569H82.4406C78.0202 265.564 73.7823 263.807 70.6567 260.683C67.5311 257.559 65.7731 253.324 65.7683 248.906V16.6619C65.7732 12.2444 67.5313 8.00921 70.6569 4.88555C73.7825 1.76189 78.0203 0.00487657 82.4406 0L273.868 0C278.288 0.00503909 282.526 1.76212 285.651 4.88577C288.776 8.00941 290.535 12.2445 290.539 16.6619V248.906C290.535 253.324 288.777 257.559 285.651 260.683C282.526 263.807 278.288 265.564 273.868 265.569ZM82.4406 1.22826C78.3462 1.23281 74.4208 2.86031 71.5256 5.7537C68.6304 8.64709 67.0019 12.5701 66.9974 16.6619V248.906C67.0019 252.998 68.6304 256.921 71.5256 259.815C74.4208 262.708 78.3462 264.335 82.4406 264.34H273.868C277.962 264.335 281.887 262.708 284.783 259.815C287.678 256.921 289.306 252.998 289.31 248.906V16.6619C289.306 12.5701 287.678 8.64714 284.783 5.75374C281.887 2.86033 277.962 1.23281 273.868 1.22826H82.4406Z" fill="#292A2E"/>
<path d="M63.8044 298.186C85.8225 298.186 103.672 280.348 103.672 258.344C103.672 236.339 85.8225 218.501 63.8044 218.501C41.7862 218.501 23.9369 236.339 23.9369 258.344C23.9369 280.348 41.7862 298.186 63.8044 298.186Z" fill="#292A2E"/>
<path d="M55.5281 253.144C55.0033 253.144 54.4999 252.936 54.1288 252.565C53.7576 252.194 53.549 251.691 53.5488 251.166V241.592C53.5488 236.297 58.1496 231.989 63.8043 231.989C69.459 231.989 74.0599 236.297 74.0599 241.592V250.509C74.0645 250.772 74.0167 251.033 73.9193 251.277C73.822 251.521 73.6769 251.743 73.4927 251.931C73.3085 252.118 73.0888 252.267 72.8463 252.368C72.6039 252.47 72.3437 252.522 72.0808 252.522C71.818 252.522 71.5577 252.47 71.3153 252.368C71.0729 252.267 70.8532 252.118 70.669 251.931C70.4847 251.743 70.3397 251.521 70.2423 251.277C70.145 251.033 70.0972 250.772 70.1018 250.509V241.592C70.1018 238.478 67.2751 235.945 63.8043 235.945C60.3336 235.945 57.5069 238.478 57.5069 241.592V251.168C57.5065 251.692 57.2979 252.195 56.9269 252.565C56.5558 252.936 56.0527 253.144 55.5281 253.144Z" fill="white"/>
<path d="M76.43 249.511H51.1786C49.706 249.511 48.5123 250.704 48.5123 252.176V275.946C48.5123 277.418 49.706 278.611 51.1786 278.611H76.43C77.9026 278.611 79.0963 277.418 79.0963 275.946V252.176C79.0963 250.704 77.9026 249.511 76.43 249.511Z" fill="white"/>
<path d="M61.2904 261.708C61.2901 262.179 61.4225 262.641 61.6724 263.041C61.9224 263.441 62.2797 263.763 62.7037 263.969V267.83C62.7037 268.121 62.8194 268.4 63.0252 268.605C63.231 268.811 63.5102 268.927 63.8012 268.927C64.0923 268.927 64.3715 268.811 64.5773 268.605C64.7831 268.4 64.8988 268.121 64.8988 267.83V263.969C65.3026 263.773 65.6467 263.473 65.8951 263.099C66.1435 262.726 66.2873 262.292 66.3115 261.844C66.3357 261.396 66.2395 260.95 66.0328 260.552C65.826 260.154 65.5164 259.818 65.1359 259.58C64.7555 259.342 64.3182 259.21 63.8695 259.197C63.4208 259.185 62.9769 259.293 62.5841 259.511C62.1913 259.728 61.8639 260.046 61.6359 260.433C61.4078 260.819 61.2875 261.259 61.2873 261.708H61.2904Z" fill="#292A2E"/>
<path d="M257.151 132.512H99.157C95.3854 132.512 92.3279 135.568 92.3279 139.337V161.473C92.3279 165.242 95.3854 168.298 99.157 168.298H257.151C260.923 168.298 263.98 165.242 263.98 161.473V139.337C263.98 135.568 260.923 132.512 257.151 132.512Z" fill="white"/>
<path d="M257.151 168.911H99.157C97.1835 168.909 95.2916 168.124 93.8961 166.73C92.5007 165.335 91.7157 163.445 91.7134 161.472V139.337C91.7157 137.365 92.5007 135.474 93.8961 134.079C95.2915 132.685 97.1835 131.9 99.157 131.898H257.151C259.124 131.9 261.016 132.685 262.412 134.079C263.808 135.474 264.593 137.365 264.595 139.337V161.472C264.593 163.445 263.808 165.336 262.412 166.73C261.016 168.125 259.124 168.909 257.151 168.911ZM99.157 133.126C97.5092 133.128 95.9295 133.783 94.7644 134.947C93.5993 136.112 92.9441 137.691 92.9425 139.337V161.472C92.9442 163.119 93.5996 164.698 94.7646 165.862C95.9297 167.026 97.5093 167.681 99.157 167.683H257.151C258.798 167.681 260.378 167.026 261.543 165.862C262.708 164.698 263.364 163.119 263.366 161.472V139.337C263.364 137.69 262.709 136.112 261.543 134.947C260.378 133.783 258.798 133.128 257.151 133.126H99.157Z" fill="#292A2E"/>
<path d="M257.151 183.653H99.157C95.3854 183.653 92.3279 186.709 92.3279 190.478V212.614C92.3279 216.383 95.3854 219.439 99.157 219.439H257.151C260.923 219.439 263.98 216.383 263.98 212.614V190.478C263.98 186.709 260.923 183.653 257.151 183.653Z" fill="white"/>
<path d="M257.151 220.052H99.157C97.1832 220.05 95.291 219.265 93.8955 217.87C92.5 216.475 91.7152 214.584 91.7134 212.611V190.478C91.7157 188.506 92.5007 186.615 93.8961 185.221C95.2916 183.826 97.1835 183.042 99.157 183.039H257.151C259.124 183.041 261.016 183.826 262.412 185.22C263.808 186.615 264.593 188.506 264.595 190.478V212.611C264.593 214.584 263.808 216.475 262.413 217.87C261.017 219.265 259.125 220.05 257.151 220.052ZM99.157 184.268C97.5093 184.269 95.9297 184.924 94.7646 186.089C93.5996 187.253 92.9442 188.832 92.9425 190.478V212.611C92.9442 214.258 93.5996 215.837 94.7646 217.001C95.9297 218.165 97.5093 218.82 99.157 218.822H257.151C258.798 218.82 260.378 218.166 261.543 217.001C262.709 215.837 263.364 214.258 263.366 212.611V190.478C263.364 188.832 262.709 187.253 261.543 186.088C260.378 184.924 258.798 184.269 257.151 184.268H99.157Z" fill="#292A2E"/>
<path d="M178.154 105.894C198.413 105.894 214.836 89.4812 214.836 69.2345C214.836 48.9879 198.413 32.5747 178.154 32.5747C157.895 32.5747 141.471 48.9879 141.471 69.2345C141.471 89.4812 157.895 105.894 178.154 105.894Z" fill="white"/>
<path d="M178.154 106.508C170.777 106.508 163.566 104.322 157.433 100.227C151.299 96.1308 146.519 90.3094 143.696 83.4985C140.873 76.6876 140.134 69.193 141.574 61.9626C143.013 54.7322 146.565 48.0906 151.781 42.8777C156.997 37.6649 163.643 34.1149 170.878 32.6767C178.112 31.2385 185.612 31.9766 192.427 34.7978C199.242 37.619 205.067 42.3964 209.165 48.5261C213.263 54.6558 215.451 61.8623 215.451 69.2344C215.44 79.1167 211.507 88.591 204.515 95.5788C197.522 102.567 188.042 106.497 178.154 106.508ZM178.154 33.1887C171.02 33.1887 164.047 35.3028 158.116 39.2635C152.184 43.2243 147.561 48.8538 144.831 55.4403C142.101 62.0268 141.387 69.2744 142.779 76.2666C144.171 83.2587 147.606 89.6815 152.65 94.7225C157.694 99.7636 164.121 103.197 171.117 104.587C178.114 105.978 185.366 105.264 191.956 102.536C198.547 99.808 204.18 95.188 208.143 89.2603C212.106 83.3326 214.222 76.3636 214.222 69.2344C214.211 59.6778 210.408 50.5157 203.646 43.7581C196.884 37.0006 187.716 33.1995 178.154 33.1887Z" fill="#292A2E"/>
<path opacity="0.5" d="M214.021 69.2345C214.032 77.7197 211.019 85.9315 205.523 92.3988C202.138 88.4546 197.939 85.2889 193.214 83.1188C188.49 80.9487 183.351 79.8256 178.152 79.8265C172.952 79.8275 167.814 80.9524 163.09 83.1242C158.367 85.296 154.169 88.4632 150.785 92.4086C147.053 88.0063 144.439 82.7686 143.166 77.1406C141.892 71.5126 141.997 65.6607 143.472 60.0819C144.946 54.5032 147.746 49.3625 151.634 45.0967C155.522 40.8309 160.382 37.5661 165.803 35.5796C171.224 33.5931 177.044 32.9437 182.77 33.6865C188.495 34.4293 193.957 36.5423 198.69 39.8461C203.424 43.1499 207.289 47.5469 209.958 52.6633C212.627 57.7797 214.021 63.4645 214.021 69.2345Z" fill="#367CFF"/>
<path d="M205.523 92.3987C202.156 96.3717 197.964 99.5642 193.238 101.754C188.512 103.944 183.366 105.079 178.156 105.08C172.947 105.081 167.8 103.948 163.073 101.76C158.346 99.5713 154.153 96.3803 150.785 92.4085C154.169 88.4631 158.367 85.2959 163.09 83.1241C167.814 80.9523 172.952 79.8273 178.152 79.8264C183.351 79.8255 188.49 80.9486 193.214 83.1187C197.939 85.2888 202.138 88.4545 205.523 92.3987Z" fill="white"/>
<path d="M178.155 73.1384C186.162 73.1384 192.653 66.6514 192.653 58.6493C192.653 50.6472 186.162 44.1602 178.155 44.1602C170.147 44.1602 163.656 50.6472 163.656 58.6493C163.656 66.6514 170.147 73.1384 178.155 73.1384Z" fill="white"/>
<g opacity="0.4">
<path d="M105.627 205.904C108.035 205.904 109.988 203.953 109.988 201.546C109.988 199.139 108.035 197.188 105.627 197.188C103.219 197.188 101.267 199.139 101.267 201.546C101.267 203.953 103.219 205.904 105.627 205.904Z" fill="#292A2E"/>
<path d="M119.267 205.904C121.676 205.904 123.628 203.953 123.628 201.546C123.628 199.139 121.676 197.188 119.267 197.188C116.859 197.188 114.907 199.139 114.907 201.546C114.907 203.953 116.859 205.904 119.267 205.904Z" fill="#292A2E"/>
<path d="M132.908 205.904C135.316 205.904 137.268 203.953 137.268 201.546C137.268 199.139 135.316 197.188 132.908 197.188C130.499 197.188 128.547 199.139 128.547 201.546C128.547 203.953 130.499 205.904 132.908 205.904Z" fill="#292A2E"/>
<path d="M146.548 205.904C148.956 205.904 150.908 203.953 150.908 201.546C150.908 199.139 148.956 197.188 146.548 197.188C144.139 197.188 142.187 199.139 142.187 201.546C142.187 203.953 144.139 205.904 146.548 205.904Z" fill="#292A2E"/>
<path d="M160.187 205.904C162.596 205.904 164.548 203.953 164.548 201.546C164.548 199.139 162.596 197.188 160.187 197.188C157.779 197.188 155.827 199.139 155.827 201.546C155.827 203.953 157.779 205.904 160.187 205.904Z" fill="#292A2E"/>
<path d="M173.828 205.904C176.236 205.904 178.188 203.953 178.188 201.546C178.188 199.139 176.236 197.188 173.828 197.188C171.419 197.188 169.467 199.139 169.467 201.546C169.467 203.953 171.419 205.904 173.828 205.904Z" fill="#292A2E"/>
<path d="M187.468 205.904C189.876 205.904 191.828 203.953 191.828 201.546C191.828 199.139 189.876 197.188 187.468 197.188C185.06 197.188 183.107 199.139 183.107 201.546C183.107 203.953 185.06 205.904 187.468 205.904Z" fill="#292A2E"/>
</g>
<g opacity="0.3">
<path d="M109.952 150.142V151.616H104.352V150.142H109.952Z" fill="black"/>
<path d="M116.911 150.142V151.616H111.311V150.142H116.911Z" fill="black"/>
<path d="M123.87 150.142V151.616H118.27V150.142H123.87Z" fill="black"/>
<path d="M130.829 150.142V151.616H125.229V150.142H130.829Z" fill="black"/>
<path d="M137.789 150.142V151.616H132.188V150.142H137.789Z" fill="black"/>
<path d="M150.347 158.458C149.102 159.098 147.714 159.41 146.314 159.367C142.596 159.367 139.444 156.647 139.444 152.297C139.444 147.629 142.687 143.596 147.72 143.596C151.665 143.596 154.318 146.359 154.318 150.144C154.318 153.543 152.413 155.537 150.282 155.537C149.375 155.537 148.536 154.923 148.604 153.543H148.513C148.22 154.141 147.765 154.644 147.2 154.996C146.636 155.349 145.983 155.536 145.318 155.537C144.003 155.537 142.869 154.472 142.869 152.682C142.866 151.976 143.004 151.277 143.273 150.624C143.542 149.971 143.938 149.378 144.437 148.879C144.937 148.38 145.53 147.984 146.183 147.715C146.836 147.446 147.536 147.309 148.243 147.312C149.076 147.3 149.902 147.462 150.669 147.788L149.898 151.889C149.558 153.608 149.83 154.407 150.578 154.427C151.734 154.449 153.027 152.908 153.027 150.28C153.027 146.995 151.054 144.638 147.54 144.638C143.844 144.638 140.738 147.561 140.738 152.161C140.738 155.945 143.209 158.279 146.565 158.279C147.755 158.307 148.932 158.034 149.989 157.486L150.347 158.458ZM149.101 148.67C148.732 148.562 148.35 148.508 147.967 148.511C145.971 148.511 144.362 150.392 144.362 152.59C144.362 153.586 144.861 154.309 145.858 154.309C147.173 154.309 148.375 152.633 148.624 151.227L149.101 148.67Z" fill="black"/>
<path d="M161.454 150.142V151.616H155.854V150.142H161.454Z" fill="black"/>
<path d="M168.413 150.142V151.616H162.813V150.142H168.413Z" fill="black"/>
<path d="M175.372 150.142V151.616H169.772V150.142H175.372Z" fill="black"/>
</g>
</svg>
