<svg width="32" height="22" viewBox="0 0 32 22" fill="none" xmlns="http://www.w3.org/2000/svg">
<path d="M31.3332 3.88834C31.152 3.24198 30.799 2.6568 30.3118 2.19501C29.8109 1.71901 29.1969 1.37852 28.5278 1.20567C26.0238 0.545674 15.9918 0.545674 15.9918 0.545674C11.8096 0.498091 7.62842 0.707374 3.47185 1.17234C2.80277 1.35796 2.18993 1.70606 1.68785 2.18567C1.19451 2.66034 0.83718 3.24567 0.650513 3.88701C0.202104 6.30267 -0.0157643 8.75547 -0.000153652 11.2123C-0.0161537 13.667 0.20118 16.119 0.650513 18.5377C0.83318 19.1763 1.18918 19.759 1.68385 20.2297C2.17851 20.7003 2.79451 21.0403 3.47185 21.2203C6.00918 21.879 15.9918 21.879 15.9918 21.879C20.1794 21.9267 24.3659 21.7174 28.5278 21.2523C29.1969 21.0795 29.8109 20.739 30.3118 20.263C30.7989 19.8013 31.1514 19.216 31.3318 18.5697C31.792 16.1549 32.0157 13.7011 31.9998 11.243C32.0345 8.77448 31.811 6.30909 31.3332 3.88701V3.88834ZM12.8025 15.7777V6.64834L21.1492 11.2137L12.8025 15.7777Z" fill="white"/>
</svg>
